%TF.GenerationSoftware,KiCad,Pcbnew,9.0.4-9.0.4-0~ubuntu24.04.1*%
%TF.CreationDate,2025-09-30T20:14:08-06:00*%
%TF.ProjectId,Interfaz_analogica,496e7465-7266-4617-9a5f-616e616c6f67,rev?*%
%TF.SameCoordinates,Original*%
%TF.FileFunction,Legend,Top*%
%TF.FilePolarity,Positive*%
%FSLAX46Y46*%
G04 Gerber Fmt 4.6, Leading zero omitted, Abs format (unit mm)*
G04 Created by KiCad (PCBNEW 9.0.4-9.0.4-0~ubuntu24.04.1) date 2025-09-30 20:14:08*
%MOMM*%
%LPD*%
G01*
G04 APERTURE LIST*
%ADD10C,0.150000*%
%ADD11C,0.120000*%
%ADD12C,0.127000*%
%ADD13C,0.200000*%
G04 APERTURE END LIST*
D10*
X92287319Y-45690476D02*
X93001604Y-45690476D01*
X93001604Y-45690476D02*
X93144461Y-45738095D01*
X93144461Y-45738095D02*
X93239700Y-45833333D01*
X93239700Y-45833333D02*
X93287319Y-45976190D01*
X93287319Y-45976190D02*
X93287319Y-46071428D01*
X93287319Y-45166666D02*
X93287319Y-44976190D01*
X93287319Y-44976190D02*
X93239700Y-44880952D01*
X93239700Y-44880952D02*
X93192080Y-44833333D01*
X93192080Y-44833333D02*
X93049223Y-44738095D01*
X93049223Y-44738095D02*
X92858747Y-44690476D01*
X92858747Y-44690476D02*
X92477795Y-44690476D01*
X92477795Y-44690476D02*
X92382557Y-44738095D01*
X92382557Y-44738095D02*
X92334938Y-44785714D01*
X92334938Y-44785714D02*
X92287319Y-44880952D01*
X92287319Y-44880952D02*
X92287319Y-45071428D01*
X92287319Y-45071428D02*
X92334938Y-45166666D01*
X92334938Y-45166666D02*
X92382557Y-45214285D01*
X92382557Y-45214285D02*
X92477795Y-45261904D01*
X92477795Y-45261904D02*
X92715890Y-45261904D01*
X92715890Y-45261904D02*
X92811128Y-45214285D01*
X92811128Y-45214285D02*
X92858747Y-45166666D01*
X92858747Y-45166666D02*
X92906366Y-45071428D01*
X92906366Y-45071428D02*
X92906366Y-44880952D01*
X92906366Y-44880952D02*
X92858747Y-44785714D01*
X92858747Y-44785714D02*
X92811128Y-44738095D01*
X92811128Y-44738095D02*
X92715890Y-44690476D01*
X93382557Y-44500000D02*
X93382557Y-43738095D01*
X93287319Y-42976190D02*
X93287319Y-43547618D01*
X93287319Y-43261904D02*
X92287319Y-43261904D01*
X92287319Y-43261904D02*
X92430176Y-43357142D01*
X92430176Y-43357142D02*
X92525414Y-43452380D01*
X92525414Y-43452380D02*
X92573033Y-43547618D01*
X2345333Y-52871580D02*
X2297714Y-52919200D01*
X2297714Y-52919200D02*
X2154857Y-52966819D01*
X2154857Y-52966819D02*
X2059619Y-52966819D01*
X2059619Y-52966819D02*
X1916762Y-52919200D01*
X1916762Y-52919200D02*
X1821524Y-52823961D01*
X1821524Y-52823961D02*
X1773905Y-52728723D01*
X1773905Y-52728723D02*
X1726286Y-52538247D01*
X1726286Y-52538247D02*
X1726286Y-52395390D01*
X1726286Y-52395390D02*
X1773905Y-52204914D01*
X1773905Y-52204914D02*
X1821524Y-52109676D01*
X1821524Y-52109676D02*
X1916762Y-52014438D01*
X1916762Y-52014438D02*
X2059619Y-51966819D01*
X2059619Y-51966819D02*
X2154857Y-51966819D01*
X2154857Y-51966819D02*
X2297714Y-52014438D01*
X2297714Y-52014438D02*
X2345333Y-52062057D01*
X2678667Y-51966819D02*
X3297714Y-51966819D01*
X3297714Y-51966819D02*
X2964381Y-52347771D01*
X2964381Y-52347771D02*
X3107238Y-52347771D01*
X3107238Y-52347771D02*
X3202476Y-52395390D01*
X3202476Y-52395390D02*
X3250095Y-52443009D01*
X3250095Y-52443009D02*
X3297714Y-52538247D01*
X3297714Y-52538247D02*
X3297714Y-52776342D01*
X3297714Y-52776342D02*
X3250095Y-52871580D01*
X3250095Y-52871580D02*
X3202476Y-52919200D01*
X3202476Y-52919200D02*
X3107238Y-52966819D01*
X3107238Y-52966819D02*
X2821524Y-52966819D01*
X2821524Y-52966819D02*
X2726286Y-52919200D01*
X2726286Y-52919200D02*
X2678667Y-52871580D01*
X48171428Y-17984819D02*
X48171428Y-18699104D01*
X48171428Y-18699104D02*
X48123809Y-18841961D01*
X48123809Y-18841961D02*
X48028571Y-18937200D01*
X48028571Y-18937200D02*
X47885714Y-18984819D01*
X47885714Y-18984819D02*
X47790476Y-18984819D01*
X49123809Y-17984819D02*
X48647619Y-17984819D01*
X48647619Y-17984819D02*
X48600000Y-18461009D01*
X48600000Y-18461009D02*
X48647619Y-18413390D01*
X48647619Y-18413390D02*
X48742857Y-18365771D01*
X48742857Y-18365771D02*
X48980952Y-18365771D01*
X48980952Y-18365771D02*
X49076190Y-18413390D01*
X49076190Y-18413390D02*
X49123809Y-18461009D01*
X49123809Y-18461009D02*
X49171428Y-18556247D01*
X49171428Y-18556247D02*
X49171428Y-18794342D01*
X49171428Y-18794342D02*
X49123809Y-18889580D01*
X49123809Y-18889580D02*
X49076190Y-18937200D01*
X49076190Y-18937200D02*
X48980952Y-18984819D01*
X48980952Y-18984819D02*
X48742857Y-18984819D01*
X48742857Y-18984819D02*
X48647619Y-18937200D01*
X48647619Y-18937200D02*
X48600000Y-18889580D01*
X49600000Y-18603866D02*
X50361905Y-18603866D01*
X51361904Y-18984819D02*
X50790476Y-18984819D01*
X51076190Y-18984819D02*
X51076190Y-17984819D01*
X51076190Y-17984819D02*
X50980952Y-18127676D01*
X50980952Y-18127676D02*
X50885714Y-18222914D01*
X50885714Y-18222914D02*
X50790476Y-18270533D01*
X55704761Y-11460057D02*
X55609523Y-11412438D01*
X55609523Y-11412438D02*
X55514285Y-11317200D01*
X55514285Y-11317200D02*
X55371428Y-11174342D01*
X55371428Y-11174342D02*
X55276190Y-11126723D01*
X55276190Y-11126723D02*
X55180952Y-11126723D01*
X55228571Y-11364819D02*
X55133333Y-11317200D01*
X55133333Y-11317200D02*
X55038095Y-11221961D01*
X55038095Y-11221961D02*
X54990476Y-11031485D01*
X54990476Y-11031485D02*
X54990476Y-10698152D01*
X54990476Y-10698152D02*
X55038095Y-10507676D01*
X55038095Y-10507676D02*
X55133333Y-10412438D01*
X55133333Y-10412438D02*
X55228571Y-10364819D01*
X55228571Y-10364819D02*
X55419047Y-10364819D01*
X55419047Y-10364819D02*
X55514285Y-10412438D01*
X55514285Y-10412438D02*
X55609523Y-10507676D01*
X55609523Y-10507676D02*
X55657142Y-10698152D01*
X55657142Y-10698152D02*
X55657142Y-11031485D01*
X55657142Y-11031485D02*
X55609523Y-11221961D01*
X55609523Y-11221961D02*
X55514285Y-11317200D01*
X55514285Y-11317200D02*
X55419047Y-11364819D01*
X55419047Y-11364819D02*
X55228571Y-11364819D01*
X56609523Y-11364819D02*
X56038095Y-11364819D01*
X56323809Y-11364819D02*
X56323809Y-10364819D01*
X56323809Y-10364819D02*
X56228571Y-10507676D01*
X56228571Y-10507676D02*
X56133333Y-10602914D01*
X56133333Y-10602914D02*
X56038095Y-10650533D01*
X14943095Y-57117819D02*
X14943095Y-57927342D01*
X14943095Y-57927342D02*
X14990714Y-58022580D01*
X14990714Y-58022580D02*
X15038333Y-58070200D01*
X15038333Y-58070200D02*
X15133571Y-58117819D01*
X15133571Y-58117819D02*
X15324047Y-58117819D01*
X15324047Y-58117819D02*
X15419285Y-58070200D01*
X15419285Y-58070200D02*
X15466904Y-58022580D01*
X15466904Y-58022580D02*
X15514523Y-57927342D01*
X15514523Y-57927342D02*
X15514523Y-57117819D01*
X15895476Y-57117819D02*
X16514523Y-57117819D01*
X16514523Y-57117819D02*
X16181190Y-57498771D01*
X16181190Y-57498771D02*
X16324047Y-57498771D01*
X16324047Y-57498771D02*
X16419285Y-57546390D01*
X16419285Y-57546390D02*
X16466904Y-57594009D01*
X16466904Y-57594009D02*
X16514523Y-57689247D01*
X16514523Y-57689247D02*
X16514523Y-57927342D01*
X16514523Y-57927342D02*
X16466904Y-58022580D01*
X16466904Y-58022580D02*
X16419285Y-58070200D01*
X16419285Y-58070200D02*
X16324047Y-58117819D01*
X16324047Y-58117819D02*
X16038333Y-58117819D01*
X16038333Y-58117819D02*
X15943095Y-58070200D01*
X15943095Y-58070200D02*
X15895476Y-58022580D01*
X-18761904Y-91554819D02*
X-18761904Y-90554819D01*
X-18761904Y-91031009D02*
X-18190476Y-91031009D01*
X-18190476Y-91554819D02*
X-18190476Y-90554819D01*
X-17285714Y-90888152D02*
X-17285714Y-91554819D01*
X-17523809Y-90507200D02*
X-17761904Y-91221485D01*
X-17761904Y-91221485D02*
X-17142857Y-91221485D01*
X64571428Y-63784819D02*
X64571428Y-64499104D01*
X64571428Y-64499104D02*
X64523809Y-64641961D01*
X64523809Y-64641961D02*
X64428571Y-64737200D01*
X64428571Y-64737200D02*
X64285714Y-64784819D01*
X64285714Y-64784819D02*
X64190476Y-64784819D01*
X64952381Y-63784819D02*
X65619047Y-63784819D01*
X65619047Y-63784819D02*
X65190476Y-64784819D01*
X66000000Y-64403866D02*
X66761905Y-64403866D01*
X67190476Y-63880057D02*
X67238095Y-63832438D01*
X67238095Y-63832438D02*
X67333333Y-63784819D01*
X67333333Y-63784819D02*
X67571428Y-63784819D01*
X67571428Y-63784819D02*
X67666666Y-63832438D01*
X67666666Y-63832438D02*
X67714285Y-63880057D01*
X67714285Y-63880057D02*
X67761904Y-63975295D01*
X67761904Y-63975295D02*
X67761904Y-64070533D01*
X67761904Y-64070533D02*
X67714285Y-64213390D01*
X67714285Y-64213390D02*
X67142857Y-64784819D01*
X67142857Y-64784819D02*
X67761904Y-64784819D01*
X44171428Y-29984819D02*
X44171428Y-30699104D01*
X44171428Y-30699104D02*
X44123809Y-30841961D01*
X44123809Y-30841961D02*
X44028571Y-30937200D01*
X44028571Y-30937200D02*
X43885714Y-30984819D01*
X43885714Y-30984819D02*
X43790476Y-30984819D01*
X44600000Y-30080057D02*
X44647619Y-30032438D01*
X44647619Y-30032438D02*
X44742857Y-29984819D01*
X44742857Y-29984819D02*
X44980952Y-29984819D01*
X44980952Y-29984819D02*
X45076190Y-30032438D01*
X45076190Y-30032438D02*
X45123809Y-30080057D01*
X45123809Y-30080057D02*
X45171428Y-30175295D01*
X45171428Y-30175295D02*
X45171428Y-30270533D01*
X45171428Y-30270533D02*
X45123809Y-30413390D01*
X45123809Y-30413390D02*
X44552381Y-30984819D01*
X44552381Y-30984819D02*
X45171428Y-30984819D01*
X45600000Y-30603866D02*
X46361905Y-30603866D01*
X46790476Y-30080057D02*
X46838095Y-30032438D01*
X46838095Y-30032438D02*
X46933333Y-29984819D01*
X46933333Y-29984819D02*
X47171428Y-29984819D01*
X47171428Y-29984819D02*
X47266666Y-30032438D01*
X47266666Y-30032438D02*
X47314285Y-30080057D01*
X47314285Y-30080057D02*
X47361904Y-30175295D01*
X47361904Y-30175295D02*
X47361904Y-30270533D01*
X47361904Y-30270533D02*
X47314285Y-30413390D01*
X47314285Y-30413390D02*
X46742857Y-30984819D01*
X46742857Y-30984819D02*
X47361904Y-30984819D01*
X64371428Y-17984819D02*
X64371428Y-18699104D01*
X64371428Y-18699104D02*
X64323809Y-18841961D01*
X64323809Y-18841961D02*
X64228571Y-18937200D01*
X64228571Y-18937200D02*
X64085714Y-18984819D01*
X64085714Y-18984819D02*
X63990476Y-18984819D01*
X65323809Y-17984819D02*
X64847619Y-17984819D01*
X64847619Y-17984819D02*
X64800000Y-18461009D01*
X64800000Y-18461009D02*
X64847619Y-18413390D01*
X64847619Y-18413390D02*
X64942857Y-18365771D01*
X64942857Y-18365771D02*
X65180952Y-18365771D01*
X65180952Y-18365771D02*
X65276190Y-18413390D01*
X65276190Y-18413390D02*
X65323809Y-18461009D01*
X65323809Y-18461009D02*
X65371428Y-18556247D01*
X65371428Y-18556247D02*
X65371428Y-18794342D01*
X65371428Y-18794342D02*
X65323809Y-18889580D01*
X65323809Y-18889580D02*
X65276190Y-18937200D01*
X65276190Y-18937200D02*
X65180952Y-18984819D01*
X65180952Y-18984819D02*
X64942857Y-18984819D01*
X64942857Y-18984819D02*
X64847619Y-18937200D01*
X64847619Y-18937200D02*
X64800000Y-18889580D01*
X65800000Y-18603866D02*
X66561905Y-18603866D01*
X66990476Y-18080057D02*
X67038095Y-18032438D01*
X67038095Y-18032438D02*
X67133333Y-17984819D01*
X67133333Y-17984819D02*
X67371428Y-17984819D01*
X67371428Y-17984819D02*
X67466666Y-18032438D01*
X67466666Y-18032438D02*
X67514285Y-18080057D01*
X67514285Y-18080057D02*
X67561904Y-18175295D01*
X67561904Y-18175295D02*
X67561904Y-18270533D01*
X67561904Y-18270533D02*
X67514285Y-18413390D01*
X67514285Y-18413390D02*
X66942857Y-18984819D01*
X66942857Y-18984819D02*
X67561904Y-18984819D01*
X14973095Y-81807819D02*
X14973095Y-82617342D01*
X14973095Y-82617342D02*
X15020714Y-82712580D01*
X15020714Y-82712580D02*
X15068333Y-82760200D01*
X15068333Y-82760200D02*
X15163571Y-82807819D01*
X15163571Y-82807819D02*
X15354047Y-82807819D01*
X15354047Y-82807819D02*
X15449285Y-82760200D01*
X15449285Y-82760200D02*
X15496904Y-82712580D01*
X15496904Y-82712580D02*
X15544523Y-82617342D01*
X15544523Y-82617342D02*
X15544523Y-81807819D01*
X16449285Y-82141152D02*
X16449285Y-82807819D01*
X16211190Y-81760200D02*
X15973095Y-82474485D01*
X15973095Y-82474485D02*
X16592142Y-82474485D01*
X92454819Y-58190476D02*
X93169104Y-58190476D01*
X93169104Y-58190476D02*
X93311961Y-58238095D01*
X93311961Y-58238095D02*
X93407200Y-58333333D01*
X93407200Y-58333333D02*
X93454819Y-58476190D01*
X93454819Y-58476190D02*
X93454819Y-58571428D01*
X93454819Y-57666666D02*
X93454819Y-57476190D01*
X93454819Y-57476190D02*
X93407200Y-57380952D01*
X93407200Y-57380952D02*
X93359580Y-57333333D01*
X93359580Y-57333333D02*
X93216723Y-57238095D01*
X93216723Y-57238095D02*
X93026247Y-57190476D01*
X93026247Y-57190476D02*
X92645295Y-57190476D01*
X92645295Y-57190476D02*
X92550057Y-57238095D01*
X92550057Y-57238095D02*
X92502438Y-57285714D01*
X92502438Y-57285714D02*
X92454819Y-57380952D01*
X92454819Y-57380952D02*
X92454819Y-57571428D01*
X92454819Y-57571428D02*
X92502438Y-57666666D01*
X92502438Y-57666666D02*
X92550057Y-57714285D01*
X92550057Y-57714285D02*
X92645295Y-57761904D01*
X92645295Y-57761904D02*
X92883390Y-57761904D01*
X92883390Y-57761904D02*
X92978628Y-57714285D01*
X92978628Y-57714285D02*
X93026247Y-57666666D01*
X93026247Y-57666666D02*
X93073866Y-57571428D01*
X93073866Y-57571428D02*
X93073866Y-57380952D01*
X93073866Y-57380952D02*
X93026247Y-57285714D01*
X93026247Y-57285714D02*
X92978628Y-57238095D01*
X92978628Y-57238095D02*
X92883390Y-57190476D01*
X93550057Y-57000000D02*
X93550057Y-56238095D01*
X92550057Y-56047618D02*
X92502438Y-55999999D01*
X92502438Y-55999999D02*
X92454819Y-55904761D01*
X92454819Y-55904761D02*
X92454819Y-55666666D01*
X92454819Y-55666666D02*
X92502438Y-55571428D01*
X92502438Y-55571428D02*
X92550057Y-55523809D01*
X92550057Y-55523809D02*
X92645295Y-55476190D01*
X92645295Y-55476190D02*
X92740533Y-55476190D01*
X92740533Y-55476190D02*
X92883390Y-55523809D01*
X92883390Y-55523809D02*
X93454819Y-56095237D01*
X93454819Y-56095237D02*
X93454819Y-55476190D01*
X54844761Y-58450057D02*
X54749523Y-58402438D01*
X54749523Y-58402438D02*
X54654285Y-58307200D01*
X54654285Y-58307200D02*
X54511428Y-58164342D01*
X54511428Y-58164342D02*
X54416190Y-58116723D01*
X54416190Y-58116723D02*
X54320952Y-58116723D01*
X54368571Y-58354819D02*
X54273333Y-58307200D01*
X54273333Y-58307200D02*
X54178095Y-58211961D01*
X54178095Y-58211961D02*
X54130476Y-58021485D01*
X54130476Y-58021485D02*
X54130476Y-57688152D01*
X54130476Y-57688152D02*
X54178095Y-57497676D01*
X54178095Y-57497676D02*
X54273333Y-57402438D01*
X54273333Y-57402438D02*
X54368571Y-57354819D01*
X54368571Y-57354819D02*
X54559047Y-57354819D01*
X54559047Y-57354819D02*
X54654285Y-57402438D01*
X54654285Y-57402438D02*
X54749523Y-57497676D01*
X54749523Y-57497676D02*
X54797142Y-57688152D01*
X54797142Y-57688152D02*
X54797142Y-58021485D01*
X54797142Y-58021485D02*
X54749523Y-58211961D01*
X54749523Y-58211961D02*
X54654285Y-58307200D01*
X54654285Y-58307200D02*
X54559047Y-58354819D01*
X54559047Y-58354819D02*
X54368571Y-58354819D01*
X55130476Y-57354819D02*
X55749523Y-57354819D01*
X55749523Y-57354819D02*
X55416190Y-57735771D01*
X55416190Y-57735771D02*
X55559047Y-57735771D01*
X55559047Y-57735771D02*
X55654285Y-57783390D01*
X55654285Y-57783390D02*
X55701904Y-57831009D01*
X55701904Y-57831009D02*
X55749523Y-57926247D01*
X55749523Y-57926247D02*
X55749523Y-58164342D01*
X55749523Y-58164342D02*
X55701904Y-58259580D01*
X55701904Y-58259580D02*
X55654285Y-58307200D01*
X55654285Y-58307200D02*
X55559047Y-58354819D01*
X55559047Y-58354819D02*
X55273333Y-58354819D01*
X55273333Y-58354819D02*
X55178095Y-58307200D01*
X55178095Y-58307200D02*
X55130476Y-58259580D01*
X48371428Y-63384819D02*
X48371428Y-64099104D01*
X48371428Y-64099104D02*
X48323809Y-64241961D01*
X48323809Y-64241961D02*
X48228571Y-64337200D01*
X48228571Y-64337200D02*
X48085714Y-64384819D01*
X48085714Y-64384819D02*
X47990476Y-64384819D01*
X48752381Y-63384819D02*
X49419047Y-63384819D01*
X49419047Y-63384819D02*
X48990476Y-64384819D01*
X49800000Y-64003866D02*
X50561905Y-64003866D01*
X51561904Y-64384819D02*
X50990476Y-64384819D01*
X51276190Y-64384819D02*
X51276190Y-63384819D01*
X51276190Y-63384819D02*
X51180952Y-63527676D01*
X51180952Y-63527676D02*
X51085714Y-63622914D01*
X51085714Y-63622914D02*
X50990476Y-63670533D01*
X28571428Y-6184819D02*
X28571428Y-6899104D01*
X28571428Y-6899104D02*
X28523809Y-7041961D01*
X28523809Y-7041961D02*
X28428571Y-7137200D01*
X28428571Y-7137200D02*
X28285714Y-7184819D01*
X28285714Y-7184819D02*
X28190476Y-7184819D01*
X29571428Y-7184819D02*
X29000000Y-7184819D01*
X29285714Y-7184819D02*
X29285714Y-6184819D01*
X29285714Y-6184819D02*
X29190476Y-6327676D01*
X29190476Y-6327676D02*
X29095238Y-6422914D01*
X29095238Y-6422914D02*
X29000000Y-6470533D01*
X30000000Y-6803866D02*
X30761905Y-6803866D01*
X31761904Y-7184819D02*
X31190476Y-7184819D01*
X31476190Y-7184819D02*
X31476190Y-6184819D01*
X31476190Y-6184819D02*
X31380952Y-6327676D01*
X31380952Y-6327676D02*
X31285714Y-6422914D01*
X31285714Y-6422914D02*
X31190476Y-6470533D01*
X64371428Y-41184819D02*
X64371428Y-41899104D01*
X64371428Y-41899104D02*
X64323809Y-42041961D01*
X64323809Y-42041961D02*
X64228571Y-42137200D01*
X64228571Y-42137200D02*
X64085714Y-42184819D01*
X64085714Y-42184819D02*
X63990476Y-42184819D01*
X65276190Y-41184819D02*
X65085714Y-41184819D01*
X65085714Y-41184819D02*
X64990476Y-41232438D01*
X64990476Y-41232438D02*
X64942857Y-41280057D01*
X64942857Y-41280057D02*
X64847619Y-41422914D01*
X64847619Y-41422914D02*
X64800000Y-41613390D01*
X64800000Y-41613390D02*
X64800000Y-41994342D01*
X64800000Y-41994342D02*
X64847619Y-42089580D01*
X64847619Y-42089580D02*
X64895238Y-42137200D01*
X64895238Y-42137200D02*
X64990476Y-42184819D01*
X64990476Y-42184819D02*
X65180952Y-42184819D01*
X65180952Y-42184819D02*
X65276190Y-42137200D01*
X65276190Y-42137200D02*
X65323809Y-42089580D01*
X65323809Y-42089580D02*
X65371428Y-41994342D01*
X65371428Y-41994342D02*
X65371428Y-41756247D01*
X65371428Y-41756247D02*
X65323809Y-41661009D01*
X65323809Y-41661009D02*
X65276190Y-41613390D01*
X65276190Y-41613390D02*
X65180952Y-41565771D01*
X65180952Y-41565771D02*
X64990476Y-41565771D01*
X64990476Y-41565771D02*
X64895238Y-41613390D01*
X64895238Y-41613390D02*
X64847619Y-41661009D01*
X64847619Y-41661009D02*
X64800000Y-41756247D01*
X65800000Y-41803866D02*
X66561905Y-41803866D01*
X66990476Y-41280057D02*
X67038095Y-41232438D01*
X67038095Y-41232438D02*
X67133333Y-41184819D01*
X67133333Y-41184819D02*
X67371428Y-41184819D01*
X67371428Y-41184819D02*
X67466666Y-41232438D01*
X67466666Y-41232438D02*
X67514285Y-41280057D01*
X67514285Y-41280057D02*
X67561904Y-41375295D01*
X67561904Y-41375295D02*
X67561904Y-41470533D01*
X67561904Y-41470533D02*
X67514285Y-41613390D01*
X67514285Y-41613390D02*
X66942857Y-42184819D01*
X66942857Y-42184819D02*
X67561904Y-42184819D01*
X2345333Y-41871580D02*
X2297714Y-41919200D01*
X2297714Y-41919200D02*
X2154857Y-41966819D01*
X2154857Y-41966819D02*
X2059619Y-41966819D01*
X2059619Y-41966819D02*
X1916762Y-41919200D01*
X1916762Y-41919200D02*
X1821524Y-41823961D01*
X1821524Y-41823961D02*
X1773905Y-41728723D01*
X1773905Y-41728723D02*
X1726286Y-41538247D01*
X1726286Y-41538247D02*
X1726286Y-41395390D01*
X1726286Y-41395390D02*
X1773905Y-41204914D01*
X1773905Y-41204914D02*
X1821524Y-41109676D01*
X1821524Y-41109676D02*
X1916762Y-41014438D01*
X1916762Y-41014438D02*
X2059619Y-40966819D01*
X2059619Y-40966819D02*
X2154857Y-40966819D01*
X2154857Y-40966819D02*
X2297714Y-41014438D01*
X2297714Y-41014438D02*
X2345333Y-41062057D01*
X2726286Y-41062057D02*
X2773905Y-41014438D01*
X2773905Y-41014438D02*
X2869143Y-40966819D01*
X2869143Y-40966819D02*
X3107238Y-40966819D01*
X3107238Y-40966819D02*
X3202476Y-41014438D01*
X3202476Y-41014438D02*
X3250095Y-41062057D01*
X3250095Y-41062057D02*
X3297714Y-41157295D01*
X3297714Y-41157295D02*
X3297714Y-41252533D01*
X3297714Y-41252533D02*
X3250095Y-41395390D01*
X3250095Y-41395390D02*
X2678667Y-41966819D01*
X2678667Y-41966819D02*
X3297714Y-41966819D01*
X44571428Y-52984819D02*
X44571428Y-53699104D01*
X44571428Y-53699104D02*
X44523809Y-53841961D01*
X44523809Y-53841961D02*
X44428571Y-53937200D01*
X44428571Y-53937200D02*
X44285714Y-53984819D01*
X44285714Y-53984819D02*
X44190476Y-53984819D01*
X44952381Y-52984819D02*
X45571428Y-52984819D01*
X45571428Y-52984819D02*
X45238095Y-53365771D01*
X45238095Y-53365771D02*
X45380952Y-53365771D01*
X45380952Y-53365771D02*
X45476190Y-53413390D01*
X45476190Y-53413390D02*
X45523809Y-53461009D01*
X45523809Y-53461009D02*
X45571428Y-53556247D01*
X45571428Y-53556247D02*
X45571428Y-53794342D01*
X45571428Y-53794342D02*
X45523809Y-53889580D01*
X45523809Y-53889580D02*
X45476190Y-53937200D01*
X45476190Y-53937200D02*
X45380952Y-53984819D01*
X45380952Y-53984819D02*
X45095238Y-53984819D01*
X45095238Y-53984819D02*
X45000000Y-53937200D01*
X45000000Y-53937200D02*
X44952381Y-53889580D01*
X46000000Y-53603866D02*
X46761905Y-53603866D01*
X47190476Y-53080057D02*
X47238095Y-53032438D01*
X47238095Y-53032438D02*
X47333333Y-52984819D01*
X47333333Y-52984819D02*
X47571428Y-52984819D01*
X47571428Y-52984819D02*
X47666666Y-53032438D01*
X47666666Y-53032438D02*
X47714285Y-53080057D01*
X47714285Y-53080057D02*
X47761904Y-53175295D01*
X47761904Y-53175295D02*
X47761904Y-53270533D01*
X47761904Y-53270533D02*
X47714285Y-53413390D01*
X47714285Y-53413390D02*
X47142857Y-53984819D01*
X47142857Y-53984819D02*
X47761904Y-53984819D01*
X44571428Y-76584819D02*
X44571428Y-77299104D01*
X44571428Y-77299104D02*
X44523809Y-77441961D01*
X44523809Y-77441961D02*
X44428571Y-77537200D01*
X44428571Y-77537200D02*
X44285714Y-77584819D01*
X44285714Y-77584819D02*
X44190476Y-77584819D01*
X45476190Y-76918152D02*
X45476190Y-77584819D01*
X45238095Y-76537200D02*
X45000000Y-77251485D01*
X45000000Y-77251485D02*
X45619047Y-77251485D01*
X46000000Y-77203866D02*
X46761905Y-77203866D01*
X47190476Y-76680057D02*
X47238095Y-76632438D01*
X47238095Y-76632438D02*
X47333333Y-76584819D01*
X47333333Y-76584819D02*
X47571428Y-76584819D01*
X47571428Y-76584819D02*
X47666666Y-76632438D01*
X47666666Y-76632438D02*
X47714285Y-76680057D01*
X47714285Y-76680057D02*
X47761904Y-76775295D01*
X47761904Y-76775295D02*
X47761904Y-76870533D01*
X47761904Y-76870533D02*
X47714285Y-77013390D01*
X47714285Y-77013390D02*
X47142857Y-77584819D01*
X47142857Y-77584819D02*
X47761904Y-77584819D01*
X64371428Y-86784819D02*
X64371428Y-87499104D01*
X64371428Y-87499104D02*
X64323809Y-87641961D01*
X64323809Y-87641961D02*
X64228571Y-87737200D01*
X64228571Y-87737200D02*
X64085714Y-87784819D01*
X64085714Y-87784819D02*
X63990476Y-87784819D01*
X64990476Y-87213390D02*
X64895238Y-87165771D01*
X64895238Y-87165771D02*
X64847619Y-87118152D01*
X64847619Y-87118152D02*
X64800000Y-87022914D01*
X64800000Y-87022914D02*
X64800000Y-86975295D01*
X64800000Y-86975295D02*
X64847619Y-86880057D01*
X64847619Y-86880057D02*
X64895238Y-86832438D01*
X64895238Y-86832438D02*
X64990476Y-86784819D01*
X64990476Y-86784819D02*
X65180952Y-86784819D01*
X65180952Y-86784819D02*
X65276190Y-86832438D01*
X65276190Y-86832438D02*
X65323809Y-86880057D01*
X65323809Y-86880057D02*
X65371428Y-86975295D01*
X65371428Y-86975295D02*
X65371428Y-87022914D01*
X65371428Y-87022914D02*
X65323809Y-87118152D01*
X65323809Y-87118152D02*
X65276190Y-87165771D01*
X65276190Y-87165771D02*
X65180952Y-87213390D01*
X65180952Y-87213390D02*
X64990476Y-87213390D01*
X64990476Y-87213390D02*
X64895238Y-87261009D01*
X64895238Y-87261009D02*
X64847619Y-87308628D01*
X64847619Y-87308628D02*
X64800000Y-87403866D01*
X64800000Y-87403866D02*
X64800000Y-87594342D01*
X64800000Y-87594342D02*
X64847619Y-87689580D01*
X64847619Y-87689580D02*
X64895238Y-87737200D01*
X64895238Y-87737200D02*
X64990476Y-87784819D01*
X64990476Y-87784819D02*
X65180952Y-87784819D01*
X65180952Y-87784819D02*
X65276190Y-87737200D01*
X65276190Y-87737200D02*
X65323809Y-87689580D01*
X65323809Y-87689580D02*
X65371428Y-87594342D01*
X65371428Y-87594342D02*
X65371428Y-87403866D01*
X65371428Y-87403866D02*
X65323809Y-87308628D01*
X65323809Y-87308628D02*
X65276190Y-87261009D01*
X65276190Y-87261009D02*
X65180952Y-87213390D01*
X65800000Y-87403866D02*
X66561905Y-87403866D01*
X66990476Y-86880057D02*
X67038095Y-86832438D01*
X67038095Y-86832438D02*
X67133333Y-86784819D01*
X67133333Y-86784819D02*
X67371428Y-86784819D01*
X67371428Y-86784819D02*
X67466666Y-86832438D01*
X67466666Y-86832438D02*
X67514285Y-86880057D01*
X67514285Y-86880057D02*
X67561904Y-86975295D01*
X67561904Y-86975295D02*
X67561904Y-87070533D01*
X67561904Y-87070533D02*
X67514285Y-87213390D01*
X67514285Y-87213390D02*
X66942857Y-87784819D01*
X66942857Y-87784819D02*
X67561904Y-87784819D01*
X345333Y-62321580D02*
X297714Y-62369200D01*
X297714Y-62369200D02*
X154857Y-62416819D01*
X154857Y-62416819D02*
X59619Y-62416819D01*
X59619Y-62416819D02*
X-83237Y-62369200D01*
X-83237Y-62369200D02*
X-178475Y-62273961D01*
X-178475Y-62273961D02*
X-226094Y-62178723D01*
X-226094Y-62178723D02*
X-273713Y-61988247D01*
X-273713Y-61988247D02*
X-273713Y-61845390D01*
X-273713Y-61845390D02*
X-226094Y-61654914D01*
X-226094Y-61654914D02*
X-178475Y-61559676D01*
X-178475Y-61559676D02*
X-83237Y-61464438D01*
X-83237Y-61464438D02*
X59619Y-61416819D01*
X59619Y-61416819D02*
X154857Y-61416819D01*
X154857Y-61416819D02*
X297714Y-61464438D01*
X297714Y-61464438D02*
X345333Y-61512057D01*
X1202476Y-61750152D02*
X1202476Y-62416819D01*
X964381Y-61369200D02*
X726286Y-62083485D01*
X726286Y-62083485D02*
X1345333Y-62083485D01*
X93038095Y-91554819D02*
X93038095Y-90554819D01*
X93038095Y-91031009D02*
X93609523Y-91031009D01*
X93609523Y-91554819D02*
X93609523Y-90554819D01*
X93990476Y-90554819D02*
X94609523Y-90554819D01*
X94609523Y-90554819D02*
X94276190Y-90935771D01*
X94276190Y-90935771D02*
X94419047Y-90935771D01*
X94419047Y-90935771D02*
X94514285Y-90983390D01*
X94514285Y-90983390D02*
X94561904Y-91031009D01*
X94561904Y-91031009D02*
X94609523Y-91126247D01*
X94609523Y-91126247D02*
X94609523Y-91364342D01*
X94609523Y-91364342D02*
X94561904Y-91459580D01*
X94561904Y-91459580D02*
X94514285Y-91507200D01*
X94514285Y-91507200D02*
X94419047Y-91554819D01*
X94419047Y-91554819D02*
X94133333Y-91554819D01*
X94133333Y-91554819D02*
X94038095Y-91507200D01*
X94038095Y-91507200D02*
X93990476Y-91459580D01*
X28371428Y-52784819D02*
X28371428Y-53499104D01*
X28371428Y-53499104D02*
X28323809Y-53641961D01*
X28323809Y-53641961D02*
X28228571Y-53737200D01*
X28228571Y-53737200D02*
X28085714Y-53784819D01*
X28085714Y-53784819D02*
X27990476Y-53784819D01*
X28752381Y-52784819D02*
X29371428Y-52784819D01*
X29371428Y-52784819D02*
X29038095Y-53165771D01*
X29038095Y-53165771D02*
X29180952Y-53165771D01*
X29180952Y-53165771D02*
X29276190Y-53213390D01*
X29276190Y-53213390D02*
X29323809Y-53261009D01*
X29323809Y-53261009D02*
X29371428Y-53356247D01*
X29371428Y-53356247D02*
X29371428Y-53594342D01*
X29371428Y-53594342D02*
X29323809Y-53689580D01*
X29323809Y-53689580D02*
X29276190Y-53737200D01*
X29276190Y-53737200D02*
X29180952Y-53784819D01*
X29180952Y-53784819D02*
X28895238Y-53784819D01*
X28895238Y-53784819D02*
X28800000Y-53737200D01*
X28800000Y-53737200D02*
X28752381Y-53689580D01*
X29800000Y-53403866D02*
X30561905Y-53403866D01*
X31561904Y-53784819D02*
X30990476Y-53784819D01*
X31276190Y-53784819D02*
X31276190Y-52784819D01*
X31276190Y-52784819D02*
X31180952Y-52927676D01*
X31180952Y-52927676D02*
X31085714Y-53022914D01*
X31085714Y-53022914D02*
X30990476Y-53070533D01*
X14944995Y-32347819D02*
X14944995Y-33157342D01*
X14944995Y-33157342D02*
X14992614Y-33252580D01*
X14992614Y-33252580D02*
X15040233Y-33300200D01*
X15040233Y-33300200D02*
X15135471Y-33347819D01*
X15135471Y-33347819D02*
X15325947Y-33347819D01*
X15325947Y-33347819D02*
X15421185Y-33300200D01*
X15421185Y-33300200D02*
X15468804Y-33252580D01*
X15468804Y-33252580D02*
X15516423Y-33157342D01*
X15516423Y-33157342D02*
X15516423Y-32347819D01*
X15944995Y-32443057D02*
X15992614Y-32395438D01*
X15992614Y-32395438D02*
X16087852Y-32347819D01*
X16087852Y-32347819D02*
X16325947Y-32347819D01*
X16325947Y-32347819D02*
X16421185Y-32395438D01*
X16421185Y-32395438D02*
X16468804Y-32443057D01*
X16468804Y-32443057D02*
X16516423Y-32538295D01*
X16516423Y-32538295D02*
X16516423Y-32633533D01*
X16516423Y-32633533D02*
X16468804Y-32776390D01*
X16468804Y-32776390D02*
X15897376Y-33347819D01*
X15897376Y-33347819D02*
X16516423Y-33347819D01*
X48571428Y-86784819D02*
X48571428Y-87499104D01*
X48571428Y-87499104D02*
X48523809Y-87641961D01*
X48523809Y-87641961D02*
X48428571Y-87737200D01*
X48428571Y-87737200D02*
X48285714Y-87784819D01*
X48285714Y-87784819D02*
X48190476Y-87784819D01*
X49190476Y-87213390D02*
X49095238Y-87165771D01*
X49095238Y-87165771D02*
X49047619Y-87118152D01*
X49047619Y-87118152D02*
X49000000Y-87022914D01*
X49000000Y-87022914D02*
X49000000Y-86975295D01*
X49000000Y-86975295D02*
X49047619Y-86880057D01*
X49047619Y-86880057D02*
X49095238Y-86832438D01*
X49095238Y-86832438D02*
X49190476Y-86784819D01*
X49190476Y-86784819D02*
X49380952Y-86784819D01*
X49380952Y-86784819D02*
X49476190Y-86832438D01*
X49476190Y-86832438D02*
X49523809Y-86880057D01*
X49523809Y-86880057D02*
X49571428Y-86975295D01*
X49571428Y-86975295D02*
X49571428Y-87022914D01*
X49571428Y-87022914D02*
X49523809Y-87118152D01*
X49523809Y-87118152D02*
X49476190Y-87165771D01*
X49476190Y-87165771D02*
X49380952Y-87213390D01*
X49380952Y-87213390D02*
X49190476Y-87213390D01*
X49190476Y-87213390D02*
X49095238Y-87261009D01*
X49095238Y-87261009D02*
X49047619Y-87308628D01*
X49047619Y-87308628D02*
X49000000Y-87403866D01*
X49000000Y-87403866D02*
X49000000Y-87594342D01*
X49000000Y-87594342D02*
X49047619Y-87689580D01*
X49047619Y-87689580D02*
X49095238Y-87737200D01*
X49095238Y-87737200D02*
X49190476Y-87784819D01*
X49190476Y-87784819D02*
X49380952Y-87784819D01*
X49380952Y-87784819D02*
X49476190Y-87737200D01*
X49476190Y-87737200D02*
X49523809Y-87689580D01*
X49523809Y-87689580D02*
X49571428Y-87594342D01*
X49571428Y-87594342D02*
X49571428Y-87403866D01*
X49571428Y-87403866D02*
X49523809Y-87308628D01*
X49523809Y-87308628D02*
X49476190Y-87261009D01*
X49476190Y-87261009D02*
X49380952Y-87213390D01*
X50000000Y-87403866D02*
X50761905Y-87403866D01*
X51761904Y-87784819D02*
X51190476Y-87784819D01*
X51476190Y-87784819D02*
X51476190Y-86784819D01*
X51476190Y-86784819D02*
X51380952Y-86927676D01*
X51380952Y-86927676D02*
X51285714Y-87022914D01*
X51285714Y-87022914D02*
X51190476Y-87070533D01*
X-18761904Y-3966819D02*
X-18761904Y-2966819D01*
X-18761904Y-3443009D02*
X-18190476Y-3443009D01*
X-18190476Y-3966819D02*
X-18190476Y-2966819D01*
X-17190476Y-3966819D02*
X-17761904Y-3966819D01*
X-17476190Y-3966819D02*
X-17476190Y-2966819D01*
X-17476190Y-2966819D02*
X-17571428Y-3109676D01*
X-17571428Y-3109676D02*
X-17666666Y-3204914D01*
X-17666666Y-3204914D02*
X-17761904Y-3252533D01*
X2345333Y-30871580D02*
X2297714Y-30919200D01*
X2297714Y-30919200D02*
X2154857Y-30966819D01*
X2154857Y-30966819D02*
X2059619Y-30966819D01*
X2059619Y-30966819D02*
X1916762Y-30919200D01*
X1916762Y-30919200D02*
X1821524Y-30823961D01*
X1821524Y-30823961D02*
X1773905Y-30728723D01*
X1773905Y-30728723D02*
X1726286Y-30538247D01*
X1726286Y-30538247D02*
X1726286Y-30395390D01*
X1726286Y-30395390D02*
X1773905Y-30204914D01*
X1773905Y-30204914D02*
X1821524Y-30109676D01*
X1821524Y-30109676D02*
X1916762Y-30014438D01*
X1916762Y-30014438D02*
X2059619Y-29966819D01*
X2059619Y-29966819D02*
X2154857Y-29966819D01*
X2154857Y-29966819D02*
X2297714Y-30014438D01*
X2297714Y-30014438D02*
X2345333Y-30062057D01*
X3297714Y-30966819D02*
X2726286Y-30966819D01*
X3012000Y-30966819D02*
X3012000Y-29966819D01*
X3012000Y-29966819D02*
X2916762Y-30109676D01*
X2916762Y-30109676D02*
X2821524Y-30204914D01*
X2821524Y-30204914D02*
X2726286Y-30252533D01*
X55304761Y-36190057D02*
X55209523Y-36142438D01*
X55209523Y-36142438D02*
X55114285Y-36047200D01*
X55114285Y-36047200D02*
X54971428Y-35904342D01*
X54971428Y-35904342D02*
X54876190Y-35856723D01*
X54876190Y-35856723D02*
X54780952Y-35856723D01*
X54828571Y-36094819D02*
X54733333Y-36047200D01*
X54733333Y-36047200D02*
X54638095Y-35951961D01*
X54638095Y-35951961D02*
X54590476Y-35761485D01*
X54590476Y-35761485D02*
X54590476Y-35428152D01*
X54590476Y-35428152D02*
X54638095Y-35237676D01*
X54638095Y-35237676D02*
X54733333Y-35142438D01*
X54733333Y-35142438D02*
X54828571Y-35094819D01*
X54828571Y-35094819D02*
X55019047Y-35094819D01*
X55019047Y-35094819D02*
X55114285Y-35142438D01*
X55114285Y-35142438D02*
X55209523Y-35237676D01*
X55209523Y-35237676D02*
X55257142Y-35428152D01*
X55257142Y-35428152D02*
X55257142Y-35761485D01*
X55257142Y-35761485D02*
X55209523Y-35951961D01*
X55209523Y-35951961D02*
X55114285Y-36047200D01*
X55114285Y-36047200D02*
X55019047Y-36094819D01*
X55019047Y-36094819D02*
X54828571Y-36094819D01*
X55638095Y-35190057D02*
X55685714Y-35142438D01*
X55685714Y-35142438D02*
X55780952Y-35094819D01*
X55780952Y-35094819D02*
X56019047Y-35094819D01*
X56019047Y-35094819D02*
X56114285Y-35142438D01*
X56114285Y-35142438D02*
X56161904Y-35190057D01*
X56161904Y-35190057D02*
X56209523Y-35285295D01*
X56209523Y-35285295D02*
X56209523Y-35380533D01*
X56209523Y-35380533D02*
X56161904Y-35523390D01*
X56161904Y-35523390D02*
X55590476Y-36094819D01*
X55590476Y-36094819D02*
X56209523Y-36094819D01*
X54904761Y-82050057D02*
X54809523Y-82002438D01*
X54809523Y-82002438D02*
X54714285Y-81907200D01*
X54714285Y-81907200D02*
X54571428Y-81764342D01*
X54571428Y-81764342D02*
X54476190Y-81716723D01*
X54476190Y-81716723D02*
X54380952Y-81716723D01*
X54428571Y-81954819D02*
X54333333Y-81907200D01*
X54333333Y-81907200D02*
X54238095Y-81811961D01*
X54238095Y-81811961D02*
X54190476Y-81621485D01*
X54190476Y-81621485D02*
X54190476Y-81288152D01*
X54190476Y-81288152D02*
X54238095Y-81097676D01*
X54238095Y-81097676D02*
X54333333Y-81002438D01*
X54333333Y-81002438D02*
X54428571Y-80954819D01*
X54428571Y-80954819D02*
X54619047Y-80954819D01*
X54619047Y-80954819D02*
X54714285Y-81002438D01*
X54714285Y-81002438D02*
X54809523Y-81097676D01*
X54809523Y-81097676D02*
X54857142Y-81288152D01*
X54857142Y-81288152D02*
X54857142Y-81621485D01*
X54857142Y-81621485D02*
X54809523Y-81811961D01*
X54809523Y-81811961D02*
X54714285Y-81907200D01*
X54714285Y-81907200D02*
X54619047Y-81954819D01*
X54619047Y-81954819D02*
X54428571Y-81954819D01*
X55714285Y-81288152D02*
X55714285Y-81954819D01*
X55476190Y-80907200D02*
X55238095Y-81621485D01*
X55238095Y-81621485D02*
X55857142Y-81621485D01*
X28371428Y-76384819D02*
X28371428Y-77099104D01*
X28371428Y-77099104D02*
X28323809Y-77241961D01*
X28323809Y-77241961D02*
X28228571Y-77337200D01*
X28228571Y-77337200D02*
X28085714Y-77384819D01*
X28085714Y-77384819D02*
X27990476Y-77384819D01*
X29276190Y-76718152D02*
X29276190Y-77384819D01*
X29038095Y-76337200D02*
X28800000Y-77051485D01*
X28800000Y-77051485D02*
X29419047Y-77051485D01*
X29800000Y-77003866D02*
X30561905Y-77003866D01*
X31561904Y-77384819D02*
X30990476Y-77384819D01*
X31276190Y-77384819D02*
X31276190Y-76384819D01*
X31276190Y-76384819D02*
X31180952Y-76527676D01*
X31180952Y-76527676D02*
X31085714Y-76622914D01*
X31085714Y-76622914D02*
X30990476Y-76670533D01*
X-20045180Y-64022976D02*
X-19330895Y-64022976D01*
X-19330895Y-64022976D02*
X-19188038Y-64070595D01*
X-19188038Y-64070595D02*
X-19092800Y-64165833D01*
X-19092800Y-64165833D02*
X-19045180Y-64308690D01*
X-19045180Y-64308690D02*
X-19045180Y-64403928D01*
X-20045180Y-63356309D02*
X-20045180Y-63261071D01*
X-20045180Y-63261071D02*
X-19997561Y-63165833D01*
X-19997561Y-63165833D02*
X-19949942Y-63118214D01*
X-19949942Y-63118214D02*
X-19854704Y-63070595D01*
X-19854704Y-63070595D02*
X-19664228Y-63022976D01*
X-19664228Y-63022976D02*
X-19426133Y-63022976D01*
X-19426133Y-63022976D02*
X-19235657Y-63070595D01*
X-19235657Y-63070595D02*
X-19140419Y-63118214D01*
X-19140419Y-63118214D02*
X-19092800Y-63165833D01*
X-19092800Y-63165833D02*
X-19045180Y-63261071D01*
X-19045180Y-63261071D02*
X-19045180Y-63356309D01*
X-19045180Y-63356309D02*
X-19092800Y-63451547D01*
X-19092800Y-63451547D02*
X-19140419Y-63499166D01*
X-19140419Y-63499166D02*
X-19235657Y-63546785D01*
X-19235657Y-63546785D02*
X-19426133Y-63594404D01*
X-19426133Y-63594404D02*
X-19664228Y-63594404D01*
X-19664228Y-63594404D02*
X-19854704Y-63546785D01*
X-19854704Y-63546785D02*
X-19949942Y-63499166D01*
X-19949942Y-63499166D02*
X-19997561Y-63451547D01*
X-19997561Y-63451547D02*
X-20045180Y-63356309D01*
X-18949942Y-62832500D02*
X-18949942Y-62070595D01*
X-20045180Y-61927737D02*
X-20045180Y-61308690D01*
X-20045180Y-61308690D02*
X-19664228Y-61642023D01*
X-19664228Y-61642023D02*
X-19664228Y-61499166D01*
X-19664228Y-61499166D02*
X-19616609Y-61403928D01*
X-19616609Y-61403928D02*
X-19568990Y-61356309D01*
X-19568990Y-61356309D02*
X-19473752Y-61308690D01*
X-19473752Y-61308690D02*
X-19235657Y-61308690D01*
X-19235657Y-61308690D02*
X-19140419Y-61356309D01*
X-19140419Y-61356309D02*
X-19092800Y-61403928D01*
X-19092800Y-61403928D02*
X-19045180Y-61499166D01*
X-19045180Y-61499166D02*
X-19045180Y-61784880D01*
X-19045180Y-61784880D02*
X-19092800Y-61880118D01*
X-19092800Y-61880118D02*
X-19140419Y-61927737D01*
X93038095Y-3954819D02*
X93038095Y-2954819D01*
X93038095Y-3431009D02*
X93609523Y-3431009D01*
X93609523Y-3954819D02*
X93609523Y-2954819D01*
X94038095Y-3050057D02*
X94085714Y-3002438D01*
X94085714Y-3002438D02*
X94180952Y-2954819D01*
X94180952Y-2954819D02*
X94419047Y-2954819D01*
X94419047Y-2954819D02*
X94514285Y-3002438D01*
X94514285Y-3002438D02*
X94561904Y-3050057D01*
X94561904Y-3050057D02*
X94609523Y-3145295D01*
X94609523Y-3145295D02*
X94609523Y-3240533D01*
X94609523Y-3240533D02*
X94561904Y-3383390D01*
X94561904Y-3383390D02*
X93990476Y-3954819D01*
X93990476Y-3954819D02*
X94609523Y-3954819D01*
X28571428Y-29784819D02*
X28571428Y-30499104D01*
X28571428Y-30499104D02*
X28523809Y-30641961D01*
X28523809Y-30641961D02*
X28428571Y-30737200D01*
X28428571Y-30737200D02*
X28285714Y-30784819D01*
X28285714Y-30784819D02*
X28190476Y-30784819D01*
X29000000Y-29880057D02*
X29047619Y-29832438D01*
X29047619Y-29832438D02*
X29142857Y-29784819D01*
X29142857Y-29784819D02*
X29380952Y-29784819D01*
X29380952Y-29784819D02*
X29476190Y-29832438D01*
X29476190Y-29832438D02*
X29523809Y-29880057D01*
X29523809Y-29880057D02*
X29571428Y-29975295D01*
X29571428Y-29975295D02*
X29571428Y-30070533D01*
X29571428Y-30070533D02*
X29523809Y-30213390D01*
X29523809Y-30213390D02*
X28952381Y-30784819D01*
X28952381Y-30784819D02*
X29571428Y-30784819D01*
X30000000Y-30403866D02*
X30761905Y-30403866D01*
X31761904Y-30784819D02*
X31190476Y-30784819D01*
X31476190Y-30784819D02*
X31476190Y-29784819D01*
X31476190Y-29784819D02*
X31380952Y-29927676D01*
X31380952Y-29927676D02*
X31285714Y-30022914D01*
X31285714Y-30022914D02*
X31190476Y-30070533D01*
X14943095Y-7017819D02*
X14943095Y-7827342D01*
X14943095Y-7827342D02*
X14990714Y-7922580D01*
X14990714Y-7922580D02*
X15038333Y-7970200D01*
X15038333Y-7970200D02*
X15133571Y-8017819D01*
X15133571Y-8017819D02*
X15324047Y-8017819D01*
X15324047Y-8017819D02*
X15419285Y-7970200D01*
X15419285Y-7970200D02*
X15466904Y-7922580D01*
X15466904Y-7922580D02*
X15514523Y-7827342D01*
X15514523Y-7827342D02*
X15514523Y-7017819D01*
X16514523Y-8017819D02*
X15943095Y-8017819D01*
X16228809Y-8017819D02*
X16228809Y-7017819D01*
X16228809Y-7017819D02*
X16133571Y-7160676D01*
X16133571Y-7160676D02*
X16038333Y-7255914D01*
X16038333Y-7255914D02*
X15943095Y-7303533D01*
X-20045180Y-39190476D02*
X-19330895Y-39190476D01*
X-19330895Y-39190476D02*
X-19188038Y-39238095D01*
X-19188038Y-39238095D02*
X-19092800Y-39333333D01*
X-19092800Y-39333333D02*
X-19045180Y-39476190D01*
X-19045180Y-39476190D02*
X-19045180Y-39571428D01*
X-20045180Y-38523809D02*
X-20045180Y-38428571D01*
X-20045180Y-38428571D02*
X-19997561Y-38333333D01*
X-19997561Y-38333333D02*
X-19949942Y-38285714D01*
X-19949942Y-38285714D02*
X-19854704Y-38238095D01*
X-19854704Y-38238095D02*
X-19664228Y-38190476D01*
X-19664228Y-38190476D02*
X-19426133Y-38190476D01*
X-19426133Y-38190476D02*
X-19235657Y-38238095D01*
X-19235657Y-38238095D02*
X-19140419Y-38285714D01*
X-19140419Y-38285714D02*
X-19092800Y-38333333D01*
X-19092800Y-38333333D02*
X-19045180Y-38428571D01*
X-19045180Y-38428571D02*
X-19045180Y-38523809D01*
X-19045180Y-38523809D02*
X-19092800Y-38619047D01*
X-19092800Y-38619047D02*
X-19140419Y-38666666D01*
X-19140419Y-38666666D02*
X-19235657Y-38714285D01*
X-19235657Y-38714285D02*
X-19426133Y-38761904D01*
X-19426133Y-38761904D02*
X-19664228Y-38761904D01*
X-19664228Y-38761904D02*
X-19854704Y-38714285D01*
X-19854704Y-38714285D02*
X-19949942Y-38666666D01*
X-19949942Y-38666666D02*
X-19997561Y-38619047D01*
X-19997561Y-38619047D02*
X-20045180Y-38523809D01*
X-18949942Y-38000000D02*
X-18949942Y-37238095D01*
X-19045180Y-36476190D02*
X-19045180Y-37047618D01*
X-19045180Y-36761904D02*
X-20045180Y-36761904D01*
X-20045180Y-36761904D02*
X-19902323Y-36857142D01*
X-19902323Y-36857142D02*
X-19807085Y-36952380D01*
X-19807085Y-36952380D02*
X-19759466Y-37047618D01*
X48171428Y-40584819D02*
X48171428Y-41299104D01*
X48171428Y-41299104D02*
X48123809Y-41441961D01*
X48123809Y-41441961D02*
X48028571Y-41537200D01*
X48028571Y-41537200D02*
X47885714Y-41584819D01*
X47885714Y-41584819D02*
X47790476Y-41584819D01*
X49076190Y-40584819D02*
X48885714Y-40584819D01*
X48885714Y-40584819D02*
X48790476Y-40632438D01*
X48790476Y-40632438D02*
X48742857Y-40680057D01*
X48742857Y-40680057D02*
X48647619Y-40822914D01*
X48647619Y-40822914D02*
X48600000Y-41013390D01*
X48600000Y-41013390D02*
X48600000Y-41394342D01*
X48600000Y-41394342D02*
X48647619Y-41489580D01*
X48647619Y-41489580D02*
X48695238Y-41537200D01*
X48695238Y-41537200D02*
X48790476Y-41584819D01*
X48790476Y-41584819D02*
X48980952Y-41584819D01*
X48980952Y-41584819D02*
X49076190Y-41537200D01*
X49076190Y-41537200D02*
X49123809Y-41489580D01*
X49123809Y-41489580D02*
X49171428Y-41394342D01*
X49171428Y-41394342D02*
X49171428Y-41156247D01*
X49171428Y-41156247D02*
X49123809Y-41061009D01*
X49123809Y-41061009D02*
X49076190Y-41013390D01*
X49076190Y-41013390D02*
X48980952Y-40965771D01*
X48980952Y-40965771D02*
X48790476Y-40965771D01*
X48790476Y-40965771D02*
X48695238Y-41013390D01*
X48695238Y-41013390D02*
X48647619Y-41061009D01*
X48647619Y-41061009D02*
X48600000Y-41156247D01*
X49600000Y-41203866D02*
X50361905Y-41203866D01*
X51361904Y-41584819D02*
X50790476Y-41584819D01*
X51076190Y-41584819D02*
X51076190Y-40584819D01*
X51076190Y-40584819D02*
X50980952Y-40727676D01*
X50980952Y-40727676D02*
X50885714Y-40822914D01*
X50885714Y-40822914D02*
X50790476Y-40870533D01*
X44571428Y-6184819D02*
X44571428Y-6899104D01*
X44571428Y-6899104D02*
X44523809Y-7041961D01*
X44523809Y-7041961D02*
X44428571Y-7137200D01*
X44428571Y-7137200D02*
X44285714Y-7184819D01*
X44285714Y-7184819D02*
X44190476Y-7184819D01*
X45571428Y-7184819D02*
X45000000Y-7184819D01*
X45285714Y-7184819D02*
X45285714Y-6184819D01*
X45285714Y-6184819D02*
X45190476Y-6327676D01*
X45190476Y-6327676D02*
X45095238Y-6422914D01*
X45095238Y-6422914D02*
X45000000Y-6470533D01*
X46000000Y-6803866D02*
X46761905Y-6803866D01*
X47190476Y-6280057D02*
X47238095Y-6232438D01*
X47238095Y-6232438D02*
X47333333Y-6184819D01*
X47333333Y-6184819D02*
X47571428Y-6184819D01*
X47571428Y-6184819D02*
X47666666Y-6232438D01*
X47666666Y-6232438D02*
X47714285Y-6280057D01*
X47714285Y-6280057D02*
X47761904Y-6375295D01*
X47761904Y-6375295D02*
X47761904Y-6470533D01*
X47761904Y-6470533D02*
X47714285Y-6613390D01*
X47714285Y-6613390D02*
X47142857Y-7184819D01*
X47142857Y-7184819D02*
X47761904Y-7184819D01*
X-19545180Y-51190476D02*
X-18830895Y-51190476D01*
X-18830895Y-51190476D02*
X-18688038Y-51238095D01*
X-18688038Y-51238095D02*
X-18592800Y-51333333D01*
X-18592800Y-51333333D02*
X-18545180Y-51476190D01*
X-18545180Y-51476190D02*
X-18545180Y-51571428D01*
X-19545180Y-50523809D02*
X-19545180Y-50428571D01*
X-19545180Y-50428571D02*
X-19497561Y-50333333D01*
X-19497561Y-50333333D02*
X-19449942Y-50285714D01*
X-19449942Y-50285714D02*
X-19354704Y-50238095D01*
X-19354704Y-50238095D02*
X-19164228Y-50190476D01*
X-19164228Y-50190476D02*
X-18926133Y-50190476D01*
X-18926133Y-50190476D02*
X-18735657Y-50238095D01*
X-18735657Y-50238095D02*
X-18640419Y-50285714D01*
X-18640419Y-50285714D02*
X-18592800Y-50333333D01*
X-18592800Y-50333333D02*
X-18545180Y-50428571D01*
X-18545180Y-50428571D02*
X-18545180Y-50523809D01*
X-18545180Y-50523809D02*
X-18592800Y-50619047D01*
X-18592800Y-50619047D02*
X-18640419Y-50666666D01*
X-18640419Y-50666666D02*
X-18735657Y-50714285D01*
X-18735657Y-50714285D02*
X-18926133Y-50761904D01*
X-18926133Y-50761904D02*
X-19164228Y-50761904D01*
X-19164228Y-50761904D02*
X-19354704Y-50714285D01*
X-19354704Y-50714285D02*
X-19449942Y-50666666D01*
X-19449942Y-50666666D02*
X-19497561Y-50619047D01*
X-19497561Y-50619047D02*
X-19545180Y-50523809D01*
X-18449942Y-50000000D02*
X-18449942Y-49238095D01*
X-19449942Y-49047618D02*
X-19497561Y-48999999D01*
X-19497561Y-48999999D02*
X-19545180Y-48904761D01*
X-19545180Y-48904761D02*
X-19545180Y-48666666D01*
X-19545180Y-48666666D02*
X-19497561Y-48571428D01*
X-19497561Y-48571428D02*
X-19449942Y-48523809D01*
X-19449942Y-48523809D02*
X-19354704Y-48476190D01*
X-19354704Y-48476190D02*
X-19259466Y-48476190D01*
X-19259466Y-48476190D02*
X-19116609Y-48523809D01*
X-19116609Y-48523809D02*
X-18545180Y-49095237D01*
X-18545180Y-49095237D02*
X-18545180Y-48476190D01*
D11*
%TO.C,J9_1*%
X83112500Y-38630000D02*
X90952500Y-38630000D01*
X83112500Y-49370000D02*
X83112500Y-38630000D01*
X89332500Y-49370000D02*
X89332500Y-38630000D01*
X90432500Y-49370000D02*
X90432500Y-38630000D01*
X90952500Y-38630000D02*
X90952500Y-47200000D01*
X90952500Y-47800000D02*
X90952500Y-49370000D01*
X90952500Y-49370000D02*
X83112500Y-49370000D01*
X91562500Y-47940000D02*
X90952500Y-47500000D01*
X91562500Y-47060000D01*
X91562500Y-47940000D01*
G36*
X91562500Y-47940000D02*
G01*
X90952500Y-47500000D01*
X91562500Y-47060000D01*
X91562500Y-47940000D01*
G37*
%TO.C,C3*%
X242000Y-53642000D02*
X4782000Y-53642000D01*
X242000Y-53698000D02*
X242000Y-53642000D01*
X4782000Y-55726000D02*
X4782000Y-55782000D01*
X4782000Y-55782000D02*
X242000Y-55782000D01*
%TO.C,J5-1*%
X44980000Y-19530000D02*
X54220000Y-19530000D01*
X44980000Y-27070000D02*
X44980000Y-19530000D01*
X54220000Y-19530000D02*
X54220000Y-27070000D01*
X54220000Y-27070000D02*
X44980000Y-27070000D01*
%TO.C,Q1*%
X57225307Y-14911018D02*
X57988982Y-15674693D01*
X57988982Y-15674693D02*
X58802156Y-14861520D01*
X58038480Y-14097844D02*
X57225307Y-14911018D01*
X58038480Y-14097844D02*
G75*
G02*
X58802156Y-14861520I3761520J2997844D01*
G01*
D12*
%TO.C,U3*%
X13095000Y-58475000D02*
X19445000Y-58475000D01*
X13095000Y-68065000D02*
X19445000Y-68065000D01*
D13*
X11335000Y-59460000D02*
G75*
G02*
X11135000Y-59460000I-100000J0D01*
G01*
X11135000Y-59460000D02*
G75*
G02*
X11335000Y-59460000I100000J0D01*
G01*
D11*
%TO.C,J7-2*%
X61380000Y-65330000D02*
X70620000Y-65330000D01*
X61380000Y-72870000D02*
X61380000Y-65330000D01*
X70620000Y-65330000D02*
X70620000Y-72870000D01*
X70620000Y-72870000D02*
X61380000Y-72870000D01*
%TO.C,J2-2*%
X40980000Y-31530000D02*
X50220000Y-31530000D01*
X40980000Y-39070000D02*
X40980000Y-31530000D01*
X50220000Y-31530000D02*
X50220000Y-39070000D01*
X50220000Y-39070000D02*
X40980000Y-39070000D01*
%TO.C,J5-2*%
X61180000Y-19530000D02*
X70420000Y-19530000D01*
X61180000Y-27070000D02*
X61180000Y-19530000D01*
X70420000Y-19530000D02*
X70420000Y-27070000D01*
X70420000Y-27070000D02*
X61180000Y-27070000D01*
D12*
%TO.C,U4*%
X13125000Y-83165000D02*
X19475000Y-83165000D01*
X13125000Y-92755000D02*
X19475000Y-92755000D01*
D13*
X11365000Y-84150000D02*
G75*
G02*
X11165000Y-84150000I-100000J0D01*
G01*
X11165000Y-84150000D02*
G75*
G02*
X11365000Y-84150000I100000J0D01*
G01*
D11*
%TO.C,J9_2*%
X83280000Y-51130000D02*
X91120000Y-51130000D01*
X83280000Y-61870000D02*
X83280000Y-51130000D01*
X89500000Y-61870000D02*
X89500000Y-51130000D01*
X90600000Y-61870000D02*
X90600000Y-51130000D01*
X91120000Y-51130000D02*
X91120000Y-59700000D01*
X91120000Y-60300000D02*
X91120000Y-61870000D01*
X91120000Y-61870000D02*
X83280000Y-61870000D01*
X91730000Y-60440000D02*
X91120000Y-60000000D01*
X91730000Y-59560000D01*
X91730000Y-60440000D01*
G36*
X91730000Y-60440000D02*
G01*
X91120000Y-60000000D01*
X91730000Y-59560000D01*
X91730000Y-60440000D01*
G37*
%TO.C,Q3*%
X56825307Y-61711018D02*
X57588982Y-62474693D01*
X57588982Y-62474693D02*
X58402156Y-61661520D01*
X57638480Y-60897844D02*
X56825307Y-61711018D01*
X57638480Y-60897844D02*
G75*
G02*
X58402156Y-61661520I3761520J2997844D01*
G01*
%TO.C,J7-1*%
X45180000Y-64930000D02*
X54420000Y-64930000D01*
X45180000Y-72470000D02*
X45180000Y-64930000D01*
X54420000Y-64930000D02*
X54420000Y-72470000D01*
X54420000Y-72470000D02*
X45180000Y-72470000D01*
%TO.C,J1-1*%
X25380000Y-7730000D02*
X34620000Y-7730000D01*
X25380000Y-15270000D02*
X25380000Y-7730000D01*
X34620000Y-7730000D02*
X34620000Y-15270000D01*
X34620000Y-15270000D02*
X25380000Y-15270000D01*
%TO.C,J6-2*%
X61180000Y-42730000D02*
X70420000Y-42730000D01*
X61180000Y-50270000D02*
X61180000Y-42730000D01*
X70420000Y-42730000D02*
X70420000Y-50270000D01*
X70420000Y-50270000D02*
X61180000Y-50270000D01*
%TO.C,C2*%
X242000Y-42642000D02*
X4782000Y-42642000D01*
X242000Y-42698000D02*
X242000Y-42642000D01*
X4782000Y-44726000D02*
X4782000Y-44782000D01*
X4782000Y-44782000D02*
X242000Y-44782000D01*
%TO.C,J3-2*%
X41380000Y-54530000D02*
X50620000Y-54530000D01*
X41380000Y-62070000D02*
X41380000Y-54530000D01*
X50620000Y-54530000D02*
X50620000Y-62070000D01*
X50620000Y-62070000D02*
X41380000Y-62070000D01*
%TO.C,J4-2*%
X41380000Y-78130000D02*
X50620000Y-78130000D01*
X41380000Y-85670000D02*
X41380000Y-78130000D01*
X50620000Y-78130000D02*
X50620000Y-85670000D01*
X50620000Y-85670000D02*
X41380000Y-85670000D01*
%TO.C,J8-2*%
X61180000Y-88330000D02*
X70420000Y-88330000D01*
X61180000Y-95870000D02*
X61180000Y-88330000D01*
X70420000Y-88330000D02*
X70420000Y-95870000D01*
X70420000Y-95870000D02*
X61180000Y-95870000D01*
%TO.C,C4*%
X242000Y-64642000D02*
X4782000Y-64642000D01*
X242000Y-64698000D02*
X242000Y-64642000D01*
X4782000Y-66726000D02*
X4782000Y-66782000D01*
X4782000Y-66782000D02*
X242000Y-66782000D01*
%TO.C,J3-1*%
X25180000Y-54330000D02*
X34420000Y-54330000D01*
X25180000Y-61870000D02*
X25180000Y-54330000D01*
X34420000Y-54330000D02*
X34420000Y-61870000D01*
X34420000Y-61870000D02*
X25180000Y-61870000D01*
D12*
%TO.C,U2*%
X13096900Y-33705000D02*
X19446900Y-33705000D01*
X13096900Y-43295000D02*
X19446900Y-43295000D01*
D13*
X11336900Y-34690000D02*
G75*
G02*
X11136900Y-34690000I-100000J0D01*
G01*
X11136900Y-34690000D02*
G75*
G02*
X11336900Y-34690000I100000J0D01*
G01*
D11*
%TO.C,J8-1*%
X45380000Y-88330000D02*
X54620000Y-88330000D01*
X45380000Y-95870000D02*
X45380000Y-88330000D01*
X54620000Y-88330000D02*
X54620000Y-95870000D01*
X54620000Y-95870000D02*
X45380000Y-95870000D01*
%TO.C,C1*%
X242000Y-31642000D02*
X4782000Y-31642000D01*
X242000Y-31698000D02*
X242000Y-31642000D01*
X4782000Y-33726000D02*
X4782000Y-33782000D01*
X4782000Y-33782000D02*
X242000Y-33782000D01*
%TO.C,Q2*%
X56825307Y-38911018D02*
X57588982Y-39674693D01*
X57588982Y-39674693D02*
X58402156Y-38861520D01*
X57638480Y-38097844D02*
X56825307Y-38911018D01*
X57638480Y-38097844D02*
G75*
G02*
X58402156Y-38861520I3761520J2997844D01*
G01*
%TO.C,Q4*%
X56425307Y-85311018D02*
X57188982Y-86074693D01*
X57188982Y-86074693D02*
X58002156Y-85261520D01*
X57238480Y-84497844D02*
X56425307Y-85311018D01*
X57238480Y-84497844D02*
G75*
G02*
X58002156Y-85261520I3761520J2997844D01*
G01*
%TO.C,J4-1*%
X25180000Y-77930000D02*
X34420000Y-77930000D01*
X25180000Y-85470000D02*
X25180000Y-77930000D01*
X34420000Y-77930000D02*
X34420000Y-85470000D01*
X34420000Y-85470000D02*
X25180000Y-85470000D01*
%TO.C,J0_3*%
X-17120000Y-57130000D02*
X-9280000Y-57130000D01*
X-17120000Y-58700000D02*
X-17120000Y-57130000D01*
X-17120000Y-67870000D02*
X-17120000Y-59300000D01*
X-16600000Y-57130000D02*
X-16600000Y-67870000D01*
X-15500000Y-57130000D02*
X-15500000Y-67870000D01*
X-9280000Y-57130000D02*
X-9280000Y-67870000D01*
X-9280000Y-67870000D02*
X-17120000Y-67870000D01*
X-17120000Y-59000000D02*
X-17730000Y-59440000D01*
X-17730000Y-58560000D01*
X-17120000Y-59000000D01*
G36*
X-17120000Y-59000000D02*
G01*
X-17730000Y-59440000D01*
X-17730000Y-58560000D01*
X-17120000Y-59000000D01*
G37*
%TO.C,J2-1*%
X25380000Y-31330000D02*
X34620000Y-31330000D01*
X25380000Y-38870000D02*
X25380000Y-31330000D01*
X34620000Y-31330000D02*
X34620000Y-38870000D01*
X34620000Y-38870000D02*
X25380000Y-38870000D01*
D12*
%TO.C,U1*%
X13095000Y-8375000D02*
X19445000Y-8375000D01*
X13095000Y-17965000D02*
X19445000Y-17965000D01*
D13*
X11335000Y-9360000D02*
G75*
G02*
X11135000Y-9360000I-100000J0D01*
G01*
X11135000Y-9360000D02*
G75*
G02*
X11335000Y-9360000I100000J0D01*
G01*
D11*
%TO.C,J0_1*%
X-17120000Y-32130000D02*
X-9280000Y-32130000D01*
X-17120000Y-33700000D02*
X-17120000Y-32130000D01*
X-17120000Y-42870000D02*
X-17120000Y-34300000D01*
X-16600000Y-32130000D02*
X-16600000Y-42870000D01*
X-15500000Y-32130000D02*
X-15500000Y-42870000D01*
X-9280000Y-32130000D02*
X-9280000Y-42870000D01*
X-9280000Y-42870000D02*
X-17120000Y-42870000D01*
X-17120000Y-34000000D02*
X-17730000Y-34440000D01*
X-17730000Y-33560000D01*
X-17120000Y-34000000D01*
G36*
X-17120000Y-34000000D02*
G01*
X-17730000Y-34440000D01*
X-17730000Y-33560000D01*
X-17120000Y-34000000D01*
G37*
%TO.C,J6-1*%
X44980000Y-42130000D02*
X54220000Y-42130000D01*
X44980000Y-49670000D02*
X44980000Y-42130000D01*
X54220000Y-42130000D02*
X54220000Y-49670000D01*
X54220000Y-49670000D02*
X44980000Y-49670000D01*
%TO.C,J1-2*%
X41380000Y-7730000D02*
X50620000Y-7730000D01*
X41380000Y-15270000D02*
X41380000Y-7730000D01*
X50620000Y-7730000D02*
X50620000Y-15270000D01*
X50620000Y-15270000D02*
X41380000Y-15270000D01*
%TO.C,J0_2*%
X-17120000Y-44630000D02*
X-9280000Y-44630000D01*
X-17120000Y-46200000D02*
X-17120000Y-44630000D01*
X-17120000Y-55370000D02*
X-17120000Y-46800000D01*
X-16600000Y-44630000D02*
X-16600000Y-55370000D01*
X-15500000Y-44630000D02*
X-15500000Y-55370000D01*
X-9280000Y-44630000D02*
X-9280000Y-55370000D01*
X-9280000Y-55370000D02*
X-17120000Y-55370000D01*
X-17120000Y-46500000D02*
X-17730000Y-46940000D01*
X-17730000Y-46060000D01*
X-17120000Y-46500000D01*
G36*
X-17120000Y-46500000D02*
G01*
X-17730000Y-46940000D01*
X-17730000Y-46060000D01*
X-17120000Y-46500000D01*
G37*
%TD*%
M02*
