M48
; DRILL file {KiCad 9.0.4-9.0.4-0~ubuntu24.04.1} date 2025-09-30T20:14:37-0600
; FORMAT={-:-/ absolute / metric / decimal}
; #@! TF.CreationDate,2025-09-30T20:14:37-06:00
; #@! TF.GenerationSoftware,Kicad,Pcbnew,9.0.4-9.0.4-0~ubuntu24.04.1
; #@! TF.FileFunction,Plated,1,2,PTH
FMAT,2
METRIC
; #@! TA.AperFunction,Plated,PTH,ViaDrill
T1C0.300
; #@! TA.AperFunction,Plated,PTH,ComponentDrill
T2C0.700
; #@! TA.AperFunction,Plated,PTH,ComponentDrill
T3C0.780
; #@! TA.AperFunction,Plated,PTH,ComponentDrill
T4C0.800
; #@! TA.AperFunction,Plated,PTH,ComponentDrill
T5C1.200
; #@! TA.AperFunction,Plated,PTH,ComponentDrill
T6C1.500
; #@! TA.AperFunction,Plated,PTH,ComponentDrill
T7C2.200
%
G90
G05
T1
X12.664Y-69.277
X77.58Y-25.114
T2
X61.0Y-78.96
X61.0Y-84.04
X61.4Y-32.56
X61.4Y-37.64
X61.4Y-55.36
X61.4Y-60.44
X61.8Y-8.56
X61.8Y-13.64
X63.54Y-81.5
X63.94Y-35.1
X63.94Y-57.9
X64.34Y-11.1
T3
X12.3Y-9.36
X12.3Y-11.9
X12.3Y-14.44
X12.3Y-16.98
X12.3Y-59.46
X12.3Y-62.0
X12.3Y-64.54
X12.3Y-67.08
X12.302Y-34.69
X12.302Y-37.23
X12.302Y-39.77
X12.302Y-42.31
X12.33Y-84.15
X12.33Y-86.69
X12.33Y-89.23
X12.33Y-91.77
X20.24Y-9.36
X20.24Y-11.9
X20.24Y-14.44
X20.24Y-16.98
X20.24Y-59.46
X20.24Y-62.0
X20.24Y-64.54
X20.24Y-67.08
X20.242Y-34.69
X20.242Y-37.23
X20.242Y-39.77
X20.242Y-42.31
X20.27Y-84.15
X20.27Y-86.69
X20.27Y-89.23
X20.27Y-91.77
T4
X0.012Y-32.712
X0.012Y-43.712
X0.012Y-54.712
X0.012Y-65.712
X5.012Y-32.712
X5.012Y-43.712
X5.012Y-54.712
X5.012Y-65.712
T5
X-12.5Y-34.0
X-12.5Y-37.5
X-12.5Y-41.0
X-12.5Y-46.5
X-12.5Y-50.0
X-12.5Y-53.5
X-12.5Y-59.0
X-12.5Y-62.5
X-12.5Y-66.0
X86.332Y-40.5
X86.332Y-44.0
X86.332Y-47.5
X86.5Y-53.0
X86.5Y-56.5
X86.5Y-60.0
T6
X29.8Y-58.1
X29.8Y-81.7
X30.0Y-11.5
X30.0Y-35.1
X45.6Y-35.3
X46.0Y-11.5
X46.0Y-58.3
X46.0Y-81.9
X49.6Y-23.3
X49.6Y-45.9
X49.8Y-68.7
X50.0Y-92.1
X65.8Y-23.3
X65.8Y-46.5
X65.8Y-92.1
X66.0Y-69.1
T7
X-18.0Y-6.212
X-18.0Y-93.8
X93.8Y-6.2
X93.8Y-93.8
M30
