%TF.GenerationSoftware,KiCad,Pcbnew,9.0.4-9.0.4-0~ubuntu24.04.1*%
%TF.CreationDate,2025-09-30T20:14:07-06:00*%
%TF.ProjectId,Interfaz_analogica,496e7465-7266-4617-9a5f-616e616c6f67,rev?*%
%TF.SameCoordinates,Original*%
%TF.FileFunction,Copper,L1,Top*%
%TF.FilePolarity,Positive*%
%FSLAX46Y46*%
G04 Gerber Fmt 4.6, Leading zero omitted, Abs format (unit mm)*
G04 Created by KiCad (PCBNEW 9.0.4-9.0.4-0~ubuntu24.04.1) date 2025-09-30 20:14:07*
%MOMM*%
%LPD*%
G01*
G04 APERTURE LIST*
G04 Aperture macros list*
%AMRoundRect*
0 Rectangle with rounded corners*
0 $1 Rounding radius*
0 $2 $3 $4 $5 $6 $7 $8 $9 X,Y pos of 4 corners*
0 Add a 4 corners polygon primitive as box body*
4,1,4,$2,$3,$4,$5,$6,$7,$8,$9,$2,$3,0*
0 Add four circle primitives for the rounded corners*
1,1,$1+$1,$2,$3*
1,1,$1+$1,$4,$5*
1,1,$1+$1,$6,$7*
1,1,$1+$1,$8,$9*
0 Add four rect primitives between the rounded corners*
20,1,$1+$1,$2,$3,$4,$5,0*
20,1,$1+$1,$4,$5,$6,$7,0*
20,1,$1+$1,$6,$7,$8,$9,0*
20,1,$1+$1,$8,$9,$2,$3,0*%
G04 Aperture macros list end*
%TA.AperFunction,ComponentPad*%
%ADD10RoundRect,0.250001X0.949999X-0.949999X0.949999X0.949999X-0.949999X0.949999X-0.949999X-0.949999X0*%
%TD*%
%TA.AperFunction,ComponentPad*%
%ADD11C,2.400000*%
%TD*%
%TA.AperFunction,ComponentPad*%
%ADD12C,1.600000*%
%TD*%
%TA.AperFunction,ComponentPad*%
%ADD13C,3.000000*%
%TD*%
%TA.AperFunction,ComponentPad*%
%ADD14O,1.200000X1.600000*%
%TD*%
%TA.AperFunction,ComponentPad*%
%ADD15C,1.200000*%
%TD*%
%TA.AperFunction,ComponentPad*%
%ADD16R,1.130000X1.130000*%
%TD*%
%TA.AperFunction,ComponentPad*%
%ADD17C,1.130000*%
%TD*%
%TA.AperFunction,ComponentPad*%
%ADD18C,3.500000*%
%TD*%
%TA.AperFunction,ComponentPad*%
%ADD19RoundRect,0.250001X-0.949999X0.949999X-0.949999X-0.949999X0.949999X-0.949999X0.949999X0.949999X0*%
%TD*%
%TA.AperFunction,ViaPad*%
%ADD20C,0.600000*%
%TD*%
%TA.AperFunction,Conductor*%
%ADD21C,1.000000*%
%TD*%
%TA.AperFunction,Conductor*%
%ADD22C,0.200000*%
%TD*%
G04 APERTURE END LIST*
D10*
%TO.P,J9_1,1,Pin_1*%
%TO.N,Net-(J5-2-Pin_1)*%
X86332500Y-47500000D03*
D11*
%TO.P,J9_1,2,Pin_2*%
%TO.N,GNDREF*%
X86332500Y-44000000D03*
%TO.P,J9_1,3,Pin_3*%
%TO.N,Net-(J9_1-Pin_3)*%
X86332500Y-40500000D03*
%TD*%
D12*
%TO.P,C3,1*%
%TO.N,Net-(J0_2-Pin_3)*%
X12000Y-54712000D03*
%TO.P,C3,2*%
%TO.N,GNDREF*%
X5012000Y-54712000D03*
%TD*%
D13*
%TO.P,J5-1,1,Pin_1*%
%TO.N,GNDREF*%
X49600000Y-23300000D03*
%TD*%
D14*
%TO.P,Q1,1,E*%
%TO.N,Net-(J5-2-Pin_1)*%
X61800000Y-13640000D03*
D15*
%TO.P,Q1,2,B*%
%TO.N,Net-(J1-2-Pin_1)*%
X64340000Y-11100000D03*
%TO.P,Q1,3,C*%
%TO.N,Net-(J9_1-Pin_3)*%
X61800000Y-8560000D03*
%TD*%
D16*
%TO.P,U3,1,NULL*%
%TO.N,unconnected-(U3-NULL-Pad1)*%
X12300000Y-59460000D03*
D17*
%TO.P,U3,2,-*%
%TO.N,Net-(J3-1-Pin_1)*%
X12300000Y-62000000D03*
%TO.P,U3,3,+*%
%TO.N,Net-(J0_2-Pin_3)*%
X12300000Y-64540000D03*
%TO.P,U3,4,V-*%
%TO.N,Net-(J0_1-Pin_2)*%
X12300000Y-67080000D03*
%TO.P,U3,5,NULL*%
%TO.N,unconnected-(U3-NULL-Pad5)*%
X20240000Y-67080000D03*
%TO.P,U3,6*%
%TO.N,Net-(J3-1-Pin_1)*%
X20240000Y-64540000D03*
%TO.P,U3,7,V+*%
%TO.N,Net-(J0_1-Pin_1)*%
X20240000Y-62000000D03*
%TO.P,U3,8,NC*%
%TO.N,unconnected-(U3-NC-Pad8)*%
X20240000Y-59460000D03*
%TD*%
D18*
%TO.P,H4,4*%
%TO.N,N/C*%
X-18000000Y-93800000D03*
%TD*%
D13*
%TO.P,J7-2,1,Pin_1*%
%TO.N,Net-(J7-2-Pin_1)*%
X66000000Y-69100000D03*
%TD*%
%TO.P,J2-2,1,Pin_1*%
%TO.N,Net-(J2-2-Pin_1)*%
X45600000Y-35300000D03*
%TD*%
%TO.P,J5-2,1,Pin_1*%
%TO.N,Net-(J5-2-Pin_1)*%
X65800000Y-23300000D03*
%TD*%
D16*
%TO.P,U4,1,NULL*%
%TO.N,unconnected-(U4-NULL-Pad1)*%
X12330000Y-84150000D03*
D17*
%TO.P,U4,2,-*%
%TO.N,Net-(J4-1-Pin_1)*%
X12330000Y-86690000D03*
%TO.P,U4,3,+*%
%TO.N,Net-(J0_3-Pin_1)*%
X12330000Y-89230000D03*
%TO.P,U4,4,V-*%
%TO.N,Net-(J0_1-Pin_2)*%
X12330000Y-91770000D03*
%TO.P,U4,5,NULL*%
%TO.N,unconnected-(U4-NULL-Pad5)*%
X20270000Y-91770000D03*
%TO.P,U4,6*%
%TO.N,Net-(J4-1-Pin_1)*%
X20270000Y-89230000D03*
%TO.P,U4,7,V+*%
%TO.N,Net-(J0_1-Pin_1)*%
X20270000Y-86690000D03*
%TO.P,U4,8,NC*%
%TO.N,unconnected-(U4-NC-Pad8)*%
X20270000Y-84150000D03*
%TD*%
D10*
%TO.P,J9_2,1,Pin_1*%
%TO.N,Net-(J8-2-Pin_1)*%
X86500000Y-60000000D03*
D11*
%TO.P,J9_2,2,Pin_2*%
%TO.N,Net-(J7-2-Pin_1)*%
X86500000Y-56500000D03*
%TO.P,J9_2,3,Pin_3*%
%TO.N,Net-(J6-2-Pin_1)*%
X86500000Y-53000000D03*
%TD*%
D14*
%TO.P,Q3,1,E*%
%TO.N,Net-(J7-2-Pin_1)*%
X61400000Y-60440000D03*
D15*
%TO.P,Q3,2,B*%
%TO.N,Net-(J3-2-Pin_1)*%
X63940000Y-57900000D03*
%TO.P,Q3,3,C*%
%TO.N,Net-(J9_1-Pin_3)*%
X61400000Y-55360000D03*
%TD*%
D13*
%TO.P,J7-1,1,Pin_1*%
%TO.N,GNDREF*%
X49800000Y-68700000D03*
%TD*%
%TO.P,J1-1,1,Pin_1*%
%TO.N,Net-(J1-1-Pin_1)*%
X30000000Y-11500000D03*
%TD*%
%TO.P,J6-2,1,Pin_1*%
%TO.N,Net-(J6-2-Pin_1)*%
X65800000Y-46500000D03*
%TD*%
D12*
%TO.P,C2,1*%
%TO.N,Net-(J0_2-Pin_2)*%
X12000Y-43712000D03*
%TO.P,C2,2*%
%TO.N,GNDREF*%
X5012000Y-43712000D03*
%TD*%
D13*
%TO.P,J3-2,1,Pin_1*%
%TO.N,Net-(J3-2-Pin_1)*%
X46000000Y-58300000D03*
%TD*%
%TO.P,J4-2,1,Pin_1*%
%TO.N,Net-(J4-2-Pin_1)*%
X46000000Y-81900000D03*
%TD*%
%TO.P,J8-2,1,Pin_1*%
%TO.N,Net-(J8-2-Pin_1)*%
X65800000Y-92100000D03*
%TD*%
D12*
%TO.P,C4,1*%
%TO.N,Net-(J0_3-Pin_1)*%
X12000Y-65712000D03*
%TO.P,C4,2*%
%TO.N,GNDREF*%
X5012000Y-65712000D03*
%TD*%
D18*
%TO.P,H3,3*%
%TO.N,N/C*%
X93800000Y-93800000D03*
%TD*%
D13*
%TO.P,J3-1,1,Pin_1*%
%TO.N,Net-(J3-1-Pin_1)*%
X29800000Y-58100000D03*
%TD*%
D16*
%TO.P,U2,1,NULL*%
%TO.N,unconnected-(U2-NULL-Pad1)*%
X12301900Y-34690000D03*
D17*
%TO.P,U2,2,-*%
%TO.N,Net-(J2-1-Pin_1)*%
X12301900Y-37230000D03*
%TO.P,U2,3,+*%
%TO.N,Net-(J0_2-Pin_2)*%
X12301900Y-39770000D03*
%TO.P,U2,4,V-*%
%TO.N,Net-(J0_1-Pin_2)*%
X12301900Y-42310000D03*
%TO.P,U2,5,NULL*%
%TO.N,unconnected-(U2-NULL-Pad5)*%
X20241900Y-42310000D03*
%TO.P,U2,6*%
%TO.N,Net-(J2-1-Pin_1)*%
X20241900Y-39770000D03*
%TO.P,U2,7,V+*%
%TO.N,Net-(J0_1-Pin_1)*%
X20241900Y-37230000D03*
%TO.P,U2,8,NC*%
%TO.N,unconnected-(U2-NC-Pad8)*%
X20241900Y-34690000D03*
%TD*%
D13*
%TO.P,J8-1,1,Pin_1*%
%TO.N,GNDREF*%
X50000000Y-92100000D03*
%TD*%
D18*
%TO.P,H1,1*%
%TO.N,N/C*%
X-18000000Y-6212000D03*
%TD*%
D12*
%TO.P,C1,1*%
%TO.N,Net-(J0_2-Pin_1)*%
X12000Y-32712000D03*
%TO.P,C1,2*%
%TO.N,GNDREF*%
X5012000Y-32712000D03*
%TD*%
D14*
%TO.P,Q2,1,E*%
%TO.N,Net-(J6-2-Pin_1)*%
X61400000Y-37640000D03*
D15*
%TO.P,Q2,2,B*%
%TO.N,Net-(J2-2-Pin_1)*%
X63940000Y-35100000D03*
%TO.P,Q2,3,C*%
%TO.N,Net-(J9_1-Pin_3)*%
X61400000Y-32560000D03*
%TD*%
D14*
%TO.P,Q4,1,E*%
%TO.N,Net-(J8-2-Pin_1)*%
X61000000Y-84040000D03*
D15*
%TO.P,Q4,2,B*%
%TO.N,Net-(J4-2-Pin_1)*%
X63540000Y-81500000D03*
%TO.P,Q4,3,C*%
%TO.N,Net-(J9_1-Pin_3)*%
X61000000Y-78960000D03*
%TD*%
D13*
%TO.P,J4-1,1,Pin_1*%
%TO.N,Net-(J4-1-Pin_1)*%
X29800000Y-81700000D03*
%TD*%
D19*
%TO.P,J0_3,1,Pin_1*%
%TO.N,Net-(J0_3-Pin_1)*%
X-12500000Y-59000000D03*
D11*
%TO.P,J0_3,2,Pin_2*%
%TO.N,unconnected-(J0_3-Pin_2-Pad2)*%
X-12500000Y-62500000D03*
%TO.P,J0_3,3,Pin_3*%
%TO.N,unconnected-(J0_3-Pin_3-Pad3)*%
X-12500000Y-66000000D03*
%TD*%
D18*
%TO.P,H2,2*%
%TO.N,N/C*%
X93800000Y-6200000D03*
%TD*%
D13*
%TO.P,J2-1,1,Pin_1*%
%TO.N,Net-(J2-1-Pin_1)*%
X30000000Y-35100000D03*
%TD*%
D16*
%TO.P,U1,1,NULL*%
%TO.N,unconnected-(U1-NULL-Pad1)*%
X12300000Y-9360000D03*
D17*
%TO.P,U1,2,-*%
%TO.N,Net-(J1-1-Pin_1)*%
X12300000Y-11900000D03*
%TO.P,U1,3,+*%
%TO.N,Net-(J0_2-Pin_1)*%
X12300000Y-14440000D03*
%TO.P,U1,4,V-*%
%TO.N,Net-(J0_1-Pin_2)*%
X12300000Y-16980000D03*
%TO.P,U1,5,NULL*%
%TO.N,unconnected-(U1-NULL-Pad5)*%
X20240000Y-16980000D03*
%TO.P,U1,6*%
%TO.N,Net-(J1-1-Pin_1)*%
X20240000Y-14440000D03*
%TO.P,U1,7,V+*%
%TO.N,Net-(J0_1-Pin_1)*%
X20240000Y-11900000D03*
%TO.P,U1,8,NC*%
%TO.N,unconnected-(U1-NC-Pad8)*%
X20240000Y-9360000D03*
%TD*%
D19*
%TO.P,J0_1,1,Pin_1*%
%TO.N,Net-(J0_1-Pin_1)*%
X-12500000Y-34000000D03*
D11*
%TO.P,J0_1,2,Pin_2*%
%TO.N,Net-(J0_1-Pin_2)*%
X-12500000Y-37500000D03*
%TO.P,J0_1,3,Pin_3*%
%TO.N,GNDREF*%
X-12500000Y-41000000D03*
%TD*%
D13*
%TO.P,J6-1,1,Pin_1*%
%TO.N,GNDREF*%
X49600000Y-45900000D03*
%TD*%
%TO.P,J1-2,1,Pin_1*%
%TO.N,Net-(J1-2-Pin_1)*%
X46000000Y-11500000D03*
%TD*%
D19*
%TO.P,J0_2,1,Pin_1*%
%TO.N,Net-(J0_2-Pin_1)*%
X-12500000Y-46500000D03*
D11*
%TO.P,J0_2,2,Pin_2*%
%TO.N,Net-(J0_2-Pin_2)*%
X-12500000Y-50000000D03*
%TO.P,J0_2,3,Pin_3*%
%TO.N,Net-(J0_2-Pin_3)*%
X-12500000Y-53500000D03*
%TD*%
D20*
%TO.N,Net-(J5-2-Pin_1)*%
X77579600Y-25113800D03*
%TO.N,GNDREF*%
X12663600Y-69277300D03*
%TD*%
D21*
%TO.N,Net-(J9_1-Pin_3)*%
X86332500Y-40500000D02*
X86332500Y-32560000D01*
X63707600Y-8560000D02*
X61800000Y-8560000D01*
X78585300Y-23437700D02*
X63707600Y-8560000D01*
X78585300Y-32560000D02*
X78585300Y-23437700D01*
X86332500Y-32560000D02*
X61400000Y-32560000D01*
%TO.N,Net-(J0_1-Pin_1)*%
X21557300Y-10582700D02*
X20240000Y-11900000D01*
X21557300Y-8840000D02*
X21557300Y-10582700D01*
X20792200Y-8074900D02*
X21557300Y-8840000D01*
X11447400Y-8074900D02*
X20792200Y-8074900D01*
X-12500000Y-32022300D02*
X11447400Y-8074900D01*
X-12500000Y-34000000D02*
X-12500000Y-32022300D01*
X21550000Y-35921900D02*
X20241900Y-37230000D01*
X21550000Y-13210000D02*
X21550000Y-35921900D01*
X20240000Y-11900000D02*
X21550000Y-13210000D01*
X21561700Y-60678300D02*
X20240000Y-62000000D01*
X21561700Y-38549800D02*
X21561700Y-60678300D01*
X20241900Y-37230000D02*
X21561700Y-38549800D01*
%TO.N,Net-(J0_1-Pin_2)*%
X11013200Y-65793200D02*
X12300000Y-67080000D01*
X11013200Y-43598700D02*
X11013200Y-65793200D01*
X12301900Y-42310000D02*
X11013200Y-43598700D01*
X11016100Y-90456100D02*
X12330000Y-91770000D01*
X11016100Y-68363900D02*
X11016100Y-90456100D01*
X12300000Y-67080000D02*
X11016100Y-68363900D01*
X10997800Y-41005900D02*
X12301900Y-42310000D01*
X10997800Y-18282200D02*
X10997800Y-41005900D01*
X12300000Y-16980000D02*
X10997800Y-18282200D01*
X8568000Y-16432000D02*
X10163700Y-16432000D01*
X-12500000Y-37500000D02*
X8568000Y-16432000D01*
D22*
X10163700Y-16432000D02*
X11752000Y-16432000D01*
D21*
X11752000Y-16432000D02*
X11759300Y-16432000D01*
D22*
X11759300Y-16439300D02*
X12300000Y-16980000D01*
X11759300Y-16432000D02*
X11759300Y-16439300D01*
D21*
%TO.N,Net-(J0_3-Pin_1)*%
X-5788000Y-65712000D02*
X12000Y-65712000D01*
X-12500000Y-59000000D02*
X-5788000Y-65712000D01*
D22*
%TO.N,Net-(J0_2-Pin_3)*%
X76400Y-54647600D02*
X12000Y-54712000D01*
X1129400Y-54647600D02*
X76400Y-54647600D01*
D21*
X-1200000Y-53500000D02*
X-12500000Y-53500000D01*
X12000Y-54712000D02*
X-1200000Y-53500000D01*
%TO.N,Net-(J0_2-Pin_2)*%
X-6212000Y-43712000D02*
X12000Y-43712000D01*
X-12500000Y-50000000D02*
X-6212000Y-43712000D01*
%TO.N,Net-(J0_2-Pin_1)*%
X12000Y-33988000D02*
X12000Y-32712000D01*
X-12500000Y-46500000D02*
X12000Y-33988000D01*
%TO.N,Net-(J8-2-Pin_1)*%
X62301700Y-84039900D02*
X62301700Y-84040000D01*
X62857600Y-84039900D02*
X62301700Y-84039900D01*
X86500000Y-60397500D02*
X62857600Y-84039900D01*
X86500000Y-60000000D02*
X86500000Y-60397500D01*
X61000000Y-84040000D02*
X62301700Y-84040000D01*
X61000000Y-84040000D02*
X61000000Y-85541700D01*
X65799900Y-92100000D02*
X65800000Y-92100000D01*
X65799900Y-90341600D02*
X65799900Y-92100000D01*
X61000000Y-85541700D02*
X65799900Y-90341600D01*
%TO.N,Net-(J7-2-Pin_1)*%
X66000000Y-69099900D02*
X66000000Y-69100000D01*
X73900100Y-69099900D02*
X66000000Y-69099900D01*
X86500000Y-56500000D02*
X73900100Y-69099900D01*
X61400000Y-64500000D02*
X61400000Y-60440000D01*
X66000000Y-69100000D02*
X61400000Y-64500000D01*
%TO.N,Net-(J6-2-Pin_1)*%
X80000000Y-46500000D02*
X65800000Y-46500000D01*
X86500000Y-53000000D02*
X80000000Y-46500000D01*
%TO.N,Net-(J5-2-Pin_1)*%
X67613800Y-25113800D02*
X65800000Y-23300000D01*
X77579600Y-25113800D02*
X67613800Y-25113800D01*
%TO.N,Net-(J4-2-Pin_1)*%
X46400000Y-81500000D02*
X46000000Y-81900000D01*
X63540000Y-81500000D02*
X46400000Y-81500000D01*
%TO.N,Net-(J4-1-Pin_1)*%
X17730000Y-86690000D02*
X20270000Y-89230000D01*
X12330000Y-86690000D02*
X17730000Y-86690000D01*
X22270000Y-89230000D02*
X20270000Y-89230000D01*
X29800000Y-81700000D02*
X22270000Y-89230000D01*
%TO.N,Net-(J3-2-Pin_1)*%
X63540000Y-58300000D02*
X63940000Y-57900000D01*
X46000000Y-58300000D02*
X63540000Y-58300000D01*
%TO.N,Net-(J3-1-Pin_1)*%
X17700000Y-62000000D02*
X20240000Y-64540000D01*
X12300000Y-62000000D02*
X17700000Y-62000000D01*
X26680000Y-58100000D02*
X29800000Y-58100000D01*
X20240000Y-64540000D02*
X26680000Y-58100000D01*
%TO.N,Net-(J2-2-Pin_1)*%
X63740000Y-35300000D02*
X63940000Y-35100000D01*
X45600000Y-35300000D02*
X63740000Y-35300000D01*
%TO.N,Net-(J2-1-Pin_1)*%
X17701900Y-37230000D02*
X20241900Y-39770000D01*
X12301900Y-37230000D02*
X17701900Y-37230000D01*
%TO.N,Net-(J1-2-Pin_1)*%
X63940000Y-11500000D02*
X64340000Y-11100000D01*
X46000000Y-11500000D02*
X63940000Y-11500000D01*
%TO.N,Net-(J1-1-Pin_1)*%
X17700000Y-11900000D02*
X20240000Y-14440000D01*
X12300000Y-11900000D02*
X17700000Y-11900000D01*
%TO.N,GNDREF*%
X1500000Y-27000000D02*
X-12500000Y-41000000D01*
X5012000Y-30512000D02*
X1500000Y-27000000D01*
X5012000Y-32712000D02*
X5012000Y-30512000D01*
X5012000Y-43712000D02*
X5012000Y-65712000D01*
X5012000Y-43712000D02*
X5012000Y-32712000D01*
X51500000Y-44000000D02*
X49600000Y-45900000D01*
X86332500Y-44000000D02*
X51500000Y-44000000D01*
D22*
X49222700Y-69277300D02*
X49800000Y-68700000D01*
D21*
X12663600Y-69277300D02*
X49222700Y-69277300D01*
D22*
X12663600Y-69277300D02*
X12029300Y-69277300D01*
X12029300Y-69277300D02*
X12663600Y-69277300D01*
%TD*%
M02*
