%TF.GenerationSoftware,KiCad,Pcbnew,9.0.4-9.0.4-0~ubuntu24.04.1*%
%TF.CreationDate,2025-09-30T20:45:27-06:00*%
%TF.ProjectId,Interfaz_digital,496e7465-7266-4617-9a5f-646967697461,rev?*%
%TF.SameCoordinates,Original*%
%TF.FileFunction,Copper,L2,Bot*%
%TF.FilePolarity,Positive*%
%FSLAX46Y46*%
G04 Gerber Fmt 4.6, Leading zero omitted, Abs format (unit mm)*
G04 Created by KiCad (PCBNEW 9.0.4-9.0.4-0~ubuntu24.04.1) date 2025-09-30 20:45:27*
%MOMM*%
%LPD*%
G01*
G04 APERTURE LIST*
G04 Aperture macros list*
%AMRoundRect*
0 Rectangle with rounded corners*
0 $1 Rounding radius*
0 $2 $3 $4 $5 $6 $7 $8 $9 X,Y pos of 4 corners*
0 Add a 4 corners polygon primitive as box body*
4,1,4,$2,$3,$4,$5,$6,$7,$8,$9,$2,$3,0*
0 Add four circle primitives for the rounded corners*
1,1,$1+$1,$2,$3*
1,1,$1+$1,$4,$5*
1,1,$1+$1,$6,$7*
1,1,$1+$1,$8,$9*
0 Add four rect primitives between the rounded corners*
20,1,$1+$1,$2,$3,$4,$5,0*
20,1,$1+$1,$4,$5,$6,$7,0*
20,1,$1+$1,$6,$7,$8,$9,0*
20,1,$1+$1,$8,$9,$2,$3,0*%
G04 Aperture macros list end*
%TA.AperFunction,ComponentPad*%
%ADD10R,1.800000X1.800000*%
%TD*%
%TA.AperFunction,ComponentPad*%
%ADD11C,1.800000*%
%TD*%
%TA.AperFunction,ComponentPad*%
%ADD12RoundRect,0.250000X-0.550000X-0.550000X0.550000X-0.550000X0.550000X0.550000X-0.550000X0.550000X0*%
%TD*%
%TA.AperFunction,ComponentPad*%
%ADD13C,1.600000*%
%TD*%
%TA.AperFunction,ComponentPad*%
%ADD14C,3.000000*%
%TD*%
%TA.AperFunction,ComponentPad*%
%ADD15RoundRect,0.250001X0.949999X-0.949999X0.949999X0.949999X-0.949999X0.949999X-0.949999X-0.949999X0*%
%TD*%
%TA.AperFunction,ComponentPad*%
%ADD16C,2.400000*%
%TD*%
%TA.AperFunction,ComponentPad*%
%ADD17RoundRect,0.250001X-0.949999X0.949999X-0.949999X-0.949999X0.949999X-0.949999X0.949999X0.949999X0*%
%TD*%
%TA.AperFunction,Conductor*%
%ADD18C,1.000000*%
%TD*%
%TA.AperFunction,Conductor*%
%ADD19C,0.200000*%
%TD*%
G04 APERTURE END LIST*
D10*
%TO.P,D7,1,K*%
%TO.N,Net-(D7-K)*%
X172500000Y-115000000D03*
D11*
%TO.P,D7,2,A*%
%TO.N,Net-(D7-A)*%
X169960000Y-115000000D03*
%TD*%
D12*
%TO.P,U4,1*%
%TO.N,Net-(D4-K)*%
X180195000Y-84225000D03*
D13*
%TO.P,U4,2*%
%TO.N,Net-(J0_1-Pin_1)*%
X180195000Y-86765000D03*
%TO.P,U4,3*%
%TO.N,Net-(J9_2-Pin_1)*%
X187815000Y-86765000D03*
%TO.P,U4,4*%
%TO.N,Net-(J9_1-Pin_3)*%
X187815000Y-84225000D03*
%TD*%
D12*
%TO.P,U1,1*%
%TO.N,Net-(D1-K)*%
X180000000Y-53960000D03*
D13*
%TO.P,U1,2*%
%TO.N,Net-(J0_1-Pin_1)*%
X180000000Y-56500000D03*
%TO.P,U1,3*%
%TO.N,Net-(J9_1-Pin_1)*%
X187620000Y-56500000D03*
%TO.P,U1,4*%
%TO.N,Net-(J9_1-Pin_3)*%
X187620000Y-53960000D03*
%TD*%
D10*
%TO.P,D2,1,K*%
%TO.N,Net-(D2-K)*%
X171730000Y-65500000D03*
D11*
%TO.P,D2,2,A*%
%TO.N,Net-(D2-A)*%
X169190000Y-65500000D03*
%TD*%
D13*
%TO.P,R6,1*%
%TO.N,Net-(J9_3-Pin_2)*%
X194420000Y-105000000D03*
%TO.P,R6,2*%
%TO.N,Net-(J9_1-Pin_2)*%
X204580000Y-105000000D03*
%TD*%
D14*
%TO.P,J2-1,1,Pin_1*%
%TO.N,Net-(J0_1-Pin_3)*%
X144000000Y-65000000D03*
%TD*%
%TO.P,J6-1,1,Pin_1*%
%TO.N,Net-(J0_3-Pin_1)*%
X144000000Y-105000000D03*
%TD*%
D13*
%TO.P,R1,1*%
%TO.N,Net-(J9_1-Pin_1)*%
X194500000Y-55000000D03*
%TO.P,R1,2*%
%TO.N,Net-(J9_1-Pin_2)*%
X204660000Y-55000000D03*
%TD*%
D15*
%TO.P,J9_2,1,Pin_1*%
%TO.N,Net-(J9_2-Pin_1)*%
X218500000Y-88500000D03*
D16*
%TO.P,J9_2,2,Pin_2*%
%TO.N,Net-(J9_2-Pin_2)*%
X218500000Y-85000000D03*
%TO.P,J9_2,3,Pin_3*%
%TO.N,Net-(J9_2-Pin_3)*%
X218500000Y-81500000D03*
%TD*%
D14*
%TO.P,J7-1,1,Pin_1*%
%TO.N,Net-(J0_3-Pin_2)*%
X144000000Y-115000000D03*
%TD*%
D10*
%TO.P,D5,1,K*%
%TO.N,Net-(D5-K)*%
X172230000Y-95000000D03*
D11*
%TO.P,D5,2,A*%
%TO.N,Net-(D5-A)*%
X169690000Y-95000000D03*
%TD*%
D15*
%TO.P,J9_4,1,Pin_1*%
%TO.N,unconnected-(J9_4-Pin_1-Pad1)*%
X218500000Y-112500000D03*
D16*
%TO.P,J9_4,2,Pin_2*%
%TO.N,unconnected-(J9_4-Pin_2-Pad2)*%
X218500000Y-109000000D03*
%TO.P,J9_4,3,Pin_3*%
%TO.N,Net-(J9_4-Pin_3)*%
X218500000Y-105500000D03*
%TD*%
D14*
%TO.P,J8-1,1,Pin_1*%
%TO.N,Net-(J0_3-Pin_3)*%
X144000000Y-125000000D03*
%TD*%
D13*
%TO.P,R3,1*%
%TO.N,Net-(J9_2-Pin_2)*%
X194500000Y-75000000D03*
%TO.P,R3,2*%
%TO.N,Net-(J9_1-Pin_2)*%
X204660000Y-75000000D03*
%TD*%
%TO.P,R7,1*%
%TO.N,Net-(J9_3-Pin_1)*%
X194500000Y-115500000D03*
%TO.P,R7,2*%
%TO.N,Net-(J9_1-Pin_2)*%
X204660000Y-115500000D03*
%TD*%
%TO.P,R2,1*%
%TO.N,Net-(J9_2-Pin_3)*%
X194420000Y-66000000D03*
%TO.P,R2,2*%
%TO.N,Net-(J9_1-Pin_2)*%
X204580000Y-66000000D03*
%TD*%
D15*
%TO.P,J9_1,1,Pin_1*%
%TO.N,Net-(J9_1-Pin_1)*%
X218500000Y-76500000D03*
D16*
%TO.P,J9_1,2,Pin_2*%
%TO.N,Net-(J9_1-Pin_2)*%
X218500000Y-73000000D03*
%TO.P,J9_1,3,Pin_3*%
%TO.N,Net-(J9_1-Pin_3)*%
X218500000Y-69500000D03*
%TD*%
D17*
%TO.P,J0_3,1,Pin_1*%
%TO.N,Net-(J0_3-Pin_1)*%
X127500000Y-98500000D03*
D16*
%TO.P,J0_3,2,Pin_2*%
%TO.N,Net-(J0_3-Pin_2)*%
X127500000Y-102000000D03*
%TO.P,J0_3,3,Pin_3*%
%TO.N,Net-(J0_3-Pin_3)*%
X127500000Y-105500000D03*
%TD*%
D14*
%TO.P,J4-2,1,Pin_1*%
%TO.N,Net-(D4-A)*%
X160000000Y-85000000D03*
%TD*%
D13*
%TO.P,R5,1*%
%TO.N,Net-(J9_3-Pin_3)*%
X194500000Y-95500000D03*
%TO.P,R5,2*%
%TO.N,Net-(J9_1-Pin_2)*%
X204660000Y-95500000D03*
%TD*%
%TO.P,R4,1*%
%TO.N,Net-(J9_2-Pin_1)*%
X194420000Y-85500000D03*
%TO.P,R4,2*%
%TO.N,Net-(J9_1-Pin_2)*%
X204580000Y-85500000D03*
%TD*%
%TO.P,R8,1*%
%TO.N,Net-(J9_4-Pin_3)*%
X193920000Y-125000000D03*
%TO.P,R8,2*%
%TO.N,Net-(J9_1-Pin_2)*%
X204080000Y-125000000D03*
%TD*%
D17*
%TO.P,J0_1,1,Pin_1*%
%TO.N,Net-(J0_1-Pin_1)*%
X127500000Y-74500000D03*
D16*
%TO.P,J0_1,2,Pin_2*%
%TO.N,Net-(J0_1-Pin_2)*%
X127500000Y-78000000D03*
%TO.P,J0_1,3,Pin_3*%
%TO.N,Net-(J0_1-Pin_3)*%
X127500000Y-81500000D03*
%TD*%
D12*
%TO.P,U2,1*%
%TO.N,Net-(D2-K)*%
X180000000Y-64460000D03*
D13*
%TO.P,U2,2*%
%TO.N,Net-(J0_1-Pin_1)*%
X180000000Y-67000000D03*
%TO.P,U2,3*%
%TO.N,Net-(J9_2-Pin_3)*%
X187620000Y-67000000D03*
%TO.P,U2,4*%
%TO.N,Net-(J9_1-Pin_3)*%
X187620000Y-64460000D03*
%TD*%
D14*
%TO.P,J2-2,1,Pin_1*%
%TO.N,Net-(D2-A)*%
X160000000Y-65000000D03*
%TD*%
D10*
%TO.P,D3,1,K*%
%TO.N,Net-(D3-K)*%
X172000000Y-75000000D03*
D11*
%TO.P,D3,2,A*%
%TO.N,Net-(D3-A)*%
X169460000Y-75000000D03*
%TD*%
D14*
%TO.P,J6-2,1,Pin_1*%
%TO.N,Net-(D6-A)*%
X160000000Y-105000000D03*
%TD*%
D12*
%TO.P,U5,1*%
%TO.N,Net-(D5-K)*%
X180195000Y-93725000D03*
D13*
%TO.P,U5,2*%
%TO.N,Net-(J0_1-Pin_1)*%
X180195000Y-96265000D03*
%TO.P,U5,3*%
%TO.N,Net-(J9_3-Pin_3)*%
X187815000Y-96265000D03*
%TO.P,U5,4*%
%TO.N,Net-(J9_1-Pin_3)*%
X187815000Y-93725000D03*
%TD*%
D12*
%TO.P,U8,1*%
%TO.N,Net-(D8-K)*%
X180000000Y-123725000D03*
D13*
%TO.P,U8,2*%
%TO.N,Net-(J0_1-Pin_1)*%
X180000000Y-126265000D03*
%TO.P,U8,3*%
%TO.N,Net-(J9_4-Pin_3)*%
X187620000Y-126265000D03*
%TO.P,U8,4*%
%TO.N,Net-(J9_1-Pin_3)*%
X187620000Y-123725000D03*
%TD*%
D14*
%TO.P,J8-2,1,Pin_1*%
%TO.N,Net-(D8-A)*%
X160000000Y-125000000D03*
%TD*%
%TO.P,J4-1,1,Pin_1*%
%TO.N,Net-(J0_2-Pin_2)*%
X144000000Y-85000000D03*
%TD*%
%TO.P,J5-2,1,Pin_1*%
%TO.N,Net-(D5-A)*%
X160000000Y-95000000D03*
%TD*%
D12*
%TO.P,U7,1*%
%TO.N,Net-(D7-K)*%
X180000000Y-114000000D03*
D13*
%TO.P,U7,2*%
%TO.N,Net-(J0_1-Pin_1)*%
X180000000Y-116540000D03*
%TO.P,U7,3*%
%TO.N,Net-(J9_3-Pin_1)*%
X187620000Y-116540000D03*
%TO.P,U7,4*%
%TO.N,Net-(J9_1-Pin_3)*%
X187620000Y-114000000D03*
%TD*%
D12*
%TO.P,U3,1*%
%TO.N,Net-(D3-K)*%
X180000000Y-73500000D03*
D13*
%TO.P,U3,2*%
%TO.N,Net-(J0_1-Pin_1)*%
X180000000Y-76040000D03*
%TO.P,U3,3*%
%TO.N,Net-(J9_2-Pin_2)*%
X187620000Y-76040000D03*
%TO.P,U3,4*%
%TO.N,Net-(J9_1-Pin_3)*%
X187620000Y-73500000D03*
%TD*%
D10*
%TO.P,D4,1,K*%
%TO.N,Net-(D4-K)*%
X172040000Y-85000000D03*
D11*
%TO.P,D4,2,A*%
%TO.N,Net-(D4-A)*%
X169500000Y-85000000D03*
%TD*%
D10*
%TO.P,D6,1,K*%
%TO.N,Net-(D6-K)*%
X172500000Y-105000000D03*
D11*
%TO.P,D6,2,A*%
%TO.N,Net-(D6-A)*%
X169960000Y-105000000D03*
%TD*%
D14*
%TO.P,J7-2,1,Pin_1*%
%TO.N,Net-(D7-A)*%
X160000000Y-115000000D03*
%TD*%
D10*
%TO.P,D8,1,K*%
%TO.N,Net-(D8-K)*%
X172500000Y-125000000D03*
D11*
%TO.P,D8,2,A*%
%TO.N,Net-(D8-A)*%
X169960000Y-125000000D03*
%TD*%
D17*
%TO.P,J0_2,1,Pin_1*%
%TO.N,Net-(J0_2-Pin_1)*%
X127500000Y-86500000D03*
D16*
%TO.P,J0_2,2,Pin_2*%
%TO.N,Net-(J0_2-Pin_2)*%
X127500000Y-90000000D03*
%TO.P,J0_2,3,Pin_3*%
%TO.N,Net-(J0_2-Pin_3)*%
X127500000Y-93500000D03*
%TD*%
D15*
%TO.P,J9_3,1,Pin_1*%
%TO.N,Net-(J9_3-Pin_1)*%
X218500000Y-100500000D03*
D16*
%TO.P,J9_3,2,Pin_2*%
%TO.N,Net-(J9_3-Pin_2)*%
X218500000Y-97000000D03*
%TO.P,J9_3,3,Pin_3*%
%TO.N,Net-(J9_3-Pin_3)*%
X218500000Y-93500000D03*
%TD*%
D10*
%TO.P,D1,1,K*%
%TO.N,Net-(D1-K)*%
X171500000Y-55000000D03*
D11*
%TO.P,D1,2,A*%
%TO.N,Net-(D1-A)*%
X168960000Y-55000000D03*
%TD*%
D14*
%TO.P,J5-1,1,Pin_1*%
%TO.N,Net-(J0_2-Pin_3)*%
X144000000Y-95000000D03*
%TD*%
%TO.P,J1-2,1,Pin_1*%
%TO.N,Net-(D1-A)*%
X160000000Y-55000000D03*
%TD*%
%TO.P,J3-1,1,Pin_1*%
%TO.N,Net-(J0_2-Pin_1)*%
X144000000Y-75000000D03*
%TD*%
%TO.P,J1-1,1,Pin_1*%
%TO.N,Net-(J0_1-Pin_2)*%
X144000000Y-55000000D03*
%TD*%
%TO.P,J3-2,1,Pin_1*%
%TO.N,Net-(D3-A)*%
X160000000Y-75000000D03*
%TD*%
D12*
%TO.P,U6,1*%
%TO.N,Net-(D6-K)*%
X180195000Y-103725000D03*
D13*
%TO.P,U6,2*%
%TO.N,Net-(J0_1-Pin_1)*%
X180195000Y-106265000D03*
%TO.P,U6,3*%
%TO.N,Net-(J9_3-Pin_2)*%
X187815000Y-106265000D03*
%TO.P,U6,4*%
%TO.N,Net-(J9_1-Pin_3)*%
X187815000Y-103725000D03*
%TD*%
D18*
%TO.N,Net-(J9_2-Pin_2)*%
X218500000Y-85000000D02*
X209945801Y-85000000D01*
X209945801Y-85000000D02*
X203945801Y-79000000D01*
X198500000Y-79000000D02*
X194500000Y-75000000D01*
X203945801Y-79000000D02*
X198500000Y-79000000D01*
%TO.N,Net-(J9_2-Pin_3)*%
X218500000Y-81500000D02*
X217000000Y-81500000D01*
X217000000Y-81500000D02*
X205500000Y-70000000D01*
X205500000Y-70000000D02*
X198420000Y-70000000D01*
X198420000Y-70000000D02*
X194420000Y-66000000D01*
%TO.N,Net-(J9_1-Pin_1)*%
X218500000Y-76500000D02*
X200500000Y-58500000D01*
X198000000Y-58500000D02*
X194500000Y-55000000D01*
X200500000Y-58500000D02*
X198000000Y-58500000D01*
%TO.N,Net-(J9_3-Pin_3)*%
X218500000Y-93500000D02*
X216500000Y-91500000D01*
X216500000Y-91500000D02*
X196800999Y-91500000D01*
X196800999Y-91500000D02*
X194500000Y-93800999D01*
X194500000Y-93800999D02*
X194500000Y-95500000D01*
%TO.N,Net-(J9_3-Pin_2)*%
X218500000Y-97000000D02*
X215000000Y-100500000D01*
X215000000Y-100500000D02*
X196746799Y-100500000D01*
X196746799Y-100500000D02*
X194420000Y-102826799D01*
X194420000Y-102826799D02*
X194420000Y-105000000D01*
%TO.N,Net-(J9_4-Pin_3)*%
X218500000Y-105500000D02*
X203000000Y-121000000D01*
X203000000Y-121000000D02*
X197920000Y-121000000D01*
X197920000Y-121000000D02*
X193920000Y-125000000D01*
%TO.N,Net-(J0_1-Pin_1)*%
X127500000Y-74500000D02*
X127500000Y-58000000D01*
X127500000Y-58000000D02*
X137500000Y-48000000D01*
X137500000Y-48000000D02*
X171500000Y-48000000D01*
X171500000Y-48000000D02*
X180000000Y-56500000D01*
%TO.N,Net-(J9_3-Pin_1)*%
X197676900Y-112323100D02*
X194500000Y-115500000D01*
X206676900Y-112323100D02*
X197676900Y-112323100D01*
X218500000Y-100500000D02*
X206676900Y-112323100D01*
%TO.N,Net-(J9_2-Pin_1)*%
X197420000Y-88500000D02*
X194420000Y-85500000D01*
X218500000Y-88500000D02*
X197420000Y-88500000D01*
%TO.N,Net-(J9_1-Pin_3)*%
X189144700Y-62935300D02*
X187620000Y-64460000D01*
X189144700Y-55484700D02*
X189144700Y-62935300D01*
X187620000Y-53960000D02*
X189144700Y-55484700D01*
X189138200Y-71981800D02*
X187620000Y-73500000D01*
X189138200Y-65978200D02*
X189138200Y-71981800D01*
X187620000Y-64460000D02*
X189138200Y-65978200D01*
X189164900Y-82875100D02*
X187815000Y-84225000D01*
X189164900Y-75044900D02*
X189164900Y-82875100D01*
X187620000Y-73500000D02*
X189164900Y-75044900D01*
X189354900Y-92185100D02*
X187815000Y-93725000D01*
X189354900Y-85764900D02*
X189354900Y-92185100D01*
X187815000Y-84225000D02*
X189354900Y-85764900D01*
X189316700Y-102223300D02*
X187815000Y-103725000D01*
X189316700Y-95226700D02*
X189316700Y-102223300D01*
X187815000Y-93725000D02*
X189316700Y-95226700D01*
X189390800Y-112229200D02*
X187620000Y-114000000D01*
X189390800Y-105300800D02*
X189390800Y-112229200D01*
X187815000Y-103725000D02*
X189390800Y-105300800D01*
X189151800Y-122193200D02*
X187620000Y-123725000D01*
X189151800Y-115531800D02*
X189151800Y-122193200D01*
X187620000Y-114000000D02*
X189151800Y-115531800D01*
X190368900Y-53246000D02*
X188334000Y-53246000D01*
X205046100Y-53246000D02*
X190368900Y-53246000D01*
X218500000Y-66699900D02*
X205046100Y-53246000D01*
X218500000Y-69500000D02*
X218500000Y-66699900D01*
D19*
X187620000Y-53246000D02*
X187620000Y-53960000D01*
D18*
X188334000Y-53246000D02*
X187620000Y-53246000D01*
%TO.N,Net-(J0_1-Pin_1)*%
X178478800Y-65478800D02*
X180000000Y-67000000D01*
X178478800Y-58021200D02*
X178478800Y-65478800D01*
X180000000Y-56500000D02*
X178478800Y-58021200D01*
X178458500Y-74498500D02*
X180000000Y-76040000D01*
X178458500Y-68541500D02*
X178458500Y-74498500D01*
X180000000Y-67000000D02*
X178458500Y-68541500D01*
X178663500Y-85233500D02*
X180195000Y-86765000D01*
X178663500Y-77376500D02*
X178663500Y-85233500D01*
X180000000Y-76040000D02*
X178663500Y-77376500D01*
X178662300Y-94732300D02*
X180195000Y-96265000D01*
X178662300Y-88297700D02*
X178662300Y-94732300D01*
X180195000Y-86765000D02*
X178662300Y-88297700D01*
X178682600Y-104752600D02*
X180195000Y-106265000D01*
X178682600Y-97777400D02*
X178682600Y-104752600D01*
X180195000Y-96265000D02*
X178682600Y-97777400D01*
X178478900Y-115018900D02*
X180000000Y-116540000D01*
X178478900Y-107981100D02*
X178478900Y-115018900D01*
X180195000Y-106265000D02*
X178478900Y-107981100D01*
X178492900Y-124757900D02*
X180000000Y-126265000D01*
X178492900Y-118047100D02*
X178492900Y-124757900D01*
X180000000Y-116540000D02*
X178492900Y-118047100D01*
%TD*%
M02*
