%TF.GenerationSoftware,KiCad,Pcbnew,9.0.4-9.0.4-0~ubuntu24.04.1*%
%TF.CreationDate,2025-09-30T20:45:27-06:00*%
%TF.ProjectId,Interfaz_digital,496e7465-7266-4617-9a5f-646967697461,rev?*%
%TF.SameCoordinates,Original*%
%TF.FileFunction,Soldermask,Bot*%
%TF.FilePolarity,Negative*%
%FSLAX46Y46*%
G04 Gerber Fmt 4.6, Leading zero omitted, Abs format (unit mm)*
G04 Created by KiCad (PCBNEW 9.0.4-9.0.4-0~ubuntu24.04.1) date 2025-09-30 20:45:27*
%MOMM*%
%LPD*%
G01*
G04 APERTURE LIST*
G04 Aperture macros list*
%AMRoundRect*
0 Rectangle with rounded corners*
0 $1 Rounding radius*
0 $2 $3 $4 $5 $6 $7 $8 $9 X,Y pos of 4 corners*
0 Add a 4 corners polygon primitive as box body*
4,1,4,$2,$3,$4,$5,$6,$7,$8,$9,$2,$3,0*
0 Add four circle primitives for the rounded corners*
1,1,$1+$1,$2,$3*
1,1,$1+$1,$4,$5*
1,1,$1+$1,$6,$7*
1,1,$1+$1,$8,$9*
0 Add four rect primitives between the rounded corners*
20,1,$1+$1,$2,$3,$4,$5,0*
20,1,$1+$1,$4,$5,$6,$7,0*
20,1,$1+$1,$6,$7,$8,$9,0*
20,1,$1+$1,$8,$9,$2,$3,0*%
G04 Aperture macros list end*
%ADD10R,1.800000X1.800000*%
%ADD11C,1.800000*%
%ADD12RoundRect,0.250000X-0.550000X-0.550000X0.550000X-0.550000X0.550000X0.550000X-0.550000X0.550000X0*%
%ADD13C,1.600000*%
%ADD14C,3.000000*%
%ADD15RoundRect,0.250001X0.949999X-0.949999X0.949999X0.949999X-0.949999X0.949999X-0.949999X-0.949999X0*%
%ADD16C,2.400000*%
%ADD17RoundRect,0.250001X-0.949999X0.949999X-0.949999X-0.949999X0.949999X-0.949999X0.949999X0.949999X0*%
G04 APERTURE END LIST*
D10*
%TO.C,D7*%
X172500000Y-115000000D03*
D11*
X169960000Y-115000000D03*
%TD*%
D12*
%TO.C,U4*%
X180195000Y-84225000D03*
D13*
X180195000Y-86765000D03*
X187815000Y-86765000D03*
X187815000Y-84225000D03*
%TD*%
D12*
%TO.C,U1*%
X180000000Y-53960000D03*
D13*
X180000000Y-56500000D03*
X187620000Y-56500000D03*
X187620000Y-53960000D03*
%TD*%
D10*
%TO.C,D2*%
X171730000Y-65500000D03*
D11*
X169190000Y-65500000D03*
%TD*%
D13*
%TO.C,R6*%
X194420000Y-105000000D03*
X204580000Y-105000000D03*
%TD*%
D14*
%TO.C,J2-1*%
X144000000Y-65000000D03*
%TD*%
%TO.C,J6-1*%
X144000000Y-105000000D03*
%TD*%
D13*
%TO.C,R1*%
X194500000Y-55000000D03*
X204660000Y-55000000D03*
%TD*%
D15*
%TO.C,J9_2*%
X218500000Y-88500000D03*
D16*
X218500000Y-85000000D03*
X218500000Y-81500000D03*
%TD*%
D14*
%TO.C,J7-1*%
X144000000Y-115000000D03*
%TD*%
D10*
%TO.C,D5*%
X172230000Y-95000000D03*
D11*
X169690000Y-95000000D03*
%TD*%
D15*
%TO.C,J9_4*%
X218500000Y-112500000D03*
D16*
X218500000Y-109000000D03*
X218500000Y-105500000D03*
%TD*%
D14*
%TO.C,J8-1*%
X144000000Y-125000000D03*
%TD*%
D13*
%TO.C,R3*%
X194500000Y-75000000D03*
X204660000Y-75000000D03*
%TD*%
%TO.C,R7*%
X194500000Y-115500000D03*
X204660000Y-115500000D03*
%TD*%
%TO.C,R2*%
X194420000Y-66000000D03*
X204580000Y-66000000D03*
%TD*%
D15*
%TO.C,J9_1*%
X218500000Y-76500000D03*
D16*
X218500000Y-73000000D03*
X218500000Y-69500000D03*
%TD*%
D17*
%TO.C,J0_3*%
X127500000Y-98500000D03*
D16*
X127500000Y-102000000D03*
X127500000Y-105500000D03*
%TD*%
D14*
%TO.C,J4-2*%
X160000000Y-85000000D03*
%TD*%
D13*
%TO.C,R5*%
X194500000Y-95500000D03*
X204660000Y-95500000D03*
%TD*%
%TO.C,R4*%
X194420000Y-85500000D03*
X204580000Y-85500000D03*
%TD*%
%TO.C,R8*%
X193920000Y-125000000D03*
X204080000Y-125000000D03*
%TD*%
D17*
%TO.C,J0_1*%
X127500000Y-74500000D03*
D16*
X127500000Y-78000000D03*
X127500000Y-81500000D03*
%TD*%
D12*
%TO.C,U2*%
X180000000Y-64460000D03*
D13*
X180000000Y-67000000D03*
X187620000Y-67000000D03*
X187620000Y-64460000D03*
%TD*%
D14*
%TO.C,J2-2*%
X160000000Y-65000000D03*
%TD*%
D10*
%TO.C,D3*%
X172000000Y-75000000D03*
D11*
X169460000Y-75000000D03*
%TD*%
D14*
%TO.C,J6-2*%
X160000000Y-105000000D03*
%TD*%
D12*
%TO.C,U5*%
X180195000Y-93725000D03*
D13*
X180195000Y-96265000D03*
X187815000Y-96265000D03*
X187815000Y-93725000D03*
%TD*%
D12*
%TO.C,U8*%
X180000000Y-123725000D03*
D13*
X180000000Y-126265000D03*
X187620000Y-126265000D03*
X187620000Y-123725000D03*
%TD*%
D14*
%TO.C,J8-2*%
X160000000Y-125000000D03*
%TD*%
%TO.C,J4-1*%
X144000000Y-85000000D03*
%TD*%
%TO.C,J5-2*%
X160000000Y-95000000D03*
%TD*%
D12*
%TO.C,U7*%
X180000000Y-114000000D03*
D13*
X180000000Y-116540000D03*
X187620000Y-116540000D03*
X187620000Y-114000000D03*
%TD*%
D12*
%TO.C,U3*%
X180000000Y-73500000D03*
D13*
X180000000Y-76040000D03*
X187620000Y-76040000D03*
X187620000Y-73500000D03*
%TD*%
D10*
%TO.C,D4*%
X172040000Y-85000000D03*
D11*
X169500000Y-85000000D03*
%TD*%
D10*
%TO.C,D6*%
X172500000Y-105000000D03*
D11*
X169960000Y-105000000D03*
%TD*%
D14*
%TO.C,J7-2*%
X160000000Y-115000000D03*
%TD*%
D10*
%TO.C,D8*%
X172500000Y-125000000D03*
D11*
X169960000Y-125000000D03*
%TD*%
D17*
%TO.C,J0_2*%
X127500000Y-86500000D03*
D16*
X127500000Y-90000000D03*
X127500000Y-93500000D03*
%TD*%
D15*
%TO.C,J9_3*%
X218500000Y-100500000D03*
D16*
X218500000Y-97000000D03*
X218500000Y-93500000D03*
%TD*%
D10*
%TO.C,D1*%
X171500000Y-55000000D03*
D11*
X168960000Y-55000000D03*
%TD*%
D14*
%TO.C,J5-1*%
X144000000Y-95000000D03*
%TD*%
%TO.C,J1-2*%
X160000000Y-55000000D03*
%TD*%
%TO.C,J3-1*%
X144000000Y-75000000D03*
%TD*%
%TO.C,J1-1*%
X144000000Y-55000000D03*
%TD*%
%TO.C,J3-2*%
X160000000Y-75000000D03*
%TD*%
D12*
%TO.C,U6*%
X180195000Y-103725000D03*
D13*
X180195000Y-106265000D03*
X187815000Y-106265000D03*
X187815000Y-103725000D03*
%TD*%
M02*
