M48
; DRILL file {KiCad 9.0.4-9.0.4-0~ubuntu24.04.1} date 2025-09-30T20:45:33-0600
; FORMAT={-:-/ absolute / metric / decimal}
; #@! TF.CreationDate,2025-09-30T20:45:33-06:00
; #@! TF.GenerationSoftware,Kicad,Pcbnew,9.0.4-9.0.4-0~ubuntu24.04.1
; #@! TF.FileFunction,Plated,1,2,PTH
FMAT,2
METRIC
; #@! TA.AperFunction,Plated,PTH,ComponentDrill
T1C0.800
; #@! TA.AperFunction,Plated,PTH,ComponentDrill
T2C0.900
; #@! TA.AperFunction,Plated,PTH,ComponentDrill
T3C1.200
; #@! TA.AperFunction,Plated,PTH,ComponentDrill
T4C1.500
%
G90
G05
T1
X180.0Y-53.96
X180.0Y-56.5
X180.0Y-64.46
X180.0Y-67.0
X180.0Y-73.5
X180.0Y-76.04
X180.0Y-114.0
X180.0Y-116.54
X180.0Y-123.725
X180.0Y-126.265
X180.195Y-84.225
X180.195Y-86.765
X180.195Y-93.725
X180.195Y-96.265
X180.195Y-103.725
X180.195Y-106.265
X187.62Y-53.96
X187.62Y-56.5
X187.62Y-64.46
X187.62Y-67.0
X187.62Y-73.5
X187.62Y-76.04
X187.62Y-114.0
X187.62Y-116.54
X187.62Y-123.725
X187.62Y-126.265
X187.815Y-84.225
X187.815Y-86.765
X187.815Y-93.725
X187.815Y-96.265
X187.815Y-103.725
X187.815Y-106.265
X193.92Y-125.0
X194.42Y-66.0
X194.42Y-85.5
X194.42Y-105.0
X194.5Y-55.0
X194.5Y-75.0
X194.5Y-95.5
X194.5Y-115.5
X204.08Y-125.0
X204.58Y-66.0
X204.58Y-85.5
X204.58Y-105.0
X204.66Y-55.0
X204.66Y-75.0
X204.66Y-95.5
X204.66Y-115.5
T2
X168.96Y-55.0
X169.19Y-65.5
X169.46Y-75.0
X169.5Y-85.0
X169.69Y-95.0
X169.96Y-105.0
X169.96Y-115.0
X169.96Y-125.0
X171.5Y-55.0
X171.73Y-65.5
X172.0Y-75.0
X172.04Y-85.0
X172.23Y-95.0
X172.5Y-105.0
X172.5Y-115.0
X172.5Y-125.0
T3
X127.5Y-74.5
X127.5Y-78.0
X127.5Y-81.5
X127.5Y-86.5
X127.5Y-90.0
X127.5Y-93.5
X127.5Y-98.5
X127.5Y-102.0
X127.5Y-105.5
X218.5Y-69.5
X218.5Y-73.0
X218.5Y-76.5
X218.5Y-81.5
X218.5Y-85.0
X218.5Y-88.5
X218.5Y-93.5
X218.5Y-97.0
X218.5Y-100.5
X218.5Y-105.5
X218.5Y-109.0
X218.5Y-112.5
T4
X144.0Y-55.0
X144.0Y-65.0
X144.0Y-75.0
X144.0Y-85.0
X144.0Y-95.0
X144.0Y-105.0
X144.0Y-115.0
X144.0Y-125.0
X160.0Y-55.0
X160.0Y-65.0
X160.0Y-75.0
X160.0Y-85.0
X160.0Y-95.0
X160.0Y-105.0
X160.0Y-115.0
X160.0Y-125.0
M30
