M48
; DRILL file {KiCad 9.0.4-9.0.4-0~ubuntu24.04.1} date 2025-10-01T18:10:52-0600
; FORMAT={-:-/ absolute / metric / decimal}
; #@! TF.CreationDate,2025-10-01T18:10:52-06:00
; #@! TF.GenerationSoftware,Kicad,Pcbnew,9.0.4-9.0.4-0~ubuntu24.04.1
; #@! TF.FileFunction,Plated,1,2,PTH
FMAT,2
METRIC
; #@! TA.AperFunction,Plated,PTH,ComponentDrill
T1C1.000
; #@! TA.AperFunction,Plated,PTH,ComponentDrill
T2C1.200
%
G90
G05
T1
X-11.4Y-1.74
X-11.4Y-4.28
X-11.4Y-6.82
X-11.4Y-9.36
X-11.4Y-11.9
X-11.4Y-14.44
X-11.4Y-16.98
X-11.4Y-19.52
X-11.4Y-22.06
X-11.4Y-24.6
X-11.4Y-27.14
X-11.4Y-29.68
X-11.4Y-32.22
X-11.4Y-34.76
X-11.4Y-37.3
X-11.4Y-39.84
X-11.4Y-42.38
X-11.4Y-44.92
X-11.4Y-47.46
X-11.4Y-50.0
X-11.4Y-53.62
X-11.4Y-56.16
X-11.4Y-58.7
X-11.4Y-61.24
X-11.4Y-63.78
X-11.4Y-66.32
X-11.4Y-68.86
X-11.4Y-71.4
X-11.4Y-73.94
X-11.4Y-76.48
X-11.4Y-79.02
X-11.4Y-81.56
X-11.4Y-84.1
X-11.4Y-86.64
X-11.4Y-89.18
X-11.4Y-91.72
X-11.4Y-94.26
X-11.4Y-96.8
X-11.4Y-99.34
X-11.4Y-101.88
X11.3Y-1.74
X11.3Y-4.28
X11.3Y-6.82
X11.3Y-9.36
X11.3Y-11.9
X11.3Y-14.44
X11.3Y-16.98
X11.3Y-19.52
X11.3Y-22.06
X11.3Y-24.6
X11.3Y-27.14
X11.3Y-29.68
X11.3Y-32.22
X11.3Y-34.76
X11.3Y-37.3
X11.3Y-39.84
X11.3Y-42.38
X11.3Y-44.92
X11.3Y-47.46
X11.3Y-50.0
X11.3Y-53.64
X11.3Y-56.18
X11.3Y-58.72
X11.3Y-61.26
X11.3Y-63.8
X11.3Y-66.34
X11.3Y-68.88
X11.3Y-71.42
X11.3Y-73.96
X11.3Y-76.5
X11.3Y-79.04
X11.3Y-81.58
X11.3Y-84.12
X11.3Y-86.66
X11.3Y-89.2
X11.3Y-91.74
X11.3Y-94.28
X11.3Y-96.82
X11.3Y-99.36
X11.3Y-101.9
T2
X-53.967Y27.3
X-53.967Y23.8
X-53.967Y20.3
X-53.967Y-7.2
X-53.967Y-10.7
X-53.967Y-14.2
X-53.967Y-19.0
X-53.967Y-22.5
X-53.967Y-26.0
X-53.967Y-42.3
X-53.967Y-45.8
X-53.967Y-49.3
X-53.9Y-53.8
X-53.9Y-57.3
X-53.9Y-60.8
X-53.9Y-65.3
X-53.9Y-68.8
X-53.9Y-72.3
X-53.867Y15.8
X-53.867Y12.3
X-53.867Y8.8
X-53.867Y4.3
X-53.867Y0.8
X-53.867Y-2.7
X-53.867Y-30.6
X-53.867Y-34.1
X-53.867Y-37.6
X-53.8Y-76.9
X-53.8Y-80.4
X-53.8Y-83.9
X-53.7Y-88.5
X-53.7Y-92.0
X-53.7Y-95.5
X-53.7Y-100.1
X-53.7Y-103.6
X-53.7Y-107.1
X-53.7Y-111.8
X-53.7Y-115.3
X-53.7Y-118.8
X-53.7Y-123.3
X-53.7Y-126.8
X-53.7Y-130.3
X53.867Y-111.3
X53.867Y-114.8
X53.867Y-118.3
X53.867Y-122.8
X53.867Y-126.3
X53.867Y-129.8
X53.9Y-88.0
X53.9Y-91.5
X53.9Y-95.0
X53.9Y-99.7
X53.9Y-103.2
X53.9Y-106.7
X54.0Y4.3
X54.0Y0.8
X54.0Y-2.7
X54.0Y-30.4
X54.0Y-33.9
X54.0Y-37.4
X54.0Y-41.9
X54.0Y-45.4
X54.0Y-48.9
X54.0Y-53.4
X54.0Y-56.9
X54.0Y-60.4
X54.0Y-64.9
X54.0Y-68.4
X54.0Y-71.9
X54.0Y-76.5
X54.0Y-80.0
X54.0Y-83.5
X54.067Y15.8
X54.067Y12.3
X54.067Y8.8
X54.067Y-7.2
X54.067Y-10.7
X54.067Y-14.2
X54.067Y-18.8
X54.067Y-22.3
X54.067Y-25.8
X54.1Y27.4
X54.1Y23.9
X54.1Y20.4
M30
