%TF.GenerationSoftware,KiCad,Pcbnew,9.0.4-9.0.4-0~ubuntu24.04.1*%
%TF.CreationDate,2025-10-01T18:10:46-06:00*%
%TF.ProjectId,interfaz_esp32,696e7465-7266-4617-9a5f-65737033322e,rev?*%
%TF.SameCoordinates,Original*%
%TF.FileFunction,Copper,L2,Bot*%
%TF.FilePolarity,Positive*%
%FSLAX46Y46*%
G04 Gerber Fmt 4.6, Leading zero omitted, Abs format (unit mm)*
G04 Created by KiCad (PCBNEW 9.0.4-9.0.4-0~ubuntu24.04.1) date 2025-10-01 18:10:46*
%MOMM*%
%LPD*%
G01*
G04 APERTURE LIST*
G04 Aperture macros list*
%AMRoundRect*
0 Rectangle with rounded corners*
0 $1 Rounding radius*
0 $2 $3 $4 $5 $6 $7 $8 $9 X,Y pos of 4 corners*
0 Add a 4 corners polygon primitive as box body*
4,1,4,$2,$3,$4,$5,$6,$7,$8,$9,$2,$3,0*
0 Add four circle primitives for the rounded corners*
1,1,$1+$1,$2,$3*
1,1,$1+$1,$4,$5*
1,1,$1+$1,$6,$7*
1,1,$1+$1,$8,$9*
0 Add four rect primitives between the rounded corners*
20,1,$1+$1,$2,$3,$4,$5,0*
20,1,$1+$1,$4,$5,$6,$7,0*
20,1,$1+$1,$6,$7,$8,$9,0*
20,1,$1+$1,$8,$9,$2,$3,0*%
G04 Aperture macros list end*
%TA.AperFunction,ComponentPad*%
%ADD10RoundRect,0.250001X0.949999X-0.949999X0.949999X0.949999X-0.949999X0.949999X-0.949999X-0.949999X0*%
%TD*%
%TA.AperFunction,ComponentPad*%
%ADD11C,2.400000*%
%TD*%
%TA.AperFunction,ComponentPad*%
%ADD12RoundRect,0.250001X-0.949999X0.949999X-0.949999X-0.949999X0.949999X-0.949999X0.949999X0.949999X0*%
%TD*%
%TA.AperFunction,ComponentPad*%
%ADD13R,1.700000X1.700000*%
%TD*%
%TA.AperFunction,ComponentPad*%
%ADD14C,1.700000*%
%TD*%
%TA.AperFunction,Conductor*%
%ADD15C,1.000000*%
%TD*%
G04 APERTURE END LIST*
D10*
%TO.P,J15,1,Pin_1*%
%TO.N,Net-(J15-Pin_1)*%
X53900000Y-95000000D03*
D11*
%TO.P,J15,2,Pin_2*%
%TO.N,Net-(J15-Pin_2)*%
X53900000Y-91500000D03*
%TO.P,J15,3,Pin_3*%
%TO.N,Net-(J15-Pin_3)*%
X53900000Y-88000000D03*
%TD*%
D12*
%TO.P,J29,1,Pin_1*%
%TO.N,Net-(J2-Pin_9)*%
X-53700000Y-88500000D03*
D11*
%TO.P,J29,2,Pin_2*%
%TO.N,Net-(J2-Pin_10)*%
X-53700000Y-92000000D03*
%TO.P,J29,3,Pin_3*%
%TO.N,Net-(J2-Pin_11)*%
X-53700000Y-95500000D03*
%TD*%
D13*
%TO.P,J2,1,Pin_1*%
%TO.N,Net-(J2-Pin_1)*%
X-11400000Y-53620000D03*
D14*
%TO.P,J2,2,Pin_2*%
%TO.N,Net-(J2-Pin_2)*%
X-11400000Y-56160000D03*
%TO.P,J2,3,Pin_3*%
%TO.N,Net-(J2-Pin_3)*%
X-11400000Y-58700000D03*
%TO.P,J2,4,Pin_4*%
%TO.N,Net-(J2-Pin_4)*%
X-11400000Y-61240000D03*
%TO.P,J2,5,Pin_5*%
%TO.N,Net-(J2-Pin_5)*%
X-11400000Y-63780000D03*
%TO.P,J2,6,Pin_6*%
%TO.N,Net-(J2-Pin_6)*%
X-11400000Y-66320000D03*
%TO.P,J2,7,Pin_7*%
%TO.N,Net-(J2-Pin_7)*%
X-11400000Y-68860000D03*
%TO.P,J2,8,Pin_8*%
%TO.N,Net-(J2-Pin_8)*%
X-11400000Y-71400000D03*
%TO.P,J2,9,Pin_9*%
%TO.N,Net-(J2-Pin_9)*%
X-11400000Y-73940000D03*
%TO.P,J2,10,Pin_10*%
%TO.N,Net-(J2-Pin_10)*%
X-11400000Y-76480000D03*
%TO.P,J2,11,Pin_11*%
%TO.N,Net-(J2-Pin_11)*%
X-11400000Y-79020000D03*
%TO.P,J2,12,Pin_12*%
%TO.N,Net-(J2-Pin_12)*%
X-11400000Y-81560000D03*
%TO.P,J2,13,Pin_13*%
%TO.N,Net-(J2-Pin_13)*%
X-11400000Y-84100000D03*
%TO.P,J2,14,Pin_14*%
%TO.N,Net-(J2-Pin_14)*%
X-11400000Y-86640000D03*
%TO.P,J2,15,Pin_15*%
%TO.N,Net-(J2-Pin_15)*%
X-11400000Y-89180000D03*
%TO.P,J2,16,Pin_16*%
%TO.N,Net-(J2-Pin_16)*%
X-11400000Y-91720000D03*
%TO.P,J2,17,Pin_17*%
%TO.N,Net-(J2-Pin_17)*%
X-11400000Y-94260000D03*
%TO.P,J2,18,Pin_18*%
%TO.N,Net-(J2-Pin_18)*%
X-11400000Y-96800000D03*
%TO.P,J2,19,Pin_19*%
%TO.N,Net-(J2-Pin_19)*%
X-11400000Y-99340000D03*
%TO.P,J2,20,Pin_20*%
%TO.N,Net-(J2-Pin_20)*%
X-11400000Y-101880000D03*
%TD*%
D10*
%TO.P,J11,1,Pin_1*%
%TO.N,unconnected-(J11-Pin_1-Pad1)*%
X54000000Y-48900000D03*
D11*
%TO.P,J11,2,Pin_2*%
%TO.N,Net-(J11-Pin_2)*%
X54000000Y-45400000D03*
%TO.P,J11,3,Pin_3*%
%TO.N,Net-(J11-Pin_3)*%
X54000000Y-41900000D03*
%TD*%
D10*
%TO.P,J12,1,Pin_1*%
%TO.N,Net-(J12-Pin_1)*%
X54000000Y-60400000D03*
D11*
%TO.P,J12,2,Pin_2*%
%TO.N,Net-(J12-Pin_2)*%
X54000000Y-56900000D03*
%TO.P,J12,3,Pin_3*%
%TO.N,unconnected-(J12-Pin_3-Pad3)*%
X54000000Y-53400000D03*
%TD*%
D10*
%TO.P,J13,1,Pin_1*%
%TO.N,Net-(J13-Pin_1)*%
X54000000Y-71900000D03*
D11*
%TO.P,J13,2,Pin_2*%
%TO.N,Net-(J13-Pin_2)*%
X54000000Y-68400000D03*
%TO.P,J13,3,Pin_3*%
%TO.N,Net-(J13-Pin_3)*%
X54000000Y-64900000D03*
%TD*%
D10*
%TO.P,J16,1,Pin_1*%
%TO.N,Net-(J16-Pin_1)*%
X53900000Y-106700000D03*
D11*
%TO.P,J16,2,Pin_2*%
%TO.N,Net-(J16-Pin_2)*%
X53900000Y-103200000D03*
%TO.P,J16,3,Pin_3*%
%TO.N,Net-(J16-Pin_3)*%
X53900000Y-99700000D03*
%TD*%
D12*
%TO.P,J20,1,Pin_1*%
%TO.N,Net-(J1-Pin_4)*%
X-53867500Y15800000D03*
D11*
%TO.P,J20,2,Pin_2*%
%TO.N,Net-(J1-Pin_5)*%
X-53867500Y12300000D03*
%TO.P,J20,3,Pin_3*%
%TO.N,Net-(J1-Pin_6)*%
X-53867500Y8800000D03*
%TD*%
D10*
%TO.P,J9,1,Pin_1*%
%TO.N,Net-(J4-Pin_6)*%
X54067500Y-25800000D03*
D11*
%TO.P,J9,2,Pin_2*%
%TO.N,Net-(J4-Pin_7)*%
X54067500Y-22300000D03*
%TO.P,J9,3,Pin_3*%
%TO.N,Net-(J4-Pin_8)*%
X54067500Y-18800000D03*
%TD*%
D13*
%TO.P,J1,1,Pin_1*%
%TO.N,Net-(J1-Pin_1)*%
X-11400000Y-1740000D03*
D14*
%TO.P,J1,2,Pin_2*%
%TO.N,Net-(J1-Pin_2)*%
X-11400000Y-4280000D03*
%TO.P,J1,3,Pin_3*%
%TO.N,Net-(J1-Pin_3)*%
X-11400000Y-6820000D03*
%TO.P,J1,4,Pin_4*%
%TO.N,Net-(J1-Pin_4)*%
X-11400000Y-9360000D03*
%TO.P,J1,5,Pin_5*%
%TO.N,Net-(J1-Pin_5)*%
X-11400000Y-11900000D03*
%TO.P,J1,6,Pin_6*%
%TO.N,Net-(J1-Pin_6)*%
X-11400000Y-14440000D03*
%TO.P,J1,7,Pin_7*%
%TO.N,Net-(J1-Pin_7)*%
X-11400000Y-16980000D03*
%TO.P,J1,8,Pin_8*%
%TO.N,Net-(J1-Pin_8)*%
X-11400000Y-19520000D03*
%TO.P,J1,9,Pin_9*%
%TO.N,Net-(J1-Pin_9)*%
X-11400000Y-22060000D03*
%TO.P,J1,10,Pin_10*%
%TO.N,Net-(J1-Pin_10)*%
X-11400000Y-24600000D03*
%TO.P,J1,11,Pin_11*%
%TO.N,Net-(J1-Pin_11)*%
X-11400000Y-27140000D03*
%TO.P,J1,12,Pin_12*%
%TO.N,Net-(J1-Pin_12)*%
X-11400000Y-29680000D03*
%TO.P,J1,13,Pin_13*%
%TO.N,Net-(J1-Pin_13)*%
X-11400000Y-32220000D03*
%TO.P,J1,14,Pin_14*%
%TO.N,Net-(J1-Pin_14)*%
X-11400000Y-34760000D03*
%TO.P,J1,15,Pin_15*%
%TO.N,Net-(J1-Pin_15)*%
X-11400000Y-37300000D03*
%TO.P,J1,16,Pin_16*%
%TO.N,Net-(J1-Pin_16)*%
X-11400000Y-39840000D03*
%TO.P,J1,17,Pin_17*%
%TO.N,Net-(J1-Pin_17)*%
X-11400000Y-42380000D03*
%TO.P,J1,18,Pin_18*%
%TO.N,Net-(J1-Pin_18)*%
X-11400000Y-44920000D03*
%TO.P,J1,19,Pin_19*%
%TO.N,Net-(J1-Pin_19)*%
X-11400000Y-47460000D03*
%TO.P,J1,20,Pin_20*%
%TO.N,Net-(J1-Pin_20)*%
X-11400000Y-50000000D03*
%TD*%
D13*
%TO.P,J4,1,Pin_1*%
%TO.N,Net-(J11-Pin_2)*%
X11300000Y-50000000D03*
D14*
%TO.P,J4,2,Pin_2*%
%TO.N,Net-(J11-Pin_3)*%
X11300000Y-47460000D03*
%TO.P,J4,3,Pin_3*%
%TO.N,Net-(J10-Pin_1)*%
X11300000Y-44920000D03*
%TO.P,J4,4,Pin_4*%
%TO.N,Net-(J10-Pin_2)*%
X11300000Y-42380000D03*
%TO.P,J4,5,Pin_5*%
%TO.N,Net-(J10-Pin_3)*%
X11300000Y-39840000D03*
%TO.P,J4,6,Pin_6*%
%TO.N,Net-(J4-Pin_6)*%
X11300000Y-37300000D03*
%TO.P,J4,7,Pin_7*%
%TO.N,Net-(J4-Pin_7)*%
X11300000Y-34760000D03*
%TO.P,J4,8,Pin_8*%
%TO.N,Net-(J4-Pin_8)*%
X11300000Y-32220000D03*
%TO.P,J4,9,Pin_9*%
%TO.N,Net-(J4-Pin_9)*%
X11300000Y-29680000D03*
%TO.P,J4,10,Pin_10*%
%TO.N,Net-(J4-Pin_10)*%
X11300000Y-27140000D03*
%TO.P,J4,11,Pin_11*%
%TO.N,Net-(J4-Pin_11)*%
X11300000Y-24600000D03*
%TO.P,J4,12,Pin_12*%
%TO.N,Net-(J4-Pin_12)*%
X11300000Y-22060000D03*
%TO.P,J4,13,Pin_13*%
%TO.N,Net-(J4-Pin_13)*%
X11300000Y-19520000D03*
%TO.P,J4,14,Pin_14*%
%TO.N,Net-(J4-Pin_14)*%
X11300000Y-16980000D03*
%TO.P,J4,15,Pin_15*%
%TO.N,Net-(J4-Pin_15)*%
X11300000Y-14440000D03*
%TO.P,J4,16,Pin_16*%
%TO.N,Net-(J4-Pin_16)*%
X11300000Y-11900000D03*
%TO.P,J4,17,Pin_17*%
%TO.N,Net-(J4-Pin_17)*%
X11300000Y-9360000D03*
%TO.P,J4,18,Pin_18*%
%TO.N,Net-(J4-Pin_18)*%
X11300000Y-6820000D03*
%TO.P,J4,19,Pin_19*%
%TO.N,Net-(J4-Pin_19)*%
X11300000Y-4280000D03*
%TO.P,J4,20,Pin_20*%
%TO.N,Net-(J4-Pin_20)*%
X11300000Y-1740000D03*
%TD*%
D12*
%TO.P,J26,1,Pin_1*%
%TO.N,unconnected-(J26-Pin_1-Pad1)*%
X-53900000Y-53800000D03*
D11*
%TO.P,J26,2,Pin_2*%
%TO.N,Net-(J2-Pin_1)*%
X-53900000Y-57300000D03*
%TO.P,J26,3,Pin_3*%
%TO.N,Net-(J2-Pin_2)*%
X-53900000Y-60800000D03*
%TD*%
D13*
%TO.P,J3,1,Pin_1*%
%TO.N,Net-(J18-Pin_1)*%
X11300000Y-101900000D03*
D14*
%TO.P,J3,2,Pin_2*%
%TO.N,Net-(J18-Pin_2)*%
X11300000Y-99360000D03*
%TO.P,J3,3,Pin_3*%
%TO.N,Net-(J18-Pin_3)*%
X11300000Y-96820000D03*
%TO.P,J3,4,Pin_4*%
%TO.N,Net-(J17-Pin_1)*%
X11300000Y-94280000D03*
%TO.P,J3,5,Pin_5*%
%TO.N,Net-(J17-Pin_2)*%
X11300000Y-91740000D03*
%TO.P,J3,6,Pin_6*%
%TO.N,Net-(J17-Pin_3)*%
X11300000Y-89200000D03*
%TO.P,J3,7,Pin_7*%
%TO.N,Net-(J16-Pin_1)*%
X11300000Y-86660000D03*
%TO.P,J3,8,Pin_8*%
%TO.N,Net-(J16-Pin_2)*%
X11300000Y-84120000D03*
%TO.P,J3,9,Pin_9*%
%TO.N,Net-(J16-Pin_3)*%
X11300000Y-81580000D03*
%TO.P,J3,10,Pin_10*%
%TO.N,Net-(J15-Pin_1)*%
X11300000Y-79040000D03*
%TO.P,J3,11,Pin_11*%
%TO.N,Net-(J15-Pin_2)*%
X11300000Y-76500000D03*
%TO.P,J3,12,Pin_12*%
%TO.N,Net-(J15-Pin_3)*%
X11300000Y-73960000D03*
%TO.P,J3,13,Pin_13*%
%TO.N,Net-(J14-Pin_1)*%
X11300000Y-71420000D03*
%TO.P,J3,14,Pin_14*%
%TO.N,Net-(J14-Pin_2)*%
X11300000Y-68880000D03*
%TO.P,J3,15,Pin_15*%
%TO.N,Net-(J14-Pin_3)*%
X11300000Y-66340000D03*
%TO.P,J3,16,Pin_16*%
%TO.N,Net-(J13-Pin_1)*%
X11300000Y-63800000D03*
%TO.P,J3,17,Pin_17*%
%TO.N,Net-(J13-Pin_2)*%
X11300000Y-61260000D03*
%TO.P,J3,18,Pin_18*%
%TO.N,Net-(J13-Pin_3)*%
X11300000Y-58720000D03*
%TO.P,J3,19,Pin_19*%
%TO.N,Net-(J12-Pin_1)*%
X11300000Y-56180000D03*
%TO.P,J3,20,Pin_20*%
%TO.N,Net-(J12-Pin_2)*%
X11300000Y-53640000D03*
%TD*%
D12*
%TO.P,J23,1,Pin_1*%
%TO.N,Net-(J1-Pin_13)*%
X-53967500Y-19000000D03*
D11*
%TO.P,J23,2,Pin_2*%
%TO.N,Net-(J1-Pin_14)*%
X-53967500Y-22500000D03*
%TO.P,J23,3,Pin_3*%
%TO.N,Net-(J1-Pin_15)*%
X-53967500Y-26000000D03*
%TD*%
D12*
%TO.P,J25,1,Pin_1*%
%TO.N,Net-(J1-Pin_19)*%
X-53967500Y-42300000D03*
D11*
%TO.P,J25,2,Pin_2*%
%TO.N,Net-(J1-Pin_20)*%
X-53967500Y-45800000D03*
%TO.P,J25,3,Pin_3*%
%TO.N,unconnected-(J25-Pin_3-Pad3)*%
X-53967500Y-49300000D03*
%TD*%
D10*
%TO.P,J7,1,Pin_1*%
%TO.N,Net-(J4-Pin_12)*%
X54000000Y-2700000D03*
D11*
%TO.P,J7,2,Pin_2*%
%TO.N,Net-(J4-Pin_13)*%
X54000000Y800000D03*
%TO.P,J7,3,Pin_3*%
%TO.N,Net-(J4-Pin_14)*%
X54000000Y4300000D03*
%TD*%
D12*
%TO.P,J31,1,Pin_1*%
%TO.N,Net-(J2-Pin_15)*%
X-53700000Y-111800000D03*
D11*
%TO.P,J31,2,Pin_2*%
%TO.N,Net-(J2-Pin_16)*%
X-53700000Y-115300000D03*
%TO.P,J31,3,Pin_3*%
%TO.N,Net-(J2-Pin_17)*%
X-53700000Y-118800000D03*
%TD*%
D10*
%TO.P,J17,1,Pin_1*%
%TO.N,Net-(J17-Pin_1)*%
X53867500Y-118300000D03*
D11*
%TO.P,J17,2,Pin_2*%
%TO.N,Net-(J17-Pin_2)*%
X53867500Y-114800000D03*
%TO.P,J17,3,Pin_3*%
%TO.N,Net-(J17-Pin_3)*%
X53867500Y-111300000D03*
%TD*%
D10*
%TO.P,J5,1,Pin_1*%
%TO.N,Net-(J4-Pin_18)*%
X54100000Y20400000D03*
D11*
%TO.P,J5,2,Pin_2*%
%TO.N,Net-(J4-Pin_19)*%
X54100000Y23900000D03*
%TO.P,J5,3,Pin_3*%
%TO.N,Net-(J4-Pin_20)*%
X54100000Y27400000D03*
%TD*%
D10*
%TO.P,J14,1,Pin_1*%
%TO.N,Net-(J14-Pin_1)*%
X54000000Y-83500000D03*
D11*
%TO.P,J14,2,Pin_2*%
%TO.N,Net-(J14-Pin_2)*%
X54000000Y-80000000D03*
%TO.P,J14,3,Pin_3*%
%TO.N,Net-(J14-Pin_3)*%
X54000000Y-76500000D03*
%TD*%
D12*
%TO.P,J32,1,Pin_1*%
%TO.N,Net-(J2-Pin_18)*%
X-53700000Y-123300000D03*
D11*
%TO.P,J32,2,Pin_2*%
%TO.N,Net-(J2-Pin_19)*%
X-53700000Y-126800000D03*
%TO.P,J32,3,Pin_3*%
%TO.N,Net-(J2-Pin_20)*%
X-53700000Y-130300000D03*
%TD*%
D12*
%TO.P,J24,1,Pin_1*%
%TO.N,Net-(J1-Pin_16)*%
X-53867500Y-30600000D03*
D11*
%TO.P,J24,2,Pin_2*%
%TO.N,Net-(J1-Pin_17)*%
X-53867500Y-34100000D03*
%TO.P,J24,3,Pin_3*%
%TO.N,Net-(J1-Pin_18)*%
X-53867500Y-37600000D03*
%TD*%
D12*
%TO.P,J30,1,Pin_1*%
%TO.N,Net-(J2-Pin_12)*%
X-53700000Y-100100000D03*
D11*
%TO.P,J30,2,Pin_2*%
%TO.N,Net-(J2-Pin_13)*%
X-53700000Y-103600000D03*
%TO.P,J30,3,Pin_3*%
%TO.N,Net-(J2-Pin_14)*%
X-53700000Y-107100000D03*
%TD*%
D12*
%TO.P,J19,1,Pin_1*%
%TO.N,Net-(J1-Pin_1)*%
X-53967500Y27300000D03*
D11*
%TO.P,J19,2,Pin_2*%
%TO.N,Net-(J1-Pin_2)*%
X-53967500Y23800000D03*
%TO.P,J19,3,Pin_3*%
%TO.N,Net-(J1-Pin_3)*%
X-53967500Y20300000D03*
%TD*%
D12*
%TO.P,J22,1,Pin_1*%
%TO.N,Net-(J1-Pin_10)*%
X-53967500Y-7200000D03*
D11*
%TO.P,J22,2,Pin_2*%
%TO.N,Net-(J1-Pin_11)*%
X-53967500Y-10700000D03*
%TO.P,J22,3,Pin_3*%
%TO.N,Net-(J1-Pin_12)*%
X-53967500Y-14200000D03*
%TD*%
D12*
%TO.P,J21,1,Pin_1*%
%TO.N,Net-(J1-Pin_7)*%
X-53867500Y4300000D03*
D11*
%TO.P,J21,2,Pin_2*%
%TO.N,Net-(J1-Pin_8)*%
X-53867500Y800000D03*
%TO.P,J21,3,Pin_3*%
%TO.N,Net-(J1-Pin_9)*%
X-53867500Y-2700000D03*
%TD*%
D10*
%TO.P,J6,1,Pin_1*%
%TO.N,Net-(J4-Pin_15)*%
X54067500Y8800000D03*
D11*
%TO.P,J6,2,Pin_2*%
%TO.N,Net-(J4-Pin_16)*%
X54067500Y12300000D03*
%TO.P,J6,3,Pin_3*%
%TO.N,Net-(J4-Pin_17)*%
X54067500Y15800000D03*
%TD*%
D10*
%TO.P,J8,1,Pin_1*%
%TO.N,Net-(J4-Pin_9)*%
X54067500Y-14200000D03*
D11*
%TO.P,J8,2,Pin_2*%
%TO.N,Net-(J4-Pin_10)*%
X54067500Y-10700000D03*
%TO.P,J8,3,Pin_3*%
%TO.N,Net-(J4-Pin_11)*%
X54067500Y-7200000D03*
%TD*%
D12*
%TO.P,J28,1,Pin_1*%
%TO.N,Net-(J2-Pin_6)*%
X-53800000Y-76900000D03*
D11*
%TO.P,J28,2,Pin_2*%
%TO.N,Net-(J2-Pin_7)*%
X-53800000Y-80400000D03*
%TO.P,J28,3,Pin_3*%
%TO.N,Net-(J2-Pin_8)*%
X-53800000Y-83900000D03*
%TD*%
D10*
%TO.P,J18,1,Pin_1*%
%TO.N,Net-(J18-Pin_1)*%
X53867500Y-129800000D03*
D11*
%TO.P,J18,2,Pin_2*%
%TO.N,Net-(J18-Pin_2)*%
X53867500Y-126300000D03*
%TO.P,J18,3,Pin_3*%
%TO.N,Net-(J18-Pin_3)*%
X53867500Y-122800000D03*
%TD*%
D12*
%TO.P,J27,1,Pin_1*%
%TO.N,Net-(J2-Pin_3)*%
X-53900000Y-65300000D03*
D11*
%TO.P,J27,2,Pin_2*%
%TO.N,Net-(J2-Pin_4)*%
X-53900000Y-68800000D03*
%TO.P,J27,3,Pin_3*%
%TO.N,Net-(J2-Pin_5)*%
X-53900000Y-72300000D03*
%TD*%
D10*
%TO.P,J10,1,Pin_1*%
%TO.N,Net-(J10-Pin_1)*%
X54000000Y-37400000D03*
D11*
%TO.P,J10,2,Pin_2*%
%TO.N,Net-(J10-Pin_2)*%
X54000000Y-33900000D03*
%TO.P,J10,3,Pin_3*%
%TO.N,Net-(J10-Pin_3)*%
X54000000Y-30400000D03*
%TD*%
D15*
%TO.N,Net-(J1-Pin_12)*%
X-26880000Y-14200000D02*
X-11400000Y-29680000D01*
X-53967500Y-14200000D02*
X-26880000Y-14200000D01*
%TO.N,Net-(J1-Pin_14)*%
X-53967500Y-22500000D02*
X-23660000Y-22500000D01*
X-23660000Y-22500000D02*
X-11400000Y-34760000D01*
%TO.N,Net-(J1-Pin_6)*%
X-34640000Y8800000D02*
X-11400000Y-14440000D01*
X-53867500Y8800000D02*
X-34640000Y8800000D01*
%TO.N,Net-(J1-Pin_10)*%
X-53967500Y-7200000D02*
X-28800000Y-7200000D01*
X-28800000Y-7200000D02*
X-11400000Y-24600000D01*
%TO.N,Net-(J1-Pin_16)*%
X-53867500Y-30600000D02*
X-20640000Y-30600000D01*
X-20640000Y-30600000D02*
X-11400000Y-39840000D01*
%TO.N,Net-(J1-Pin_20)*%
X-15600000Y-45800000D02*
X-11400000Y-50000000D01*
X-53967500Y-45800000D02*
X-15600000Y-45800000D01*
%TO.N,Net-(J1-Pin_18)*%
X-18720000Y-37600000D02*
X-11400000Y-44920000D01*
X-53867500Y-37600000D02*
X-18720000Y-37600000D01*
%TO.N,Net-(J1-Pin_8)*%
X-53867500Y800000D02*
X-31720000Y800000D01*
X-31720000Y800000D02*
X-11400000Y-19520000D01*
%TO.N,Net-(J1-Pin_2)*%
X-40165600Y23800000D02*
X-12085600Y-4280000D01*
X-12085600Y-4280000D02*
X-11400000Y-4280000D01*
X-53967500Y23800000D02*
X-40165600Y23800000D01*
%TO.N,Net-(J1-Pin_4)*%
X-53867500Y15800000D02*
X-36560000Y15800000D01*
X-36560000Y15800000D02*
X-11400000Y-9360000D01*
%TO.N,Net-(J2-Pin_3)*%
X-53900000Y-65300000D02*
X-18000000Y-65300000D01*
X-18000000Y-65300000D02*
X-11400000Y-58700000D01*
%TO.N,Net-(J2-Pin_9)*%
X-25960000Y-88500000D02*
X-11400000Y-73940000D01*
X-53700000Y-88500000D02*
X-25960000Y-88500000D01*
%TO.N,Net-(J2-Pin_11)*%
X-27880000Y-95500000D02*
X-11400000Y-79020000D01*
X-53700000Y-95500000D02*
X-27880000Y-95500000D01*
%TO.N,Net-(J2-Pin_19)*%
X-53700000Y-126800000D02*
X-38860000Y-126800000D01*
X-38860000Y-126800000D02*
X-11400000Y-99340000D01*
%TO.N,Net-(J2-Pin_1)*%
X-11500494Y-53620000D02*
X-11400000Y-53620000D01*
X-15180494Y-57300000D02*
X-11500494Y-53620000D01*
X-53900000Y-57300000D02*
X-15180494Y-57300000D01*
%TO.N,Net-(J2-Pin_15)*%
X-53700000Y-111800000D02*
X-34020000Y-111800000D01*
X-34020000Y-111800000D02*
X-11400000Y-89180000D01*
%TO.N,Net-(J2-Pin_5)*%
X-19920000Y-72300000D02*
X-11400000Y-63780000D01*
X-53900000Y-72300000D02*
X-19920000Y-72300000D01*
%TO.N,Net-(J2-Pin_13)*%
X-30900000Y-103600000D02*
X-11400000Y-84100000D01*
X-53700000Y-103600000D02*
X-30900000Y-103600000D01*
%TO.N,Net-(J2-Pin_7)*%
X-53800000Y-80400000D02*
X-22940000Y-80400000D01*
X-22940000Y-80400000D02*
X-11400000Y-68860000D01*
%TO.N,Net-(J2-Pin_17)*%
X-35940000Y-118800000D02*
X-11400000Y-94260000D01*
X-53700000Y-118800000D02*
X-35940000Y-118800000D01*
%TO.N,Net-(J16-Pin_2)*%
X30380000Y-103200000D02*
X11300000Y-84120000D01*
X53900000Y-103200000D02*
X30380000Y-103200000D01*
%TO.N,Net-(J12-Pin_2)*%
X54000000Y-56900000D02*
X14560000Y-56900000D01*
X14560000Y-56900000D02*
X11300000Y-53640000D01*
%TO.N,Net-(J15-Pin_3)*%
X53900000Y-88000000D02*
X25340000Y-88000000D01*
X25340000Y-88000000D02*
X11300000Y-73960000D01*
%TO.N,Net-(J13-Pin_1)*%
X54000000Y-71900000D02*
X19400000Y-71900000D01*
X19400000Y-71900000D02*
X11300000Y-63800000D01*
%TO.N,Net-(J15-Pin_1)*%
X27260000Y-95000000D02*
X11300000Y-79040000D01*
X53900000Y-95000000D02*
X27260000Y-95000000D01*
%TO.N,Net-(J18-Pin_2)*%
X38392400Y-126300000D02*
X11452400Y-99360000D01*
X11452400Y-99360000D02*
X11300000Y-99360000D01*
X53867500Y-126300000D02*
X38392400Y-126300000D01*
%TO.N,Net-(J17-Pin_3)*%
X33400000Y-111300000D02*
X11300000Y-89200000D01*
X53867500Y-111300000D02*
X33400000Y-111300000D01*
%TO.N,Net-(J13-Pin_3)*%
X17480000Y-64900000D02*
X11300000Y-58720000D01*
X54000000Y-64900000D02*
X17480000Y-64900000D01*
%TO.N,Net-(J14-Pin_2)*%
X22420000Y-80000000D02*
X11300000Y-68880000D01*
X54000000Y-80000000D02*
X22420000Y-80000000D01*
%TO.N,Net-(J17-Pin_1)*%
X53867500Y-118300000D02*
X35320000Y-118300000D01*
X35320000Y-118300000D02*
X11300000Y-94280000D01*
%TO.N,Net-(J4-Pin_11)*%
X28700000Y-7200000D02*
X11300000Y-24600000D01*
X54067500Y-7200000D02*
X28700000Y-7200000D01*
%TO.N,Net-(J4-Pin_19)*%
X39480000Y23900000D02*
X11300000Y-4280000D01*
X54100000Y23900000D02*
X39480000Y23900000D01*
%TO.N,Net-(J4-Pin_15)*%
X34540000Y8800000D02*
X11300000Y-14440000D01*
X54067500Y8800000D02*
X34540000Y8800000D01*
%TO.N,Net-(J4-Pin_9)*%
X26780000Y-14200000D02*
X11300000Y-29680000D01*
X54067500Y-14200000D02*
X26780000Y-14200000D01*
%TO.N,Net-(J4-Pin_17)*%
X54067500Y15800000D02*
X36460000Y15800000D01*
X36460000Y15800000D02*
X11300000Y-9360000D01*
%TO.N,Net-(J11-Pin_2)*%
X54000000Y-45400000D02*
X16100000Y-45400000D01*
X16100000Y-45400000D02*
X11500000Y-50000000D01*
X11500000Y-50000000D02*
X11300000Y-50000000D01*
%TO.N,Net-(J10-Pin_3)*%
X54000000Y-30400000D02*
X20740000Y-30400000D01*
X20740000Y-30400000D02*
X11300000Y-39840000D01*
%TO.N,Net-(J4-Pin_7)*%
X54067500Y-22300000D02*
X23760000Y-22300000D01*
X23760000Y-22300000D02*
X11300000Y-34760000D01*
%TO.N,Net-(J10-Pin_1)*%
X54000000Y-37400000D02*
X18820000Y-37400000D01*
X18820000Y-37400000D02*
X11300000Y-44920000D01*
%TO.N,Net-(J4-Pin_13)*%
X31620000Y800000D02*
X11300000Y-19520000D01*
X54000000Y800000D02*
X31620000Y800000D01*
%TD*%
M02*
