M48
; DRILL file {KiCad 9.0.3} date 2025-10-22T18:44:42-0600
; FORMAT={-:-/ absolute / metric / decimal}
; #@! TF.CreationDate,2025-10-22T18:44:42-06:00
; #@! TF.GenerationSoftware,Kicad,Pcbnew,9.0.3
; #@! TF.FileFunction,Plated,1,2,PTH
FMAT,2
METRIC
; #@! TA.AperFunction,Plated,PTH,ViaDrill
T1C0.400
; #@! TA.AperFunction,Plated,PTH,ComponentDrill
T2C0.750
; #@! TA.AperFunction,Plated,PTH,ComponentDrill
T3C0.780
; #@! TA.AperFunction,Plated,PTH,ComponentDrill
T4C0.800
; #@! TA.AperFunction,Plated,PTH,ComponentDrill
T5C0.900
; #@! TA.AperFunction,Plated,PTH,ComponentDrill
T6C1.000
; #@! TA.AperFunction,Plated,PTH,ComponentDrill
T7C1.075
; #@! TA.AperFunction,Plated,PTH,ComponentDrill
T8C1.100
; #@! TA.AperFunction,Plated,PTH,ComponentDrill
T9C1.200
; #@! TA.AperFunction,Plated,PTH,ComponentDrill
T10C1.300
; #@! TA.AperFunction,Plated,PTH,ComponentDrill
T11C1.500
; #@! TA.AperFunction,Plated,PTH,ComponentDrill
T12C1.600
; #@! TA.AperFunction,Plated,PTH,ComponentDrill
T13C4.500
%
G90
G05
T1
X102.252Y-90.503
X196.966Y-158.532
X212.854Y-262.504
X217.001Y-255.906
X217.158Y-243.781
X221.99Y-240.358
X222.692Y-246.422
X225.198Y-250.935
X232.396Y-235.841
X234.549Y-252.898
X246.84Y-216.727
T2
X188.73Y-56.73
X190.0Y-55.46
X190.0Y-58.0
X202.73Y-56.73
X204.0Y-55.46
X204.0Y-58.0
X216.73Y-56.73
X218.0Y-55.46
X218.0Y-58.0
X230.73Y-56.73
X232.0Y-55.46
X232.0Y-58.0
T3
X187.188Y-30.03
X187.188Y-37.97
X188.19Y-92.03
X188.19Y-99.97
X189.727Y-30.03
X189.727Y-37.97
X190.73Y-92.03
X190.73Y-99.97
X192.267Y-30.03
X192.267Y-37.97
X193.27Y-92.03
X193.27Y-99.97
X194.808Y-30.03
X194.808Y-37.97
X195.81Y-92.03
X195.81Y-99.97
X201.19Y-30.03
X201.19Y-37.97
X203.73Y-30.03
X203.73Y-37.97
X206.27Y-30.03
X206.27Y-37.97
X208.81Y-30.03
X208.81Y-37.97
X215.19Y-30.03
X215.19Y-37.97
X217.73Y-30.03
X217.73Y-37.97
X218.19Y-92.03
X218.19Y-99.97
X220.27Y-30.03
X220.27Y-37.97
X220.73Y-92.03
X220.73Y-99.97
X222.81Y-30.03
X222.81Y-37.97
X223.27Y-92.03
X223.27Y-99.97
X225.81Y-92.03
X225.81Y-99.97
X229.19Y-30.03
X229.19Y-37.97
X231.73Y-30.03
X231.73Y-37.97
X234.27Y-30.03
X234.27Y-37.97
X236.81Y-30.03
X236.81Y-37.97
T4
X55.5Y-224.528
X55.5Y-239.767
X58.0Y-106.0
X58.0Y-117.0
X58.0Y-128.0
X58.0Y-139.0
X58.0Y-150.0
X58.0Y-161.0
X58.0Y-172.0
X58.0Y-183.0
X70.96Y-231.767
X70.96Y-239.387
X73.24Y-106.0
X73.24Y-117.0
X73.24Y-128.0
X73.24Y-139.0
X73.24Y-150.0
X73.24Y-161.0
X73.24Y-172.0
X73.24Y-183.0
X73.5Y-231.767
X73.5Y-239.387
X74.295Y-34.2
X74.295Y-49.44
X79.5Y-221.607
X79.5Y-231.767
X79.785Y-92.735
X81.38Y-27.1
X81.38Y-29.64
X81.38Y-32.18
X85.795Y-104.325
X85.795Y-106.865
X85.795Y-115.325
X85.795Y-117.865
X85.795Y-126.325
X85.795Y-128.865
X85.795Y-137.325
X85.795Y-139.865
X85.795Y-148.325
X85.795Y-150.865
X85.795Y-159.325
X85.795Y-161.865
X85.795Y-170.325
X85.795Y-172.865
X85.795Y-181.325
X85.795Y-183.865
X89.0Y-27.1
X89.0Y-29.64
X89.0Y-32.18
X89.945Y-92.735
X92.5Y-224.528
X92.5Y-239.767
X93.415Y-104.325
X93.415Y-106.865
X93.415Y-115.325
X93.415Y-117.865
X93.415Y-126.325
X93.415Y-128.865
X93.415Y-137.325
X93.415Y-139.865
X93.415Y-148.325
X93.415Y-150.865
X93.415Y-159.325
X93.415Y-161.865
X93.415Y-170.325
X93.415Y-172.865
X93.415Y-181.325
X93.415Y-183.865
X94.3Y-193.3
X96.02Y-31.3
X96.84Y-190.76
X96.84Y-195.84
X99.42Y-105.8
X99.42Y-116.8
X99.42Y-127.8
X99.42Y-138.8
X99.42Y-149.8
X99.42Y-160.8
X99.42Y-171.8
X99.42Y-182.8
X101.495Y-70.425
X101.495Y-72.965
X106.18Y-31.3
X107.9Y-47.74
X107.9Y-57.9
X107.96Y-231.767
X107.96Y-239.387
X109.115Y-70.425
X109.115Y-72.965
X109.58Y-105.8
X109.58Y-116.8
X109.58Y-127.8
X109.58Y-138.8
X109.58Y-149.8
X109.58Y-160.8
X109.58Y-171.8
X109.58Y-182.8
X110.5Y-231.767
X110.5Y-239.387
X116.5Y-221.607
X116.5Y-231.767
X129.5Y-224.528
X129.5Y-239.767
X136.7Y-24.0
X141.7Y-24.0
X144.96Y-231.767
X144.96Y-239.387
X147.5Y-231.767
X147.5Y-239.387
X153.5Y-24.1
X153.5Y-221.607
X153.5Y-231.767
X158.5Y-24.1
X165.5Y-224.528
X165.5Y-239.767
X180.96Y-231.767
X180.96Y-239.387
X183.5Y-231.767
X183.5Y-239.387
X188.0Y-22.677
X189.5Y-221.607
X189.5Y-231.767
X190.0Y-41.84
X190.0Y-52.0
X190.0Y-62.0
X190.0Y-72.16
X190.0Y-108.0
X190.0Y-113.0
X193.0Y-22.677
X200.56Y-251.0
X200.9Y-227.2
X202.0Y-22.6
X203.84Y-140.0
X203.84Y-178.0
X204.0Y-41.84
X204.0Y-52.0
X204.0Y-62.0
X204.0Y-72.16
X204.5Y-151.38
X204.5Y-159.0
X204.5Y-189.38
X204.5Y-197.0
X204.9Y-95.0
X204.9Y-105.16
X204.9Y-113.0
X204.9Y-123.16
X207.0Y-22.6
X207.04Y-151.38
X207.04Y-159.0
X207.04Y-189.38
X207.04Y-197.0
X209.58Y-151.38
X209.58Y-159.0
X209.58Y-189.38
X209.58Y-197.0
X210.3Y-234.8
X210.3Y-242.9
X212.12Y-151.38
X212.12Y-159.0
X212.12Y-189.38
X212.12Y-197.0
X214.0Y-140.0
X214.0Y-178.0
X215.3Y-234.8
X215.3Y-242.9
X215.8Y-251.0
X216.0Y-22.677
X216.14Y-227.2
X218.0Y-41.84
X218.0Y-52.0
X218.0Y-62.0
X218.0Y-72.16
X219.84Y-157.0
X219.84Y-195.0
X220.0Y-108.0
X220.0Y-113.0
X221.0Y-22.677
X230.0Y-22.677
X230.0Y-157.0
X230.0Y-195.0
X232.0Y-41.84
X232.0Y-52.0
X232.0Y-62.0
X232.0Y-72.16
X235.0Y-22.677
X235.0Y-95.0
X235.0Y-105.16
X235.0Y-113.0
X235.0Y-123.16
T5
X77.46Y-105.74
X77.46Y-116.74
X77.46Y-127.74
X77.46Y-138.74
X77.46Y-149.74
X77.46Y-160.74
X77.46Y-171.74
X77.46Y-182.74
X80.0Y-105.74
X80.0Y-116.74
X80.0Y-127.74
X80.0Y-138.74
X80.0Y-149.74
X80.0Y-160.74
X80.0Y-171.74
X80.0Y-182.74
T6
X136.2Y-130.98
X136.2Y-133.52
X136.2Y-136.06
X136.2Y-138.6
X136.2Y-141.14
X136.2Y-143.68
X136.2Y-146.22
X136.2Y-148.76
X136.2Y-151.3
X136.2Y-153.84
X136.2Y-156.38
X136.2Y-158.92
X136.2Y-161.46
X136.2Y-164.0
X136.2Y-166.54
X136.2Y-169.08
X136.2Y-171.62
X136.2Y-174.16
X136.2Y-176.7
X136.2Y-179.24
X136.3Y-54.5
X136.3Y-57.04
X136.3Y-59.58
X136.3Y-62.12
X136.3Y-64.66
X136.3Y-67.2
X136.3Y-69.74
X136.3Y-72.28
X136.3Y-74.82
X136.3Y-77.36
X136.3Y-79.9
X136.3Y-82.44
X136.3Y-84.98
X136.3Y-87.52
X136.3Y-90.06
X136.3Y-92.6
X136.3Y-95.14
X136.3Y-97.68
X136.3Y-100.22
X136.3Y-102.76
X159.16Y-54.58
X159.16Y-57.12
X159.16Y-59.66
X159.16Y-62.2
X159.16Y-64.74
X159.16Y-67.28
X159.16Y-69.82
X159.16Y-72.36
X159.16Y-74.9
X159.16Y-77.44
X159.16Y-79.98
X159.16Y-82.52
X159.16Y-85.06
X159.16Y-87.6
X159.16Y-90.14
X159.16Y-92.68
X159.16Y-95.22
X159.16Y-97.76
X159.16Y-100.3
X159.16Y-102.84
X159.16Y-131.0
X159.16Y-133.54
X159.16Y-136.08
X159.16Y-138.62
X159.16Y-141.16
X159.16Y-143.7
X159.16Y-146.24
X159.16Y-148.78
X159.16Y-151.32
X159.16Y-153.86
X159.16Y-156.4
X159.16Y-158.94
X159.16Y-161.48
X159.16Y-164.02
X159.16Y-166.56
X159.16Y-169.1
X159.16Y-171.64
X159.16Y-174.18
X159.16Y-176.72
X159.16Y-179.26
X227.33Y-243.74
X228.6Y-241.2
X229.87Y-243.74
X231.14Y-241.2
X232.41Y-243.74
X233.68Y-241.2
X234.95Y-243.74
X236.22Y-223.2
X236.22Y-241.2
X237.49Y-243.74
X238.76Y-241.2
X240.03Y-243.74
X241.3Y-241.2
X242.57Y-243.74
X243.84Y-241.2
X245.11Y-243.74
T7
X98.242Y-88.027
X98.242Y-90.567
X98.242Y-93.108
X98.242Y-95.647
X187.0Y-84.0
X189.54Y-84.0
X190.0Y-131.0
X190.0Y-133.54
X190.0Y-136.08
X190.0Y-138.62
X190.0Y-149.0
X190.0Y-151.54
X190.0Y-154.08
X190.0Y-156.62
X190.0Y-169.0
X190.0Y-171.54
X190.0Y-174.08
X190.0Y-176.62
X190.0Y-187.0
X190.0Y-189.54
X190.0Y-192.08
X190.0Y-194.62
X192.08Y-84.0
X194.62Y-84.0
X208.0Y-84.0
X210.54Y-84.0
X213.08Y-84.0
X215.62Y-84.0
X229.0Y-84.0
X231.54Y-84.0
X234.08Y-84.0
X236.62Y-84.0
T8
X63.5Y-228.767
X63.5Y-238.927
X64.18Y-27.42
X64.18Y-29.96
X64.18Y-32.5
X100.5Y-228.767
X100.5Y-238.927
X137.5Y-228.767
X137.5Y-238.927
X173.5Y-228.767
X173.5Y-238.927
T9
X46.8Y-31.6
X46.8Y-35.1
X46.8Y-38.6
X47.0Y-62.3
X47.0Y-65.8
X47.0Y-69.3
X47.0Y-119.0
X47.0Y-122.5
X47.0Y-126.0
X47.0Y-141.0
X47.0Y-144.5
X47.0Y-148.0
X47.0Y-163.0
X47.0Y-166.5
X47.0Y-170.0
X55.9Y-60.7
X55.9Y-70.9
X56.0Y-262.767
X59.5Y-262.767
X63.0Y-262.767
X71.5Y-262.767
X75.0Y-262.767
X78.5Y-262.767
X81.3Y-60.7
X81.3Y-70.9
X93.0Y-262.767
X96.1Y-45.6
X96.1Y-71.0
X96.5Y-262.767
X100.0Y-262.767
X108.5Y-262.767
X112.0Y-262.767
X115.5Y-262.767
X130.0Y-262.767
X133.5Y-262.767
X137.0Y-262.767
X145.5Y-262.767
X149.0Y-262.767
X152.5Y-262.767
X166.0Y-262.767
X169.5Y-262.767
X173.0Y-262.767
X181.5Y-262.767
X185.0Y-262.767
X188.5Y-262.767
X202.1Y-262.7
X205.6Y-262.7
X209.1Y-262.7
X218.1Y-262.7
X221.6Y-262.7
X225.1Y-262.7
X234.1Y-262.7
X237.6Y-262.7
X241.1Y-262.7
X251.9Y-33.6
X251.9Y-37.1
X251.9Y-40.6
X252.0Y-53.0
X252.0Y-56.5
X252.0Y-60.0
X252.0Y-102.2
X252.0Y-105.7
X252.0Y-109.2
X252.0Y-137.0
X252.0Y-140.5
X252.0Y-144.0
X252.0Y-175.0
X252.0Y-178.5
X252.0Y-182.0
T10
X55.3Y-249.767
X60.34Y-249.767
X65.38Y-249.767
X76.72Y-249.767
X80.5Y-249.767
X92.3Y-249.767
X97.34Y-249.767
X102.38Y-249.767
X113.72Y-249.767
X117.5Y-249.767
X129.3Y-249.767
X134.34Y-249.767
X139.38Y-249.767
X150.72Y-249.767
X154.5Y-249.767
X165.3Y-249.767
X170.34Y-249.767
X175.38Y-249.767
X186.72Y-249.767
X190.5Y-249.767
T11
X222.0Y-133.1
X222.0Y-138.55
X222.0Y-144.0
X222.0Y-171.1
X222.0Y-176.55
X222.0Y-182.0
T12
X79.5Y-212.0
X88.6Y-58.26
X88.6Y-63.34
X88.6Y-68.42
X88.6Y-73.5
X115.0Y-39.2
X115.0Y-71.125
X115.0Y-106.0
X115.0Y-117.0
X115.0Y-128.0
X115.0Y-139.0
X115.0Y-150.0
X115.0Y-161.0
X115.0Y-172.0
X115.0Y-183.0
X115.0Y-193.8
X116.5Y-212.0
X130.6Y-38.7
X130.6Y-42.7
X130.6Y-46.7
X130.6Y-50.7
X130.6Y-54.7
X130.6Y-58.7
X130.6Y-62.7
X130.6Y-66.7
X130.6Y-70.7
X130.6Y-74.7
X130.6Y-78.7
X130.6Y-82.7
X130.6Y-86.7
X130.6Y-90.7
X130.6Y-94.7
X130.6Y-98.7
X130.6Y-102.7
X130.6Y-106.7
X130.6Y-110.7
X130.6Y-114.7
X130.6Y-118.7
X130.6Y-122.7
X130.6Y-126.7
X130.6Y-130.7
X130.6Y-134.7
X130.6Y-138.7
X130.6Y-142.7
X130.6Y-146.7
X130.6Y-150.7
X130.6Y-154.7
X130.6Y-158.7
X130.6Y-162.7
X130.6Y-166.7
X130.6Y-170.7
X130.6Y-174.7
X130.6Y-178.7
X130.6Y-182.7
X130.6Y-186.7
X130.6Y-190.7
X130.6Y-194.7
X153.5Y-212.0
X164.9Y-38.7
X164.9Y-42.7
X164.9Y-46.7
X164.9Y-50.7
X164.9Y-54.7
X164.9Y-58.7
X164.9Y-62.7
X164.9Y-66.7
X164.9Y-70.7
X164.9Y-74.7
X164.9Y-78.7
X164.9Y-82.7
X164.9Y-86.7
X164.9Y-90.7
X164.9Y-94.7
X164.9Y-98.7
X164.9Y-102.7
X164.9Y-106.7
X164.9Y-110.7
X164.9Y-114.7
X164.9Y-118.7
X164.9Y-122.7
X164.9Y-126.7
X164.9Y-130.7
X164.9Y-134.7
X164.9Y-138.7
X164.9Y-142.7
X164.9Y-146.7
X164.9Y-150.7
X164.9Y-154.7
X164.9Y-158.7
X164.9Y-162.7
X164.9Y-166.7
X164.9Y-170.7
X164.9Y-174.7
X164.9Y-178.7
X164.9Y-182.7
X164.9Y-186.7
X164.9Y-190.7
X164.9Y-194.7
X180.76Y-57.1
X180.76Y-61.75
X180.76Y-66.4
X180.76Y-71.05
X180.76Y-108.0
X180.76Y-113.0
X180.76Y-150.0
X180.76Y-188.0
X189.5Y-212.0
X206.12Y-212.0
X210.7Y-212.0
X215.35Y-212.0
X227.7Y-212.0
X232.45Y-212.0
X237.0Y-212.0
T13
X44.5Y-21.0
X44.5Y-268.0
X147.8Y-117.0
X254.0Y-21.0
X254.0Y-268.0
M30
