%TF.GenerationSoftware,KiCad,Pcbnew,9.0.3*%
%TF.CreationDate,2025-10-21T22:04:11-06:00*%
%TF.ProjectId,PCB_HORNO,5043425f-484f-4524-9e4f-2e6b69636164,rev?*%
%TF.SameCoordinates,Original*%
%TF.FileFunction,Copper,L2,Bot*%
%TF.FilePolarity,Positive*%
%FSLAX46Y46*%
G04 Gerber Fmt 4.6, Leading zero omitted, Abs format (unit mm)*
G04 Created by KiCad (PCBNEW 9.0.3) date 2025-10-21 22:04:11*
%MOMM*%
%LPD*%
G01*
G04 APERTURE LIST*
G04 Aperture macros list*
%AMRoundRect*
0 Rectangle with rounded corners*
0 $1 Rounding radius*
0 $2 $3 $4 $5 $6 $7 $8 $9 X,Y pos of 4 corners*
0 Add a 4 corners polygon primitive as box body*
4,1,4,$2,$3,$4,$5,$6,$7,$8,$9,$2,$3,0*
0 Add four circle primitives for the rounded corners*
1,1,$1+$1,$2,$3*
1,1,$1+$1,$4,$5*
1,1,$1+$1,$6,$7*
1,1,$1+$1,$8,$9*
0 Add four rect primitives between the rounded corners*
20,1,$1+$1,$2,$3,$4,$5,0*
20,1,$1+$1,$4,$5,$6,$7,0*
20,1,$1+$1,$6,$7,$8,$9,0*
20,1,$1+$1,$8,$9,$2,$3,0*%
G04 Aperture macros list end*
%TA.AperFunction,ComponentPad*%
%ADD10RoundRect,0.250000X1.050000X-1.050000X1.050000X1.050000X-1.050000X1.050000X-1.050000X-1.050000X0*%
%TD*%
%TA.AperFunction,ComponentPad*%
%ADD11C,1.600000*%
%TD*%
%TA.AperFunction,ComponentPad*%
%ADD12R,1.130000X1.130000*%
%TD*%
%TA.AperFunction,ComponentPad*%
%ADD13C,1.130000*%
%TD*%
%TA.AperFunction,ComponentPad*%
%ADD14C,9.000000*%
%TD*%
%TA.AperFunction,ComponentPad*%
%ADD15RoundRect,0.250001X-0.949999X0.949999X-0.949999X-0.949999X0.949999X-0.949999X0.949999X0.949999X0*%
%TD*%
%TA.AperFunction,ComponentPad*%
%ADD16C,2.400000*%
%TD*%
%TA.AperFunction,ComponentPad*%
%ADD17R,3.200000X3.200000*%
%TD*%
%TA.AperFunction,ComponentPad*%
%ADD18C,3.200000*%
%TD*%
%TA.AperFunction,ComponentPad*%
%ADD19RoundRect,0.250001X0.949999X-0.949999X0.949999X0.949999X-0.949999X0.949999X-0.949999X-0.949999X0*%
%TD*%
%TA.AperFunction,ComponentPad*%
%ADD20RoundRect,0.250000X-1.050000X-1.050000X1.050000X-1.050000X1.050000X1.050000X-1.050000X1.050000X0*%
%TD*%
%TA.AperFunction,ComponentPad*%
%ADD21RoundRect,0.249999X-0.850001X0.850001X-0.850001X-0.850001X0.850001X-0.850001X0.850001X0.850001X0*%
%TD*%
%TA.AperFunction,ComponentPad*%
%ADD22C,2.200000*%
%TD*%
%TA.AperFunction,ComponentPad*%
%ADD23R,1.800000X1.800000*%
%TD*%
%TA.AperFunction,ComponentPad*%
%ADD24C,1.800000*%
%TD*%
%TA.AperFunction,ComponentPad*%
%ADD25RoundRect,0.250000X-0.550000X-0.550000X0.550000X-0.550000X0.550000X0.550000X-0.550000X0.550000X0*%
%TD*%
%TA.AperFunction,ComponentPad*%
%ADD26R,2.250000X1.750000*%
%TD*%
%TA.AperFunction,ComponentPad*%
%ADD27O,2.250000X1.750000*%
%TD*%
%TA.AperFunction,ComponentPad*%
%ADD28R,1.700000X1.700000*%
%TD*%
%TA.AperFunction,ComponentPad*%
%ADD29C,1.700000*%
%TD*%
%TA.AperFunction,ComponentPad*%
%ADD30R,1.750000X2.250000*%
%TD*%
%TA.AperFunction,ComponentPad*%
%ADD31O,1.750000X2.250000*%
%TD*%
%TA.AperFunction,ComponentPad*%
%ADD32RoundRect,0.250000X1.050000X1.050000X-1.050000X1.050000X-1.050000X-1.050000X1.050000X-1.050000X0*%
%TD*%
%TA.AperFunction,ComponentPad*%
%ADD33R,4.500000X2.500000*%
%TD*%
%TA.AperFunction,ComponentPad*%
%ADD34O,4.500000X2.500000*%
%TD*%
%TA.AperFunction,ComponentPad*%
%ADD35RoundRect,0.250000X0.550000X-0.550000X0.550000X0.550000X-0.550000X0.550000X-0.550000X-0.550000X0*%
%TD*%
%TA.AperFunction,ComponentPad*%
%ADD36R,2.000000X1.905000*%
%TD*%
%TA.AperFunction,ComponentPad*%
%ADD37O,2.000000X1.905000*%
%TD*%
%TA.AperFunction,ComponentPad*%
%ADD38RoundRect,0.250001X-0.949999X-0.949999X0.949999X-0.949999X0.949999X0.949999X-0.949999X0.949999X0*%
%TD*%
%TA.AperFunction,ComponentPad*%
%ADD39R,1.300000X1.300000*%
%TD*%
%TA.AperFunction,ComponentPad*%
%ADD40C,1.300000*%
%TD*%
%TA.AperFunction,ComponentPad*%
%ADD41R,2.000000X2.000000*%
%TD*%
%TA.AperFunction,ComponentPad*%
%ADD42C,2.000000*%
%TD*%
%TA.AperFunction,ComponentPad*%
%ADD43RoundRect,0.250000X-0.550000X0.550000X-0.550000X-0.550000X0.550000X-0.550000X0.550000X0.550000X0*%
%TD*%
%TA.AperFunction,ComponentPad*%
%ADD44C,1.440000*%
%TD*%
%TA.AperFunction,ComponentPad*%
%ADD45RoundRect,0.250000X0.550000X0.550000X-0.550000X0.550000X-0.550000X-0.550000X0.550000X-0.550000X0*%
%TD*%
%TA.AperFunction,ViaPad*%
%ADD46C,0.800000*%
%TD*%
%TA.AperFunction,Conductor*%
%ADD47C,1.000000*%
%TD*%
G04 APERTURE END LIST*
D10*
%TO.P,PX62,1,Pin_1*%
%TO.N,Net-(PX62-Pin_1)*%
X237000000Y-212000000D03*
%TD*%
D11*
%TO.P,R12,1*%
%TO.N,Net-(PS5-+Vout)*%
X107900000Y-47740000D03*
%TO.P,R12,2*%
%TO.N,Net-(PX54-Pin_1)*%
X107900000Y-57900000D03*
%TD*%
D12*
%TO.P,U12,1,NULL*%
%TO.N,unconnected-(U12-NULL-Pad1)*%
X229190000Y-37970000D03*
D13*
%TO.P,U12,2,-*%
%TO.N,Net-(U12--)*%
X231730000Y-37970000D03*
%TO.P,U12,3,+*%
%TO.N,Net-(J0_6-Pin_1)*%
X234270000Y-37970000D03*
%TO.P,U12,4,V-*%
%TO.N,Net-(PS7--Vout)*%
X236810000Y-37970000D03*
%TO.P,U12,5,NULL*%
%TO.N,unconnected-(U12-NULL-Pad5)*%
X236810000Y-30030000D03*
%TO.P,U12,6*%
%TO.N,Net-(U12--)*%
X234270000Y-30030000D03*
%TO.P,U12,7,V+*%
%TO.N,Net-(PS6-+Vout)*%
X231730000Y-30030000D03*
%TO.P,U12,8,NC*%
%TO.N,unconnected-(U12-NC-Pad8)*%
X229190000Y-30030000D03*
%TD*%
D14*
%TO.P,H4,1*%
%TO.N,N/C*%
X44500000Y-268000000D03*
%TD*%
D11*
%TO.P,R22,1*%
%TO.N,Net-(J0_13-Pin_3)*%
X235000000Y-95000000D03*
%TO.P,R22,2*%
%TO.N,Net-(U17--)*%
X235000000Y-105160000D03*
%TD*%
D15*
%TO.P,J0_1,1,Pin_1*%
%TO.N,Net-(J0_1-Pin_1)*%
X47000000Y-119000000D03*
D16*
%TO.P,J0_1,2,Pin_2*%
%TO.N,Net-(J0_1-Pin_2)*%
X47000000Y-122500000D03*
%TO.P,J0_1,3,Pin_3*%
%TO.N,Net-(J0_1-Pin_3)*%
X47000000Y-126000000D03*
%TD*%
D17*
%TO.P,D10,1,+*%
%TO.N,Net-(D10-+)*%
X88600000Y-58260000D03*
D18*
%TO.P,D10,2*%
%TO.N,Net-(D10-Pad2)*%
X88600000Y-63340000D03*
%TO.P,D10,3*%
%TO.N,Net-(D10-Pad3)*%
X88600000Y-68420000D03*
%TO.P,D10,4,-*%
%TO.N,Net-(D10--)*%
X88600000Y-73500000D03*
%TD*%
D19*
%TO.P,J0_5,1,Pin_1*%
%TO.N,Net-(J0_5-Pin_1)*%
X252000000Y-60000000D03*
D16*
%TO.P,J0_5,2,Pin_2*%
%TO.N,Net-(J0_5-Pin_2)*%
X252000000Y-56500000D03*
%TO.P,J0_5,3,Pin_3*%
%TO.N,Net-(J0_5-Pin_3)*%
X252000000Y-53000000D03*
%TD*%
D20*
%TO.P,PX48,1,Pin_1*%
%TO.N,Net-(PX48-Pin_1)*%
X115000000Y-128000000D03*
%TD*%
D21*
%TO.P,D12,1,K*%
%TO.N,Net-(D12-K)*%
X137500000Y-228767500D03*
D22*
%TO.P,D12,2,A*%
%TO.N,Net-(D12-A)*%
X137500000Y-238927500D03*
%TD*%
D10*
%TO.P,PX69,1,Pin_1*%
%TO.N,Net-(PX69-Pin_1)*%
X79500000Y-212000000D03*
%TD*%
D20*
%TO.P,P18,1,Pin_1*%
%TO.N,Net-(J1-Pin_12)*%
X130600000Y-82700000D03*
%TD*%
%TO.P,P22,1,Pin_1*%
%TO.N,Net-(J1-Pin_9)*%
X130600000Y-70700000D03*
%TD*%
D11*
%TO.P,R40,1*%
%TO.N,Net-(GND1-Pin_1)*%
X200560000Y-251000000D03*
%TO.P,R40,2*%
%TO.N,Net-(U20-SENSE_B)*%
X215800000Y-251000000D03*
%TD*%
%TO.P,R15,1*%
%TO.N,Net-(Q2-B)*%
X204000000Y-52000000D03*
%TO.P,R15,2*%
%TO.N,Net-(U10--)*%
X204000000Y-41840000D03*
%TD*%
D23*
%TO.P,U20,1,SENSE_A*%
%TO.N,Net-(U20-SENSE_A)*%
X227330000Y-243740000D03*
D24*
%TO.P,U20,2,OUT1*%
%TO.N,Net-(J0_9-Pin_3)*%
X228600000Y-241200000D03*
%TO.P,U20,3,OUT2*%
%TO.N,Net-(J0_9-Pin_1)*%
X229870000Y-243740000D03*
%TO.P,U20,4,Vs*%
%TO.N,Net-(J0_16-Pin_2)*%
X231140000Y-241200000D03*
%TO.P,U20,5,IN1*%
%TO.N,Net-(PX113-Pin_1)*%
X232410000Y-243740000D03*
%TO.P,U20,6,EnA*%
%TO.N,Net-(PX55-Pin_1)*%
X233680000Y-241200000D03*
%TO.P,U20,7,IN2*%
%TO.N,Net-(PX112-Pin_1)*%
X234950000Y-243740000D03*
%TO.P,U20,8,GND*%
%TO.N,Net-(GND1-Pin_1)*%
X236220000Y-241200000D03*
%TO.P,U20,9,Vss*%
%TO.N,Net-(J0_16-Pin_3)*%
X237490000Y-243740000D03*
%TO.P,U20,10,IN3*%
%TO.N,Net-(PX111-Pin_1)*%
X238760000Y-241200000D03*
%TO.P,U20,11,EnB*%
%TO.N,Net-(PX45-Pin_1)*%
X240030000Y-243740000D03*
%TO.P,U20,12,IN4*%
%TO.N,Net-(PX62-Pin_1)*%
X241300000Y-241200000D03*
%TO.P,U20,13,OUT3*%
%TO.N,Net-(J0_10-Pin_3)*%
X242570000Y-243740000D03*
%TO.P,U20,14,OUT4*%
%TO.N,Net-(J0_10-Pin_1)*%
X243840000Y-241200000D03*
%TO.P,U20,15,SENSE_B*%
%TO.N,Net-(U20-SENSE_B)*%
X245110000Y-243740000D03*
%TD*%
D25*
%TO.P,U8,1*%
%TO.N,Net-(D8-K)*%
X85795000Y-181325000D03*
D11*
%TO.P,U8,2*%
%TO.N,Net-(J0_1-Pin_1)*%
X85795000Y-183865000D03*
%TO.P,U8,3*%
%TO.N,Net-(PX53-Pin_1)*%
X93415000Y-183865000D03*
%TO.P,U8,4*%
%TO.N,Net-(R49-Pad2)*%
X93415000Y-181325000D03*
%TD*%
%TO.P,R7,1*%
%TO.N,Net-(PX52-Pin_1)*%
X99420000Y-171800000D03*
%TO.P,R7,2*%
%TO.N,Net-(GND1-Pin_1)*%
X109580000Y-171800000D03*
%TD*%
%TO.P,R13,1*%
%TO.N,Net-(R13-Pad1)*%
X74295000Y-49440000D03*
%TO.P,R13,2*%
%TO.N,Net-(J0_7-Pin_3)*%
X74295000Y-34200000D03*
%TD*%
D10*
%TO.P,PX45,1,Pin_1*%
%TO.N,Net-(PX45-Pin_1)*%
X206120000Y-212000000D03*
%TD*%
D11*
%TO.P,R28,1*%
%TO.N,Net-(J0_1-Pin_2)*%
X58000000Y-106000000D03*
%TO.P,R28,2*%
%TO.N,Net-(D1-A)*%
X73240000Y-106000000D03*
%TD*%
%TO.P,R33,1*%
%TO.N,Net-(J0_3-Pin_1)*%
X58000000Y-161000000D03*
%TO.P,R33,2*%
%TO.N,Net-(D6-A)*%
X73240000Y-161000000D03*
%TD*%
D10*
%TO.P,PX72,1,Pin_1*%
%TO.N,Net-(PX72-Pin_1)*%
X189500000Y-212000000D03*
%TD*%
D11*
%TO.P,C3,1*%
%TO.N,Net-(J0_6-Pin_1)*%
X235000000Y-22677500D03*
%TO.P,C3,2*%
%TO.N,Net-(GND1-Pin_1)*%
X230000000Y-22677500D03*
%TD*%
D20*
%TO.P,PX33,1,Pin_1*%
%TO.N,Net-(J3-Pin_11)*%
X164900000Y-154700000D03*
%TD*%
%TO.P,P34,1,Pin_1*%
%TO.N,Net-(J4-Pin_13)*%
X164900000Y-66700000D03*
%TD*%
D23*
%TO.P,D7,1,K*%
%TO.N,Net-(D7-K)*%
X80000000Y-171740000D03*
D24*
%TO.P,D7,2,A*%
%TO.N,Net-(D7-A)*%
X77460000Y-171740000D03*
%TD*%
D20*
%TO.P,PX50,1,Pin_1*%
%TO.N,Net-(PX50-Pin_1)*%
X115000000Y-150000000D03*
%TD*%
D15*
%TO.P,J0_3,1,Pin_1*%
%TO.N,Net-(J0_3-Pin_1)*%
X47000000Y-163000000D03*
D16*
%TO.P,J0_3,2,Pin_2*%
%TO.N,Net-(J0_3-Pin_2)*%
X47000000Y-166500000D03*
%TO.P,J0_3,3,Pin_3*%
%TO.N,Net-(J0_3-Pin_3)*%
X47000000Y-170000000D03*
%TD*%
D20*
%TO.P,P26,1,Pin_1*%
%TO.N,Net-(J4-Pin_8)*%
X164900000Y-86700000D03*
%TD*%
D26*
%TO.P,PS1,1,-Vin*%
%TO.N,Net-(GND1-Pin_1)*%
X190000000Y-169000000D03*
D27*
%TO.P,PS1,2,+Vin*%
%TO.N,Net-(5Vb1-Pin_1)*%
X190000000Y-171540000D03*
%TO.P,PS1,3,-Vout*%
%TO.N,Net-(J0_18-Pin_3)*%
X190000000Y-174080000D03*
%TO.P,PS1,4,+Vout*%
%TO.N,Net-(PS1-+Vout)*%
X190000000Y-176620000D03*
%TD*%
D20*
%TO.P,3V3a1,1,Pin_1*%
%TO.N,Net-(3V3a1-Pin_1)*%
X130600000Y-46700000D03*
%TD*%
%TO.P,P0,1,Pin_1*%
%TO.N,Net-(J1-Pin_8)*%
X130600000Y-66700000D03*
%TD*%
%TO.P,PX12,1,Pin_1*%
%TO.N,Net-(J2-Pin_10)*%
X130600000Y-154700000D03*
%TD*%
D23*
%TO.P,D6,1,K*%
%TO.N,Net-(D6-K)*%
X80000000Y-160740000D03*
D24*
%TO.P,D6,2,A*%
%TO.N,Net-(D6-A)*%
X77460000Y-160740000D03*
%TD*%
D20*
%TO.P,PX27,1,Pin_1*%
%TO.N,Net-(J3-Pin_5)*%
X164900000Y-178700000D03*
%TD*%
D28*
%TO.P,J2,1,Pin_1*%
%TO.N,Net-(J2-Pin_1)*%
X136200000Y-130980000D03*
D29*
%TO.P,J2,2,Pin_2*%
%TO.N,Net-(J2-Pin_2)*%
X136200000Y-133520000D03*
%TO.P,J2,3,Pin_3*%
%TO.N,Net-(J2-Pin_3)*%
X136200000Y-136060000D03*
%TO.P,J2,4,Pin_4*%
%TO.N,Net-(J2-Pin_4)*%
X136200000Y-138600000D03*
%TO.P,J2,5,Pin_5*%
%TO.N,Net-(J2-Pin_5)*%
X136200000Y-141140000D03*
%TO.P,J2,6,Pin_6*%
%TO.N,Net-(J2-Pin_6)*%
X136200000Y-143680000D03*
%TO.P,J2,7,Pin_7*%
%TO.N,Net-(J2-Pin_7)*%
X136200000Y-146220000D03*
%TO.P,J2,8,Pin_8*%
%TO.N,Net-(J2-Pin_8)*%
X136200000Y-148760000D03*
%TO.P,J2,9,Pin_9*%
%TO.N,Net-(J2-Pin_9)*%
X136200000Y-151300000D03*
%TO.P,J2,10,Pin_10*%
%TO.N,Net-(J2-Pin_10)*%
X136200000Y-153840000D03*
%TO.P,J2,11,Pin_11*%
%TO.N,Net-(J2-Pin_11)*%
X136200000Y-156380000D03*
%TO.P,J2,12,Pin_12*%
%TO.N,Net-(J2-Pin_12)*%
X136200000Y-158920000D03*
%TO.P,J2,13,Pin_13*%
%TO.N,Net-(J2-Pin_13)*%
X136200000Y-161460000D03*
%TO.P,J2,14,Pin_14*%
%TO.N,Net-(J2-Pin_14)*%
X136200000Y-164000000D03*
%TO.P,J2,15,Pin_15*%
%TO.N,Net-(J2-Pin_15)*%
X136200000Y-166540000D03*
%TO.P,J2,16,Pin_16*%
%TO.N,Net-(J2-Pin_16)*%
X136200000Y-169080000D03*
%TO.P,J2,17,Pin_17*%
%TO.N,Net-(J2-Pin_17)*%
X136200000Y-171620000D03*
%TO.P,J2,18,Pin_18*%
%TO.N,Net-(J2-Pin_18)*%
X136200000Y-174160000D03*
%TO.P,J2,19,Pin_19*%
%TO.N,Net-(J2-Pin_19)*%
X136200000Y-176700000D03*
%TO.P,J2,20,Pin_20*%
%TO.N,Net-(J2-Pin_20)*%
X136200000Y-179240000D03*
%TD*%
D11*
%TO.P,R16,1*%
%TO.N,Net-(Q3-B)*%
X218000000Y-52000000D03*
%TO.P,R16,2*%
%TO.N,Net-(U11--)*%
X218000000Y-41840000D03*
%TD*%
D20*
%TO.P,PX26,1,Pin_1*%
%TO.N,Net-(J3-Pin_4)*%
X164900000Y-182700000D03*
%TD*%
%TO.P,PX39,1,Pin_1*%
%TO.N,Net-(J3-Pin_17)*%
X164900000Y-130700000D03*
%TD*%
D11*
%TO.P,R49,1*%
%TO.N,Net-(PS5-+Vout)*%
X89945000Y-92735000D03*
%TO.P,R49,2*%
%TO.N,Net-(R49-Pad2)*%
X79785000Y-92735000D03*
%TD*%
D20*
%TO.P,P5,1,Pin_1*%
%TO.N,Net-(J1-Pin_13)*%
X130600000Y-86700000D03*
%TD*%
D30*
%TO.P,PS6,1,-Vin*%
%TO.N,Net-(GND1-Pin_1)*%
X229000000Y-84000000D03*
D31*
%TO.P,PS6,2,+Vin*%
%TO.N,Net-(5Vb1-Pin_1)*%
X231540000Y-84000000D03*
%TO.P,PS6,3,-Vout*%
%TO.N,Net-(GND1-Pin_1)*%
X234080000Y-84000000D03*
%TO.P,PS6,4,+Vout*%
%TO.N,Net-(PS6-+Vout)*%
X236620000Y-84000000D03*
%TD*%
D32*
%TO.P,PX124,1,Pin_1*%
%TO.N,Net-(PX124-Pin_1)*%
X180760000Y-57100000D03*
%TD*%
D25*
%TO.P,U14,1*%
%TO.N,Net-(R11-Pad2)*%
X101495000Y-70425000D03*
D11*
%TO.P,U14,2*%
%TO.N,Net-(D10--)*%
X101495000Y-72965000D03*
%TO.P,U14,3*%
%TO.N,Net-(GND1-Pin_1)*%
X109115000Y-72965000D03*
%TO.P,U14,4*%
%TO.N,Net-(PX54-Pin_1)*%
X109115000Y-70425000D03*
%TD*%
D23*
%TO.P,D2,1,K*%
%TO.N,Net-(D2-K)*%
X80000000Y-116740000D03*
D24*
%TO.P,D2,2,A*%
%TO.N,Net-(D2-A)*%
X77460000Y-116740000D03*
%TD*%
D12*
%TO.P,U11,1,NULL*%
%TO.N,unconnected-(U11-NULL-Pad1)*%
X215190000Y-37970000D03*
D13*
%TO.P,U11,2,-*%
%TO.N,Net-(U11--)*%
X217730000Y-37970000D03*
%TO.P,U11,3,+*%
%TO.N,Net-(J0_5-Pin_3)*%
X220270000Y-37970000D03*
%TO.P,U11,4,V-*%
%TO.N,Net-(PS7--Vout)*%
X222810000Y-37970000D03*
%TO.P,U11,5,NULL*%
%TO.N,unconnected-(U11-NULL-Pad5)*%
X222810000Y-30030000D03*
%TO.P,U11,6*%
%TO.N,Net-(U11--)*%
X220270000Y-30030000D03*
%TO.P,U11,7,V+*%
%TO.N,Net-(PS6-+Vout)*%
X217730000Y-30030000D03*
%TO.P,U11,8,NC*%
%TO.N,unconnected-(U11-NC-Pad8)*%
X215190000Y-30030000D03*
%TD*%
D11*
%TO.P,C8,1*%
%TO.N,Net-(PX118-Pin_1)*%
X220000000Y-108000000D03*
%TO.P,C8,2*%
%TO.N,Net-(GND1-Pin_1)*%
X220000000Y-113000000D03*
%TD*%
D10*
%TO.P,PX67,1,Pin_1*%
%TO.N,Net-(PX67-Pin_1)*%
X153500000Y-212000000D03*
%TD*%
D25*
%TO.P,U1,1*%
%TO.N,Net-(D1-K)*%
X85795000Y-104325000D03*
D11*
%TO.P,U1,2*%
%TO.N,Net-(J0_1-Pin_1)*%
X85795000Y-106865000D03*
%TO.P,U1,3*%
%TO.N,Net-(PX46-Pin_1)*%
X93415000Y-106865000D03*
%TO.P,U1,4*%
%TO.N,Net-(R49-Pad2)*%
X93415000Y-104325000D03*
%TD*%
D33*
%TO.P,Q7,1,G*%
%TO.N,Net-(Q7-G)*%
X222000000Y-144000000D03*
D34*
%TO.P,Q7,2,C*%
%TO.N,Net-(J0_14-Pin_1)*%
X222000000Y-138550000D03*
%TO.P,Q7,3,E*%
%TO.N,Net-(J0_14-Pin_3)*%
X222000000Y-133100000D03*
%TD*%
D20*
%TO.P,PX3,1,Pin_1*%
%TO.N,Net-(J2-Pin_1)*%
X130600000Y-118700000D03*
%TD*%
D25*
%TO.P,U4,1*%
%TO.N,Net-(D4-K)*%
X85795000Y-137325000D03*
D11*
%TO.P,U4,2*%
%TO.N,Net-(J0_1-Pin_1)*%
X85795000Y-139865000D03*
%TO.P,U4,3*%
%TO.N,Net-(PX49-Pin_1)*%
X93415000Y-139865000D03*
%TO.P,U4,4*%
%TO.N,Net-(R49-Pad2)*%
X93415000Y-137325000D03*
%TD*%
D12*
%TO.P,U9,1,NULL*%
%TO.N,unconnected-(U9-NULL-Pad1)*%
X187187500Y-37970000D03*
D13*
%TO.P,U9,2,-*%
%TO.N,Net-(U9--)*%
X189727500Y-37970000D03*
%TO.P,U9,3,+*%
%TO.N,Net-(J0_5-Pin_1)*%
X192267500Y-37970000D03*
%TO.P,U9,4,V-*%
%TO.N,Net-(PS7--Vout)*%
X194807500Y-37970000D03*
%TO.P,U9,5,NULL*%
%TO.N,unconnected-(U9-NULL-Pad5)*%
X194807500Y-30030000D03*
%TO.P,U9,6*%
%TO.N,Net-(U9--)*%
X192267500Y-30030000D03*
%TO.P,U9,7,V+*%
%TO.N,Net-(PS6-+Vout)*%
X189727500Y-30030000D03*
%TO.P,U9,8,NC*%
%TO.N,unconnected-(U9-NC-Pad8)*%
X187187500Y-30030000D03*
%TD*%
D11*
%TO.P,R31,1*%
%TO.N,Net-(J0_2-Pin_2)*%
X58000000Y-139000000D03*
%TO.P,R31,2*%
%TO.N,Net-(D4-A)*%
X73240000Y-139000000D03*
%TD*%
D20*
%TO.P,PX49,1,Pin_1*%
%TO.N,Net-(PX49-Pin_1)*%
X115000000Y-139000000D03*
%TD*%
D11*
%TO.P,R39,1*%
%TO.N,Net-(GND1-Pin_1)*%
X200900000Y-227200000D03*
%TO.P,R39,2*%
%TO.N,Net-(U20-SENSE_A)*%
X216140000Y-227200000D03*
%TD*%
%TO.P,R45,1*%
%TO.N,Net-(D12-A)*%
X129500000Y-239767500D03*
%TO.P,R45,2*%
%TO.N,Net-(D12-K)*%
X129500000Y-224527500D03*
%TD*%
D20*
%TO.P,PX29,1,Pin_1*%
%TO.N,Net-(J3-Pin_7)*%
X164900000Y-170700000D03*
%TD*%
D35*
%TO.P,U19,1,NC*%
%TO.N,unconnected-(U19-NC-Pad1)*%
X204500000Y-159000000D03*
D11*
%TO.P,U19,2,A*%
%TO.N,Net-(U19-A)*%
X207040000Y-159000000D03*
%TO.P,U19,3,C*%
%TO.N,Net-(GND1-Pin_1)*%
X209580000Y-159000000D03*
%TO.P,U19,4,NC*%
%TO.N,unconnected-(U19-NC-Pad4)*%
X212120000Y-159000000D03*
%TO.P,U19,5,VEE*%
%TO.N,Net-(PS3--Vout)*%
X212120000Y-151380000D03*
%TO.P,U19,6,VO*%
%TO.N,unconnected-(U19-VO-Pad6)*%
X209580000Y-151380000D03*
%TO.P,U19,7,VO*%
%TO.N,Net-(R25-Pad2)*%
X207040000Y-151380000D03*
%TO.P,U19,8,VCC*%
%TO.N,Net-(PS4-+Vout)*%
X204500000Y-151380000D03*
%TD*%
D16*
%TO.P,R10,1*%
%TO.N,Net-(J0_8-Pin_3)*%
X55900000Y-60700000D03*
%TO.P,R10,2*%
%TO.N,Net-(D10-Pad2)*%
X81300000Y-60700000D03*
%TD*%
D11*
%TO.P,R43,1*%
%TO.N,Net-(D11-A)*%
X92500000Y-239767500D03*
%TO.P,R43,2*%
%TO.N,Net-(D11-K)*%
X92500000Y-224527500D03*
%TD*%
D36*
%TO.P,Q5,1,A1*%
%TO.N,Net-(J0_7-Pin_1)*%
X64180000Y-27420000D03*
D37*
%TO.P,Q5,2,A2*%
%TO.N,Net-(J0_7-Pin_3)*%
X64180000Y-29960000D03*
%TO.P,Q5,3,G*%
%TO.N,Net-(Q5-G)*%
X64180000Y-32500000D03*
%TD*%
D20*
%TO.P,PX28,1,Pin_1*%
%TO.N,Net-(J3-Pin_6)*%
X164900000Y-174700000D03*
%TD*%
D19*
%TO.P,J0_13,1,Pin_1*%
%TO.N,Net-(J0_13-Pin_1)*%
X252000000Y-109200000D03*
D16*
%TO.P,J0_13,2,Pin_2*%
%TO.N,Net-(GND1-Pin_1)*%
X252000000Y-105700000D03*
%TO.P,J0_13,3,Pin_3*%
%TO.N,Net-(J0_13-Pin_3)*%
X252000000Y-102200000D03*
%TD*%
D38*
%TO.P,J0_25,1,Pin_1*%
%TO.N,Net-(J0_25-Pin_1)*%
X166000000Y-262767500D03*
D16*
%TO.P,J0_25,2,Pin_2*%
%TO.N,Net-(J0_25-Pin_2)*%
X169500000Y-262767500D03*
%TO.P,J0_25,3,Pin_3*%
%TO.N,Net-(J0_25-Pin_3)*%
X173000000Y-262767500D03*
%TD*%
D20*
%TO.P,P17,1,Pin_1*%
%TO.N,Net-(J1-Pin_17)*%
X130600000Y-102700000D03*
%TD*%
D23*
%TO.P,D8,1,K*%
%TO.N,Net-(D8-K)*%
X80000000Y-182740000D03*
D24*
%TO.P,D8,2,A*%
%TO.N,Net-(D8-A)*%
X77460000Y-182740000D03*
%TD*%
D28*
%TO.P,J3,1,Pin_1*%
%TO.N,Net-(J3-Pin_1)*%
X159160000Y-179260000D03*
D29*
%TO.P,J3,2,Pin_2*%
%TO.N,Net-(J3-Pin_2)*%
X159160000Y-176720000D03*
%TO.P,J3,3,Pin_3*%
%TO.N,Net-(J3-Pin_3)*%
X159160000Y-174180000D03*
%TO.P,J3,4,Pin_4*%
%TO.N,Net-(J3-Pin_4)*%
X159160000Y-171640000D03*
%TO.P,J3,5,Pin_5*%
%TO.N,Net-(J3-Pin_5)*%
X159160000Y-169100000D03*
%TO.P,J3,6,Pin_6*%
%TO.N,Net-(J3-Pin_6)*%
X159160000Y-166560000D03*
%TO.P,J3,7,Pin_7*%
%TO.N,Net-(J3-Pin_7)*%
X159160000Y-164020000D03*
%TO.P,J3,8,Pin_8*%
%TO.N,Net-(J3-Pin_8)*%
X159160000Y-161480000D03*
%TO.P,J3,9,Pin_9*%
%TO.N,Net-(J3-Pin_9)*%
X159160000Y-158940000D03*
%TO.P,J3,10,Pin_10*%
%TO.N,Net-(J3-Pin_10)*%
X159160000Y-156400000D03*
%TO.P,J3,11,Pin_11*%
%TO.N,Net-(J3-Pin_11)*%
X159160000Y-153860000D03*
%TO.P,J3,12,Pin_12*%
%TO.N,Net-(J3-Pin_12)*%
X159160000Y-151320000D03*
%TO.P,J3,13,Pin_13*%
%TO.N,Net-(J3-Pin_13)*%
X159160000Y-148780000D03*
%TO.P,J3,14,Pin_14*%
%TO.N,Net-(J3-Pin_14)*%
X159160000Y-146240000D03*
%TO.P,J3,15,Pin_15*%
%TO.N,Net-(J3-Pin_15)*%
X159160000Y-143700000D03*
%TO.P,J3,16,Pin_16*%
%TO.N,Net-(J3-Pin_16)*%
X159160000Y-141160000D03*
%TO.P,J3,17,Pin_17*%
%TO.N,Net-(J3-Pin_17)*%
X159160000Y-138620000D03*
%TO.P,J3,18,Pin_18*%
%TO.N,Net-(J3-Pin_18)*%
X159160000Y-136080000D03*
%TO.P,J3,19,Pin_19*%
%TO.N,Net-(J3-Pin_19)*%
X159160000Y-133540000D03*
%TO.P,J3,20,Pin_20*%
%TO.N,Net-(J3-Pin_20)*%
X159160000Y-131000000D03*
%TD*%
D16*
%TO.P,R11,1*%
%TO.N,Net-(D10-+)*%
X96100000Y-45600000D03*
%TO.P,R11,2*%
%TO.N,Net-(R11-Pad2)*%
X96100000Y-71000000D03*
%TD*%
D28*
%TO.P,J1,1,Pin_1*%
%TO.N,Net-(GND1-Pin_1)*%
X136300000Y-54500000D03*
D29*
%TO.P,J1,2,Pin_2*%
%TO.N,Net-(5Va1-Pin_1)*%
X136300000Y-57040000D03*
%TO.P,J1,3,Pin_3*%
%TO.N,Net-(3V3a1-Pin_1)*%
X136300000Y-59580000D03*
%TO.P,J1,4,Pin_4*%
%TO.N,Net-(GND2-Pin_1)*%
X136300000Y-62120000D03*
%TO.P,J1,5,Pin_5*%
%TO.N,Net-(J1-Pin_5)*%
X136300000Y-64660000D03*
%TO.P,J1,6,Pin_6*%
%TO.N,Net-(J1-Pin_6)*%
X136300000Y-67200000D03*
%TO.P,J1,7,Pin_7*%
%TO.N,Net-(J1-Pin_7)*%
X136300000Y-69740000D03*
%TO.P,J1,8,Pin_8*%
%TO.N,Net-(J1-Pin_8)*%
X136300000Y-72280000D03*
%TO.P,J1,9,Pin_9*%
%TO.N,Net-(J1-Pin_9)*%
X136300000Y-74820000D03*
%TO.P,J1,10,Pin_10*%
%TO.N,Net-(J1-Pin_10)*%
X136300000Y-77360000D03*
%TO.P,J1,11,Pin_11*%
%TO.N,Net-(J1-Pin_11)*%
X136300000Y-79900000D03*
%TO.P,J1,12,Pin_12*%
%TO.N,Net-(J1-Pin_12)*%
X136300000Y-82440000D03*
%TO.P,J1,13,Pin_13*%
%TO.N,Net-(J1-Pin_13)*%
X136300000Y-84980000D03*
%TO.P,J1,14,Pin_14*%
%TO.N,Net-(J1-Pin_14)*%
X136300000Y-87520000D03*
%TO.P,J1,15,Pin_15*%
%TO.N,Net-(J1-Pin_15)*%
X136300000Y-90060000D03*
%TO.P,J1,16,Pin_16*%
%TO.N,Net-(J1-Pin_16)*%
X136300000Y-92600000D03*
%TO.P,J1,17,Pin_17*%
%TO.N,Net-(J1-Pin_17)*%
X136300000Y-95140000D03*
%TO.P,J1,18,Pin_18*%
%TO.N,Net-(J1-Pin_18)*%
X136300000Y-97680000D03*
%TO.P,J1,19,Pin_19*%
%TO.N,Net-(J1-Pin_19)*%
X136300000Y-100220000D03*
%TO.P,J1,20,Pin_20*%
%TO.N,Net-(J1-Pin_20)*%
X136300000Y-102760000D03*
%TD*%
D11*
%TO.P,R38,1*%
%TO.N,Net-(PX124-Pin_1)*%
X190000000Y-62000000D03*
%TO.P,R38,2*%
%TO.N,Net-(GND1-Pin_1)*%
X190000000Y-72160000D03*
%TD*%
D20*
%TO.P,GND3,1,Pin_1*%
%TO.N,Net-(GND1-Pin_1)*%
X164900000Y-38700000D03*
%TD*%
%TO.P,PX25,1,Pin_1*%
%TO.N,Net-(J3-Pin_3)*%
X164900000Y-186700000D03*
%TD*%
%TO.P,P32,1,Pin_1*%
%TO.N,Net-(J4-Pin_11)*%
X164900000Y-74700000D03*
%TD*%
D11*
%TO.P,R1,1*%
%TO.N,Net-(PX46-Pin_1)*%
X99420000Y-105800000D03*
%TO.P,R1,2*%
%TO.N,Net-(GND1-Pin_1)*%
X109580000Y-105800000D03*
%TD*%
D20*
%TO.P,PX38,1,Pin_1*%
%TO.N,Net-(J3-Pin_16)*%
X164900000Y-134700000D03*
%TD*%
D11*
%TO.P,R41,1*%
%TO.N,Net-(R41-Pad1)*%
X79500000Y-231767500D03*
%TO.P,R41,2*%
%TO.N,Net-(PX69-Pin_1)*%
X79500000Y-221607500D03*
%TD*%
D20*
%TO.P,PX5,1,Pin_1*%
%TO.N,Net-(J2-Pin_3)*%
X130600000Y-126700000D03*
%TD*%
%TO.P,P21,1,Pin_1*%
%TO.N,Net-(J4-Pin_3)*%
X164900000Y-106700000D03*
%TD*%
D11*
%TO.P,R36,1*%
%TO.N,Net-(PX122-Pin_1)*%
X218000000Y-62000000D03*
%TO.P,R36,2*%
%TO.N,Net-(GND1-Pin_1)*%
X218000000Y-72160000D03*
%TD*%
D26*
%TO.P,PS4,1,-Vin*%
%TO.N,Net-(GND1-Pin_1)*%
X190000000Y-131000000D03*
D27*
%TO.P,PS4,2,+Vin*%
%TO.N,Net-(5Vb1-Pin_1)*%
X190000000Y-133540000D03*
%TO.P,PS4,3,-Vout*%
%TO.N,Net-(J0_14-Pin_3)*%
X190000000Y-136080000D03*
%TO.P,PS4,4,+Vout*%
%TO.N,Net-(PS4-+Vout)*%
X190000000Y-138620000D03*
%TD*%
D11*
%TO.P,R26,1*%
%TO.N,Net-(U19-A)*%
X230000000Y-157000000D03*
%TO.P,R26,2*%
%TO.N,Net-(PX80-Pin_1)*%
X219840000Y-157000000D03*
%TD*%
D20*
%TO.P,P38,1,Pin_1*%
%TO.N,Net-(J4-Pin_15)*%
X164900000Y-58700000D03*
%TD*%
%TO.P,PX17,1,Pin_1*%
%TO.N,Net-(J2-Pin_15)*%
X130600000Y-174700000D03*
%TD*%
D38*
%TO.P,J0_20,1,Pin_1*%
%TO.N,Net-(J0_20-Pin_1)*%
X71500000Y-262767500D03*
D16*
%TO.P,J0_20,2,Pin_2*%
%TO.N,unconnected-(J0_20-Pin_2-Pad2)*%
X75000000Y-262767500D03*
%TO.P,J0_20,3,Pin_3*%
%TO.N,Net-(D9-A)*%
X78500000Y-262767500D03*
%TD*%
D20*
%TO.P,PX37,1,Pin_1*%
%TO.N,Net-(J3-Pin_15)*%
X164900000Y-138700000D03*
%TD*%
D11*
%TO.P,C6,1*%
%TO.N,Net-(J0_5-Pin_1)*%
X193000000Y-22677500D03*
%TO.P,C6,2*%
%TO.N,Net-(GND1-Pin_1)*%
X188000000Y-22677500D03*
%TD*%
D20*
%TO.P,PX51,1,Pin_1*%
%TO.N,Net-(PX51-Pin_1)*%
X115000000Y-161000000D03*
%TD*%
D32*
%TO.P,PX80,1,Pin_1*%
%TO.N,Net-(PX80-Pin_1)*%
X180760000Y-150000000D03*
%TD*%
D20*
%TO.P,P12,1,Pin_1*%
%TO.N,Net-(J4-Pin_5)*%
X164900000Y-98700000D03*
%TD*%
D39*
%TO.P,Q1,1,E*%
%TO.N,Net-(PX124-Pin_1)*%
X190000000Y-58000000D03*
D40*
%TO.P,Q1,2,B*%
%TO.N,Net-(Q1-B)*%
X188730000Y-56730000D03*
%TO.P,Q1,3,C*%
%TO.N,Net-(PS8-+Vout)*%
X190000000Y-55460000D03*
%TD*%
D20*
%TO.P,PX7,1,Pin_1*%
%TO.N,Net-(J2-Pin_5)*%
X130600000Y-134700000D03*
%TD*%
%TO.P,TX1,1,Pin_1*%
%TO.N,Net-(J1-Pin_6)*%
X130600000Y-58700000D03*
%TD*%
D11*
%TO.P,R29,1*%
%TO.N,Net-(J0_1-Pin_3)*%
X58000000Y-117000000D03*
%TO.P,R29,2*%
%TO.N,Net-(D2-A)*%
X73240000Y-117000000D03*
%TD*%
%TO.P,R5,1*%
%TO.N,Net-(PX50-Pin_1)*%
X99420000Y-149800000D03*
%TO.P,R5,2*%
%TO.N,Net-(GND1-Pin_1)*%
X109580000Y-149800000D03*
%TD*%
%TO.P,R42,1*%
%TO.N,Net-(D9-A)*%
X55500000Y-239767500D03*
%TO.P,R42,2*%
%TO.N,Net-(D9-K)*%
X55500000Y-224527500D03*
%TD*%
%TO.P,C1,1*%
%TO.N,Net-(3V3a1-Pin_1)*%
X141700000Y-24000000D03*
%TO.P,C1,2*%
%TO.N,Net-(GND1-Pin_1)*%
X136700000Y-24000000D03*
%TD*%
D20*
%TO.P,PX47,1,Pin_1*%
%TO.N,Net-(PX47-Pin_1)*%
X115000000Y-117000000D03*
%TD*%
D14*
%TO.P,H3,1*%
%TO.N,N/C*%
X254000000Y-268000000D03*
%TD*%
D11*
%TO.P,R47,1*%
%TO.N,Net-(D13-A)*%
X165500000Y-239767500D03*
%TO.P,R47,2*%
%TO.N,Net-(D13-K)*%
X165500000Y-224527500D03*
%TD*%
D20*
%TO.P,RX1,1,Pin_1*%
%TO.N,Net-(J1-Pin_5)*%
X130600000Y-54700000D03*
%TD*%
D12*
%TO.P,U18,1,NULL*%
%TO.N,unconnected-(U18-NULL-Pad1)*%
X188190000Y-99970000D03*
D13*
%TO.P,U18,2,-*%
%TO.N,Net-(U18--)*%
X190730000Y-99970000D03*
%TO.P,U18,3,+*%
%TO.N,Net-(PX119-Pin_1)*%
X193270000Y-99970000D03*
%TO.P,U18,4,V-*%
%TO.N,Net-(PS7--Vout)*%
X195810000Y-99970000D03*
%TO.P,U18,5,NULL*%
%TO.N,unconnected-(U18-NULL-Pad5)*%
X195810000Y-92030000D03*
%TO.P,U18,6*%
%TO.N,Net-(J0_13-Pin_1)*%
X193270000Y-92030000D03*
%TO.P,U18,7,V+*%
%TO.N,Net-(PS6-+Vout)*%
X190730000Y-92030000D03*
%TO.P,U18,8,NC*%
%TO.N,unconnected-(U18-NC-Pad8)*%
X188190000Y-92030000D03*
%TD*%
D25*
%TO.P,U5,1*%
%TO.N,Net-(D5-K)*%
X85795000Y-148325000D03*
D11*
%TO.P,U5,2*%
%TO.N,Net-(J0_1-Pin_1)*%
X85795000Y-150865000D03*
%TO.P,U5,3*%
%TO.N,Net-(PX50-Pin_1)*%
X93415000Y-150865000D03*
%TO.P,U5,4*%
%TO.N,Net-(R49-Pad2)*%
X93415000Y-148325000D03*
%TD*%
D20*
%TO.P,PX30,1,Pin_1*%
%TO.N,Net-(J3-Pin_8)*%
X164900000Y-166700000D03*
%TD*%
D28*
%TO.P,J4,1,Pin_1*%
%TO.N,Net-(J4-Pin_1)*%
X159160000Y-102840000D03*
D29*
%TO.P,J4,2,Pin_2*%
%TO.N,Net-(J4-Pin_2)*%
X159160000Y-100300000D03*
%TO.P,J4,3,Pin_3*%
%TO.N,Net-(J4-Pin_3)*%
X159160000Y-97760000D03*
%TO.P,J4,4,Pin_4*%
%TO.N,Net-(J4-Pin_4)*%
X159160000Y-95220000D03*
%TO.P,J4,5,Pin_5*%
%TO.N,Net-(J4-Pin_5)*%
X159160000Y-92680000D03*
%TO.P,J4,6,Pin_6*%
%TO.N,Net-(J4-Pin_6)*%
X159160000Y-90140000D03*
%TO.P,J4,7,Pin_7*%
%TO.N,Net-(J4-Pin_7)*%
X159160000Y-87600000D03*
%TO.P,J4,8,Pin_8*%
%TO.N,Net-(J4-Pin_8)*%
X159160000Y-85060000D03*
%TO.P,J4,9,Pin_9*%
%TO.N,Net-(J4-Pin_9)*%
X159160000Y-82520000D03*
%TO.P,J4,10,Pin_10*%
%TO.N,Net-(J4-Pin_10)*%
X159160000Y-79980000D03*
%TO.P,J4,11,Pin_11*%
%TO.N,Net-(J4-Pin_11)*%
X159160000Y-77440000D03*
%TO.P,J4,12,Pin_12*%
%TO.N,Net-(J4-Pin_12)*%
X159160000Y-74900000D03*
%TO.P,J4,13,Pin_13*%
%TO.N,Net-(J4-Pin_13)*%
X159160000Y-72360000D03*
%TO.P,J4,14,Pin_14*%
%TO.N,Net-(J4-Pin_14)*%
X159160000Y-69820000D03*
%TO.P,J4,15,Pin_15*%
%TO.N,Net-(J4-Pin_15)*%
X159160000Y-67280000D03*
%TO.P,J4,16,Pin_16*%
%TO.N,Net-(J4-Pin_16)*%
X159160000Y-64740000D03*
%TO.P,J4,17,Pin_17*%
%TO.N,Net-(J4-Pin_17)*%
X159160000Y-62200000D03*
%TO.P,J4,18,Pin_18*%
%TO.N,Net-(3V3b1-Pin_1)*%
X159160000Y-59660000D03*
%TO.P,J4,19,Pin_19*%
%TO.N,Net-(5Vb1-Pin_1)*%
X159160000Y-57120000D03*
%TO.P,J4,20,Pin_20*%
%TO.N,Net-(GND1-Pin_1)*%
X159160000Y-54580000D03*
%TD*%
D20*
%TO.P,PX32,1,Pin_1*%
%TO.N,Net-(J3-Pin_10)*%
X164900000Y-158700000D03*
%TD*%
D38*
%TO.P,J0_19,1,Pin_1*%
%TO.N,Net-(J0_19-Pin_1)*%
X56000000Y-262767500D03*
D16*
%TO.P,J0_19,2,Pin_2*%
%TO.N,Net-(J0_19-Pin_2)*%
X59500000Y-262767500D03*
%TO.P,J0_19,3,Pin_3*%
%TO.N,Net-(J0_19-Pin_3)*%
X63000000Y-262767500D03*
%TD*%
D11*
%TO.P,R23,1*%
%TO.N,Net-(U18--)*%
X204900000Y-113000000D03*
%TO.P,R23,2*%
%TO.N,Net-(GND1-Pin_1)*%
X204900000Y-123160000D03*
%TD*%
D20*
%TO.P,P13,1,Pin_1*%
%TO.N,Net-(J4-Pin_4)*%
X164900000Y-102700000D03*
%TD*%
D11*
%TO.P,R34,1*%
%TO.N,Net-(J0_3-Pin_2)*%
X58000000Y-172000000D03*
%TO.P,R34,2*%
%TO.N,Net-(D7-A)*%
X73240000Y-172000000D03*
%TD*%
D25*
%TO.P,U6,1*%
%TO.N,Net-(D6-K)*%
X85795000Y-159325000D03*
D11*
%TO.P,U6,2*%
%TO.N,Net-(J0_1-Pin_1)*%
X85795000Y-161865000D03*
%TO.P,U6,3*%
%TO.N,Net-(PX51-Pin_1)*%
X93415000Y-161865000D03*
%TO.P,U6,4*%
%TO.N,Net-(R49-Pad2)*%
X93415000Y-159325000D03*
%TD*%
%TO.P,C4,1*%
%TO.N,Net-(J0_5-Pin_3)*%
X221000000Y-22677500D03*
%TO.P,C4,2*%
%TO.N,Net-(GND1-Pin_1)*%
X216000000Y-22677500D03*
%TD*%
D19*
%TO.P,J0_6,1,Pin_1*%
%TO.N,Net-(J0_6-Pin_1)*%
X251900000Y-40600000D03*
D16*
%TO.P,J0_6,2,Pin_2*%
%TO.N,Net-(GND1-Pin_1)*%
X251900000Y-37100000D03*
%TO.P,J0_6,3,Pin_3*%
X251900000Y-33600000D03*
%TD*%
D32*
%TO.P,PX121,1,Pin_1*%
%TO.N,Net-(PX121-Pin_1)*%
X180760000Y-71050000D03*
%TD*%
D23*
%TO.P,D5,1,K*%
%TO.N,Net-(D5-K)*%
X80000000Y-149740000D03*
D24*
%TO.P,D5,2,A*%
%TO.N,Net-(D5-A)*%
X77460000Y-149740000D03*
%TD*%
D20*
%TO.P,PX8,1,Pin_1*%
%TO.N,Net-(J2-Pin_6)*%
X130600000Y-138700000D03*
%TD*%
%TO.P,PX6,1,Pin_1*%
%TO.N,Net-(J2-Pin_4)*%
X130600000Y-130700000D03*
%TD*%
%TO.P,PX16,1,Pin_1*%
%TO.N,Net-(J2-Pin_14)*%
X130600000Y-170700000D03*
%TD*%
D10*
%TO.P,PX55,1,Pin_1*%
%TO.N,Net-(PX55-Pin_1)*%
X227700000Y-212000000D03*
%TD*%
D20*
%TO.P,3V3b1,1,Pin_1*%
%TO.N,Net-(3V3b1-Pin_1)*%
X164900000Y-46700000D03*
%TD*%
D38*
%TO.P,J0_16,1,Pin_1*%
%TO.N,Net-(GND1-Pin_1)*%
X234100000Y-262700000D03*
D16*
%TO.P,J0_16,2,Pin_2*%
%TO.N,Net-(J0_16-Pin_2)*%
X237600000Y-262700000D03*
%TO.P,J0_16,3,Pin_3*%
%TO.N,Net-(J0_16-Pin_3)*%
X241100000Y-262700000D03*
%TD*%
D20*
%TO.P,PX10,1,Pin_1*%
%TO.N,Net-(J2-Pin_8)*%
X130600000Y-146700000D03*
%TD*%
%TO.P,PX21,1,Pin_1*%
%TO.N,Net-(J2-Pin_19)*%
X130600000Y-190700000D03*
%TD*%
%TO.P,PX13,1,Pin_1*%
%TO.N,Net-(J2-Pin_11)*%
X130600000Y-158700000D03*
%TD*%
D23*
%TO.P,D3,1,K*%
%TO.N,Net-(D3-K)*%
X80000000Y-127740000D03*
D24*
%TO.P,D3,2,A*%
%TO.N,Net-(D3-A)*%
X77460000Y-127740000D03*
%TD*%
D20*
%TO.P,PX43,1,Pin_1*%
%TO.N,Net-(J4-Pin_1)*%
X164900000Y-114700000D03*
%TD*%
D11*
%TO.P,R46,1*%
%TO.N,Net-(R46-Pad1)*%
X153500000Y-231767500D03*
%TO.P,R46,2*%
%TO.N,Net-(PX67-Pin_1)*%
X153500000Y-221607500D03*
%TD*%
%TO.P,C9,1*%
%TO.N,Net-(PX119-Pin_1)*%
X190000000Y-108000000D03*
%TO.P,C9,2*%
%TO.N,Net-(GND1-Pin_1)*%
X190000000Y-113000000D03*
%TD*%
D20*
%TO.P,PX11,1,Pin_1*%
%TO.N,Net-(J2-Pin_9)*%
X130600000Y-150700000D03*
%TD*%
%TO.P,P37,1,Pin_1*%
%TO.N,Net-(J4-Pin_16)*%
X164900000Y-54700000D03*
%TD*%
D11*
%TO.P,R30,1*%
%TO.N,Net-(J0_2-Pin_1)*%
X58000000Y-128000000D03*
%TO.P,R30,2*%
%TO.N,Net-(D3-A)*%
X73240000Y-128000000D03*
%TD*%
D15*
%TO.P,J0_8,1,Pin_1*%
%TO.N,Net-(J0_8-Pin_1)*%
X47000000Y-62300000D03*
D16*
%TO.P,J0_8,2,Pin_2*%
%TO.N,unconnected-(J0_8-Pin_2-Pad2)*%
X47000000Y-65800000D03*
%TO.P,J0_8,3,Pin_3*%
%TO.N,Net-(J0_8-Pin_3)*%
X47000000Y-69300000D03*
%TD*%
D20*
%TO.P,PX24,1,Pin_1*%
%TO.N,Net-(J3-Pin_2)*%
X164900000Y-190700000D03*
%TD*%
%TO.P,PX52,1,Pin_1*%
%TO.N,Net-(PX52-Pin_1)*%
X115000000Y-172000000D03*
%TD*%
%TO.P,PX44,1,Pin_1*%
%TO.N,Net-(J4-Pin_2)*%
X164900000Y-110700000D03*
%TD*%
%TO.P,RST1,1,Pin_1*%
%TO.N,Net-(J1-Pin_7)*%
X130600000Y-62700000D03*
%TD*%
D39*
%TO.P,Q3,1,E*%
%TO.N,Net-(PX122-Pin_1)*%
X218000000Y-58000000D03*
D40*
%TO.P,Q3,2,B*%
%TO.N,Net-(Q3-B)*%
X216730000Y-56730000D03*
%TO.P,Q3,3,C*%
%TO.N,Net-(PS8-+Vout)*%
X218000000Y-55460000D03*
%TD*%
D14*
%TO.P,H2,1*%
%TO.N,N/C*%
X254000000Y-21000000D03*
%TD*%
D20*
%TO.P,PX19,1,Pin_1*%
%TO.N,Net-(J2-Pin_17)*%
X130600000Y-182700000D03*
%TD*%
D15*
%TO.P,J0_7,1,Pin_1*%
%TO.N,Net-(J0_7-Pin_1)*%
X46800000Y-31600000D03*
D16*
%TO.P,J0_7,2,Pin_2*%
%TO.N,unconnected-(J0_7-Pin_2-Pad2)*%
X46800000Y-35100000D03*
%TO.P,J0_7,3,Pin_3*%
%TO.N,Net-(J0_7-Pin_3)*%
X46800000Y-38600000D03*
%TD*%
D20*
%TO.P,PX14,1,Pin_1*%
%TO.N,Net-(J2-Pin_12)*%
X130600000Y-162700000D03*
%TD*%
%TO.P,P39,1,Pin_1*%
%TO.N,Net-(J4-Pin_14)*%
X164900000Y-62700000D03*
%TD*%
D11*
%TO.P,R27,1*%
%TO.N,Net-(J0_3-Pin_3)*%
X58000000Y-183000000D03*
%TO.P,R27,2*%
%TO.N,Net-(D8-A)*%
X73240000Y-183000000D03*
%TD*%
D20*
%TO.P,P35,1,Pin_1*%
%TO.N,Net-(J4-Pin_12)*%
X164900000Y-70700000D03*
%TD*%
D11*
%TO.P,R44,1*%
%TO.N,Net-(R44-Pad1)*%
X116500000Y-231767500D03*
%TO.P,R44,2*%
%TO.N,Net-(PX63-Pin_1)*%
X116500000Y-221607500D03*
%TD*%
%TO.P,R18,1*%
%TO.N,Net-(PX57-Pin_1)*%
X106180000Y-31300000D03*
%TO.P,R18,2*%
%TO.N,Net-(R18-Pad2)*%
X96020000Y-31300000D03*
%TD*%
D16*
%TO.P,R9,1*%
%TO.N,Net-(J0_8-Pin_1)*%
X55900000Y-70900000D03*
%TO.P,R9,2*%
%TO.N,Net-(D10-Pad3)*%
X81300000Y-70900000D03*
%TD*%
%TO.P,K3,11*%
%TO.N,Net-(J0_23-Pin_3)*%
X134340000Y-249767500D03*
%TO.P,K3,12*%
%TO.N,Net-(J0_23-Pin_1)*%
X139380000Y-249767500D03*
%TO.P,K3,14*%
%TO.N,Net-(J0_23-Pin_2)*%
X129300000Y-249767500D03*
D41*
%TO.P,K3,A1*%
%TO.N,Net-(D12-K)*%
X154500000Y-249767500D03*
D42*
%TO.P,K3,A2*%
%TO.N,Net-(D12-A)*%
X150720000Y-249767500D03*
%TD*%
D23*
%TO.P,D1,1,K*%
%TO.N,Net-(D1-K)*%
X80000000Y-105740000D03*
D24*
%TO.P,D1,2,A*%
%TO.N,Net-(D1-A)*%
X77460000Y-105740000D03*
%TD*%
D11*
%TO.P,R17,1*%
%TO.N,Net-(Q4-B)*%
X232000000Y-52000000D03*
%TO.P,R17,2*%
%TO.N,Net-(U12--)*%
X232000000Y-41840000D03*
%TD*%
D20*
%TO.P,P2,1,Pin_1*%
%TO.N,Net-(J1-Pin_15)*%
X130600000Y-94700000D03*
%TD*%
D43*
%TO.P,U21,1*%
%TO.N,Net-(R44-Pad1)*%
X110500000Y-231767500D03*
D11*
%TO.P,U21,2*%
%TO.N,Net-(GND1-Pin_1)*%
X107960000Y-231767500D03*
%TO.P,U21,3*%
%TO.N,Net-(D11-K)*%
X107960000Y-239387500D03*
%TO.P,U21,4*%
%TO.N,Net-(J0_22-Pin_1)*%
X110500000Y-239387500D03*
%TD*%
D15*
%TO.P,J0_2,1,Pin_1*%
%TO.N,Net-(J0_2-Pin_1)*%
X47000000Y-141000000D03*
D16*
%TO.P,J0_2,2,Pin_2*%
%TO.N,Net-(J0_2-Pin_2)*%
X47000000Y-144500000D03*
%TO.P,J0_2,3,Pin_3*%
%TO.N,Net-(J0_2-Pin_3)*%
X47000000Y-148000000D03*
%TD*%
D38*
%TO.P,J0_24,1,Pin_1*%
%TO.N,Net-(J0_24-Pin_1)*%
X145500000Y-262767500D03*
D16*
%TO.P,J0_24,2,Pin_2*%
%TO.N,unconnected-(J0_24-Pin_2-Pad2)*%
X149000000Y-262767500D03*
%TO.P,J0_24,3,Pin_3*%
%TO.N,Net-(D12-A)*%
X152500000Y-262767500D03*
%TD*%
D11*
%TO.P,C2,1*%
%TO.N,Net-(3V3b1-Pin_1)*%
X153500000Y-24100000D03*
%TO.P,C2,2*%
%TO.N,Net-(GND1-Pin_1)*%
X158500000Y-24100000D03*
%TD*%
D20*
%TO.P,5Va1,1,Pin_1*%
%TO.N,Net-(5Va1-Pin_1)*%
X130600000Y-42700000D03*
%TD*%
D11*
%TO.P,R19,1*%
%TO.N,Net-(Q6-G)*%
X214000000Y-178000000D03*
%TO.P,R19,2*%
%TO.N,Net-(R19-Pad2)*%
X203840000Y-178000000D03*
%TD*%
%TO.P,R4,1*%
%TO.N,Net-(PX49-Pin_1)*%
X99420000Y-138800000D03*
%TO.P,R4,2*%
%TO.N,Net-(GND1-Pin_1)*%
X109580000Y-138800000D03*
%TD*%
%TO.P,R24,1*%
%TO.N,Net-(J0_13-Pin_1)*%
X204900000Y-95000000D03*
%TO.P,R24,2*%
%TO.N,Net-(U18--)*%
X204900000Y-105160000D03*
%TD*%
D20*
%TO.P,PX23,1,Pin_1*%
%TO.N,Net-(J3-Pin_1)*%
X164900000Y-194700000D03*
%TD*%
D32*
%TO.P,PX119,1,Pin_1*%
%TO.N,Net-(PX119-Pin_1)*%
X180760000Y-108000000D03*
%TD*%
D20*
%TO.P,P15,1,Pin_1*%
%TO.N,Net-(J1-Pin_14)*%
X130600000Y-90700000D03*
%TD*%
D10*
%TO.P,PX63,1,Pin_1*%
%TO.N,Net-(PX63-Pin_1)*%
X116500000Y-212000000D03*
%TD*%
D44*
%TO.P,RV1,1,1*%
%TO.N,Net-(GND1-Pin_1)*%
X96840000Y-195840000D03*
%TO.P,RV1,2,2*%
%TO.N,Net-(PX59-Pin_1)*%
X94300000Y-193300000D03*
%TO.P,RV1,3,3*%
%TO.N,Net-(3V3a1-Pin_1)*%
X96840000Y-190760000D03*
%TD*%
D25*
%TO.P,U7,1*%
%TO.N,Net-(D7-K)*%
X85795000Y-170325000D03*
D11*
%TO.P,U7,2*%
%TO.N,Net-(J0_1-Pin_1)*%
X85795000Y-172865000D03*
%TO.P,U7,3*%
%TO.N,Net-(PX52-Pin_1)*%
X93415000Y-172865000D03*
%TO.P,U7,4*%
%TO.N,Net-(R49-Pad2)*%
X93415000Y-170325000D03*
%TD*%
D20*
%TO.P,P27,1,Pin_1*%
%TO.N,Net-(J4-Pin_7)*%
X164900000Y-90700000D03*
%TD*%
D25*
%TO.P,U3,1*%
%TO.N,Net-(D3-K)*%
X85795000Y-126325000D03*
D11*
%TO.P,U3,2*%
%TO.N,Net-(J0_1-Pin_1)*%
X85795000Y-128865000D03*
%TO.P,U3,3*%
%TO.N,Net-(PX48-Pin_1)*%
X93415000Y-128865000D03*
%TO.P,U3,4*%
%TO.N,Net-(R49-Pad2)*%
X93415000Y-126325000D03*
%TD*%
D20*
%TO.P,PX40,1,Pin_1*%
%TO.N,Net-(J3-Pin_18)*%
X164900000Y-126700000D03*
%TD*%
%TO.P,PX9,1,Pin_1*%
%TO.N,Net-(J2-Pin_7)*%
X130600000Y-142700000D03*
%TD*%
D32*
%TO.P,PX118,1,Pin_1*%
%TO.N,Net-(PX118-Pin_1)*%
X180760000Y-113000000D03*
%TD*%
D43*
%TO.P,U16,1*%
%TO.N,Net-(R41-Pad1)*%
X73500000Y-231767500D03*
D11*
%TO.P,U16,2*%
%TO.N,Net-(GND1-Pin_1)*%
X70960000Y-231767500D03*
%TO.P,U16,3*%
%TO.N,Net-(D9-K)*%
X70960000Y-239387500D03*
%TO.P,U16,4*%
%TO.N,Net-(J0_20-Pin_1)*%
X73500000Y-239387500D03*
%TD*%
D20*
%TO.P,P36,1,Pin_1*%
%TO.N,Net-(J4-Pin_17)*%
X164900000Y-50700000D03*
%TD*%
D11*
%TO.P,C10,1*%
%TO.N,Net-(GND1-Pin_1)*%
X210300000Y-242900000D03*
%TO.P,C10,2*%
%TO.N,Net-(J0_16-Pin_3)*%
X215300000Y-242900000D03*
%TD*%
%TO.P,R37,1*%
%TO.N,Net-(PX123-Pin_1)*%
X204000000Y-62000000D03*
%TO.P,R37,2*%
%TO.N,Net-(GND1-Pin_1)*%
X204000000Y-72160000D03*
%TD*%
%TO.P,R3,1*%
%TO.N,Net-(PX48-Pin_1)*%
X99420000Y-127800000D03*
%TO.P,R3,2*%
%TO.N,Net-(GND1-Pin_1)*%
X109580000Y-127800000D03*
%TD*%
D32*
%TO.P,PX66,1,Pin_1*%
%TO.N,Net-(PX66-Pin_1)*%
X180760000Y-188000000D03*
%TD*%
D20*
%TO.P,PX4,1,Pin_1*%
%TO.N,Net-(J2-Pin_2)*%
X130600000Y-122700000D03*
%TD*%
%TO.P,PX35,1,Pin_1*%
%TO.N,Net-(J3-Pin_13)*%
X164900000Y-146700000D03*
%TD*%
D10*
%TO.P,PX111,1,Pin_1*%
%TO.N,Net-(PX111-Pin_1)*%
X232450000Y-212000000D03*
%TD*%
D30*
%TO.P,PS8,1,-Vin*%
%TO.N,Net-(GND1-Pin_1)*%
X187000000Y-84000000D03*
D31*
%TO.P,PS8,2,+Vin*%
%TO.N,Net-(3V3b1-Pin_1)*%
X189540000Y-84000000D03*
%TO.P,PS8,3,-Vout*%
%TO.N,Net-(GND1-Pin_1)*%
X192080000Y-84000000D03*
%TO.P,PS8,4,+Vout*%
%TO.N,Net-(PS8-+Vout)*%
X194620000Y-84000000D03*
%TD*%
D12*
%TO.P,U17,1,NULL*%
%TO.N,unconnected-(U17-NULL-Pad1)*%
X218190000Y-99970000D03*
D13*
%TO.P,U17,2,-*%
%TO.N,Net-(U17--)*%
X220730000Y-99970000D03*
%TO.P,U17,3,+*%
%TO.N,Net-(PX118-Pin_1)*%
X223270000Y-99970000D03*
%TO.P,U17,4,V-*%
%TO.N,Net-(PS7--Vout)*%
X225810000Y-99970000D03*
%TO.P,U17,5,NULL*%
%TO.N,unconnected-(U17-NULL-Pad5)*%
X225810000Y-92030000D03*
%TO.P,U17,6*%
%TO.N,Net-(J0_13-Pin_3)*%
X223270000Y-92030000D03*
%TO.P,U17,7,V+*%
%TO.N,Net-(PS6-+Vout)*%
X220730000Y-92030000D03*
%TO.P,U17,8,NC*%
%TO.N,unconnected-(U17-NC-Pad8)*%
X218190000Y-92030000D03*
%TD*%
D20*
%TO.P,P14,1,Pin_1*%
%TO.N,Net-(J4-Pin_6)*%
X164900000Y-94700000D03*
%TD*%
D26*
%TO.P,PS3,1,-Vin*%
%TO.N,Net-(GND1-Pin_1)*%
X190000000Y-149000000D03*
D27*
%TO.P,PS3,2,+Vin*%
%TO.N,Net-(5Vb1-Pin_1)*%
X190000000Y-151540000D03*
%TO.P,PS3,3,-Vout*%
%TO.N,Net-(PS3--Vout)*%
X190000000Y-154080000D03*
%TO.P,PS3,4,+Vout*%
%TO.N,Net-(J0_14-Pin_3)*%
X190000000Y-156620000D03*
%TD*%
D21*
%TO.P,D11,1,K*%
%TO.N,Net-(D11-K)*%
X100500000Y-228767500D03*
D22*
%TO.P,D11,2,A*%
%TO.N,Net-(D11-A)*%
X100500000Y-238927500D03*
%TD*%
D32*
%TO.P,PX59,1,Pin_1*%
%TO.N,Net-(PX59-Pin_1)*%
X115000000Y-193800000D03*
%TD*%
D20*
%TO.P,PX36,1,Pin_1*%
%TO.N,Net-(J3-Pin_14)*%
X164900000Y-142700000D03*
%TD*%
%TO.P,PX57,1,Pin_1*%
%TO.N,Net-(PX57-Pin_1)*%
X115000000Y-39200000D03*
%TD*%
%TO.P,PX53,1,Pin_1*%
%TO.N,Net-(PX53-Pin_1)*%
X115000000Y-183000000D03*
%TD*%
D32*
%TO.P,PX122,1,Pin_1*%
%TO.N,Net-(PX122-Pin_1)*%
X180760000Y-66400000D03*
%TD*%
D20*
%TO.P,PX42,1,Pin_1*%
%TO.N,Net-(J3-Pin_20)*%
X164900000Y-118700000D03*
%TD*%
D11*
%TO.P,R32,1*%
%TO.N,Net-(J0_2-Pin_3)*%
X58000000Y-150000000D03*
%TO.P,R32,2*%
%TO.N,Net-(D5-A)*%
X73240000Y-150000000D03*
%TD*%
D10*
%TO.P,PX112,1,Pin_1*%
%TO.N,Net-(PX112-Pin_1)*%
X210700000Y-212000000D03*
%TD*%
D20*
%TO.P,P16,1,Pin_1*%
%TO.N,Net-(J1-Pin_18)*%
X130600000Y-106700000D03*
%TD*%
D30*
%TO.P,PS7,1,-Vin*%
%TO.N,Net-(GND1-Pin_1)*%
X208000000Y-84000000D03*
D31*
%TO.P,PS7,2,+Vin*%
%TO.N,Net-(5Vb1-Pin_1)*%
X210540000Y-84000000D03*
%TO.P,PS7,3,-Vout*%
%TO.N,Net-(PS7--Vout)*%
X213080000Y-84000000D03*
%TO.P,PS7,4,+Vout*%
%TO.N,Net-(GND1-Pin_1)*%
X215620000Y-84000000D03*
%TD*%
D23*
%TO.P,D4,1,K*%
%TO.N,Net-(D4-K)*%
X80000000Y-138740000D03*
D24*
%TO.P,D4,2,A*%
%TO.N,Net-(D4-A)*%
X77460000Y-138740000D03*
%TD*%
D20*
%TO.P,PX1,1,Pin_1*%
%TO.N,Net-(J1-Pin_19)*%
X130600000Y-110700000D03*
%TD*%
D25*
%TO.P,U2,1*%
%TO.N,Net-(D2-K)*%
X85795000Y-115325000D03*
D11*
%TO.P,U2,2*%
%TO.N,Net-(J0_1-Pin_1)*%
X85795000Y-117865000D03*
%TO.P,U2,3*%
%TO.N,Net-(PX47-Pin_1)*%
X93415000Y-117865000D03*
%TO.P,U2,4*%
%TO.N,Net-(R49-Pad2)*%
X93415000Y-115325000D03*
%TD*%
D33*
%TO.P,Q6,1,G*%
%TO.N,Net-(Q6-G)*%
X222000000Y-182000000D03*
D34*
%TO.P,Q6,2,C*%
%TO.N,Net-(J0_18-Pin_1)*%
X222000000Y-176550000D03*
%TO.P,Q6,3,E*%
%TO.N,Net-(J0_18-Pin_3)*%
X222000000Y-171100000D03*
%TD*%
D20*
%TO.P,PX2,1,Pin_1*%
%TO.N,Net-(J1-Pin_20)*%
X130600000Y-114700000D03*
%TD*%
D11*
%TO.P,R8,1*%
%TO.N,Net-(PX53-Pin_1)*%
X99420000Y-182800000D03*
%TO.P,R8,2*%
%TO.N,Net-(GND1-Pin_1)*%
X109580000Y-182800000D03*
%TD*%
%TO.P,R48,1*%
%TO.N,Net-(R48-Pad1)*%
X189500000Y-231767500D03*
%TO.P,R48,2*%
%TO.N,Net-(PX72-Pin_1)*%
X189500000Y-221607500D03*
%TD*%
D26*
%TO.P,PS2,1,-Vin*%
%TO.N,Net-(GND1-Pin_1)*%
X190000000Y-187000000D03*
D27*
%TO.P,PS2,2,+Vin*%
%TO.N,Net-(5Vb1-Pin_1)*%
X190000000Y-189540000D03*
%TO.P,PS2,3,-Vout*%
%TO.N,Net-(PS2--Vout)*%
X190000000Y-192080000D03*
%TO.P,PS2,4,+Vout*%
%TO.N,Net-(J0_18-Pin_3)*%
X190000000Y-194620000D03*
%TD*%
D20*
%TO.P,PX34,1,Pin_1*%
%TO.N,Net-(J3-Pin_12)*%
X164900000Y-150700000D03*
%TD*%
D11*
%TO.P,C5,1*%
%TO.N,Net-(J0_5-Pin_2)*%
X207000000Y-22600000D03*
%TO.P,C5,2*%
%TO.N,Net-(GND1-Pin_1)*%
X202000000Y-22600000D03*
%TD*%
D20*
%TO.P,PX22,1,Pin_1*%
%TO.N,Net-(J2-Pin_20)*%
X130600000Y-194700000D03*
%TD*%
D11*
%TO.P,R6,1*%
%TO.N,Net-(PX51-Pin_1)*%
X99420000Y-160800000D03*
%TO.P,R6,2*%
%TO.N,Net-(GND1-Pin_1)*%
X109580000Y-160800000D03*
%TD*%
%TO.P,R20,1*%
%TO.N,Net-(U15-A)*%
X230000000Y-195000000D03*
%TO.P,R20,2*%
%TO.N,Net-(PX66-Pin_1)*%
X219840000Y-195000000D03*
%TD*%
%TO.P,R14,1*%
%TO.N,Net-(Q1-B)*%
X190000000Y-52000000D03*
%TO.P,R14,2*%
%TO.N,Net-(U9--)*%
X190000000Y-41840000D03*
%TD*%
D20*
%TO.P,PX20,1,Pin_1*%
%TO.N,Net-(J2-Pin_18)*%
X130600000Y-186700000D03*
%TD*%
%TO.P,5Vb1,1,Pin_1*%
%TO.N,Net-(5Vb1-Pin_1)*%
X164900000Y-42700000D03*
%TD*%
D38*
%TO.P,J0_23,1,Pin_1*%
%TO.N,Net-(J0_23-Pin_1)*%
X130000000Y-262767500D03*
D16*
%TO.P,J0_23,2,Pin_2*%
%TO.N,Net-(J0_23-Pin_2)*%
X133500000Y-262767500D03*
%TO.P,J0_23,3,Pin_3*%
%TO.N,Net-(J0_23-Pin_3)*%
X137000000Y-262767500D03*
%TD*%
D20*
%TO.P,P23,1,Pin_1*%
%TO.N,Net-(J1-Pin_11)*%
X130600000Y-78700000D03*
%TD*%
D35*
%TO.P,U15,1,NC*%
%TO.N,unconnected-(U15-NC-Pad1)*%
X204500000Y-197000000D03*
D11*
%TO.P,U15,2,A*%
%TO.N,Net-(U15-A)*%
X207040000Y-197000000D03*
%TO.P,U15,3,C*%
%TO.N,Net-(GND1-Pin_1)*%
X209580000Y-197000000D03*
%TO.P,U15,4,NC*%
%TO.N,unconnected-(U15-NC-Pad4)*%
X212120000Y-197000000D03*
%TO.P,U15,5,VEE*%
%TO.N,Net-(PS2--Vout)*%
X212120000Y-189380000D03*
%TO.P,U15,6,VO*%
%TO.N,unconnected-(U15-VO-Pad6)*%
X209580000Y-189380000D03*
%TO.P,U15,7,VO*%
%TO.N,Net-(R19-Pad2)*%
X207040000Y-189380000D03*
%TO.P,U15,8,VCC*%
%TO.N,Net-(PS1-+Vout)*%
X204500000Y-189380000D03*
%TD*%
D14*
%TO.P,H5,1*%
%TO.N,N/C*%
X147800000Y-117000000D03*
%TD*%
D20*
%TO.P,PX54,1,Pin_1*%
%TO.N,Net-(PX54-Pin_1)*%
X115000000Y-71125000D03*
%TD*%
D38*
%TO.P,J0_10,1,Pin_1*%
%TO.N,Net-(J0_10-Pin_1)*%
X218100000Y-262700000D03*
D16*
%TO.P,J0_10,2,Pin_2*%
%TO.N,unconnected-(J0_10-Pin_2-Pad2)*%
X221600000Y-262700000D03*
%TO.P,J0_10,3,Pin_3*%
%TO.N,Net-(J0_10-Pin_3)*%
X225100000Y-262700000D03*
%TD*%
D38*
%TO.P,J0_26,1,Pin_1*%
%TO.N,Net-(J0_26-Pin_1)*%
X181500000Y-262767500D03*
D16*
%TO.P,J0_26,2,Pin_2*%
%TO.N,unconnected-(J0_26-Pin_2-Pad2)*%
X185000000Y-262767500D03*
%TO.P,J0_26,3,Pin_3*%
%TO.N,Net-(D13-A)*%
X188500000Y-262767500D03*
%TD*%
D20*
%TO.P,P19,1,Pin_1*%
%TO.N,Net-(J1-Pin_10)*%
X130600000Y-74700000D03*
%TD*%
%TO.P,PX41,1,Pin_1*%
%TO.N,Net-(J3-Pin_19)*%
X164900000Y-122700000D03*
%TD*%
%TO.P,P33,1,Pin_1*%
%TO.N,Net-(J4-Pin_10)*%
X164900000Y-78700000D03*
%TD*%
D43*
%TO.P,U23,1*%
%TO.N,Net-(R48-Pad1)*%
X183500000Y-231767500D03*
D11*
%TO.P,U23,2*%
%TO.N,Net-(GND1-Pin_1)*%
X180960000Y-231767500D03*
%TO.P,U23,3*%
%TO.N,Net-(D13-K)*%
X180960000Y-239387500D03*
%TO.P,U23,4*%
%TO.N,Net-(J0_26-Pin_1)*%
X183500000Y-239387500D03*
%TD*%
D16*
%TO.P,K4,11*%
%TO.N,Net-(J0_25-Pin_3)*%
X170340000Y-249767500D03*
%TO.P,K4,12*%
%TO.N,Net-(J0_25-Pin_1)*%
X175380000Y-249767500D03*
%TO.P,K4,14*%
%TO.N,Net-(J0_25-Pin_2)*%
X165300000Y-249767500D03*
D41*
%TO.P,K4,A1*%
%TO.N,Net-(D13-K)*%
X190500000Y-249767500D03*
D42*
%TO.P,K4,A2*%
%TO.N,Net-(D13-A)*%
X186720000Y-249767500D03*
%TD*%
D20*
%TO.P,PX18,1,Pin_1*%
%TO.N,Net-(J2-Pin_16)*%
X130600000Y-178700000D03*
%TD*%
D38*
%TO.P,J0_9,1,Pin_1*%
%TO.N,Net-(J0_9-Pin_1)*%
X202100000Y-262700000D03*
D16*
%TO.P,J0_9,2,Pin_2*%
%TO.N,unconnected-(J0_9-Pin_2-Pad2)*%
X205600000Y-262700000D03*
%TO.P,J0_9,3,Pin_3*%
%TO.N,Net-(J0_9-Pin_3)*%
X209100000Y-262700000D03*
%TD*%
D11*
%TO.P,R21,1*%
%TO.N,Net-(U17--)*%
X235000000Y-113000000D03*
%TO.P,R21,2*%
%TO.N,Net-(GND1-Pin_1)*%
X235000000Y-123160000D03*
%TD*%
D16*
%TO.P,K2,11*%
%TO.N,Net-(J0_21-Pin_3)*%
X97340000Y-249767500D03*
%TO.P,K2,12*%
%TO.N,Net-(J0_21-Pin_1)*%
X102380000Y-249767500D03*
%TO.P,K2,14*%
%TO.N,Net-(J0_21-Pin_2)*%
X92300000Y-249767500D03*
D41*
%TO.P,K2,A1*%
%TO.N,Net-(D11-K)*%
X117500000Y-249767500D03*
D42*
%TO.P,K2,A2*%
%TO.N,Net-(D11-A)*%
X113720000Y-249767500D03*
%TD*%
D39*
%TO.P,Q2,1,E*%
%TO.N,Net-(PX123-Pin_1)*%
X204000000Y-58000000D03*
D40*
%TO.P,Q2,2,B*%
%TO.N,Net-(Q2-B)*%
X202730000Y-56730000D03*
%TO.P,Q2,3,C*%
%TO.N,Net-(PS8-+Vout)*%
X204000000Y-55460000D03*
%TD*%
D11*
%TO.P,R25,1*%
%TO.N,Net-(Q7-G)*%
X214000000Y-140000000D03*
%TO.P,R25,2*%
%TO.N,Net-(R25-Pad2)*%
X203840000Y-140000000D03*
%TD*%
D19*
%TO.P,J0_14,1,Pin_1*%
%TO.N,Net-(J0_14-Pin_1)*%
X252000000Y-144000000D03*
D16*
%TO.P,J0_14,2,Pin_2*%
%TO.N,unconnected-(J0_14-Pin_2-Pad2)*%
X252000000Y-140500000D03*
%TO.P,J0_14,3,Pin_3*%
%TO.N,Net-(J0_14-Pin_3)*%
X252000000Y-137000000D03*
%TD*%
D20*
%TO.P,GND2,1,Pin_1*%
%TO.N,Net-(GND2-Pin_1)*%
X130600000Y-50700000D03*
%TD*%
D11*
%TO.P,R2,1*%
%TO.N,Net-(PX47-Pin_1)*%
X99420000Y-116800000D03*
%TO.P,R2,2*%
%TO.N,Net-(GND1-Pin_1)*%
X109580000Y-116800000D03*
%TD*%
D19*
%TO.P,J0_18,1,Pin_1*%
%TO.N,Net-(J0_18-Pin_1)*%
X252000000Y-182000000D03*
D16*
%TO.P,J0_18,2,Pin_2*%
%TO.N,unconnected-(J0_18-Pin_2-Pad2)*%
X252000000Y-178500000D03*
%TO.P,J0_18,3,Pin_3*%
%TO.N,Net-(J0_18-Pin_3)*%
X252000000Y-175000000D03*
%TD*%
D32*
%TO.P,PX123,1,Pin_1*%
%TO.N,Net-(PX123-Pin_1)*%
X180760000Y-61750000D03*
%TD*%
D10*
%TO.P,PX113,1,Pin_1*%
%TO.N,Net-(PX113-Pin_1)*%
X215350000Y-212000000D03*
%TD*%
D38*
%TO.P,J0_22,1,Pin_1*%
%TO.N,Net-(J0_22-Pin_1)*%
X108500000Y-262767500D03*
D16*
%TO.P,J0_22,2,Pin_2*%
%TO.N,unconnected-(J0_22-Pin_2-Pad2)*%
X112000000Y-262767500D03*
%TO.P,J0_22,3,Pin_3*%
%TO.N,Net-(D11-A)*%
X115500000Y-262767500D03*
%TD*%
D20*
%TO.P,GND1,1,Pin_1*%
%TO.N,Net-(GND1-Pin_1)*%
X130600000Y-38700000D03*
%TD*%
D45*
%TO.P,U13,1*%
%TO.N,Net-(R18-Pad2)*%
X89000000Y-32180000D03*
D11*
%TO.P,U13,2*%
%TO.N,Net-(GND1-Pin_1)*%
X89000000Y-29640000D03*
%TO.P,U13,3,NC*%
%TO.N,unconnected-(U13-NC-Pad3)*%
X89000000Y-27100000D03*
%TO.P,U13,4*%
%TO.N,Net-(Q5-G)*%
X81380000Y-27100000D03*
%TO.P,U13,5,NC*%
%TO.N,unconnected-(U13-NC-Pad5)*%
X81380000Y-29640000D03*
%TO.P,U13,6*%
%TO.N,Net-(R13-Pad1)*%
X81380000Y-32180000D03*
%TD*%
D21*
%TO.P,D13,1,K*%
%TO.N,Net-(D13-K)*%
X173500000Y-228767500D03*
D22*
%TO.P,D13,2,A*%
%TO.N,Net-(D13-A)*%
X173500000Y-238927500D03*
%TD*%
D16*
%TO.P,K1,11*%
%TO.N,Net-(J0_19-Pin_3)*%
X60340000Y-249767500D03*
%TO.P,K1,12*%
%TO.N,Net-(J0_19-Pin_1)*%
X65380000Y-249767500D03*
%TO.P,K1,14*%
%TO.N,Net-(J0_19-Pin_2)*%
X55300000Y-249767500D03*
D41*
%TO.P,K1,A1*%
%TO.N,Net-(D9-K)*%
X80500000Y-249767500D03*
D42*
%TO.P,K1,A2*%
%TO.N,Net-(D9-A)*%
X76720000Y-249767500D03*
%TD*%
D39*
%TO.P,Q4,1,E*%
%TO.N,Net-(PX121-Pin_1)*%
X232000000Y-58000000D03*
D40*
%TO.P,Q4,2,B*%
%TO.N,Net-(Q4-B)*%
X230730000Y-56730000D03*
%TO.P,Q4,3,C*%
%TO.N,Net-(PS8-+Vout)*%
X232000000Y-55460000D03*
%TD*%
D20*
%TO.P,P25,1,Pin_1*%
%TO.N,Net-(J4-Pin_9)*%
X164900000Y-82700000D03*
%TD*%
%TO.P,PX31,1,Pin_1*%
%TO.N,Net-(J3-Pin_9)*%
X164900000Y-162700000D03*
%TD*%
D26*
%TO.P,PS5,1,-Vin*%
%TO.N,Net-(GND1-Pin_1)*%
X98242500Y-88027500D03*
D27*
%TO.P,PS5,2,+Vin*%
%TO.N,Net-(3V3a1-Pin_1)*%
X98242500Y-90567500D03*
%TO.P,PS5,3,-Vout*%
%TO.N,Net-(GND1-Pin_1)*%
X98242500Y-93107500D03*
%TO.P,PS5,4,+Vout*%
%TO.N,Net-(PS5-+Vout)*%
X98242500Y-95647500D03*
%TD*%
D11*
%TO.P,C11,1*%
%TO.N,Net-(GND1-Pin_1)*%
X210300000Y-234800000D03*
%TO.P,C11,2*%
%TO.N,Net-(J0_16-Pin_2)*%
X215300000Y-234800000D03*
%TD*%
%TO.P,R35,1*%
%TO.N,Net-(PX121-Pin_1)*%
X232000000Y-62000000D03*
%TO.P,R35,2*%
%TO.N,Net-(GND1-Pin_1)*%
X232000000Y-72160000D03*
%TD*%
D20*
%TO.P,PX15,1,Pin_1*%
%TO.N,Net-(J2-Pin_13)*%
X130600000Y-166700000D03*
%TD*%
D21*
%TO.P,D9,1,K*%
%TO.N,Net-(D9-K)*%
X63500000Y-228767500D03*
D22*
%TO.P,D9,2,A*%
%TO.N,Net-(D9-A)*%
X63500000Y-238927500D03*
%TD*%
D20*
%TO.P,P4,1,Pin_1*%
%TO.N,Net-(J1-Pin_16)*%
X130600000Y-98700000D03*
%TD*%
D12*
%TO.P,U10,1,NULL*%
%TO.N,unconnected-(U10-NULL-Pad1)*%
X201190000Y-37970000D03*
D13*
%TO.P,U10,2,-*%
%TO.N,Net-(U10--)*%
X203730000Y-37970000D03*
%TO.P,U10,3,+*%
%TO.N,Net-(J0_5-Pin_2)*%
X206270000Y-37970000D03*
%TO.P,U10,4,V-*%
%TO.N,Net-(PS7--Vout)*%
X208810000Y-37970000D03*
%TO.P,U10,5,NULL*%
%TO.N,unconnected-(U10-NULL-Pad5)*%
X208810000Y-30030000D03*
%TO.P,U10,6*%
%TO.N,Net-(U10--)*%
X206270000Y-30030000D03*
%TO.P,U10,7,V+*%
%TO.N,Net-(PS6-+Vout)*%
X203730000Y-30030000D03*
%TO.P,U10,8,NC*%
%TO.N,unconnected-(U10-NC-Pad8)*%
X201190000Y-30030000D03*
%TD*%
D38*
%TO.P,J0_21,1,Pin_1*%
%TO.N,Net-(J0_21-Pin_1)*%
X93000000Y-262767500D03*
D16*
%TO.P,J0_21,2,Pin_2*%
%TO.N,Net-(J0_21-Pin_2)*%
X96500000Y-262767500D03*
%TO.P,J0_21,3,Pin_3*%
%TO.N,Net-(J0_21-Pin_3)*%
X100000000Y-262767500D03*
%TD*%
D20*
%TO.P,PX46,1,Pin_1*%
%TO.N,Net-(PX46-Pin_1)*%
X115000000Y-106000000D03*
%TD*%
D43*
%TO.P,U22,1*%
%TO.N,Net-(R46-Pad1)*%
X147500000Y-231767500D03*
D11*
%TO.P,U22,2*%
%TO.N,Net-(GND1-Pin_1)*%
X144960000Y-231767500D03*
%TO.P,U22,3*%
%TO.N,Net-(D12-K)*%
X144960000Y-239387500D03*
%TO.P,U22,4*%
%TO.N,Net-(J0_24-Pin_1)*%
X147500000Y-239387500D03*
%TD*%
D14*
%TO.P,H1,1*%
%TO.N,N/C*%
X44500000Y-21000000D03*
%TD*%
D46*
%TO.N,Net-(3V3a1-Pin_1)*%
X102252000Y-90503100D03*
%TO.N,Net-(GND1-Pin_1)*%
X232396000Y-235841000D03*
X196966000Y-158532000D03*
X212854000Y-262504000D03*
%TO.N,Net-(J0_16-Pin_3)*%
X225198000Y-250935000D03*
%TO.N,Net-(J0_16-Pin_2)*%
X221990000Y-240358000D03*
%TO.N,Net-(J0_9-Pin_1)*%
X234549000Y-252898000D03*
%TO.N,Net-(J0_10-Pin_1)*%
X217158000Y-243781000D03*
%TO.N,Net-(PX112-Pin_1)*%
X217001000Y-255906000D03*
%TO.N,Net-(PX113-Pin_1)*%
X222692000Y-246422000D03*
%TO.N,Net-(PX45-Pin_1)*%
X246840000Y-216727000D03*
%TD*%
D47*
%TO.N,Net-(3V3a1-Pin_1)*%
X127709000Y-65046600D02*
X102252000Y-90503100D01*
X96840000Y-190760000D02*
X96840000Y-104975000D01*
X96840000Y-104975000D02*
X96117500Y-104253000D01*
X140079000Y-22379000D02*
X141700000Y-24000000D01*
X96117500Y-104253000D02*
X96117500Y-90567500D01*
X128449000Y-44548900D02*
X128449000Y-29970800D01*
X128449000Y-29970800D02*
X136041000Y-22379000D01*
X130600000Y-46700000D02*
X128449000Y-44548900D01*
X127709000Y-49591100D02*
X127709000Y-65046600D01*
X130600000Y-46700000D02*
X127709000Y-49591100D01*
X136041000Y-22379000D02*
X140079000Y-22379000D01*
X96117500Y-90567500D02*
X98242500Y-90567500D01*
%TO.N,Net-(3V3b1-Pin_1)*%
X189540000Y-84000000D02*
X189540000Y-81875000D01*
X159135000Y-22462800D02*
X155137000Y-22462800D01*
X167025000Y-30352800D02*
X159135000Y-22462800D01*
X187960000Y-81875000D02*
X167375000Y-61290100D01*
X167375000Y-61290100D02*
X167375000Y-49174700D01*
X167025000Y-44574800D02*
X167025000Y-30352800D01*
X167375000Y-49174700D02*
X164900000Y-46700000D01*
X155137000Y-22462800D02*
X153500000Y-24100000D01*
X164900000Y-46700000D02*
X167025000Y-44574800D01*
X189540000Y-81875000D02*
X187960000Y-81875000D01*
%TO.N,Net-(5Va1-Pin_1)*%
X135973000Y-57040000D02*
X136300000Y-57040000D01*
X130600000Y-42700000D02*
X134492000Y-46591800D01*
X134492000Y-46591800D02*
X134492000Y-55558600D01*
X134492000Y-55558600D02*
X135973000Y-57040000D01*
%TO.N,Net-(5Vb1-Pin_1)*%
X190000000Y-151540000D02*
X187875000Y-151540000D01*
X190000000Y-189540000D02*
X187875000Y-189540000D01*
X187875000Y-171540000D02*
X187875000Y-151540000D01*
X190000000Y-171540000D02*
X187875000Y-171540000D01*
X160816000Y-46784100D02*
X160816000Y-55464100D01*
X187875000Y-189540000D02*
X187875000Y-171540000D01*
X190000000Y-171540000D02*
X187875000Y-171540000D01*
X187875000Y-133540000D02*
X190000000Y-133540000D01*
X164900000Y-42700000D02*
X160816000Y-46784100D01*
X190000000Y-151540000D02*
X187875000Y-151540000D01*
X160816000Y-55464100D02*
X159160000Y-57120000D01*
X187875000Y-151540000D02*
X187875000Y-133540000D01*
%TO.N,Net-(GND1-Pin_1)*%
X176035000Y-226842000D02*
X180960000Y-231768000D01*
X249533000Y-39467400D02*
X251900000Y-37100000D01*
X107960000Y-231767500D02*
X107960000Y-231667000D01*
X238334000Y-92034000D02*
X238334000Y-84930500D01*
X216790000Y-236426000D02*
X211926000Y-236426000D01*
X109580000Y-160800000D02*
X109580000Y-166300000D01*
X180960000Y-231767500D02*
X180960000Y-231719000D01*
X249533000Y-54627400D02*
X249533000Y-39467400D01*
X109115000Y-72965000D02*
X110719000Y-71360900D01*
X202700000Y-227200000D02*
X200900000Y-227200000D01*
X180960000Y-231768000D02*
X180960000Y-231767500D01*
X130600000Y-30100000D02*
X136700000Y-24000000D01*
X96628100Y-29640100D02*
X89000000Y-29640100D01*
X109580000Y-166300000D02*
X109580000Y-182800000D01*
X99935600Y-93107500D02*
X100368000Y-93107500D01*
X103017000Y-226825000D02*
X107960000Y-231768000D01*
X99935600Y-93107500D02*
X100381000Y-92661700D01*
X238334000Y-84930500D02*
X238334000Y-78494200D01*
X234080000Y-84000000D02*
X234080000Y-86125000D01*
X210300000Y-234800000D02*
X202700000Y-227200000D01*
X109580000Y-138800000D02*
X109580000Y-149800000D01*
X107960000Y-231667000D02*
X112762000Y-226865000D01*
X217728000Y-235487000D02*
X216790000Y-236426000D01*
X70960000Y-230622000D02*
X74757000Y-226825000D01*
X96840000Y-195840000D02*
X84760000Y-195840000D01*
X234080000Y-86125000D02*
X237140000Y-86125000D01*
X237140000Y-86125000D02*
X238334000Y-84930500D01*
X190000000Y-131000000D02*
X192125000Y-131000000D01*
X100381000Y-88014200D02*
X109115000Y-79280000D01*
X109580000Y-105800000D02*
X109580000Y-149800000D01*
X234100000Y-262700000D02*
X232097000Y-264703000D01*
X180960000Y-231719000D02*
X185479000Y-227200000D01*
X109580000Y-102320000D02*
X109580000Y-105800000D01*
X192125000Y-169000000D02*
X192125000Y-183000000D01*
X130600000Y-38700000D02*
X130600000Y-30100000D01*
X164900000Y-38700000D02*
X164900000Y-30500000D01*
X96840000Y-195840000D02*
X109580000Y-183100000D01*
X235000000Y-122700000D02*
X235000000Y-123160000D01*
X215053000Y-264703000D02*
X212854000Y-262504000D01*
X110719000Y-43731100D02*
X96628100Y-29640100D01*
X138230000Y-54580000D02*
X159160000Y-54580000D01*
X191925000Y-163573000D02*
X196966000Y-158532000D01*
X164900000Y-30500000D02*
X158500000Y-24100000D01*
X107960000Y-231768000D02*
X107960000Y-231767500D01*
X109115000Y-79280000D02*
X109115000Y-72965000D01*
X238334000Y-78494200D02*
X232000000Y-72160000D01*
X211926000Y-236426000D02*
X210300000Y-234800000D01*
X232097000Y-264703000D02*
X215053000Y-264703000D01*
X138150000Y-54500000D02*
X138230000Y-54580000D01*
X70960000Y-231767500D02*
X70960000Y-231744200D01*
X98242500Y-88027500D02*
X100368000Y-88027500D01*
X84760000Y-195840000D02*
X70960000Y-209640000D01*
X74757000Y-226825000D02*
X103017000Y-226825000D01*
X232042000Y-235487000D02*
X217728000Y-235487000D01*
X192125000Y-183000000D02*
X190000000Y-185125000D01*
X100368000Y-88027500D02*
X100381000Y-88014200D01*
X98242500Y-93107500D02*
X99935600Y-93107500D01*
X191925000Y-169000000D02*
X192125000Y-169000000D01*
X70960000Y-231768000D02*
X70960000Y-231767500D01*
X144960000Y-231768000D02*
X144960000Y-231767500D01*
X144960000Y-231767500D02*
X144960000Y-231644000D01*
X70960000Y-209640000D02*
X70960000Y-230622000D01*
X144960000Y-231644000D02*
X149762000Y-226842000D01*
X192125000Y-131000000D02*
X192125000Y-145000000D01*
X190000000Y-169000000D02*
X191925000Y-169000000D01*
X190000000Y-147125000D02*
X190000000Y-149000000D01*
X191925000Y-169000000D02*
X191925000Y-163573000D01*
X89000000Y-29640100D02*
X89000000Y-29640000D01*
X100368000Y-93107500D02*
X109580000Y-102320000D01*
X109580000Y-166300000D02*
X109580000Y-171800000D01*
X109580000Y-116800000D02*
X109580000Y-105800000D01*
X252000000Y-105700000D02*
X235000000Y-122700000D01*
X109580000Y-149800000D02*
X109580000Y-166300000D01*
X136300000Y-54500000D02*
X138150000Y-54500000D01*
X149762000Y-226842000D02*
X176035000Y-226842000D01*
X109580000Y-183100000D02*
X109580000Y-182800000D01*
X190000000Y-185125000D02*
X190000000Y-187000000D01*
X232000000Y-72160000D02*
X249533000Y-54627400D01*
X252000000Y-105700000D02*
X238334000Y-92034000D01*
X192125000Y-145000000D02*
X190000000Y-147125000D01*
X232396000Y-235841000D02*
X232042000Y-235487000D01*
X110719000Y-71360900D02*
X110719000Y-43731100D01*
X140057000Y-226865000D02*
X144960000Y-231768000D01*
X70960000Y-231744200D02*
X70960000Y-230622000D01*
X100381000Y-92661700D02*
X100381000Y-88014200D01*
X185479000Y-227200000D02*
X200900000Y-227200000D01*
X109580000Y-127800000D02*
X109580000Y-116800000D01*
X112762000Y-226865000D02*
X140057000Y-226865000D01*
%TO.N,Net-(GND2-Pin_1)*%
X133152000Y-53252500D02*
X133152000Y-58972500D01*
X133152000Y-58972500D02*
X136300000Y-62120000D01*
X130600000Y-50700000D02*
X133152000Y-53252500D01*
%TO.N,Net-(J1-Pin_12)*%
X136040000Y-82700000D02*
X136300000Y-82440000D01*
X130600000Y-82700000D02*
X136040000Y-82700000D01*
%TO.N,Net-(J1-Pin_18)*%
X134648000Y-99331700D02*
X136300000Y-97680000D01*
X134648000Y-102652000D02*
X134648000Y-99331700D01*
X130600000Y-106700000D02*
X134648000Y-102652000D01*
%TO.N,Net-(J1-Pin_6)*%
X130600000Y-58700000D02*
X134492000Y-62591900D01*
X134492000Y-65391900D02*
X136300000Y-67200000D01*
X134492000Y-62591900D02*
X134492000Y-65391900D01*
%TO.N,Net-(J1-Pin_10)*%
X133260000Y-77360000D02*
X136300000Y-77360000D01*
X130600000Y-74700000D02*
X133260000Y-77360000D01*
%TO.N,Net-(J1-Pin_8)*%
X136180000Y-72280000D02*
X136300000Y-72280000D01*
X130600000Y-66700000D02*
X136180000Y-72280000D01*
%TO.N,Net-(J1-Pin_16)*%
X130600000Y-98700000D02*
X130600000Y-98300000D01*
X130600000Y-98300000D02*
X136300000Y-92600000D01*
%TO.N,Net-(J1-Pin_20)*%
X130600000Y-114700000D02*
X136300000Y-109000000D01*
X136300000Y-109000000D02*
X136300000Y-102760000D01*
%TO.N,Net-(J1-Pin_14)*%
X133780000Y-87520000D02*
X136300000Y-87520000D01*
X130600000Y-90700000D02*
X133780000Y-87520000D01*
%TO.N,Net-(J2-Pin_15)*%
X134534000Y-168206000D02*
X136200000Y-166540000D01*
X134534000Y-170766000D02*
X134534000Y-168206000D01*
X130600000Y-174700000D02*
X134534000Y-170766000D01*
%TO.N,Net-(J2-Pin_19)*%
X130600000Y-190700000D02*
X134548000Y-186752000D01*
X134548000Y-178352000D02*
X136200000Y-176700000D01*
X134548000Y-186752000D02*
X134548000Y-178352000D01*
%TO.N,Net-(J2-Pin_11)*%
X130600000Y-158700000D02*
X132920000Y-156380000D01*
X132920000Y-156380000D02*
X136200000Y-156380000D01*
%TO.N,Net-(J2-Pin_9)*%
X130600000Y-150700000D02*
X135600000Y-150700000D01*
X135600000Y-150700000D02*
X136200000Y-151300000D01*
%TO.N,Net-(J2-Pin_5)*%
X130600000Y-134700000D02*
X134324000Y-138424000D01*
X134324000Y-138424000D02*
X134324000Y-139264000D01*
X134324000Y-139264000D02*
X136200000Y-141140000D01*
%TO.N,Net-(J2-Pin_17)*%
X132703000Y-175117000D02*
X132703000Y-180597000D01*
X136200000Y-171620000D02*
X132703000Y-175117000D01*
X132703000Y-180597000D02*
X130600000Y-182700000D01*
%TO.N,Net-(J2-Pin_1)*%
X130600000Y-118700000D02*
X136200000Y-124300000D01*
X136200000Y-124300000D02*
X136200000Y-130980000D01*
%TO.N,Net-(J2-Pin_7)*%
X132680000Y-142700000D02*
X136200000Y-146220000D01*
X130600000Y-142700000D02*
X132680000Y-142700000D01*
%TO.N,Net-(J2-Pin_13)*%
X130600000Y-166700000D02*
X135840000Y-161460000D01*
X135840000Y-161460000D02*
X136200000Y-161460000D01*
%TO.N,Net-(J2-Pin_3)*%
X134548000Y-134408000D02*
X136200000Y-136060000D01*
X134548000Y-130648000D02*
X134548000Y-134408000D01*
X130600000Y-126700000D02*
X134548000Y-130648000D01*
%TO.N,Net-(J3-Pin_8)*%
X159680000Y-161480000D02*
X159160000Y-161480000D01*
X164900000Y-166700000D02*
X159680000Y-161480000D01*
%TO.N,Net-(J3-Pin_16)*%
X164900000Y-134700000D02*
X161113000Y-138487000D01*
X161113000Y-139207000D02*
X159160000Y-141160000D01*
X161113000Y-138487000D02*
X161113000Y-139207000D01*
%TO.N,Net-(J3-Pin_18)*%
X161197000Y-134043000D02*
X159160000Y-136080000D01*
X164900000Y-126700000D02*
X161197000Y-130403000D01*
X161197000Y-130403000D02*
X161197000Y-134043000D01*
%TO.N,Net-(J3-Pin_10)*%
X162600000Y-156400000D02*
X159160000Y-156400000D01*
X164900000Y-158700000D02*
X162600000Y-156400000D01*
%TO.N,Net-(J3-Pin_14)*%
X159160000Y-146240000D02*
X162700000Y-142700000D01*
X162700000Y-142700000D02*
X164900000Y-142700000D01*
%TO.N,Net-(J3-Pin_6)*%
X161030000Y-168430000D02*
X159160000Y-166560000D01*
X164900000Y-174700000D02*
X161030000Y-170830000D01*
X161030000Y-170830000D02*
X161030000Y-168430000D01*
%TO.N,Net-(J3-Pin_20)*%
X159160000Y-124440000D02*
X159160000Y-131000000D01*
X164900000Y-118700000D02*
X159160000Y-124440000D01*
%TO.N,Net-(J3-Pin_4)*%
X159160000Y-171640000D02*
X162787000Y-175267000D01*
X162787000Y-175267000D02*
X162787000Y-180587000D01*
X162787000Y-180587000D02*
X164900000Y-182700000D01*
%TO.N,Net-(J3-Pin_12)*%
X159160000Y-151320000D02*
X159780000Y-150700000D01*
X159780000Y-150700000D02*
X164900000Y-150700000D01*
%TO.N,Net-(J3-Pin_2)*%
X161155000Y-178411000D02*
X159464000Y-176720000D01*
X159464000Y-176720000D02*
X159160000Y-176720000D01*
X164900000Y-190700000D02*
X161155000Y-186955000D01*
X161155000Y-186955000D02*
X161155000Y-178411000D01*
%TO.N,Net-(J4-Pin_13)*%
X159160000Y-72359900D02*
X159160000Y-72360000D01*
X159240000Y-72359900D02*
X159160000Y-72359900D01*
X164900000Y-66700000D02*
X159240000Y-72359900D01*
%TO.N,Net-(J4-Pin_15)*%
X164900000Y-58700000D02*
X161280000Y-62319600D01*
X161280000Y-62319600D02*
X161280000Y-65159600D01*
X161280000Y-65159600D02*
X159160000Y-67280000D01*
%TO.N,Net-(J4-Pin_1)*%
X164900000Y-114700000D02*
X159160000Y-108960000D01*
X159160000Y-108960000D02*
X159160000Y-102840000D01*
%TO.N,Net-(J4-Pin_11)*%
X162160000Y-77440000D02*
X159160000Y-77440000D01*
X164900000Y-74700000D02*
X162160000Y-77440000D01*
%TO.N,Net-(J4-Pin_3)*%
X160946000Y-99545600D02*
X159160000Y-97760000D01*
X160946000Y-102746000D02*
X160946000Y-99545600D01*
X164900000Y-106700000D02*
X160946000Y-102746000D01*
%TO.N,Net-(J4-Pin_9)*%
X164900000Y-82700000D02*
X159340000Y-82700000D01*
X159340000Y-82700000D02*
X159160000Y-82520000D01*
%TO.N,Net-(J4-Pin_7)*%
X159160000Y-87600000D02*
X161800000Y-87600000D01*
X161800000Y-87600000D02*
X164900000Y-90700000D01*
%TO.N,Net-(J4-Pin_5)*%
X164900000Y-98420000D02*
X159160000Y-92680000D01*
X164900000Y-98700000D02*
X164900000Y-98420000D01*
%TO.N,Net-(J4-Pin_17)*%
X162746000Y-52854500D02*
X162746000Y-58614500D01*
X162746000Y-58614500D02*
X159160000Y-62200000D01*
X164900000Y-50700000D02*
X162746000Y-52854500D01*
%TO.N,Net-(J0_1-Pin_1)*%
X84192300Y-141468000D02*
X85795000Y-139865000D01*
X84184400Y-171303000D02*
X84184400Y-163476000D01*
X85795000Y-117865000D02*
X85722100Y-117865000D01*
X84189400Y-107983000D02*
X84189400Y-115028000D01*
X85746400Y-128865000D02*
X84191600Y-127310000D01*
X85724100Y-139865000D02*
X84190100Y-138331000D01*
X85795000Y-139865000D02*
X85724100Y-139865000D01*
X85795000Y-183865000D02*
X85691400Y-183865000D01*
X85795000Y-128865000D02*
X85746400Y-128865000D01*
X84189400Y-101100000D02*
X84189400Y-107983000D01*
X85795000Y-150865000D02*
X85746400Y-150865000D01*
X85691400Y-183865000D02*
X84192300Y-182366000D01*
X84192300Y-174468000D02*
X85795000Y-172865000D01*
X84184500Y-160303000D02*
X84184500Y-152476000D01*
X47000000Y-119000000D02*
X47000000Y-111200000D01*
X85795000Y-161865000D02*
X85746400Y-161865000D01*
X84192300Y-182366000D02*
X84192300Y-174468000D01*
X84740200Y-107920000D02*
X85795000Y-106865000D01*
X47000000Y-111200000D02*
X57100000Y-101100000D01*
X85746400Y-150865000D02*
X84192300Y-149311000D01*
X85722100Y-117865000D02*
X84189400Y-116332000D01*
X84189400Y-115028000D02*
X84189400Y-107983000D01*
X84190100Y-138331000D02*
X84190100Y-130470000D01*
X84189400Y-107983000D02*
X84677000Y-107983000D01*
X85746400Y-172865000D02*
X84184400Y-171303000D01*
X84191600Y-127310000D02*
X84191600Y-119468000D01*
X57100000Y-101100000D02*
X84189400Y-101100000D01*
X84190100Y-130470000D02*
X85795000Y-128865000D01*
X84191600Y-119468000D02*
X85795000Y-117865000D01*
X84184500Y-152476000D02*
X85795000Y-150865000D01*
X84677000Y-107983000D02*
X84740200Y-107920000D01*
X84189400Y-116332000D02*
X84189400Y-115028000D01*
X85795000Y-172865000D02*
X85746400Y-172865000D01*
X84184400Y-163476000D02*
X85795000Y-161865000D01*
X85746400Y-161865000D02*
X84184500Y-160303000D01*
X84192300Y-149311000D02*
X84192300Y-141468000D01*
%TO.N,Net-(J0_8-Pin_3)*%
X55599900Y-60700100D02*
X55900000Y-60700100D01*
X55900000Y-60700100D02*
X55900000Y-60700000D01*
X47000000Y-69300000D02*
X55599900Y-60700100D01*
%TO.N,Net-(R49-Pad2)*%
X95032200Y-171942000D02*
X95032200Y-179708000D01*
X93415000Y-148325000D02*
X95016700Y-149927000D01*
X95016700Y-168723000D02*
X93415000Y-170325000D01*
X95032200Y-179708000D02*
X93415000Y-181325000D01*
X95054300Y-113686000D02*
X93415000Y-115325000D01*
X95016700Y-116927000D02*
X95016700Y-124723000D01*
X95016700Y-149927000D02*
X95016700Y-157723000D01*
X93415000Y-137325000D02*
X95018500Y-138928000D01*
X93415000Y-170325000D02*
X95032200Y-171942000D01*
X93415000Y-104325000D02*
X95054300Y-105964000D01*
X95016700Y-124723000D02*
X93415000Y-126325000D01*
X95016700Y-160927000D02*
X95016700Y-168723000D01*
X93415000Y-115325000D02*
X95016700Y-116927000D01*
X93415000Y-159325000D02*
X95016700Y-160927000D01*
X93415000Y-126325000D02*
X95028200Y-127938000D01*
X95028200Y-127938000D02*
X95028200Y-135712000D01*
X95018500Y-138928000D02*
X95018500Y-146722000D01*
X95028200Y-135712000D02*
X93415000Y-137325000D01*
X95016700Y-157723000D02*
X93415000Y-159325000D01*
X95018500Y-146722000D02*
X93415000Y-148325000D01*
X95054300Y-105964000D02*
X95054300Y-113686000D01*
%TO.N,Net-(J0_16-Pin_3)*%
X230295000Y-250935000D02*
X237490000Y-243740000D01*
X225198000Y-250935000D02*
X230295000Y-250935000D01*
%TO.N,Net-(J0_16-Pin_2)*%
X222880000Y-239467000D02*
X221990000Y-240358000D01*
X229407000Y-239467000D02*
X222880000Y-239467000D01*
X231140000Y-241200000D02*
X229407000Y-239467000D01*
%TO.N,Net-(J0_9-Pin_1)*%
X243125000Y-261474000D02*
X234549000Y-252898000D01*
X205428000Y-266028000D02*
X240633000Y-266028000D01*
X243125000Y-263535000D02*
X243125000Y-261474000D01*
X240633000Y-266028000D02*
X243125000Y-263535000D01*
X202100000Y-262700000D02*
X205428000Y-266028000D01*
%TO.N,Net-(J0_9-Pin_3)*%
X226073000Y-241200000D02*
X219782000Y-247491000D01*
X219782000Y-247491000D02*
X219782000Y-251284000D01*
X228600000Y-241200000D02*
X226073000Y-241200000D01*
X209100000Y-261966000D02*
X209100000Y-262700000D01*
X219782000Y-251284000D02*
X209100000Y-261966000D01*
%TO.N,Net-(J0_10-Pin_1)*%
X231018000Y-238144000D02*
X231318000Y-238444000D01*
X217158000Y-243349000D02*
X222362000Y-238144000D01*
X222362000Y-238144000D02*
X231018000Y-238144000D01*
X241084000Y-238444000D02*
X243840000Y-241200000D01*
X217158000Y-243781000D02*
X217158000Y-243349000D01*
X231318000Y-238444000D02*
X241084000Y-238444000D01*
%TO.N,Net-(J0_10-Pin_3)*%
X242570000Y-243740000D02*
X234714000Y-251596000D01*
X234714000Y-251596000D02*
X234010000Y-251596000D01*
X225100000Y-260506000D02*
X225100000Y-262700000D01*
X234010000Y-251596000D02*
X225100000Y-260506000D01*
%TO.N,Net-(PX112-Pin_1)*%
X234950000Y-243740000D02*
X230513000Y-248177000D01*
X224730000Y-248177000D02*
X217001000Y-255906000D01*
X230513000Y-248177000D02*
X224730000Y-248177000D01*
%TO.N,Net-(PX113-Pin_1)*%
X229728000Y-246422000D02*
X232410000Y-243740000D01*
X222692000Y-246422000D02*
X229728000Y-246422000D01*
%TO.N,Net-(U20-SENSE_B)*%
X213690000Y-248890000D02*
X213690000Y-242216000D01*
X231857000Y-237143000D02*
X242211000Y-237143000D01*
X215800000Y-251000000D02*
X213690000Y-248890000D01*
X245582000Y-240514000D02*
X245582000Y-243268000D01*
X242211000Y-237143000D02*
X245582000Y-240514000D01*
X245582000Y-243268000D02*
X245110000Y-243740000D01*
X231503000Y-236789000D02*
X231857000Y-237143000D01*
X213690000Y-242216000D02*
X219117000Y-236789000D01*
X219117000Y-236789000D02*
X231503000Y-236789000D01*
%TO.N,Net-(PX45-Pin_1)*%
X206120000Y-212000000D02*
X210847000Y-216727000D01*
X210847000Y-216727000D02*
X246840000Y-216727000D01*
%TO.N,Net-(PS6-+Vout)*%
X205106000Y-28654400D02*
X216354000Y-28654400D01*
X191136000Y-28621100D02*
X202321000Y-28621100D01*
X189727500Y-30030000D02*
X189728000Y-30030000D01*
X230361000Y-28660900D02*
X231730000Y-30030000D01*
X189728000Y-30030000D02*
X191136000Y-28621100D01*
X202321000Y-28621100D02*
X203730000Y-30030000D01*
X203730000Y-30030000D02*
X205106000Y-28654400D01*
X217730000Y-30030000D02*
X219099000Y-28660900D01*
X216354000Y-28654400D02*
X217730000Y-30030000D01*
X219099000Y-28660900D02*
X230361000Y-28660900D01*
%TO.N,Net-(PS7--Vout)*%
X236810000Y-59468700D02*
X236810000Y-37970000D01*
X195510100Y-38672600D02*
X194807500Y-37970000D01*
X213080000Y-97934600D02*
X212449000Y-98565600D01*
X224406000Y-98565600D02*
X225810000Y-99970000D01*
X195510500Y-38672600D02*
X195510100Y-38672600D01*
X224184000Y-39344300D02*
X235436000Y-39344300D01*
X194808000Y-37970000D02*
X195510500Y-38672600D01*
X195510500Y-38672600D02*
X196213000Y-39375200D01*
X235436000Y-39344300D02*
X236810000Y-37970000D01*
X210212000Y-39372400D02*
X221408000Y-39372400D01*
X221408000Y-39372400D02*
X222810000Y-37970000D01*
X207405000Y-39375200D02*
X208810000Y-37970000D01*
X213080000Y-81875000D02*
X214404000Y-81875000D01*
X213080000Y-84000000D02*
X213080000Y-81875000D01*
X208810000Y-37970000D02*
X210212000Y-39372400D01*
X196213000Y-39375200D02*
X207405000Y-39375200D01*
X213080000Y-84000000D02*
X213080000Y-97934600D01*
X197214000Y-98565600D02*
X212449000Y-98565600D01*
X222810000Y-37970000D02*
X224184000Y-39344300D01*
X195810000Y-99970000D02*
X197214000Y-98565600D01*
X212449000Y-98565600D02*
X224406000Y-98565600D01*
X214404000Y-81875000D02*
X236810000Y-59468700D01*
%TO.N,Net-(PS8-+Vout)*%
X194005000Y-59464900D02*
X205484000Y-59464900D01*
X205484000Y-59464900D02*
X211267000Y-59464900D01*
X190000000Y-55460000D02*
X194005000Y-59464900D01*
X204000000Y-55460000D02*
X205484000Y-56943600D01*
X219500000Y-56960300D02*
X218000000Y-55460000D01*
X232997000Y-59463700D02*
X233452000Y-59008700D01*
X233452000Y-56911700D02*
X232000000Y-55460000D01*
X196495000Y-84000000D02*
X194620000Y-84000000D01*
X218995000Y-59464900D02*
X219500000Y-58959200D01*
X211267000Y-59464900D02*
X218995000Y-59464900D01*
X211267000Y-59464900D02*
X211267000Y-69228000D01*
X219500000Y-58959200D02*
X220005000Y-59463700D01*
X219500000Y-58959200D02*
X219500000Y-56960300D01*
X211267000Y-69228000D02*
X196495000Y-84000000D01*
X205484000Y-56943600D02*
X205484000Y-59464900D01*
X233452000Y-59008700D02*
X233452000Y-56911700D01*
X220005000Y-59463700D02*
X232997000Y-59463700D01*
%TO.N,Net-(Q1-B)*%
X188536000Y-53464000D02*
X190000000Y-52000000D01*
X188730000Y-56730000D02*
X188536000Y-56536000D01*
X188536000Y-56536000D02*
X188536000Y-53464000D01*
%TO.N,Net-(Q2-B)*%
X202730000Y-56730000D02*
X202542000Y-56541600D01*
X202542000Y-56541600D02*
X202542000Y-53458400D01*
X202542000Y-53458400D02*
X204000000Y-52000000D01*
%TO.N,Net-(Q3-B)*%
X216548000Y-56548300D02*
X216548000Y-53451700D01*
X216548000Y-53451700D02*
X218000000Y-52000000D01*
X216730000Y-56730000D02*
X216548000Y-56548300D01*
%TO.N,Net-(Q4-B)*%
X230548000Y-53451700D02*
X232000000Y-52000000D01*
X230548000Y-56548300D02*
X230548000Y-53451700D01*
X230730000Y-56730000D02*
X230548000Y-56548300D01*
%TO.N,Net-(PX118-Pin_1)*%
X223270000Y-99970000D02*
X220000000Y-103240000D01*
X180760000Y-113000000D02*
X182391000Y-114631000D01*
X182391000Y-114631000D02*
X213369000Y-114631000D01*
X213369000Y-114631000D02*
X220000000Y-108000000D01*
X220000000Y-103240000D02*
X220000000Y-108000000D01*
%TO.N,Net-(PX119-Pin_1)*%
X180760000Y-108000000D02*
X190000000Y-108000000D01*
X190000000Y-103240000D02*
X190000000Y-108000000D01*
X193270000Y-99970000D02*
X190000000Y-103240000D01*
%TO.N,Net-(PS3--Vout)*%
X190000000Y-154080000D02*
X192125000Y-154080000D01*
X196429000Y-149776000D02*
X210516000Y-149776000D01*
X210516000Y-149776000D02*
X212120000Y-151380000D01*
X192125000Y-154080000D02*
X196429000Y-149776000D01*
%TO.N,Net-(U19-A)*%
X230000000Y-157000000D02*
X226395000Y-160605000D01*
X226395000Y-160605000D02*
X208645000Y-160605000D01*
X208645000Y-160605000D02*
X207040000Y-159000000D01*
%TO.N,Net-(PS2--Vout)*%
X210518000Y-187778000D02*
X212120000Y-189380000D01*
X190000000Y-192080000D02*
X192125000Y-192080000D01*
X192125000Y-192080000D02*
X196427000Y-187778000D01*
X196427000Y-187778000D02*
X210518000Y-187778000D01*
%TO.N,Net-(U15-A)*%
X226398000Y-198602000D02*
X208642000Y-198602000D01*
X230000000Y-195000000D02*
X226398000Y-198602000D01*
X208642000Y-198602000D02*
X207040000Y-197000000D01*
%TO.N,Net-(J0_25-Pin_1)*%
X166000000Y-262768000D02*
X166000000Y-262767500D01*
X175380000Y-249767500D02*
X175380000Y-249768000D01*
X166000000Y-262767500D02*
X166000000Y-259148000D01*
X166000000Y-259148000D02*
X175380000Y-249768000D01*
%TO.N,Net-(J0_26-Pin_1)*%
X181500000Y-262767500D02*
X181500000Y-241388000D01*
X181500000Y-241388000D02*
X183500000Y-239388000D01*
X183500000Y-239387500D02*
X183500000Y-239388000D01*
X181500000Y-262768000D02*
X181500000Y-262767500D01*
%TO.N,Net-(D9-A)*%
X63500000Y-238927500D02*
X56340000Y-238927500D01*
X56340000Y-238927500D02*
X55500000Y-239767500D01*
%TO.N,Net-(R48-Pad1)*%
X188000000Y-231768000D02*
X186500000Y-231768000D01*
X186500000Y-231768000D02*
X183500500Y-231768000D01*
X189500000Y-231768000D02*
X188000000Y-231768000D01*
X188000000Y-231768000D02*
X189499500Y-231768000D01*
X189499500Y-231768000D02*
X189500000Y-231767500D01*
X183500500Y-231768000D02*
X183500000Y-231767500D01*
%TO.N,Net-(J0_23-Pin_1)*%
X139380000Y-249767500D02*
X139380000Y-249768000D01*
X130000000Y-262768000D02*
X130000000Y-262767500D01*
X130000000Y-262767500D02*
X130000000Y-259148000D01*
X130000000Y-259148000D02*
X139380000Y-249768000D01*
%TO.N,Net-(J0_24-Pin_1)*%
X145500000Y-241388000D02*
X147500000Y-239388000D01*
X145500000Y-262767500D02*
X145500000Y-241388000D01*
X147500000Y-239387500D02*
X147500000Y-239388000D01*
X145500000Y-262768000D02*
X145500000Y-262767500D01*
%TO.N,Net-(R46-Pad1)*%
X150500000Y-231768000D02*
X147500000Y-231768000D01*
X153500000Y-231767500D02*
X153500000Y-231768000D01*
X153500000Y-231768000D02*
X147500000Y-231768000D01*
X147500000Y-231767500D02*
X147500000Y-231768000D01*
%TO.N,Net-(J0_21-Pin_1)*%
X93000000Y-262768000D02*
X93000000Y-262767500D01*
X93000000Y-262767500D02*
X93000000Y-259148000D01*
X93000000Y-259148000D02*
X102380000Y-249768000D01*
X102380000Y-249767500D02*
X102380000Y-249768000D01*
%TO.N,Net-(J0_22-Pin_1)*%
X108500000Y-262767500D02*
X108500000Y-241388000D01*
X108500000Y-241388000D02*
X110500000Y-239388000D01*
X110500000Y-239387500D02*
X110500000Y-239388000D01*
X108500000Y-262768000D02*
X108500000Y-262767500D01*
%TO.N,Net-(D12-A)*%
X129920000Y-239348000D02*
X129919500Y-239348000D01*
X129920000Y-239348000D02*
X129500000Y-239768000D01*
X129919500Y-239348000D02*
X129500000Y-239767500D01*
X130340000Y-238928000D02*
X129920000Y-239348000D01*
X133920000Y-238928000D02*
X130340000Y-238928000D01*
%TO.N,Net-(R44-Pad1)*%
X112000000Y-231768000D02*
X110500500Y-231768000D01*
X116500000Y-231768000D02*
X112000000Y-231768000D01*
X112000000Y-231768000D02*
X110500000Y-231768000D01*
X116500000Y-231767500D02*
X116500000Y-231768000D01*
X110500500Y-231768000D02*
X110500000Y-231767500D01*
%TO.N,Net-(J0_19-Pin_1)*%
X56000000Y-259148000D02*
X65380000Y-249768000D01*
X56000000Y-262768000D02*
X56000000Y-262767500D01*
X56000000Y-262767500D02*
X56000000Y-259148000D01*
X65380000Y-249767500D02*
X65380000Y-249768000D01*
%TO.N,Net-(J0_20-Pin_1)*%
X73500000Y-239387500D02*
X73500000Y-239388000D01*
X71500000Y-262768000D02*
X71500000Y-262767500D01*
X71500000Y-262767500D02*
X71500000Y-241388000D01*
X71500000Y-241388000D02*
X73500000Y-239388000D01*
%TO.N,Net-(D13-A)*%
X166340000Y-238928000D02*
X165920000Y-239348000D01*
X165920000Y-239348000D02*
X165710000Y-239558000D01*
X165920000Y-239348000D02*
X165710000Y-239558000D01*
X169920000Y-238928000D02*
X166340000Y-238928000D01*
X171710000Y-238928000D02*
X169920000Y-238928000D01*
X171710000Y-238928000D02*
X173499500Y-238928000D01*
X165710000Y-239558000D02*
X165709500Y-239558000D01*
X165709500Y-239558000D02*
X165500000Y-239767500D01*
X173499500Y-238928000D02*
X173500000Y-238927500D01*
X169920000Y-238928000D02*
X171710000Y-238928000D01*
%TO.N,Net-(R41-Pad1)*%
X79500000Y-231767500D02*
X79500000Y-231768000D01*
X73500000Y-231767500D02*
X73500000Y-231768000D01*
X79500000Y-231768000D02*
X73500000Y-231768000D01*
%TO.N,Net-(PS5-+Vout)*%
X103164000Y-52475900D02*
X103164000Y-79515900D01*
X107900000Y-47740000D02*
X103164000Y-52475900D01*
X103164000Y-79515900D02*
X89945000Y-92735000D01*
%TD*%
M02*
