%TF.GenerationSoftware,KiCad,Pcbnew,9.0.3*%
%TF.CreationDate,2025-10-23T08:59:57-06:00*%
%TF.ProjectId,PCB_HORNO,5043425f-484f-4524-9e4f-2e6b69636164,rev?*%
%TF.SameCoordinates,Original*%
%TF.FileFunction,Copper,L1,Top*%
%TF.FilePolarity,Positive*%
%FSLAX46Y46*%
G04 Gerber Fmt 4.6, Leading zero omitted, Abs format (unit mm)*
G04 Created by KiCad (PCBNEW 9.0.3) date 2025-10-23 08:59:57*
%MOMM*%
%LPD*%
G01*
G04 APERTURE LIST*
G04 Aperture macros list*
%AMRoundRect*
0 Rectangle with rounded corners*
0 $1 Rounding radius*
0 $2 $3 $4 $5 $6 $7 $8 $9 X,Y pos of 4 corners*
0 Add a 4 corners polygon primitive as box body*
4,1,4,$2,$3,$4,$5,$6,$7,$8,$9,$2,$3,0*
0 Add four circle primitives for the rounded corners*
1,1,$1+$1,$2,$3*
1,1,$1+$1,$4,$5*
1,1,$1+$1,$6,$7*
1,1,$1+$1,$8,$9*
0 Add four rect primitives between the rounded corners*
20,1,$1+$1,$2,$3,$4,$5,0*
20,1,$1+$1,$4,$5,$6,$7,0*
20,1,$1+$1,$6,$7,$8,$9,0*
20,1,$1+$1,$8,$9,$2,$3,0*%
G04 Aperture macros list end*
%TA.AperFunction,ComponentPad*%
%ADD10RoundRect,0.288462X1.211538X-1.211538X1.211538X1.211538X-1.211538X1.211538X-1.211538X-1.211538X0*%
%TD*%
%TA.AperFunction,ComponentPad*%
%ADD11C,2.000000*%
%TD*%
%TA.AperFunction,ComponentPad*%
%ADD12C,1.800000*%
%TD*%
%TA.AperFunction,ComponentPad*%
%ADD13C,9.000000*%
%TD*%
%TA.AperFunction,ComponentPad*%
%ADD14C,2.600000*%
%TD*%
%TA.AperFunction,ComponentPad*%
%ADD15R,3.200000X3.200000*%
%TD*%
%TA.AperFunction,ComponentPad*%
%ADD16C,3.200000*%
%TD*%
%TA.AperFunction,ComponentPad*%
%ADD17RoundRect,0.288462X-1.211538X-1.211538X1.211538X-1.211538X1.211538X1.211538X-1.211538X1.211538X0*%
%TD*%
%TA.AperFunction,ComponentPad*%
%ADD18C,3.000000*%
%TD*%
%TA.AperFunction,ComponentPad*%
%ADD19O,2.400000X1.900000*%
%TD*%
%TA.AperFunction,ComponentPad*%
%ADD20O,1.900000X2.400000*%
%TD*%
%TA.AperFunction,ComponentPad*%
%ADD21RoundRect,0.288462X1.211538X1.211538X-1.211538X1.211538X-1.211538X-1.211538X1.211538X-1.211538X0*%
%TD*%
%TA.AperFunction,ComponentPad*%
%ADD22R,4.500000X2.500000*%
%TD*%
%TA.AperFunction,ComponentPad*%
%ADD23O,4.500000X2.500000*%
%TD*%
%TA.AperFunction,ComponentPad*%
%ADD24R,2.000000X1.905000*%
%TD*%
%TA.AperFunction,ComponentPad*%
%ADD25O,2.000000X1.905000*%
%TD*%
%TA.AperFunction,ComponentPad*%
%ADD26C,1.600000*%
%TD*%
%TA.AperFunction,ViaPad*%
%ADD27C,0.800000*%
%TD*%
%TA.AperFunction,Conductor*%
%ADD28C,1.000000*%
%TD*%
G04 APERTURE END LIST*
D10*
%TO.P,PX62,1,Pin_1*%
%TO.N,Net-(PX62-Pin_1)*%
X237000000Y-212000000D03*
%TD*%
D11*
%TO.P,R12,1*%
%TO.N,Net-(PS5-+Vout)*%
X107900000Y-47740000D03*
%TO.P,R12,2*%
%TO.N,Net-(PX54-Pin_1)*%
X107900000Y-57900000D03*
%TD*%
D12*
%TO.P,U12,1,NULL*%
%TO.N,unconnected-(U12-NULL-Pad1)*%
X229190000Y-37970000D03*
%TO.P,U12,2,-*%
%TO.N,Net-(U12--)*%
X231730000Y-37970000D03*
%TO.P,U12,3,+*%
%TO.N,Net-(J0_6-Pin_1)*%
X234270000Y-37970000D03*
%TO.P,U12,4,V-*%
%TO.N,Net-(PS7--Vout)*%
X236810000Y-37970000D03*
%TO.P,U12,5,NULL*%
%TO.N,unconnected-(U12-NULL-Pad5)*%
X236810000Y-30030000D03*
%TO.P,U12,6*%
%TO.N,Net-(U12--)*%
X234270000Y-30030000D03*
%TO.P,U12,7,V+*%
%TO.N,Net-(PS6-+Vout)*%
X231730000Y-30030000D03*
%TO.P,U12,8,NC*%
%TO.N,unconnected-(U12-NC-Pad8)*%
X229190000Y-30030000D03*
%TD*%
D13*
%TO.P,H4,1*%
%TO.N,N/C*%
X44500000Y-268000000D03*
%TD*%
D11*
%TO.P,R22,1*%
%TO.N,Net-(J0_13-Pin_3)*%
X235000000Y-95000000D03*
%TO.P,R22,2*%
%TO.N,Net-(U17--)*%
X235000000Y-105160000D03*
%TD*%
D14*
%TO.P,J0_1,1,Pin_1*%
%TO.N,Net-(J0_1-Pin_1)*%
X47000000Y-119000000D03*
%TO.P,J0_1,2,Pin_2*%
%TO.N,Net-(J0_1-Pin_2)*%
X47000000Y-122500000D03*
%TO.P,J0_1,3,Pin_3*%
%TO.N,Net-(J0_1-Pin_3)*%
X47000000Y-126000000D03*
%TD*%
D15*
%TO.P,D10,1,+*%
%TO.N,Net-(D10-+)*%
X88600000Y-58260000D03*
D16*
%TO.P,D10,2*%
%TO.N,Net-(D10-Pad2)*%
X88600000Y-63340000D03*
%TO.P,D10,3*%
%TO.N,Net-(D10-Pad3)*%
X88600000Y-68420000D03*
%TO.P,D10,4,-*%
%TO.N,Net-(D10--)*%
X88600000Y-73500000D03*
%TD*%
D14*
%TO.P,J0_5,1,Pin_1*%
%TO.N,Net-(J0_5-Pin_1)*%
X252000000Y-60000000D03*
%TO.P,J0_5,2,Pin_2*%
%TO.N,Net-(J0_5-Pin_2)*%
X252000000Y-56500000D03*
%TO.P,J0_5,3,Pin_3*%
%TO.N,Net-(J0_5-Pin_3)*%
X252000000Y-53000000D03*
%TD*%
D17*
%TO.P,PX48,1,Pin_1*%
%TO.N,Net-(PX48-Pin_1)*%
X115000000Y-128000000D03*
%TD*%
D18*
%TO.P,D12,1,K*%
%TO.N,Net-(D12-K)*%
X137500000Y-228767500D03*
%TO.P,D12,2,A*%
%TO.N,Net-(D12-A)*%
X137500000Y-238927500D03*
%TD*%
D10*
%TO.P,PX69,1,Pin_1*%
%TO.N,Net-(PX69-Pin_1)*%
X79500000Y-212000000D03*
%TD*%
D17*
%TO.P,P18,1,Pin_1*%
%TO.N,Net-(J1-Pin_12)*%
X130600000Y-82700000D03*
%TD*%
%TO.P,P22,1,Pin_1*%
%TO.N,Net-(J1-Pin_9)*%
X130600000Y-70700000D03*
%TD*%
D18*
%TO.P,R40,1*%
%TO.N,Net-(GND1-Pin_1)*%
X200560000Y-251000000D03*
%TO.P,R40,2*%
%TO.N,Net-(U20-SENSE_B)*%
X215800000Y-251000000D03*
%TD*%
D11*
%TO.P,R15,1*%
%TO.N,Net-(Q2-B)*%
X204000000Y-52000000D03*
%TO.P,R15,2*%
%TO.N,Net-(U10--)*%
X204000000Y-41840000D03*
%TD*%
%TO.P,U20,*%
%TO.N,*%
X236220000Y-223200000D03*
%TO.P,U20,1,SENSE_A*%
%TO.N,Net-(U20-SENSE_A)*%
X227330000Y-243740000D03*
%TO.P,U20,2,OUT1*%
%TO.N,Net-(J0_9-Pin_3)*%
X228600000Y-241200000D03*
%TO.P,U20,3,OUT2*%
%TO.N,Net-(J0_9-Pin_1)*%
X229870000Y-243740000D03*
%TO.P,U20,4,Vs*%
%TO.N,Net-(J0_16-Pin_2)*%
X231140000Y-241200000D03*
%TO.P,U20,5,IN1*%
%TO.N,Net-(PX113-Pin_1)*%
X232410000Y-243740000D03*
%TO.P,U20,6,EnA*%
%TO.N,Net-(PX55-Pin_1)*%
X233680000Y-241200000D03*
%TO.P,U20,7,IN2*%
%TO.N,Net-(PX112-Pin_1)*%
X234950000Y-243740000D03*
%TO.P,U20,8,GND*%
%TO.N,Net-(GND1-Pin_1)*%
X236220000Y-241200000D03*
%TO.P,U20,9,Vss*%
%TO.N,Net-(J0_16-Pin_3)*%
X237490000Y-243740000D03*
%TO.P,U20,10,IN3*%
%TO.N,Net-(PX111-Pin_1)*%
X238760000Y-241200000D03*
%TO.P,U20,11,EnB*%
%TO.N,Net-(PX45-Pin_1)*%
X240030000Y-243740000D03*
%TO.P,U20,12,IN4*%
%TO.N,Net-(PX62-Pin_1)*%
X241300000Y-241200000D03*
%TO.P,U20,13,OUT3*%
%TO.N,Net-(J0_10-Pin_3)*%
X242570000Y-243740000D03*
%TO.P,U20,14,OUT4*%
%TO.N,Net-(J0_10-Pin_1)*%
X243840000Y-241200000D03*
%TO.P,U20,15,SENSE_B*%
%TO.N,Net-(U20-SENSE_B)*%
X245110000Y-243740000D03*
%TD*%
%TO.P,U8,1*%
%TO.N,Net-(D8-K)*%
X85795000Y-181325000D03*
%TO.P,U8,2*%
%TO.N,Net-(J0_1-Pin_1)*%
X85795000Y-183865000D03*
%TO.P,U8,3*%
%TO.N,Net-(PX53-Pin_1)*%
X93415000Y-183865000D03*
%TO.P,U8,4*%
%TO.N,Net-(R49-Pad2)*%
X93415000Y-181325000D03*
%TD*%
%TO.P,R7,1*%
%TO.N,Net-(PX52-Pin_1)*%
X99420000Y-171800000D03*
%TO.P,R7,2*%
%TO.N,Net-(GND1-Pin_1)*%
X109580000Y-171800000D03*
%TD*%
D18*
%TO.P,R13,1*%
%TO.N,Net-(R13-Pad1)*%
X74295000Y-49440000D03*
%TO.P,R13,2*%
%TO.N,Net-(J0_7-Pin_3)*%
X74295000Y-34200000D03*
%TD*%
D10*
%TO.P,PX45,1,Pin_1*%
%TO.N,Net-(PX45-Pin_1)*%
X206120000Y-212000000D03*
%TD*%
D18*
%TO.P,R28,1*%
%TO.N,Net-(J0_1-Pin_2)*%
X58000000Y-106000000D03*
%TO.P,R28,2*%
%TO.N,Net-(D1-A)*%
X73240000Y-106000000D03*
%TD*%
%TO.P,R33,1*%
%TO.N,Net-(J0_3-Pin_1)*%
X58000000Y-161000000D03*
%TO.P,R33,2*%
%TO.N,Net-(D6-A)*%
X73240000Y-161000000D03*
%TD*%
D10*
%TO.P,PX72,1,Pin_1*%
%TO.N,Net-(PX72-Pin_1)*%
X189500000Y-212000000D03*
%TD*%
D12*
%TO.P,C3,1*%
%TO.N,Net-(J0_6-Pin_1)*%
X235000000Y-22677500D03*
%TO.P,C3,2*%
%TO.N,Net-(GND1-Pin_1)*%
X230000000Y-22677500D03*
%TD*%
D17*
%TO.P,PX33,1,Pin_1*%
%TO.N,Net-(J3-Pin_11)*%
X164900000Y-154700000D03*
%TD*%
%TO.P,P34,1,Pin_1*%
%TO.N,Net-(J4-Pin_13)*%
X164900000Y-66700000D03*
%TD*%
D11*
%TO.P,D7,1,K*%
%TO.N,Net-(D7-K)*%
X80000000Y-171740000D03*
%TO.P,D7,2,A*%
%TO.N,Net-(D7-A)*%
X77460000Y-171740000D03*
%TD*%
D17*
%TO.P,PX50,1,Pin_1*%
%TO.N,Net-(PX50-Pin_1)*%
X115000000Y-150000000D03*
%TD*%
D14*
%TO.P,J0_3,1,Pin_1*%
%TO.N,Net-(J0_3-Pin_1)*%
X47000000Y-163000000D03*
%TO.P,J0_3,2,Pin_2*%
%TO.N,Net-(J0_3-Pin_2)*%
X47000000Y-166500000D03*
%TO.P,J0_3,3,Pin_3*%
%TO.N,Net-(J0_3-Pin_3)*%
X47000000Y-170000000D03*
%TD*%
D17*
%TO.P,P26,1,Pin_1*%
%TO.N,Net-(J4-Pin_8)*%
X164900000Y-86700000D03*
%TD*%
D19*
%TO.P,PS1,1,-Vin*%
%TO.N,Net-(GND1-Pin_1)*%
X190000000Y-169000000D03*
%TO.P,PS1,2,+Vin*%
%TO.N,Net-(5Vb1-Pin_1)*%
X190000000Y-171540000D03*
%TO.P,PS1,3,-Vout*%
%TO.N,Net-(J0_18-Pin_3)*%
X190000000Y-174080000D03*
%TO.P,PS1,4,+Vout*%
%TO.N,Net-(PS1-+Vout)*%
X190000000Y-176620000D03*
%TD*%
D17*
%TO.P,3V3a1,1,Pin_1*%
%TO.N,Net-(3V3a1-Pin_1)*%
X130600000Y-46700000D03*
%TD*%
%TO.P,P0,1,Pin_1*%
%TO.N,Net-(J1-Pin_8)*%
X130600000Y-66700000D03*
%TD*%
%TO.P,PX12,1,Pin_1*%
%TO.N,Net-(J2-Pin_10)*%
X130600000Y-154700000D03*
%TD*%
D11*
%TO.P,D6,1,K*%
%TO.N,Net-(D6-K)*%
X80000000Y-160740000D03*
%TO.P,D6,2,A*%
%TO.N,Net-(D6-A)*%
X77460000Y-160740000D03*
%TD*%
D17*
%TO.P,PX27,1,Pin_1*%
%TO.N,Net-(J3-Pin_5)*%
X164900000Y-178700000D03*
%TD*%
D11*
%TO.P,J2,1,Pin_1*%
%TO.N,Net-(J2-Pin_1)*%
X136200000Y-130980000D03*
%TO.P,J2,2,Pin_2*%
%TO.N,Net-(J2-Pin_2)*%
X136200000Y-133520000D03*
%TO.P,J2,3,Pin_3*%
%TO.N,Net-(J2-Pin_3)*%
X136200000Y-136060000D03*
%TO.P,J2,4,Pin_4*%
%TO.N,Net-(J2-Pin_4)*%
X136200000Y-138600000D03*
%TO.P,J2,5,Pin_5*%
%TO.N,Net-(J2-Pin_5)*%
X136200000Y-141140000D03*
%TO.P,J2,6,Pin_6*%
%TO.N,Net-(J2-Pin_6)*%
X136200000Y-143680000D03*
%TO.P,J2,7,Pin_7*%
%TO.N,Net-(J2-Pin_7)*%
X136200000Y-146220000D03*
%TO.P,J2,8,Pin_8*%
%TO.N,Net-(J2-Pin_8)*%
X136200000Y-148760000D03*
%TO.P,J2,9,Pin_9*%
%TO.N,Net-(J2-Pin_9)*%
X136200000Y-151300000D03*
%TO.P,J2,10,Pin_10*%
%TO.N,Net-(J2-Pin_10)*%
X136200000Y-153840000D03*
%TO.P,J2,11,Pin_11*%
%TO.N,Net-(J2-Pin_11)*%
X136200000Y-156380000D03*
%TO.P,J2,12,Pin_12*%
%TO.N,Net-(J2-Pin_12)*%
X136200000Y-158920000D03*
%TO.P,J2,13,Pin_13*%
%TO.N,Net-(J2-Pin_13)*%
X136200000Y-161460000D03*
%TO.P,J2,14,Pin_14*%
%TO.N,Net-(J2-Pin_14)*%
X136200000Y-164000000D03*
%TO.P,J2,15,Pin_15*%
%TO.N,Net-(J2-Pin_15)*%
X136200000Y-166540000D03*
%TO.P,J2,16,Pin_16*%
%TO.N,Net-(J2-Pin_16)*%
X136200000Y-169080000D03*
%TO.P,J2,17,Pin_17*%
%TO.N,Net-(J2-Pin_17)*%
X136200000Y-171620000D03*
%TO.P,J2,18,Pin_18*%
%TO.N,Net-(J2-Pin_18)*%
X136200000Y-174160000D03*
%TO.P,J2,19,Pin_19*%
%TO.N,Net-(J2-Pin_19)*%
X136200000Y-176700000D03*
%TO.P,J2,20,Pin_20*%
%TO.N,Net-(J2-Pin_20)*%
X136200000Y-179240000D03*
%TD*%
%TO.P,R16,1*%
%TO.N,Net-(Q3-B)*%
X218000000Y-52000000D03*
%TO.P,R16,2*%
%TO.N,Net-(U11--)*%
X218000000Y-41840000D03*
%TD*%
D17*
%TO.P,PX26,1,Pin_1*%
%TO.N,Net-(J3-Pin_4)*%
X164900000Y-182700000D03*
%TD*%
%TO.P,PX39,1,Pin_1*%
%TO.N,Net-(J3-Pin_17)*%
X164900000Y-130700000D03*
%TD*%
D11*
%TO.P,R49,1*%
%TO.N,Net-(PS5-+Vout)*%
X89945000Y-92735000D03*
%TO.P,R49,2*%
%TO.N,Net-(R49-Pad2)*%
X79785000Y-92735000D03*
%TD*%
D17*
%TO.P,P5,1,Pin_1*%
%TO.N,Net-(J1-Pin_13)*%
X130600000Y-86700000D03*
%TD*%
D20*
%TO.P,PS6,1,-Vin*%
%TO.N,Net-(GND1-Pin_1)*%
X229000000Y-84000000D03*
%TO.P,PS6,2,+Vin*%
%TO.N,Net-(5Vb1-Pin_1)*%
X231540000Y-84000000D03*
%TO.P,PS6,3,-Vout*%
%TO.N,Net-(GND1-Pin_1)*%
X234080000Y-84000000D03*
%TO.P,PS6,4,+Vout*%
%TO.N,Net-(PS6-+Vout)*%
X236620000Y-84000000D03*
%TD*%
D21*
%TO.P,PX124,1,Pin_1*%
%TO.N,Net-(PX124-Pin_1)*%
X180760000Y-57100000D03*
%TD*%
D11*
%TO.P,U14,1*%
%TO.N,Net-(R11-Pad2)*%
X101495000Y-70425000D03*
%TO.P,U14,2*%
%TO.N,Net-(D10--)*%
X101495000Y-72965000D03*
%TO.P,U14,3*%
%TO.N,Net-(GND1-Pin_1)*%
X109115000Y-72965000D03*
%TO.P,U14,4*%
%TO.N,Net-(PX54-Pin_1)*%
X109115000Y-70425000D03*
%TD*%
%TO.P,D2,1,K*%
%TO.N,Net-(D2-K)*%
X80000000Y-116740000D03*
%TO.P,D2,2,A*%
%TO.N,Net-(D2-A)*%
X77460000Y-116740000D03*
%TD*%
D12*
%TO.P,U11,1,NULL*%
%TO.N,unconnected-(U11-NULL-Pad1)*%
X215190000Y-37970000D03*
%TO.P,U11,2,-*%
%TO.N,Net-(U11--)*%
X217730000Y-37970000D03*
%TO.P,U11,3,+*%
%TO.N,Net-(J0_5-Pin_3)*%
X220270000Y-37970000D03*
%TO.P,U11,4,V-*%
%TO.N,Net-(PS7--Vout)*%
X222810000Y-37970000D03*
%TO.P,U11,5,NULL*%
%TO.N,unconnected-(U11-NULL-Pad5)*%
X222810000Y-30030000D03*
%TO.P,U11,6*%
%TO.N,Net-(U11--)*%
X220270000Y-30030000D03*
%TO.P,U11,7,V+*%
%TO.N,Net-(PS6-+Vout)*%
X217730000Y-30030000D03*
%TO.P,U11,8,NC*%
%TO.N,unconnected-(U11-NC-Pad8)*%
X215190000Y-30030000D03*
%TD*%
%TO.P,C8,1*%
%TO.N,Net-(PX118-Pin_1)*%
X220000000Y-108000000D03*
%TO.P,C8,2*%
%TO.N,Net-(GND1-Pin_1)*%
X220000000Y-113000000D03*
%TD*%
D10*
%TO.P,PX67,1,Pin_1*%
%TO.N,Net-(PX67-Pin_1)*%
X153500000Y-212000000D03*
%TD*%
D11*
%TO.P,U1,1*%
%TO.N,Net-(D1-K)*%
X85795000Y-104325000D03*
%TO.P,U1,2*%
%TO.N,Net-(J0_1-Pin_1)*%
X85795000Y-106865000D03*
%TO.P,U1,3*%
%TO.N,Net-(PX46-Pin_1)*%
X93415000Y-106865000D03*
%TO.P,U1,4*%
%TO.N,Net-(R49-Pad2)*%
X93415000Y-104325000D03*
%TD*%
D22*
%TO.P,Q7,1,G*%
%TO.N,Net-(Q7-G)*%
X222000000Y-144000000D03*
D23*
%TO.P,Q7,2,C*%
%TO.N,Net-(J0_14-Pin_1)*%
X222000000Y-138550000D03*
%TO.P,Q7,3,E*%
%TO.N,Net-(J0_14-Pin_3)*%
X222000000Y-133100000D03*
%TD*%
D17*
%TO.P,PX3,1,Pin_1*%
%TO.N,Net-(J2-Pin_1)*%
X130600000Y-118700000D03*
%TD*%
D11*
%TO.P,U4,1*%
%TO.N,Net-(D4-K)*%
X85795000Y-137325000D03*
%TO.P,U4,2*%
%TO.N,Net-(J0_1-Pin_1)*%
X85795000Y-139865000D03*
%TO.P,U4,3*%
%TO.N,Net-(PX49-Pin_1)*%
X93415000Y-139865000D03*
%TO.P,U4,4*%
%TO.N,Net-(R49-Pad2)*%
X93415000Y-137325000D03*
%TD*%
D12*
%TO.P,U9,1,NULL*%
%TO.N,unconnected-(U9-NULL-Pad1)*%
X187187500Y-37970000D03*
%TO.P,U9,2,-*%
%TO.N,Net-(U9--)*%
X189727500Y-37970000D03*
%TO.P,U9,3,+*%
%TO.N,Net-(J0_5-Pin_1)*%
X192267500Y-37970000D03*
%TO.P,U9,4,V-*%
%TO.N,Net-(PS7--Vout)*%
X194807500Y-37970000D03*
%TO.P,U9,5,NULL*%
%TO.N,unconnected-(U9-NULL-Pad5)*%
X194807500Y-30030000D03*
%TO.P,U9,6*%
%TO.N,Net-(U9--)*%
X192267500Y-30030000D03*
%TO.P,U9,7,V+*%
%TO.N,Net-(PS6-+Vout)*%
X189727500Y-30030000D03*
%TO.P,U9,8,NC*%
%TO.N,unconnected-(U9-NC-Pad8)*%
X187187500Y-30030000D03*
%TD*%
D18*
%TO.P,R31,1*%
%TO.N,Net-(J0_2-Pin_2)*%
X58000000Y-139000000D03*
%TO.P,R31,2*%
%TO.N,Net-(D4-A)*%
X73240000Y-139000000D03*
%TD*%
D17*
%TO.P,PX49,1,Pin_1*%
%TO.N,Net-(PX49-Pin_1)*%
X115000000Y-139000000D03*
%TD*%
D18*
%TO.P,R39,1*%
%TO.N,Net-(GND1-Pin_1)*%
X200900000Y-227200000D03*
%TO.P,R39,2*%
%TO.N,Net-(U20-SENSE_A)*%
X216140000Y-227200000D03*
%TD*%
%TO.P,R45,1*%
%TO.N,Net-(D12-A)*%
X129500000Y-239767500D03*
%TO.P,R45,2*%
%TO.N,Net-(D12-K)*%
X129500000Y-224527500D03*
%TD*%
D17*
%TO.P,PX29,1,Pin_1*%
%TO.N,Net-(J3-Pin_7)*%
X164900000Y-170700000D03*
%TD*%
D12*
%TO.P,U19,1,NC*%
%TO.N,unconnected-(U19-NC-Pad1)*%
X204500000Y-159000000D03*
%TO.P,U19,2,A*%
%TO.N,Net-(U19-A)*%
X207040000Y-159000000D03*
%TO.P,U19,3,C*%
%TO.N,Net-(GND1-Pin_1)*%
X209580000Y-159000000D03*
%TO.P,U19,4,NC*%
%TO.N,unconnected-(U19-NC-Pad4)*%
X212120000Y-159000000D03*
%TO.P,U19,5,VEE*%
%TO.N,Net-(PS3--Vout)*%
X212120000Y-151380000D03*
%TO.P,U19,6,VO*%
%TO.N,unconnected-(U19-VO-Pad6)*%
X209580000Y-151380000D03*
%TO.P,U19,7,VO*%
%TO.N,Net-(R25-Pad2)*%
X207040000Y-151380000D03*
%TO.P,U19,8,VCC*%
%TO.N,Net-(PS4-+Vout)*%
X204500000Y-151380000D03*
%TD*%
D18*
%TO.P,R10,1*%
%TO.N,Net-(J0_8-Pin_3)*%
X55900000Y-60700000D03*
%TO.P,R10,2*%
%TO.N,Net-(D10-Pad2)*%
X81300000Y-60700000D03*
%TD*%
%TO.P,R43,1*%
%TO.N,Net-(D11-A)*%
X92500000Y-239767500D03*
%TO.P,R43,2*%
%TO.N,Net-(D11-K)*%
X92500000Y-224527500D03*
%TD*%
D24*
%TO.P,Q5,1,A1*%
%TO.N,Net-(J0_7-Pin_1)*%
X64180000Y-27420000D03*
D25*
%TO.P,Q5,2,A2*%
%TO.N,Net-(J0_7-Pin_3)*%
X64180000Y-29960000D03*
%TO.P,Q5,3,G*%
%TO.N,Net-(Q5-G)*%
X64180000Y-32500000D03*
%TD*%
D17*
%TO.P,PX28,1,Pin_1*%
%TO.N,Net-(J3-Pin_6)*%
X164900000Y-174700000D03*
%TD*%
D14*
%TO.P,J0_13,1,Pin_1*%
%TO.N,Net-(J0_13-Pin_1)*%
X252000000Y-109200000D03*
%TO.P,J0_13,2,Pin_2*%
%TO.N,Net-(GND1-Pin_1)*%
X252000000Y-105700000D03*
%TO.P,J0_13,3,Pin_3*%
%TO.N,Net-(J0_13-Pin_3)*%
X252000000Y-102200000D03*
%TD*%
%TO.P,J0_25,1,Pin_1*%
%TO.N,Net-(J0_25-Pin_1)*%
X166000000Y-262767500D03*
%TO.P,J0_25,2,Pin_2*%
%TO.N,Net-(J0_25-Pin_2)*%
X169500000Y-262767500D03*
%TO.P,J0_25,3,Pin_3*%
%TO.N,Net-(J0_25-Pin_3)*%
X173000000Y-262767500D03*
%TD*%
D17*
%TO.P,P17,1,Pin_1*%
%TO.N,Net-(J1-Pin_17)*%
X130600000Y-102700000D03*
%TD*%
D11*
%TO.P,D8,1,K*%
%TO.N,Net-(D8-K)*%
X80000000Y-182740000D03*
%TO.P,D8,2,A*%
%TO.N,Net-(D8-A)*%
X77460000Y-182740000D03*
%TD*%
%TO.P,J3,1,Pin_1*%
%TO.N,Net-(J3-Pin_1)*%
X159160000Y-179260000D03*
%TO.P,J3,2,Pin_2*%
%TO.N,Net-(J3-Pin_2)*%
X159160000Y-176720000D03*
%TO.P,J3,3,Pin_3*%
%TO.N,Net-(J3-Pin_3)*%
X159160000Y-174180000D03*
%TO.P,J3,4,Pin_4*%
%TO.N,Net-(J3-Pin_4)*%
X159160000Y-171640000D03*
%TO.P,J3,5,Pin_5*%
%TO.N,Net-(J3-Pin_5)*%
X159160000Y-169100000D03*
%TO.P,J3,6,Pin_6*%
%TO.N,Net-(J3-Pin_6)*%
X159160000Y-166560000D03*
%TO.P,J3,7,Pin_7*%
%TO.N,Net-(J3-Pin_7)*%
X159160000Y-164020000D03*
%TO.P,J3,8,Pin_8*%
%TO.N,Net-(J3-Pin_8)*%
X159160000Y-161480000D03*
%TO.P,J3,9,Pin_9*%
%TO.N,Net-(J3-Pin_9)*%
X159160000Y-158940000D03*
%TO.P,J3,10,Pin_10*%
%TO.N,Net-(J3-Pin_10)*%
X159160000Y-156400000D03*
%TO.P,J3,11,Pin_11*%
%TO.N,Net-(J3-Pin_11)*%
X159160000Y-153860000D03*
%TO.P,J3,12,Pin_12*%
%TO.N,Net-(J3-Pin_12)*%
X159160000Y-151320000D03*
%TO.P,J3,13,Pin_13*%
%TO.N,Net-(J3-Pin_13)*%
X159160000Y-148780000D03*
%TO.P,J3,14,Pin_14*%
%TO.N,Net-(J3-Pin_14)*%
X159160000Y-146240000D03*
%TO.P,J3,15,Pin_15*%
%TO.N,Net-(J3-Pin_15)*%
X159160000Y-143700000D03*
%TO.P,J3,16,Pin_16*%
%TO.N,Net-(J3-Pin_16)*%
X159160000Y-141160000D03*
%TO.P,J3,17,Pin_17*%
%TO.N,Net-(J3-Pin_17)*%
X159160000Y-138620000D03*
%TO.P,J3,18,Pin_18*%
%TO.N,Net-(J3-Pin_18)*%
X159160000Y-136080000D03*
%TO.P,J3,19,Pin_19*%
%TO.N,Net-(J3-Pin_19)*%
X159160000Y-133540000D03*
%TO.P,J3,20,Pin_20*%
%TO.N,Net-(J3-Pin_20)*%
X159160000Y-131000000D03*
%TD*%
D18*
%TO.P,R11,1*%
%TO.N,Net-(D10-+)*%
X96100000Y-45600000D03*
%TO.P,R11,2*%
%TO.N,Net-(R11-Pad2)*%
X96100000Y-71000000D03*
%TD*%
D11*
%TO.P,J1,1,Pin_1*%
%TO.N,Net-(GND1-Pin_1)*%
X136300000Y-54500000D03*
%TO.P,J1,2,Pin_2*%
%TO.N,Net-(5Va1-Pin_1)*%
X136300000Y-57040000D03*
%TO.P,J1,3,Pin_3*%
%TO.N,Net-(3V3a1-Pin_1)*%
X136300000Y-59580000D03*
%TO.P,J1,4,Pin_4*%
%TO.N,Net-(GND2-Pin_1)*%
X136300000Y-62120000D03*
%TO.P,J1,5,Pin_5*%
%TO.N,Net-(J1-Pin_5)*%
X136300000Y-64660000D03*
%TO.P,J1,6,Pin_6*%
%TO.N,Net-(J1-Pin_6)*%
X136300000Y-67200000D03*
%TO.P,J1,7,Pin_7*%
%TO.N,Net-(J1-Pin_7)*%
X136300000Y-69740000D03*
%TO.P,J1,8,Pin_8*%
%TO.N,Net-(J1-Pin_8)*%
X136300000Y-72280000D03*
%TO.P,J1,9,Pin_9*%
%TO.N,Net-(J1-Pin_9)*%
X136300000Y-74820000D03*
%TO.P,J1,10,Pin_10*%
%TO.N,Net-(J1-Pin_10)*%
X136300000Y-77360000D03*
%TO.P,J1,11,Pin_11*%
%TO.N,Net-(J1-Pin_11)*%
X136300000Y-79900000D03*
%TO.P,J1,12,Pin_12*%
%TO.N,Net-(J1-Pin_12)*%
X136300000Y-82440000D03*
%TO.P,J1,13,Pin_13*%
%TO.N,Net-(J1-Pin_13)*%
X136300000Y-84980000D03*
%TO.P,J1,14,Pin_14*%
%TO.N,Net-(J1-Pin_14)*%
X136300000Y-87520000D03*
%TO.P,J1,15,Pin_15*%
%TO.N,Net-(J1-Pin_15)*%
X136300000Y-90060000D03*
%TO.P,J1,16,Pin_16*%
%TO.N,Net-(J1-Pin_16)*%
X136300000Y-92600000D03*
%TO.P,J1,17,Pin_17*%
%TO.N,Net-(J1-Pin_17)*%
X136300000Y-95140000D03*
%TO.P,J1,18,Pin_18*%
%TO.N,Net-(J1-Pin_18)*%
X136300000Y-97680000D03*
%TO.P,J1,19,Pin_19*%
%TO.N,Net-(J1-Pin_19)*%
X136300000Y-100220000D03*
%TO.P,J1,20,Pin_20*%
%TO.N,Net-(J1-Pin_20)*%
X136300000Y-102760000D03*
%TD*%
%TO.P,R38,1*%
%TO.N,Net-(PX124-Pin_1)*%
X190000000Y-62000000D03*
%TO.P,R38,2*%
%TO.N,Net-(GND1-Pin_1)*%
X190000000Y-72160000D03*
%TD*%
D17*
%TO.P,GND3,1,Pin_1*%
%TO.N,Net-(GND1-Pin_1)*%
X164900000Y-38700000D03*
%TD*%
%TO.P,PX25,1,Pin_1*%
%TO.N,Net-(J3-Pin_3)*%
X164900000Y-186700000D03*
%TD*%
%TO.P,P32,1,Pin_1*%
%TO.N,Net-(J4-Pin_11)*%
X164900000Y-74700000D03*
%TD*%
D11*
%TO.P,R1,1*%
%TO.N,Net-(PX46-Pin_1)*%
X99420000Y-105800000D03*
%TO.P,R1,2*%
%TO.N,Net-(GND1-Pin_1)*%
X109580000Y-105800000D03*
%TD*%
D17*
%TO.P,PX38,1,Pin_1*%
%TO.N,Net-(J3-Pin_16)*%
X164900000Y-134700000D03*
%TD*%
D11*
%TO.P,R41,1*%
%TO.N,Net-(R41-Pad1)*%
X79500000Y-231767500D03*
%TO.P,R41,2*%
%TO.N,Net-(PX69-Pin_1)*%
X79500000Y-221607500D03*
%TD*%
D17*
%TO.P,PX5,1,Pin_1*%
%TO.N,Net-(J2-Pin_3)*%
X130600000Y-126700000D03*
%TD*%
%TO.P,P21,1,Pin_1*%
%TO.N,Net-(J4-Pin_3)*%
X164900000Y-106700000D03*
%TD*%
D11*
%TO.P,R36,1*%
%TO.N,Net-(PX122-Pin_1)*%
X218000000Y-62000000D03*
%TO.P,R36,2*%
%TO.N,Net-(GND1-Pin_1)*%
X218000000Y-72160000D03*
%TD*%
D19*
%TO.P,PS4,1,-Vin*%
%TO.N,Net-(GND1-Pin_1)*%
X190000000Y-131000000D03*
%TO.P,PS4,2,+Vin*%
%TO.N,Net-(5Vb1-Pin_1)*%
X190000000Y-133540000D03*
%TO.P,PS4,3,-Vout*%
%TO.N,Net-(J0_14-Pin_3)*%
X190000000Y-136080000D03*
%TO.P,PS4,4,+Vout*%
%TO.N,Net-(PS4-+Vout)*%
X190000000Y-138620000D03*
%TD*%
D11*
%TO.P,R26,1*%
%TO.N,Net-(U19-A)*%
X230000000Y-157000000D03*
%TO.P,R26,2*%
%TO.N,Net-(PX80-Pin_1)*%
X219840000Y-157000000D03*
%TD*%
D17*
%TO.P,P38,1,Pin_1*%
%TO.N,Net-(J4-Pin_15)*%
X164900000Y-58700000D03*
%TD*%
%TO.P,PX17,1,Pin_1*%
%TO.N,Net-(J2-Pin_15)*%
X130600000Y-174700000D03*
%TD*%
D14*
%TO.P,J0_20,1,Pin_1*%
%TO.N,Net-(J0_20-Pin_1)*%
X71500000Y-262767500D03*
%TO.P,J0_20,2,Pin_2*%
%TO.N,unconnected-(J0_20-Pin_2-Pad2)*%
X75000000Y-262767500D03*
%TO.P,J0_20,3,Pin_3*%
%TO.N,Net-(D9-A)*%
X78500000Y-262767500D03*
%TD*%
D17*
%TO.P,PX37,1,Pin_1*%
%TO.N,Net-(J3-Pin_15)*%
X164900000Y-138700000D03*
%TD*%
D12*
%TO.P,C6,1*%
%TO.N,Net-(J0_5-Pin_1)*%
X193000000Y-22677500D03*
%TO.P,C6,2*%
%TO.N,Net-(GND1-Pin_1)*%
X188000000Y-22677500D03*
%TD*%
D17*
%TO.P,PX51,1,Pin_1*%
%TO.N,Net-(PX51-Pin_1)*%
X115000000Y-161000000D03*
%TD*%
D21*
%TO.P,PX80,1,Pin_1*%
%TO.N,Net-(PX80-Pin_1)*%
X180760000Y-150000000D03*
%TD*%
D17*
%TO.P,P12,1,Pin_1*%
%TO.N,Net-(J4-Pin_5)*%
X164900000Y-98700000D03*
%TD*%
D26*
%TO.P,Q1,1,E*%
%TO.N,Net-(PX124-Pin_1)*%
X190000000Y-58000000D03*
%TO.P,Q1,2,B*%
%TO.N,Net-(Q1-B)*%
X188730000Y-56730000D03*
%TO.P,Q1,3,C*%
%TO.N,Net-(PS8-+Vout)*%
X190000000Y-55460000D03*
%TD*%
D17*
%TO.P,PX7,1,Pin_1*%
%TO.N,Net-(J2-Pin_5)*%
X130600000Y-134700000D03*
%TD*%
%TO.P,TX1,1,Pin_1*%
%TO.N,Net-(J1-Pin_6)*%
X130600000Y-58700000D03*
%TD*%
D18*
%TO.P,R29,1*%
%TO.N,Net-(J0_1-Pin_3)*%
X58000000Y-117000000D03*
%TO.P,R29,2*%
%TO.N,Net-(D2-A)*%
X73240000Y-117000000D03*
%TD*%
D11*
%TO.P,R5,1*%
%TO.N,Net-(PX50-Pin_1)*%
X99420000Y-149800000D03*
%TO.P,R5,2*%
%TO.N,Net-(GND1-Pin_1)*%
X109580000Y-149800000D03*
%TD*%
D18*
%TO.P,R42,1*%
%TO.N,Net-(D9-A)*%
X55500000Y-239767500D03*
%TO.P,R42,2*%
%TO.N,Net-(D9-K)*%
X55500000Y-224527500D03*
%TD*%
D12*
%TO.P,C1,1*%
%TO.N,Net-(3V3a1-Pin_1)*%
X141700000Y-24000000D03*
%TO.P,C1,2*%
%TO.N,Net-(GND1-Pin_1)*%
X136700000Y-24000000D03*
%TD*%
D17*
%TO.P,PX47,1,Pin_1*%
%TO.N,Net-(PX47-Pin_1)*%
X115000000Y-117000000D03*
%TD*%
D13*
%TO.P,H3,1*%
%TO.N,N/C*%
X254000000Y-268000000D03*
%TD*%
D18*
%TO.P,R47,1*%
%TO.N,Net-(D13-A)*%
X165500000Y-239767500D03*
%TO.P,R47,2*%
%TO.N,Net-(D13-K)*%
X165500000Y-224527500D03*
%TD*%
D17*
%TO.P,RX1,1,Pin_1*%
%TO.N,Net-(J1-Pin_5)*%
X130600000Y-54700000D03*
%TD*%
D12*
%TO.P,U18,1,NULL*%
%TO.N,unconnected-(U18-NULL-Pad1)*%
X188190000Y-99970000D03*
%TO.P,U18,2,-*%
%TO.N,Net-(U18--)*%
X190730000Y-99970000D03*
%TO.P,U18,3,+*%
%TO.N,Net-(PX119-Pin_1)*%
X193270000Y-99970000D03*
%TO.P,U18,4,V-*%
%TO.N,Net-(PS7--Vout)*%
X195810000Y-99970000D03*
%TO.P,U18,5,NULL*%
%TO.N,unconnected-(U18-NULL-Pad5)*%
X195810000Y-92030000D03*
%TO.P,U18,6*%
%TO.N,Net-(J0_13-Pin_1)*%
X193270000Y-92030000D03*
%TO.P,U18,7,V+*%
%TO.N,Net-(PS6-+Vout)*%
X190730000Y-92030000D03*
%TO.P,U18,8,NC*%
%TO.N,unconnected-(U18-NC-Pad8)*%
X188190000Y-92030000D03*
%TD*%
D11*
%TO.P,U5,1*%
%TO.N,Net-(D5-K)*%
X85795000Y-148325000D03*
%TO.P,U5,2*%
%TO.N,Net-(J0_1-Pin_1)*%
X85795000Y-150865000D03*
%TO.P,U5,3*%
%TO.N,Net-(PX50-Pin_1)*%
X93415000Y-150865000D03*
%TO.P,U5,4*%
%TO.N,Net-(R49-Pad2)*%
X93415000Y-148325000D03*
%TD*%
D17*
%TO.P,PX30,1,Pin_1*%
%TO.N,Net-(J3-Pin_8)*%
X164900000Y-166700000D03*
%TD*%
D11*
%TO.P,J4,1,Pin_1*%
%TO.N,Net-(J4-Pin_1)*%
X159160000Y-102840000D03*
%TO.P,J4,2,Pin_2*%
%TO.N,Net-(J4-Pin_2)*%
X159160000Y-100300000D03*
%TO.P,J4,3,Pin_3*%
%TO.N,Net-(J4-Pin_3)*%
X159160000Y-97760000D03*
%TO.P,J4,4,Pin_4*%
%TO.N,Net-(J4-Pin_4)*%
X159160000Y-95220000D03*
%TO.P,J4,5,Pin_5*%
%TO.N,Net-(J4-Pin_5)*%
X159160000Y-92680000D03*
%TO.P,J4,6,Pin_6*%
%TO.N,Net-(J4-Pin_6)*%
X159160000Y-90140000D03*
%TO.P,J4,7,Pin_7*%
%TO.N,Net-(J4-Pin_7)*%
X159160000Y-87600000D03*
%TO.P,J4,8,Pin_8*%
%TO.N,Net-(J4-Pin_8)*%
X159160000Y-85060000D03*
%TO.P,J4,9,Pin_9*%
%TO.N,Net-(J4-Pin_9)*%
X159160000Y-82520000D03*
%TO.P,J4,10,Pin_10*%
%TO.N,Net-(J4-Pin_10)*%
X159160000Y-79980000D03*
%TO.P,J4,11,Pin_11*%
%TO.N,Net-(J4-Pin_11)*%
X159160000Y-77440000D03*
%TO.P,J4,12,Pin_12*%
%TO.N,Net-(J4-Pin_12)*%
X159160000Y-74900000D03*
%TO.P,J4,13,Pin_13*%
%TO.N,Net-(J4-Pin_13)*%
X159160000Y-72360000D03*
%TO.P,J4,14,Pin_14*%
%TO.N,Net-(J4-Pin_14)*%
X159160000Y-69820000D03*
%TO.P,J4,15,Pin_15*%
%TO.N,Net-(J4-Pin_15)*%
X159160000Y-67280000D03*
%TO.P,J4,16,Pin_16*%
%TO.N,Net-(J4-Pin_16)*%
X159160000Y-64740000D03*
%TO.P,J4,17,Pin_17*%
%TO.N,Net-(J4-Pin_17)*%
X159160000Y-62200000D03*
%TO.P,J4,18,Pin_18*%
%TO.N,Net-(3V3b1-Pin_1)*%
X159160000Y-59660000D03*
%TO.P,J4,19,Pin_19*%
%TO.N,Net-(5Vb1-Pin_1)*%
X159160000Y-57120000D03*
%TO.P,J4,20,Pin_20*%
%TO.N,Net-(GND1-Pin_1)*%
X159160000Y-54580000D03*
%TD*%
D17*
%TO.P,PX32,1,Pin_1*%
%TO.N,Net-(J3-Pin_10)*%
X164900000Y-158700000D03*
%TD*%
D14*
%TO.P,J0_19,1,Pin_1*%
%TO.N,Net-(J0_19-Pin_1)*%
X56000000Y-262767500D03*
%TO.P,J0_19,2,Pin_2*%
%TO.N,Net-(J0_19-Pin_2)*%
X59500000Y-262767500D03*
%TO.P,J0_19,3,Pin_3*%
%TO.N,Net-(J0_19-Pin_3)*%
X63000000Y-262767500D03*
%TD*%
D11*
%TO.P,R23,1*%
%TO.N,Net-(U18--)*%
X204900000Y-113000000D03*
%TO.P,R23,2*%
%TO.N,Net-(GND1-Pin_1)*%
X204900000Y-123160000D03*
%TD*%
D17*
%TO.P,P13,1,Pin_1*%
%TO.N,Net-(J4-Pin_4)*%
X164900000Y-102700000D03*
%TD*%
D18*
%TO.P,R34,1*%
%TO.N,Net-(J0_3-Pin_2)*%
X58000000Y-172000000D03*
%TO.P,R34,2*%
%TO.N,Net-(D7-A)*%
X73240000Y-172000000D03*
%TD*%
D11*
%TO.P,U6,1*%
%TO.N,Net-(D6-K)*%
X85795000Y-159325000D03*
%TO.P,U6,2*%
%TO.N,Net-(J0_1-Pin_1)*%
X85795000Y-161865000D03*
%TO.P,U6,3*%
%TO.N,Net-(PX51-Pin_1)*%
X93415000Y-161865000D03*
%TO.P,U6,4*%
%TO.N,Net-(R49-Pad2)*%
X93415000Y-159325000D03*
%TD*%
D12*
%TO.P,C4,1*%
%TO.N,Net-(J0_5-Pin_3)*%
X221000000Y-22677500D03*
%TO.P,C4,2*%
%TO.N,Net-(GND1-Pin_1)*%
X216000000Y-22677500D03*
%TD*%
D14*
%TO.P,J0_6,1,Pin_1*%
%TO.N,Net-(J0_6-Pin_1)*%
X251900000Y-40600000D03*
%TO.P,J0_6,2,Pin_2*%
%TO.N,Net-(GND1-Pin_1)*%
X251900000Y-37100000D03*
%TO.P,J0_6,3,Pin_3*%
X251900000Y-33600000D03*
%TD*%
D21*
%TO.P,PX121,1,Pin_1*%
%TO.N,Net-(PX121-Pin_1)*%
X180760000Y-71050000D03*
%TD*%
D11*
%TO.P,D5,1,K*%
%TO.N,Net-(D5-K)*%
X80000000Y-149740000D03*
%TO.P,D5,2,A*%
%TO.N,Net-(D5-A)*%
X77460000Y-149740000D03*
%TD*%
D17*
%TO.P,PX8,1,Pin_1*%
%TO.N,Net-(J2-Pin_6)*%
X130600000Y-138700000D03*
%TD*%
%TO.P,PX6,1,Pin_1*%
%TO.N,Net-(J2-Pin_4)*%
X130600000Y-130700000D03*
%TD*%
%TO.P,PX16,1,Pin_1*%
%TO.N,Net-(J2-Pin_14)*%
X130600000Y-170700000D03*
%TD*%
D10*
%TO.P,PX55,1,Pin_1*%
%TO.N,Net-(PX55-Pin_1)*%
X227700000Y-212000000D03*
%TD*%
D17*
%TO.P,3V3b1,1,Pin_1*%
%TO.N,Net-(3V3b1-Pin_1)*%
X164900000Y-46700000D03*
%TD*%
D14*
%TO.P,J0_16,1,Pin_1*%
%TO.N,Net-(GND1-Pin_1)*%
X234100000Y-262700000D03*
%TO.P,J0_16,2,Pin_2*%
%TO.N,Net-(J0_16-Pin_2)*%
X237600000Y-262700000D03*
%TO.P,J0_16,3,Pin_3*%
%TO.N,Net-(J0_16-Pin_3)*%
X241100000Y-262700000D03*
%TD*%
D17*
%TO.P,PX10,1,Pin_1*%
%TO.N,Net-(J2-Pin_8)*%
X130600000Y-146700000D03*
%TD*%
%TO.P,PX21,1,Pin_1*%
%TO.N,Net-(J2-Pin_19)*%
X130600000Y-190700000D03*
%TD*%
%TO.P,PX13,1,Pin_1*%
%TO.N,Net-(J2-Pin_11)*%
X130600000Y-158700000D03*
%TD*%
D11*
%TO.P,D3,1,K*%
%TO.N,Net-(D3-K)*%
X80000000Y-127740000D03*
%TO.P,D3,2,A*%
%TO.N,Net-(D3-A)*%
X77460000Y-127740000D03*
%TD*%
D17*
%TO.P,PX43,1,Pin_1*%
%TO.N,Net-(J4-Pin_1)*%
X164900000Y-114700000D03*
%TD*%
D11*
%TO.P,R46,1*%
%TO.N,Net-(R46-Pad1)*%
X153500000Y-231767500D03*
%TO.P,R46,2*%
%TO.N,Net-(PX67-Pin_1)*%
X153500000Y-221607500D03*
%TD*%
D12*
%TO.P,C9,1*%
%TO.N,Net-(PX119-Pin_1)*%
X190000000Y-108000000D03*
%TO.P,C9,2*%
%TO.N,Net-(GND1-Pin_1)*%
X190000000Y-113000000D03*
%TD*%
D17*
%TO.P,PX11,1,Pin_1*%
%TO.N,Net-(J2-Pin_9)*%
X130600000Y-150700000D03*
%TD*%
%TO.P,P37,1,Pin_1*%
%TO.N,Net-(J4-Pin_16)*%
X164900000Y-54700000D03*
%TD*%
D18*
%TO.P,R30,1*%
%TO.N,Net-(J0_2-Pin_1)*%
X58000000Y-128000000D03*
%TO.P,R30,2*%
%TO.N,Net-(D3-A)*%
X73240000Y-128000000D03*
%TD*%
D14*
%TO.P,J0_8,1,Pin_1*%
%TO.N,Net-(J0_8-Pin_1)*%
X47000000Y-62300000D03*
%TO.P,J0_8,2,Pin_2*%
%TO.N,unconnected-(J0_8-Pin_2-Pad2)*%
X47000000Y-65800000D03*
%TO.P,J0_8,3,Pin_3*%
%TO.N,Net-(J0_8-Pin_3)*%
X47000000Y-69300000D03*
%TD*%
D17*
%TO.P,PX24,1,Pin_1*%
%TO.N,Net-(J3-Pin_2)*%
X164900000Y-190700000D03*
%TD*%
%TO.P,PX52,1,Pin_1*%
%TO.N,Net-(PX52-Pin_1)*%
X115000000Y-172000000D03*
%TD*%
%TO.P,PX44,1,Pin_1*%
%TO.N,Net-(J4-Pin_2)*%
X164900000Y-110700000D03*
%TD*%
%TO.P,RST1,1,Pin_1*%
%TO.N,Net-(J1-Pin_7)*%
X130600000Y-62700000D03*
%TD*%
D26*
%TO.P,Q3,1,E*%
%TO.N,Net-(PX122-Pin_1)*%
X218000000Y-58000000D03*
%TO.P,Q3,2,B*%
%TO.N,Net-(Q3-B)*%
X216730000Y-56730000D03*
%TO.P,Q3,3,C*%
%TO.N,Net-(PS8-+Vout)*%
X218000000Y-55460000D03*
%TD*%
D13*
%TO.P,H2,1*%
%TO.N,N/C*%
X254000000Y-21000000D03*
%TD*%
D17*
%TO.P,PX19,1,Pin_1*%
%TO.N,Net-(J2-Pin_17)*%
X130600000Y-182700000D03*
%TD*%
D14*
%TO.P,J0_7,1,Pin_1*%
%TO.N,Net-(J0_7-Pin_1)*%
X46800000Y-31600000D03*
%TO.P,J0_7,2,Pin_2*%
%TO.N,unconnected-(J0_7-Pin_2-Pad2)*%
X46800000Y-35100000D03*
%TO.P,J0_7,3,Pin_3*%
%TO.N,Net-(J0_7-Pin_3)*%
X46800000Y-38600000D03*
%TD*%
D17*
%TO.P,PX14,1,Pin_1*%
%TO.N,Net-(J2-Pin_12)*%
X130600000Y-162700000D03*
%TD*%
%TO.P,P39,1,Pin_1*%
%TO.N,Net-(J4-Pin_14)*%
X164900000Y-62700000D03*
%TD*%
D18*
%TO.P,R27,1*%
%TO.N,Net-(J0_3-Pin_3)*%
X58000000Y-183000000D03*
%TO.P,R27,2*%
%TO.N,Net-(D8-A)*%
X73240000Y-183000000D03*
%TD*%
D17*
%TO.P,P35,1,Pin_1*%
%TO.N,Net-(J4-Pin_12)*%
X164900000Y-70700000D03*
%TD*%
D11*
%TO.P,R44,1*%
%TO.N,Net-(R44-Pad1)*%
X116500000Y-231767500D03*
%TO.P,R44,2*%
%TO.N,Net-(PX63-Pin_1)*%
X116500000Y-221607500D03*
%TD*%
%TO.P,R18,1*%
%TO.N,Net-(PX57-Pin_1)*%
X106180000Y-31300000D03*
%TO.P,R18,2*%
%TO.N,Net-(R18-Pad2)*%
X96020000Y-31300000D03*
%TD*%
D18*
%TO.P,R9,1*%
%TO.N,Net-(J0_8-Pin_1)*%
X55900000Y-70900000D03*
%TO.P,R9,2*%
%TO.N,Net-(D10-Pad3)*%
X81300000Y-70900000D03*
%TD*%
%TO.P,K3,11*%
%TO.N,Net-(J0_23-Pin_3)*%
X134340000Y-249767500D03*
%TO.P,K3,12*%
%TO.N,Net-(J0_23-Pin_1)*%
X139380000Y-249767500D03*
%TO.P,K3,14*%
%TO.N,Net-(J0_23-Pin_2)*%
X129300000Y-249767500D03*
%TO.P,K3,A1*%
%TO.N,Net-(D12-K)*%
X154500000Y-249767500D03*
%TO.P,K3,A2*%
%TO.N,Net-(D12-A)*%
X150720000Y-249767500D03*
%TD*%
D11*
%TO.P,D1,1,K*%
%TO.N,Net-(D1-K)*%
X80000000Y-105740000D03*
%TO.P,D1,2,A*%
%TO.N,Net-(D1-A)*%
X77460000Y-105740000D03*
%TD*%
%TO.P,R17,1*%
%TO.N,Net-(Q4-B)*%
X232000000Y-52000000D03*
%TO.P,R17,2*%
%TO.N,Net-(U12--)*%
X232000000Y-41840000D03*
%TD*%
D17*
%TO.P,P2,1,Pin_1*%
%TO.N,Net-(J1-Pin_15)*%
X130600000Y-94700000D03*
%TD*%
D11*
%TO.P,U21,1*%
%TO.N,Net-(R44-Pad1)*%
X110500000Y-231767500D03*
%TO.P,U21,2*%
%TO.N,Net-(GND1-Pin_1)*%
X107960000Y-231767500D03*
%TO.P,U21,3*%
%TO.N,Net-(D11-K)*%
X107960000Y-239387500D03*
%TO.P,U21,4*%
%TO.N,Net-(J0_22-Pin_1)*%
X110500000Y-239387500D03*
%TD*%
D14*
%TO.P,J0_2,1,Pin_1*%
%TO.N,Net-(J0_2-Pin_1)*%
X47000000Y-141000000D03*
%TO.P,J0_2,2,Pin_2*%
%TO.N,Net-(J0_2-Pin_2)*%
X47000000Y-144500000D03*
%TO.P,J0_2,3,Pin_3*%
%TO.N,Net-(J0_2-Pin_3)*%
X47000000Y-148000000D03*
%TD*%
%TO.P,J0_24,1,Pin_1*%
%TO.N,Net-(J0_24-Pin_1)*%
X145500000Y-262767500D03*
%TO.P,J0_24,2,Pin_2*%
%TO.N,unconnected-(J0_24-Pin_2-Pad2)*%
X149000000Y-262767500D03*
%TO.P,J0_24,3,Pin_3*%
%TO.N,Net-(D12-A)*%
X152500000Y-262767500D03*
%TD*%
D12*
%TO.P,C2,1*%
%TO.N,Net-(3V3b1-Pin_1)*%
X153500000Y-24100000D03*
%TO.P,C2,2*%
%TO.N,Net-(GND1-Pin_1)*%
X158500000Y-24100000D03*
%TD*%
D17*
%TO.P,5Va1,1,Pin_1*%
%TO.N,Net-(5Va1-Pin_1)*%
X130600000Y-42700000D03*
%TD*%
D11*
%TO.P,R19,1*%
%TO.N,Net-(Q6-G)*%
X214000000Y-178000000D03*
%TO.P,R19,2*%
%TO.N,Net-(R19-Pad2)*%
X203840000Y-178000000D03*
%TD*%
%TO.P,R4,1*%
%TO.N,Net-(PX49-Pin_1)*%
X99420000Y-138800000D03*
%TO.P,R4,2*%
%TO.N,Net-(GND1-Pin_1)*%
X109580000Y-138800000D03*
%TD*%
%TO.P,R24,1*%
%TO.N,Net-(J0_13-Pin_1)*%
X204900000Y-95000000D03*
%TO.P,R24,2*%
%TO.N,Net-(U18--)*%
X204900000Y-105160000D03*
%TD*%
D17*
%TO.P,PX23,1,Pin_1*%
%TO.N,Net-(J3-Pin_1)*%
X164900000Y-194700000D03*
%TD*%
D21*
%TO.P,PX119,1,Pin_1*%
%TO.N,Net-(PX119-Pin_1)*%
X180760000Y-108000000D03*
%TD*%
D17*
%TO.P,P15,1,Pin_1*%
%TO.N,Net-(J1-Pin_14)*%
X130600000Y-90700000D03*
%TD*%
D10*
%TO.P,PX63,1,Pin_1*%
%TO.N,Net-(PX63-Pin_1)*%
X116500000Y-212000000D03*
%TD*%
D11*
%TO.P,RV1,1,1*%
%TO.N,Net-(GND1-Pin_1)*%
X96840000Y-195840000D03*
%TO.P,RV1,2,2*%
%TO.N,Net-(PX59-Pin_1)*%
X94300000Y-193300000D03*
%TO.P,RV1,3,3*%
%TO.N,Net-(3V3a1-Pin_1)*%
X96840000Y-190760000D03*
%TD*%
%TO.P,U7,1*%
%TO.N,Net-(D7-K)*%
X85795000Y-170325000D03*
%TO.P,U7,2*%
%TO.N,Net-(J0_1-Pin_1)*%
X85795000Y-172865000D03*
%TO.P,U7,3*%
%TO.N,Net-(PX52-Pin_1)*%
X93415000Y-172865000D03*
%TO.P,U7,4*%
%TO.N,Net-(R49-Pad2)*%
X93415000Y-170325000D03*
%TD*%
D17*
%TO.P,P27,1,Pin_1*%
%TO.N,Net-(J4-Pin_7)*%
X164900000Y-90700000D03*
%TD*%
D11*
%TO.P,U3,1*%
%TO.N,Net-(D3-K)*%
X85795000Y-126325000D03*
%TO.P,U3,2*%
%TO.N,Net-(J0_1-Pin_1)*%
X85795000Y-128865000D03*
%TO.P,U3,3*%
%TO.N,Net-(PX48-Pin_1)*%
X93415000Y-128865000D03*
%TO.P,U3,4*%
%TO.N,Net-(R49-Pad2)*%
X93415000Y-126325000D03*
%TD*%
D17*
%TO.P,PX40,1,Pin_1*%
%TO.N,Net-(J3-Pin_18)*%
X164900000Y-126700000D03*
%TD*%
%TO.P,PX9,1,Pin_1*%
%TO.N,Net-(J2-Pin_7)*%
X130600000Y-142700000D03*
%TD*%
D21*
%TO.P,PX118,1,Pin_1*%
%TO.N,Net-(PX118-Pin_1)*%
X180760000Y-113000000D03*
%TD*%
D11*
%TO.P,U16,1*%
%TO.N,Net-(R41-Pad1)*%
X73500000Y-231767500D03*
%TO.P,U16,2*%
%TO.N,Net-(GND1-Pin_1)*%
X70960000Y-231767500D03*
%TO.P,U16,3*%
%TO.N,Net-(D9-K)*%
X70960000Y-239387500D03*
%TO.P,U16,4*%
%TO.N,Net-(J0_20-Pin_1)*%
X73500000Y-239387500D03*
%TD*%
D17*
%TO.P,P36,1,Pin_1*%
%TO.N,Net-(J4-Pin_17)*%
X164900000Y-50700000D03*
%TD*%
D12*
%TO.P,C10,1*%
%TO.N,Net-(GND1-Pin_1)*%
X210300000Y-242900000D03*
%TO.P,C10,2*%
%TO.N,Net-(J0_16-Pin_3)*%
X215300000Y-242900000D03*
%TD*%
D11*
%TO.P,R37,1*%
%TO.N,Net-(PX123-Pin_1)*%
X204000000Y-62000000D03*
%TO.P,R37,2*%
%TO.N,Net-(GND1-Pin_1)*%
X204000000Y-72160000D03*
%TD*%
%TO.P,R3,1*%
%TO.N,Net-(PX48-Pin_1)*%
X99420000Y-127800000D03*
%TO.P,R3,2*%
%TO.N,Net-(GND1-Pin_1)*%
X109580000Y-127800000D03*
%TD*%
D21*
%TO.P,PX66,1,Pin_1*%
%TO.N,Net-(PX66-Pin_1)*%
X180760000Y-188000000D03*
%TD*%
D17*
%TO.P,PX4,1,Pin_1*%
%TO.N,Net-(J2-Pin_2)*%
X130600000Y-122700000D03*
%TD*%
%TO.P,PX35,1,Pin_1*%
%TO.N,Net-(J3-Pin_13)*%
X164900000Y-146700000D03*
%TD*%
D10*
%TO.P,PX111,1,Pin_1*%
%TO.N,Net-(PX111-Pin_1)*%
X232450000Y-212000000D03*
%TD*%
D20*
%TO.P,PS8,1,-Vin*%
%TO.N,Net-(GND1-Pin_1)*%
X187000000Y-84000000D03*
%TO.P,PS8,2,+Vin*%
%TO.N,Net-(3V3b1-Pin_1)*%
X189540000Y-84000000D03*
%TO.P,PS8,3,-Vout*%
%TO.N,Net-(GND1-Pin_1)*%
X192080000Y-84000000D03*
%TO.P,PS8,4,+Vout*%
%TO.N,Net-(PS8-+Vout)*%
X194620000Y-84000000D03*
%TD*%
D12*
%TO.P,U17,1,NULL*%
%TO.N,unconnected-(U17-NULL-Pad1)*%
X218190000Y-99970000D03*
%TO.P,U17,2,-*%
%TO.N,Net-(U17--)*%
X220730000Y-99970000D03*
%TO.P,U17,3,+*%
%TO.N,Net-(PX118-Pin_1)*%
X223270000Y-99970000D03*
%TO.P,U17,4,V-*%
%TO.N,Net-(PS7--Vout)*%
X225810000Y-99970000D03*
%TO.P,U17,5,NULL*%
%TO.N,unconnected-(U17-NULL-Pad5)*%
X225810000Y-92030000D03*
%TO.P,U17,6*%
%TO.N,Net-(J0_13-Pin_3)*%
X223270000Y-92030000D03*
%TO.P,U17,7,V+*%
%TO.N,Net-(PS6-+Vout)*%
X220730000Y-92030000D03*
%TO.P,U17,8,NC*%
%TO.N,unconnected-(U17-NC-Pad8)*%
X218190000Y-92030000D03*
%TD*%
D17*
%TO.P,P14,1,Pin_1*%
%TO.N,Net-(J4-Pin_6)*%
X164900000Y-94700000D03*
%TD*%
D19*
%TO.P,PS3,1,-Vin*%
%TO.N,Net-(GND1-Pin_1)*%
X190000000Y-149000000D03*
%TO.P,PS3,2,+Vin*%
%TO.N,Net-(5Vb1-Pin_1)*%
X190000000Y-151540000D03*
%TO.P,PS3,3,-Vout*%
%TO.N,Net-(PS3--Vout)*%
X190000000Y-154080000D03*
%TO.P,PS3,4,+Vout*%
%TO.N,Net-(J0_14-Pin_3)*%
X190000000Y-156620000D03*
%TD*%
D18*
%TO.P,D11,1,K*%
%TO.N,Net-(D11-K)*%
X100500000Y-228767500D03*
%TO.P,D11,2,A*%
%TO.N,Net-(D11-A)*%
X100500000Y-238927500D03*
%TD*%
D21*
%TO.P,PX59,1,Pin_1*%
%TO.N,Net-(PX59-Pin_1)*%
X115000000Y-193800000D03*
%TD*%
D17*
%TO.P,PX36,1,Pin_1*%
%TO.N,Net-(J3-Pin_14)*%
X164900000Y-142700000D03*
%TD*%
%TO.P,PX57,1,Pin_1*%
%TO.N,Net-(PX57-Pin_1)*%
X115000000Y-39200000D03*
%TD*%
%TO.P,PX53,1,Pin_1*%
%TO.N,Net-(PX53-Pin_1)*%
X115000000Y-183000000D03*
%TD*%
D21*
%TO.P,PX122,1,Pin_1*%
%TO.N,Net-(PX122-Pin_1)*%
X180760000Y-66400000D03*
%TD*%
D17*
%TO.P,PX42,1,Pin_1*%
%TO.N,Net-(J3-Pin_20)*%
X164900000Y-118700000D03*
%TD*%
D18*
%TO.P,R32,1*%
%TO.N,Net-(J0_2-Pin_3)*%
X58000000Y-150000000D03*
%TO.P,R32,2*%
%TO.N,Net-(D5-A)*%
X73240000Y-150000000D03*
%TD*%
D10*
%TO.P,PX112,1,Pin_1*%
%TO.N,Net-(PX112-Pin_1)*%
X210700000Y-212000000D03*
%TD*%
D17*
%TO.P,P16,1,Pin_1*%
%TO.N,Net-(J1-Pin_18)*%
X130600000Y-106700000D03*
%TD*%
D20*
%TO.P,PS7,1,-Vin*%
%TO.N,Net-(GND1-Pin_1)*%
X208000000Y-84000000D03*
%TO.P,PS7,2,+Vin*%
%TO.N,Net-(5Vb1-Pin_1)*%
X210540000Y-84000000D03*
%TO.P,PS7,3,-Vout*%
%TO.N,Net-(PS7--Vout)*%
X213080000Y-84000000D03*
%TO.P,PS7,4,+Vout*%
%TO.N,Net-(GND1-Pin_1)*%
X215620000Y-84000000D03*
%TD*%
D11*
%TO.P,D4,1,K*%
%TO.N,Net-(D4-K)*%
X80000000Y-138740000D03*
%TO.P,D4,2,A*%
%TO.N,Net-(D4-A)*%
X77460000Y-138740000D03*
%TD*%
D17*
%TO.P,PX1,1,Pin_1*%
%TO.N,Net-(J1-Pin_19)*%
X130600000Y-110700000D03*
%TD*%
D11*
%TO.P,U2,1*%
%TO.N,Net-(D2-K)*%
X85795000Y-115325000D03*
%TO.P,U2,2*%
%TO.N,Net-(J0_1-Pin_1)*%
X85795000Y-117865000D03*
%TO.P,U2,3*%
%TO.N,Net-(PX47-Pin_1)*%
X93415000Y-117865000D03*
%TO.P,U2,4*%
%TO.N,Net-(R49-Pad2)*%
X93415000Y-115325000D03*
%TD*%
D22*
%TO.P,Q6,1,G*%
%TO.N,Net-(Q6-G)*%
X222000000Y-182000000D03*
D23*
%TO.P,Q6,2,C*%
%TO.N,Net-(J0_18-Pin_1)*%
X222000000Y-176550000D03*
%TO.P,Q6,3,E*%
%TO.N,Net-(J0_18-Pin_3)*%
X222000000Y-171100000D03*
%TD*%
D17*
%TO.P,PX2,1,Pin_1*%
%TO.N,Net-(J1-Pin_20)*%
X130600000Y-114700000D03*
%TD*%
D11*
%TO.P,R8,1*%
%TO.N,Net-(PX53-Pin_1)*%
X99420000Y-182800000D03*
%TO.P,R8,2*%
%TO.N,Net-(GND1-Pin_1)*%
X109580000Y-182800000D03*
%TD*%
%TO.P,R48,1*%
%TO.N,Net-(R48-Pad1)*%
X189500000Y-231767500D03*
%TO.P,R48,2*%
%TO.N,Net-(PX72-Pin_1)*%
X189500000Y-221607500D03*
%TD*%
D19*
%TO.P,PS2,1,-Vin*%
%TO.N,Net-(GND1-Pin_1)*%
X190000000Y-187000000D03*
%TO.P,PS2,2,+Vin*%
%TO.N,Net-(5Vb1-Pin_1)*%
X190000000Y-189540000D03*
%TO.P,PS2,3,-Vout*%
%TO.N,Net-(PS2--Vout)*%
X190000000Y-192080000D03*
%TO.P,PS2,4,+Vout*%
%TO.N,Net-(J0_18-Pin_3)*%
X190000000Y-194620000D03*
%TD*%
D17*
%TO.P,PX34,1,Pin_1*%
%TO.N,Net-(J3-Pin_12)*%
X164900000Y-150700000D03*
%TD*%
D12*
%TO.P,C5,1*%
%TO.N,Net-(J0_5-Pin_2)*%
X207000000Y-22600000D03*
%TO.P,C5,2*%
%TO.N,Net-(GND1-Pin_1)*%
X202000000Y-22600000D03*
%TD*%
D17*
%TO.P,PX22,1,Pin_1*%
%TO.N,Net-(J2-Pin_20)*%
X130600000Y-194700000D03*
%TD*%
D11*
%TO.P,R6,1*%
%TO.N,Net-(PX51-Pin_1)*%
X99420000Y-160800000D03*
%TO.P,R6,2*%
%TO.N,Net-(GND1-Pin_1)*%
X109580000Y-160800000D03*
%TD*%
%TO.P,R20,1*%
%TO.N,Net-(U15-A)*%
X230000000Y-195000000D03*
%TO.P,R20,2*%
%TO.N,Net-(PX66-Pin_1)*%
X219840000Y-195000000D03*
%TD*%
%TO.P,R14,1*%
%TO.N,Net-(Q1-B)*%
X190000000Y-52000000D03*
%TO.P,R14,2*%
%TO.N,Net-(U9--)*%
X190000000Y-41840000D03*
%TD*%
D17*
%TO.P,PX20,1,Pin_1*%
%TO.N,Net-(J2-Pin_18)*%
X130600000Y-186700000D03*
%TD*%
%TO.P,5Vb1,1,Pin_1*%
%TO.N,Net-(5Vb1-Pin_1)*%
X164900000Y-42700000D03*
%TD*%
D14*
%TO.P,J0_23,1,Pin_1*%
%TO.N,Net-(J0_23-Pin_1)*%
X130000000Y-262767500D03*
%TO.P,J0_23,2,Pin_2*%
%TO.N,Net-(J0_23-Pin_2)*%
X133500000Y-262767500D03*
%TO.P,J0_23,3,Pin_3*%
%TO.N,Net-(J0_23-Pin_3)*%
X137000000Y-262767500D03*
%TD*%
D17*
%TO.P,P23,1,Pin_1*%
%TO.N,Net-(J1-Pin_11)*%
X130600000Y-78700000D03*
%TD*%
D12*
%TO.P,U15,1,NC*%
%TO.N,unconnected-(U15-NC-Pad1)*%
X204500000Y-197000000D03*
%TO.P,U15,2,A*%
%TO.N,Net-(U15-A)*%
X207040000Y-197000000D03*
%TO.P,U15,3,C*%
%TO.N,Net-(GND1-Pin_1)*%
X209580000Y-197000000D03*
%TO.P,U15,4,NC*%
%TO.N,unconnected-(U15-NC-Pad4)*%
X212120000Y-197000000D03*
%TO.P,U15,5,VEE*%
%TO.N,Net-(PS2--Vout)*%
X212120000Y-189380000D03*
%TO.P,U15,6,VO*%
%TO.N,unconnected-(U15-VO-Pad6)*%
X209580000Y-189380000D03*
%TO.P,U15,7,VO*%
%TO.N,Net-(R19-Pad2)*%
X207040000Y-189380000D03*
%TO.P,U15,8,VCC*%
%TO.N,Net-(PS1-+Vout)*%
X204500000Y-189380000D03*
%TD*%
D13*
%TO.P,H5,1*%
%TO.N,N/C*%
X147800000Y-117000000D03*
%TD*%
D17*
%TO.P,PX54,1,Pin_1*%
%TO.N,Net-(PX54-Pin_1)*%
X115000000Y-71125000D03*
%TD*%
D14*
%TO.P,J0_10,1,Pin_1*%
%TO.N,Net-(J0_10-Pin_1)*%
X218100000Y-262700000D03*
%TO.P,J0_10,2,Pin_2*%
%TO.N,unconnected-(J0_10-Pin_2-Pad2)*%
X221600000Y-262700000D03*
%TO.P,J0_10,3,Pin_3*%
%TO.N,Net-(J0_10-Pin_3)*%
X225100000Y-262700000D03*
%TD*%
%TO.P,J0_26,1,Pin_1*%
%TO.N,Net-(J0_26-Pin_1)*%
X181500000Y-262767500D03*
%TO.P,J0_26,2,Pin_2*%
%TO.N,unconnected-(J0_26-Pin_2-Pad2)*%
X185000000Y-262767500D03*
%TO.P,J0_26,3,Pin_3*%
%TO.N,Net-(D13-A)*%
X188500000Y-262767500D03*
%TD*%
D17*
%TO.P,P19,1,Pin_1*%
%TO.N,Net-(J1-Pin_10)*%
X130600000Y-74700000D03*
%TD*%
%TO.P,PX41,1,Pin_1*%
%TO.N,Net-(J3-Pin_19)*%
X164900000Y-122700000D03*
%TD*%
%TO.P,P33,1,Pin_1*%
%TO.N,Net-(J4-Pin_10)*%
X164900000Y-78700000D03*
%TD*%
D11*
%TO.P,U23,1*%
%TO.N,Net-(R48-Pad1)*%
X183500000Y-231767500D03*
%TO.P,U23,2*%
%TO.N,Net-(GND1-Pin_1)*%
X180960000Y-231767500D03*
%TO.P,U23,3*%
%TO.N,Net-(D13-K)*%
X180960000Y-239387500D03*
%TO.P,U23,4*%
%TO.N,Net-(J0_26-Pin_1)*%
X183500000Y-239387500D03*
%TD*%
D18*
%TO.P,K4,11*%
%TO.N,Net-(J0_25-Pin_3)*%
X170340000Y-249767500D03*
%TO.P,K4,12*%
%TO.N,Net-(J0_25-Pin_1)*%
X175380000Y-249767500D03*
%TO.P,K4,14*%
%TO.N,Net-(J0_25-Pin_2)*%
X165300000Y-249767500D03*
%TO.P,K4,A1*%
%TO.N,Net-(D13-K)*%
X190500000Y-249767500D03*
%TO.P,K4,A2*%
%TO.N,Net-(D13-A)*%
X186720000Y-249767500D03*
%TD*%
D17*
%TO.P,PX18,1,Pin_1*%
%TO.N,Net-(J2-Pin_16)*%
X130600000Y-178700000D03*
%TD*%
D14*
%TO.P,J0_9,1,Pin_1*%
%TO.N,Net-(J0_9-Pin_1)*%
X202100000Y-262700000D03*
%TO.P,J0_9,2,Pin_2*%
%TO.N,unconnected-(J0_9-Pin_2-Pad2)*%
X205600000Y-262700000D03*
%TO.P,J0_9,3,Pin_3*%
%TO.N,Net-(J0_9-Pin_3)*%
X209100000Y-262700000D03*
%TD*%
D11*
%TO.P,R21,1*%
%TO.N,Net-(U17--)*%
X235000000Y-113000000D03*
%TO.P,R21,2*%
%TO.N,Net-(GND1-Pin_1)*%
X235000000Y-123160000D03*
%TD*%
D18*
%TO.P,K2,11*%
%TO.N,Net-(J0_21-Pin_3)*%
X97340000Y-249767500D03*
%TO.P,K2,12*%
%TO.N,Net-(J0_21-Pin_1)*%
X102380000Y-249767500D03*
%TO.P,K2,14*%
%TO.N,Net-(J0_21-Pin_2)*%
X92300000Y-249767500D03*
%TO.P,K2,A1*%
%TO.N,Net-(D11-K)*%
X117500000Y-249767500D03*
%TO.P,K2,A2*%
%TO.N,Net-(D11-A)*%
X113720000Y-249767500D03*
%TD*%
D26*
%TO.P,Q2,1,E*%
%TO.N,Net-(PX123-Pin_1)*%
X204000000Y-58000000D03*
%TO.P,Q2,2,B*%
%TO.N,Net-(Q2-B)*%
X202730000Y-56730000D03*
%TO.P,Q2,3,C*%
%TO.N,Net-(PS8-+Vout)*%
X204000000Y-55460000D03*
%TD*%
D11*
%TO.P,R25,1*%
%TO.N,Net-(Q7-G)*%
X214000000Y-140000000D03*
%TO.P,R25,2*%
%TO.N,Net-(R25-Pad2)*%
X203840000Y-140000000D03*
%TD*%
D14*
%TO.P,J0_14,1,Pin_1*%
%TO.N,Net-(J0_14-Pin_1)*%
X252000000Y-144000000D03*
%TO.P,J0_14,2,Pin_2*%
%TO.N,unconnected-(J0_14-Pin_2-Pad2)*%
X252000000Y-140500000D03*
%TO.P,J0_14,3,Pin_3*%
%TO.N,Net-(J0_14-Pin_3)*%
X252000000Y-137000000D03*
%TD*%
D17*
%TO.P,GND2,1,Pin_1*%
%TO.N,Net-(GND2-Pin_1)*%
X130600000Y-50700000D03*
%TD*%
D11*
%TO.P,R2,1*%
%TO.N,Net-(PX47-Pin_1)*%
X99420000Y-116800000D03*
%TO.P,R2,2*%
%TO.N,Net-(GND1-Pin_1)*%
X109580000Y-116800000D03*
%TD*%
D14*
%TO.P,J0_18,1,Pin_1*%
%TO.N,Net-(J0_18-Pin_1)*%
X252000000Y-182000000D03*
%TO.P,J0_18,2,Pin_2*%
%TO.N,unconnected-(J0_18-Pin_2-Pad2)*%
X252000000Y-178500000D03*
%TO.P,J0_18,3,Pin_3*%
%TO.N,Net-(J0_18-Pin_3)*%
X252000000Y-175000000D03*
%TD*%
D21*
%TO.P,PX123,1,Pin_1*%
%TO.N,Net-(PX123-Pin_1)*%
X180760000Y-61750000D03*
%TD*%
D10*
%TO.P,PX113,1,Pin_1*%
%TO.N,Net-(PX113-Pin_1)*%
X215350000Y-212000000D03*
%TD*%
D14*
%TO.P,J0_22,1,Pin_1*%
%TO.N,Net-(J0_22-Pin_1)*%
X108500000Y-262767500D03*
%TO.P,J0_22,2,Pin_2*%
%TO.N,unconnected-(J0_22-Pin_2-Pad2)*%
X112000000Y-262767500D03*
%TO.P,J0_22,3,Pin_3*%
%TO.N,Net-(D11-A)*%
X115500000Y-262767500D03*
%TD*%
D17*
%TO.P,GND1,1,Pin_1*%
%TO.N,Net-(GND1-Pin_1)*%
X130600000Y-38700000D03*
%TD*%
D11*
%TO.P,U13,1*%
%TO.N,Net-(R18-Pad2)*%
X89000000Y-32180000D03*
%TO.P,U13,2*%
%TO.N,Net-(GND1-Pin_1)*%
X89000000Y-29640000D03*
%TO.P,U13,3,NC*%
%TO.N,unconnected-(U13-NC-Pad3)*%
X89000000Y-27100000D03*
%TO.P,U13,4*%
%TO.N,Net-(Q5-G)*%
X81380000Y-27100000D03*
%TO.P,U13,5,NC*%
%TO.N,unconnected-(U13-NC-Pad5)*%
X81380000Y-29640000D03*
%TO.P,U13,6*%
%TO.N,Net-(R13-Pad1)*%
X81380000Y-32180000D03*
%TD*%
D18*
%TO.P,D13,1,K*%
%TO.N,Net-(D13-K)*%
X173500000Y-228767500D03*
%TO.P,D13,2,A*%
%TO.N,Net-(D13-A)*%
X173500000Y-238927500D03*
%TD*%
%TO.P,K1,11*%
%TO.N,Net-(J0_19-Pin_3)*%
X60340000Y-249767500D03*
%TO.P,K1,12*%
%TO.N,Net-(J0_19-Pin_1)*%
X65380000Y-249767500D03*
%TO.P,K1,14*%
%TO.N,Net-(J0_19-Pin_2)*%
X55300000Y-249767500D03*
%TO.P,K1,A1*%
%TO.N,Net-(D9-K)*%
X80500000Y-249767500D03*
%TO.P,K1,A2*%
%TO.N,Net-(D9-A)*%
X76720000Y-249767500D03*
%TD*%
D26*
%TO.P,Q4,1,E*%
%TO.N,Net-(PX121-Pin_1)*%
X232000000Y-58000000D03*
%TO.P,Q4,2,B*%
%TO.N,Net-(Q4-B)*%
X230730000Y-56730000D03*
%TO.P,Q4,3,C*%
%TO.N,Net-(PS8-+Vout)*%
X232000000Y-55460000D03*
%TD*%
D17*
%TO.P,P25,1,Pin_1*%
%TO.N,Net-(J4-Pin_9)*%
X164900000Y-82700000D03*
%TD*%
%TO.P,PX31,1,Pin_1*%
%TO.N,Net-(J3-Pin_9)*%
X164900000Y-162700000D03*
%TD*%
D19*
%TO.P,PS5,1,-Vin*%
%TO.N,Net-(GND1-Pin_1)*%
X98242500Y-88027500D03*
%TO.P,PS5,2,+Vin*%
%TO.N,Net-(3V3a1-Pin_1)*%
X98242500Y-90567500D03*
%TO.P,PS5,3,-Vout*%
%TO.N,Net-(GND1-Pin_1)*%
X98242500Y-93107500D03*
%TO.P,PS5,4,+Vout*%
%TO.N,Net-(PS5-+Vout)*%
X98242500Y-95647500D03*
%TD*%
D12*
%TO.P,C11,1*%
%TO.N,Net-(GND1-Pin_1)*%
X210300000Y-234800000D03*
%TO.P,C11,2*%
%TO.N,Net-(J0_16-Pin_2)*%
X215300000Y-234800000D03*
%TD*%
D11*
%TO.P,R35,1*%
%TO.N,Net-(PX121-Pin_1)*%
X232000000Y-62000000D03*
%TO.P,R35,2*%
%TO.N,Net-(GND1-Pin_1)*%
X232000000Y-72160000D03*
%TD*%
D17*
%TO.P,PX15,1,Pin_1*%
%TO.N,Net-(J2-Pin_13)*%
X130600000Y-166700000D03*
%TD*%
D18*
%TO.P,D9,1,K*%
%TO.N,Net-(D9-K)*%
X63500000Y-228767500D03*
%TO.P,D9,2,A*%
%TO.N,Net-(D9-A)*%
X63500000Y-238927500D03*
%TD*%
D17*
%TO.P,P4,1,Pin_1*%
%TO.N,Net-(J1-Pin_16)*%
X130600000Y-98700000D03*
%TD*%
D12*
%TO.P,U10,1,NULL*%
%TO.N,unconnected-(U10-NULL-Pad1)*%
X201190000Y-37970000D03*
%TO.P,U10,2,-*%
%TO.N,Net-(U10--)*%
X203730000Y-37970000D03*
%TO.P,U10,3,+*%
%TO.N,Net-(J0_5-Pin_2)*%
X206270000Y-37970000D03*
%TO.P,U10,4,V-*%
%TO.N,Net-(PS7--Vout)*%
X208810000Y-37970000D03*
%TO.P,U10,5,NULL*%
%TO.N,unconnected-(U10-NULL-Pad5)*%
X208810000Y-30030000D03*
%TO.P,U10,6*%
%TO.N,Net-(U10--)*%
X206270000Y-30030000D03*
%TO.P,U10,7,V+*%
%TO.N,Net-(PS6-+Vout)*%
X203730000Y-30030000D03*
%TO.P,U10,8,NC*%
%TO.N,unconnected-(U10-NC-Pad8)*%
X201190000Y-30030000D03*
%TD*%
D14*
%TO.P,J0_21,1,Pin_1*%
%TO.N,Net-(J0_21-Pin_1)*%
X93000000Y-262767500D03*
%TO.P,J0_21,2,Pin_2*%
%TO.N,Net-(J0_21-Pin_2)*%
X96500000Y-262767500D03*
%TO.P,J0_21,3,Pin_3*%
%TO.N,Net-(J0_21-Pin_3)*%
X100000000Y-262767500D03*
%TD*%
D17*
%TO.P,PX46,1,Pin_1*%
%TO.N,Net-(PX46-Pin_1)*%
X115000000Y-106000000D03*
%TD*%
D11*
%TO.P,U22,1*%
%TO.N,Net-(R46-Pad1)*%
X147500000Y-231767500D03*
%TO.P,U22,2*%
%TO.N,Net-(GND1-Pin_1)*%
X144960000Y-231767500D03*
%TO.P,U22,3*%
%TO.N,Net-(D12-K)*%
X144960000Y-239387500D03*
%TO.P,U22,4*%
%TO.N,Net-(J0_24-Pin_1)*%
X147500000Y-239387500D03*
%TD*%
D13*
%TO.P,H1,1*%
%TO.N,N/C*%
X44500000Y-21000000D03*
%TD*%
D27*
%TO.N,Net-(J0_21-Pin_2)*%
X89722000Y-254506000D03*
%TO.N,Net-(PX45-Pin_1)*%
X246840000Y-216727000D03*
%TO.N,Net-(PX113-Pin_1)*%
X222692000Y-246422000D03*
%TO.N,Net-(PX112-Pin_1)*%
X217001000Y-255906000D03*
%TO.N,Net-(J0_10-Pin_1)*%
X217158000Y-243781000D03*
%TO.N,Net-(J0_9-Pin_1)*%
X234549000Y-252898000D03*
%TO.N,Net-(J0_16-Pin_2)*%
X221990000Y-240358000D03*
%TO.N,Net-(J0_16-Pin_3)*%
X225198000Y-250935000D03*
%TO.N,Net-(GND1-Pin_1)*%
X196966000Y-158532000D03*
X212854000Y-262504000D03*
X232396000Y-235841000D03*
%TO.N,Net-(3V3a1-Pin_1)*%
X102252000Y-90503100D03*
%TD*%
D28*
%TO.N,Net-(PX46-Pin_1)*%
X98355000Y-106865000D02*
X99420000Y-105800000D01*
X93415000Y-106865000D02*
X98355000Y-106865000D01*
X113555000Y-107445000D02*
X115000000Y-106000000D01*
X101065000Y-107445000D02*
X113555000Y-107445000D01*
X99420000Y-105800000D02*
X101065000Y-107445000D01*
%TO.N,Net-(PS5-+Vout)*%
X94732500Y-97522500D02*
X89945000Y-92735000D01*
X98242500Y-97522500D02*
X94732500Y-97522500D01*
X98242500Y-95647500D02*
X98242500Y-97522500D01*
%TO.N,Net-(R41-Pad1)*%
X76500000Y-231768000D02*
X78000000Y-231768000D01*
X79499500Y-231768000D02*
X79500000Y-231768000D01*
X78750000Y-231768000D02*
X79499500Y-231768000D01*
X78000000Y-231768000D02*
X78750000Y-231768000D01*
X78000000Y-231768000D02*
X78750000Y-231768000D01*
%TO.N,Net-(PX69-Pin_1)*%
X79500000Y-212000000D02*
X79500000Y-221608000D01*
%TO.N,Net-(D13-A)*%
X169920000Y-238928000D02*
X173500000Y-238928000D01*
X185530000Y-249768000D02*
X186720000Y-249768000D01*
X186125000Y-249768000D02*
X186720000Y-249768000D01*
X185530000Y-249768000D02*
X186720000Y-249768000D01*
X169920000Y-238928000D02*
X173500000Y-238928000D01*
X187826000Y-262093000D02*
X187825000Y-262093000D01*
X188350000Y-262618000D02*
X187826000Y-262093000D01*
X186720000Y-260988000D02*
X187825000Y-262093000D01*
X186720000Y-249768000D02*
X186720000Y-260988000D01*
X184340000Y-249768000D02*
X185530000Y-249768000D01*
X173500000Y-238928000D02*
X184340000Y-249768000D01*
X187825000Y-262093000D02*
X188350000Y-262618000D01*
X188426000Y-262693000D02*
X188500000Y-262768000D01*
X188425000Y-262693000D02*
X188426000Y-262693000D01*
X188500000Y-262768000D02*
X188350000Y-262618000D01*
X166340000Y-238928000D02*
X169920000Y-238928000D01*
X165500000Y-239768000D02*
X166340000Y-238928000D01*
%TO.N,Net-(D13-K)*%
X178650000Y-237078000D02*
X180620000Y-239048000D01*
X178650000Y-237078000D02*
X180620000Y-239048000D01*
X171620000Y-228768000D02*
X173500000Y-228768000D01*
X171620000Y-228768000D02*
X173500000Y-228768000D01*
X173500000Y-231928000D02*
X178650000Y-237078000D01*
X173500000Y-228768000D02*
X173500000Y-231928000D01*
X169740000Y-228768000D02*
X171620000Y-228768000D01*
X165500000Y-224528000D02*
X169740000Y-228768000D01*
X190500000Y-247768000D02*
X190500000Y-249768000D01*
X189340000Y-247768000D02*
X190500000Y-247768000D01*
X180960000Y-239388000D02*
X189340000Y-247768000D01*
X180620000Y-239048000D02*
X180960000Y-239388000D01*
X180620000Y-239048000D02*
X180960000Y-239388000D01*
X180621000Y-239048000D02*
X180620000Y-239048000D01*
X180960000Y-239388000D02*
X180621000Y-239048000D01*
%TO.N,Net-(J0_19-Pin_3)*%
X60340000Y-260108000D02*
X60340000Y-249768000D01*
X62999600Y-262768000D02*
X60340000Y-260108000D01*
X63000000Y-262768000D02*
X62999600Y-262768000D01*
%TO.N,Net-(J0_19-Pin_2)*%
X59500000Y-262768000D02*
X58825000Y-262093000D01*
X58825500Y-262093000D02*
X59162800Y-262430000D01*
X58825000Y-262093000D02*
X58825500Y-262093000D01*
X55300000Y-258568000D02*
X58825000Y-262093000D01*
X55300000Y-249768000D02*
X55300000Y-258568000D01*
X59162800Y-262430000D02*
X59500000Y-262768000D01*
X59499800Y-262768000D02*
X59162800Y-262430000D01*
X59499900Y-262768000D02*
X59499800Y-262768000D01*
%TO.N,Net-(R44-Pad1)*%
X113500000Y-231768000D02*
X112000000Y-231768000D01*
X113500000Y-231768000D02*
X112000000Y-231768000D01*
X116500000Y-231768000D02*
X113500000Y-231768000D01*
X111250000Y-231768000D02*
X110500000Y-231768000D01*
X112000000Y-231768000D02*
X111250000Y-231768000D01*
%TO.N,Net-(PX63-Pin_1)*%
X116500000Y-212000000D02*
X116500000Y-221608000D01*
%TO.N,Net-(D12-A)*%
X149907000Y-249768000D02*
X150720000Y-249768000D01*
X149907000Y-249768000D02*
X150720000Y-249768000D01*
X151165000Y-261433000D02*
X151610000Y-261878000D01*
X148340000Y-249768000D02*
X149907000Y-249768000D01*
X137500000Y-238928000D02*
X148340000Y-249768000D01*
X150720000Y-260988000D02*
X151165000Y-261433000D01*
X150720000Y-249768000D02*
X150720000Y-260988000D01*
X135710000Y-238928000D02*
X137500000Y-238928000D01*
X133920000Y-238928000D02*
X137500000Y-238928000D01*
X133920000Y-238928000D02*
X137500000Y-238928000D01*
X130340000Y-238928000D02*
X133920000Y-238928000D01*
X129500000Y-239768000D02*
X130340000Y-238928000D01*
X151166000Y-261433000D02*
X152500000Y-262768000D01*
X151165000Y-261433000D02*
X151166000Y-261433000D01*
%TO.N,Net-(D12-K)*%
X137500000Y-231928000D02*
X142650000Y-237078000D01*
X137500000Y-228768000D02*
X137500000Y-231928000D01*
X142650000Y-237078000D02*
X144620000Y-239048000D01*
X133740000Y-228768000D02*
X137500000Y-228768000D01*
X129500000Y-224528000D02*
X133740000Y-228768000D01*
X144621000Y-239048000D02*
X144620000Y-239048000D01*
X144960000Y-239388000D02*
X144621000Y-239048000D01*
X144620000Y-239048000D02*
X144960000Y-239388000D01*
X154500000Y-247768000D02*
X154500000Y-249768000D01*
X153340000Y-247768000D02*
X154500000Y-247768000D01*
X144960000Y-239388000D02*
X153340000Y-247768000D01*
X142650000Y-237078000D02*
X144960000Y-239388000D01*
%TO.N,Net-(J0_21-Pin_2)*%
X96499900Y-262768000D02*
X96499800Y-262768000D01*
X96499900Y-262768000D02*
X96500000Y-262768000D01*
X96499900Y-262768000D02*
X96499800Y-262768000D01*
X92300000Y-258568000D02*
X92300000Y-256907000D01*
X96499800Y-262768000D02*
X92300000Y-258568000D01*
X92300000Y-256907000D02*
X92300000Y-249768000D01*
X89898900Y-254506000D02*
X92300000Y-256907000D01*
X89722000Y-254506000D02*
X89898900Y-254506000D01*
%TO.N,Net-(J0_21-Pin_3)*%
X100000000Y-262768000D02*
X99999800Y-262768000D01*
X97340000Y-260108000D02*
X97340000Y-249768000D01*
X99999600Y-262768000D02*
X97340000Y-260108000D01*
X100000000Y-262768000D02*
X99999600Y-262768000D01*
%TO.N,Net-(R46-Pad1)*%
X152750000Y-231768000D02*
X153500000Y-231768000D01*
X152000000Y-231768000D02*
X152750000Y-231768000D01*
X150500000Y-231768000D02*
X152750000Y-231768000D01*
%TO.N,Net-(PX67-Pin_1)*%
X153500000Y-212000000D02*
X153500000Y-221608000D01*
%TO.N,Net-(D11-K)*%
X98620000Y-228768000D02*
X100500000Y-228768000D01*
X96740000Y-228768000D02*
X98620000Y-228768000D01*
X92500000Y-224528000D02*
X96740000Y-228768000D01*
X98620000Y-228768000D02*
X100500000Y-228768000D01*
X100500000Y-231928000D02*
X105650000Y-237078000D01*
X100500000Y-228768000D02*
X100500000Y-231928000D01*
X106805000Y-238233000D02*
X107960000Y-239388000D01*
X105650000Y-237078000D02*
X107960000Y-239388000D01*
X105650000Y-237078000D02*
X107960000Y-239388000D01*
X117500000Y-247768000D02*
X117500000Y-249768000D01*
X116340000Y-247768000D02*
X117500000Y-247768000D01*
X107960000Y-239388000D02*
X116340000Y-247768000D01*
%TO.N,Net-(D11-A)*%
X93340000Y-238928000D02*
X96920000Y-238928000D01*
X92500300Y-239768000D02*
X93340000Y-238928000D01*
X92500200Y-239768000D02*
X92500300Y-239768000D01*
X92500200Y-239768000D02*
X92500300Y-239768000D01*
X96920000Y-238928000D02*
X100500000Y-238928000D01*
X92500200Y-239768000D02*
X92500000Y-239768000D01*
X96920000Y-238928000D02*
X100500000Y-238928000D01*
X113720000Y-260988000D02*
X114825000Y-262093000D01*
X113720000Y-249768000D02*
X113720000Y-260988000D01*
X111340000Y-249768000D02*
X113720000Y-249768000D01*
X100500000Y-238928000D02*
X111340000Y-249768000D01*
X114826000Y-262093000D02*
X115350000Y-262618000D01*
X114825000Y-262093000D02*
X114826000Y-262093000D01*
X115350000Y-262618000D02*
X114825000Y-262093000D01*
X115350000Y-262618000D02*
X115425000Y-262693000D01*
X115426000Y-262693000D02*
X115500000Y-262768000D01*
X115425000Y-262693000D02*
X115426000Y-262693000D01*
X115500000Y-262768000D02*
X115425000Y-262693000D01*
%TO.N,Net-(J0_23-Pin_3)*%
X134340000Y-260108000D02*
X136325000Y-262093000D01*
X134340000Y-249768000D02*
X134340000Y-260108000D01*
X136326000Y-262093000D02*
X137000000Y-262768000D01*
X136325000Y-262093000D02*
X136326000Y-262093000D01*
X137000000Y-262768000D02*
X136325000Y-262093000D01*
%TO.N,Net-(J0_23-Pin_2)*%
X129300000Y-258568000D02*
X132825000Y-262093000D01*
X129300000Y-249768000D02*
X129300000Y-258568000D01*
X132826000Y-262093000D02*
X133500000Y-262768000D01*
X132825000Y-262093000D02*
X132826000Y-262093000D01*
X133500000Y-262768000D02*
X132825000Y-262093000D01*
%TO.N,Net-(R48-Pad1)*%
X186738000Y-231768000D02*
X188119000Y-231768000D01*
X188120000Y-231768000D02*
X188119000Y-231768000D01*
X183976000Y-231768000D02*
X186738000Y-231768000D01*
X188120000Y-231768000D02*
X189500000Y-231768000D01*
X186738000Y-231768000D02*
X188120000Y-231768000D01*
%TO.N,Net-(PX72-Pin_1)*%
X189500000Y-212000000D02*
X189500000Y-221608000D01*
%TO.N,Net-(D9-K)*%
X61620000Y-228768000D02*
X63500000Y-228768000D01*
X59740000Y-228768000D02*
X61620000Y-228768000D01*
X55500000Y-224528000D02*
X59740000Y-228768000D01*
X70959800Y-239388000D02*
X70959900Y-239388000D01*
X63500000Y-231928000D02*
X70959800Y-239388000D01*
X63500000Y-228768000D02*
X63500000Y-231928000D01*
X61620000Y-228768000D02*
X63500000Y-228768000D01*
X70960000Y-239388000D02*
X70959800Y-239388000D01*
X80500000Y-247768000D02*
X80500000Y-249768000D01*
X79340000Y-247768000D02*
X80500000Y-247768000D01*
X70959800Y-239388000D02*
X79340000Y-247768000D01*
%TO.N,Net-(D9-A)*%
X76719500Y-249768000D02*
X76720000Y-249768000D01*
X55500000Y-239768000D02*
X55500300Y-239768000D01*
X55500000Y-239768000D02*
X55500300Y-239768000D01*
X76719500Y-249768000D02*
X76720000Y-249768000D01*
X76720000Y-260988000D02*
X77825000Y-262093000D01*
X76720000Y-249768000D02*
X76720000Y-260988000D01*
X77825500Y-262093000D02*
X78499800Y-262768000D01*
X77825000Y-262093000D02*
X77825500Y-262093000D01*
X75530000Y-249768000D02*
X76720000Y-249768000D01*
X75530000Y-249768000D02*
X76719500Y-249768000D01*
X59920000Y-238928000D02*
X63500000Y-238928000D01*
X56340000Y-238928000D02*
X59920000Y-238928000D01*
X55500300Y-239768000D02*
X56340000Y-238928000D01*
X74340000Y-249768000D02*
X75530000Y-249768000D01*
X63500000Y-238928000D02*
X74340000Y-249768000D01*
X59920000Y-238928000D02*
X63500000Y-238928000D01*
X78500000Y-262768000D02*
X77825000Y-262093000D01*
X78499900Y-262768000D02*
X78500000Y-262768000D01*
%TO.N,Net-(J0_25-Pin_3)*%
X170340000Y-260108000D02*
X171925000Y-261693000D01*
X170340000Y-249768000D02*
X170340000Y-260108000D01*
X171926000Y-261693000D02*
X173000000Y-262768000D01*
X171925000Y-261693000D02*
X171926000Y-261693000D01*
X173000000Y-262768000D02*
X171925000Y-261693000D01*
%TO.N,Net-(J0_25-Pin_2)*%
X167888000Y-261156000D02*
X168426000Y-261694000D01*
X165300000Y-258568000D02*
X167888000Y-261156000D01*
X165300000Y-249768000D02*
X165300000Y-258568000D01*
X169270000Y-262538000D02*
X169500000Y-262768000D01*
X167889000Y-261156000D02*
X169270000Y-262538000D01*
X167888000Y-261156000D02*
X167889000Y-261156000D01*
X169500000Y-262768000D02*
X169270000Y-262538000D01*
%TO.N,Net-(R19-Pad2)*%
X207040000Y-181200000D02*
X207040000Y-189380000D01*
X203840000Y-178000000D02*
X207040000Y-181200000D01*
%TO.N,Net-(Q6-G)*%
X214750000Y-178000000D02*
X214000000Y-178000000D01*
X218750000Y-182000000D02*
X214750000Y-178000000D01*
X222000000Y-182000000D02*
X218750000Y-182000000D01*
%TO.N,Net-(PX66-Pin_1)*%
X214915000Y-199925000D02*
X219840000Y-195000000D01*
X192572000Y-199925000D02*
X214915000Y-199925000D01*
X180760000Y-188113000D02*
X192572000Y-199925000D01*
X180760000Y-188000000D02*
X180760000Y-188113000D01*
%TO.N,Net-(PS1-+Vout)*%
X192125000Y-177005000D02*
X204500000Y-189380000D01*
X192125000Y-176620000D02*
X192125000Y-177005000D01*
X190000000Y-176620000D02*
X192125000Y-176620000D01*
%TO.N,Net-(J0_18-Pin_3)*%
X248100000Y-171100000D02*
X222000000Y-171100000D01*
X252000000Y-175000000D02*
X248100000Y-171100000D01*
X189888000Y-194620000D02*
X190000000Y-194620000D01*
X187875000Y-192607000D02*
X189888000Y-194620000D01*
X187875000Y-174080000D02*
X187875000Y-192607000D01*
X190000000Y-174080000D02*
X187875000Y-174080000D01*
X221270000Y-174080000D02*
X190000000Y-174080000D01*
X222000000Y-173350000D02*
X221270000Y-174080000D01*
X222000000Y-171100000D02*
X222000000Y-173350000D01*
%TO.N,Net-(J0_18-Pin_1)*%
X246550000Y-176550000D02*
X222000000Y-176550000D01*
X252000000Y-182000000D02*
X246550000Y-176550000D01*
%TO.N,Net-(R25-Pad2)*%
X207040000Y-143200000D02*
X207040000Y-151380000D01*
X203840000Y-140000000D02*
X207040000Y-143200000D01*
%TO.N,Net-(Q7-G)*%
X214750000Y-140000000D02*
X214000000Y-140000000D01*
X218750000Y-144000000D02*
X214750000Y-140000000D01*
X222000000Y-144000000D02*
X218750000Y-144000000D01*
%TO.N,Net-(PX80-Pin_1)*%
X180760000Y-150110000D02*
X180760000Y-150000000D01*
X192600000Y-161951000D02*
X180760000Y-150110000D01*
X214889000Y-161951000D02*
X192600000Y-161951000D01*
X219840000Y-157000000D02*
X214889000Y-161951000D01*
%TO.N,Net-(PS4-+Vout)*%
X192125000Y-139005000D02*
X204500000Y-151380000D01*
X192125000Y-138620000D02*
X192125000Y-139005000D01*
X190000000Y-138620000D02*
X192125000Y-138620000D01*
%TO.N,Net-(J0_14-Pin_1)*%
X246550000Y-138550000D02*
X222000000Y-138550000D01*
X252000000Y-144000000D02*
X246550000Y-138550000D01*
%TO.N,Net-(J0_14-Pin_3)*%
X189919000Y-156620000D02*
X190000000Y-156620000D01*
X187875000Y-154576000D02*
X189919000Y-156620000D01*
X187875000Y-136080000D02*
X187875000Y-154576000D01*
X190000000Y-136080000D02*
X187875000Y-136080000D01*
X221270000Y-136080000D02*
X190000000Y-136080000D01*
X222000000Y-135350000D02*
X221270000Y-136080000D01*
X222000000Y-133100000D02*
X222000000Y-135350000D01*
X248100000Y-133100000D02*
X222000000Y-133100000D01*
X252000000Y-137000000D02*
X248100000Y-133100000D01*
%TO.N,Net-(U18--)*%
X195920000Y-105160000D02*
X204900000Y-105160000D01*
X190730000Y-99970000D02*
X195920000Y-105160000D01*
X204900000Y-113000000D02*
X204900000Y-105160000D01*
%TO.N,Net-(U17--)*%
X235000000Y-113000000D02*
X235000000Y-105160000D01*
X225920000Y-105160000D02*
X220730000Y-99970000D01*
X235000000Y-105160000D02*
X225920000Y-105160000D01*
%TO.N,Net-(J0_13-Pin_3)*%
X234548000Y-95000000D02*
X235000000Y-95000000D01*
X244800000Y-95000000D02*
X235000000Y-95000000D01*
X252000000Y-102200000D02*
X244800000Y-95000000D01*
X226240000Y-95000000D02*
X223270000Y-92030000D01*
X235000000Y-95000000D02*
X226240000Y-95000000D01*
%TO.N,Net-(J0_13-Pin_1)*%
X196240000Y-95000000D02*
X193270000Y-92030000D01*
X204900000Y-95000000D02*
X196240000Y-95000000D01*
X206538000Y-96637800D02*
X204900000Y-95000000D01*
X239438000Y-96637800D02*
X206538000Y-96637800D01*
X252000000Y-109200000D02*
X239438000Y-96637800D01*
%TO.N,Net-(U12--)*%
X232000000Y-38240000D02*
X231730000Y-37970000D01*
X232000000Y-41840000D02*
X232000000Y-38240000D01*
X231730000Y-32570000D02*
X231730000Y-37970000D01*
X234270000Y-30030000D02*
X231730000Y-32570000D01*
%TO.N,Net-(U11--)*%
X218000000Y-38240000D02*
X217730000Y-37970000D01*
X218000000Y-41840000D02*
X218000000Y-38240000D01*
X217730000Y-32570000D02*
X217730000Y-37970000D01*
X220270000Y-30030000D02*
X217730000Y-32570000D01*
%TO.N,Net-(U10--)*%
X204000000Y-38240000D02*
X203730000Y-37970000D01*
X204000000Y-41840000D02*
X204000000Y-38240000D01*
X203730000Y-32570000D02*
X203730000Y-37970000D01*
X206270000Y-30030000D02*
X203730000Y-32570000D01*
%TO.N,Net-(U9--)*%
X189728000Y-35270000D02*
X189728000Y-37970000D01*
X189728000Y-32570000D02*
X191910000Y-30387500D01*
X189728000Y-35270000D02*
X189728000Y-32570000D01*
X192268000Y-30030500D02*
X192268000Y-30030000D01*
X191910000Y-30387500D02*
X192268000Y-30030500D01*
X192268000Y-30030000D02*
X191910000Y-30387500D01*
X189728000Y-37970000D02*
X189864000Y-38106200D01*
X190000000Y-38242500D02*
X190000000Y-41840000D01*
X189864000Y-38106200D02*
X190000000Y-38242500D01*
X189728000Y-35270000D02*
X189728000Y-37970000D01*
X189728000Y-37970000D02*
X189864000Y-38106200D01*
%TO.N,Net-(PX124-Pin_1)*%
X185660000Y-62000000D02*
X190000000Y-62000000D01*
X180760000Y-57100000D02*
X185660000Y-62000000D01*
X190000000Y-62000000D02*
X190000000Y-58000000D01*
%TO.N,Net-(PX123-Pin_1)*%
X204000000Y-62000000D02*
X204000000Y-58000000D01*
X202397000Y-63603400D02*
X204000000Y-62000000D01*
X182613000Y-63603400D02*
X202397000Y-63603400D01*
X180760000Y-61750000D02*
X182613000Y-63603400D01*
%TO.N,Net-(PX122-Pin_1)*%
X213600000Y-66400000D02*
X218000000Y-62000000D01*
X180760000Y-66400000D02*
X213600000Y-66400000D01*
X218000000Y-62000000D02*
X218000000Y-58000000D01*
%TO.N,Net-(PX121-Pin_1)*%
X232000000Y-62000000D02*
X232000000Y-58000000D01*
X224500000Y-69500000D02*
X232000000Y-62000000D01*
X182310000Y-69500000D02*
X224500000Y-69500000D01*
X180760000Y-71050000D02*
X182310000Y-69500000D01*
%TO.N,Net-(PS6-+Vout)*%
X189728000Y-30029600D02*
X189728000Y-30030000D01*
X189728000Y-30029600D02*
X189728000Y-30030000D01*
X188338000Y-28640500D02*
X189132000Y-29434400D01*
X186575000Y-28640500D02*
X188338000Y-28640500D01*
X178625000Y-36591100D02*
X186575000Y-28640500D01*
X178625000Y-72547900D02*
X178625000Y-36591100D01*
X180740000Y-74662700D02*
X178625000Y-72547900D01*
X229408000Y-74662700D02*
X180740000Y-74662700D01*
X236305000Y-81559600D02*
X229408000Y-74662700D01*
X236620000Y-81875000D02*
X236305000Y-81559600D01*
X236620000Y-84000000D02*
X236620000Y-81875000D01*
X189132000Y-29434400D02*
X189728000Y-30029600D01*
X219320000Y-90620300D02*
X220730000Y-92030000D01*
X192140000Y-90620300D02*
X219320000Y-90620300D01*
X190730000Y-92030000D02*
X192140000Y-90620300D01*
X189430000Y-29732100D02*
X189728000Y-30029800D01*
X225280000Y-87480000D02*
X220730000Y-92030000D01*
X235815000Y-87480000D02*
X225280000Y-87480000D01*
X238320000Y-84974400D02*
X235815000Y-87480000D01*
X238320000Y-83039700D02*
X238320000Y-84974400D01*
X236840000Y-81559500D02*
X238320000Y-83039700D01*
X236305000Y-81559500D02*
X236840000Y-81559500D01*
X236305000Y-81559600D02*
X236305000Y-81559500D01*
X189132000Y-29434400D02*
X189430000Y-29732100D01*
X189430000Y-29732100D02*
X189728000Y-30029600D01*
%TO.N,Net-(J0_5-Pin_1)*%
X192958000Y-38660000D02*
X193648000Y-39350100D01*
X192958000Y-38660000D02*
X192613000Y-38315000D01*
X192612000Y-38315000D02*
X192268000Y-37970000D01*
X192613000Y-38315000D02*
X192612000Y-38315000D01*
X192613000Y-38315000D02*
X192958000Y-38660000D01*
X203439000Y-47400000D02*
X205206000Y-47400000D01*
X239400000Y-47400000D02*
X252000000Y-60000000D01*
X205206000Y-47400000D02*
X239400000Y-47400000D01*
X196223000Y-25900400D02*
X193000000Y-22677500D01*
X196509000Y-26186600D02*
X196223000Y-25900400D01*
X196509000Y-36268100D02*
X196509000Y-26186600D01*
X193970000Y-36268100D02*
X196509000Y-36268100D01*
X192268000Y-37970000D02*
X193970000Y-36268100D01*
X196509000Y-38702800D02*
X196509000Y-36268100D01*
X205206000Y-47400000D02*
X196509000Y-38702800D01*
%TO.N,Net-(J0_5-Pin_2)*%
X211824000Y-42536100D02*
X208660000Y-39372300D01*
X210704000Y-42403900D02*
X206270000Y-37970000D01*
X210840000Y-42403900D02*
X210704000Y-42403900D01*
X210972000Y-42536200D02*
X210840000Y-42403900D01*
X211824000Y-42536200D02*
X210972000Y-42536200D01*
X211824000Y-42536100D02*
X211824000Y-42536200D01*
X214988000Y-45700000D02*
X211824000Y-42536100D01*
X241200000Y-45700000D02*
X214988000Y-45700000D01*
X252000000Y-56500000D02*
X241200000Y-45700000D01*
X211824000Y-27424200D02*
X211824000Y-42536100D01*
X210042000Y-25641800D02*
X211824000Y-27424200D01*
X210223000Y-25823300D02*
X210042000Y-25641800D01*
X210042000Y-25641800D02*
X207000000Y-22600000D01*
%TO.N,Net-(J0_5-Pin_3)*%
X227302000Y-44000000D02*
X224988000Y-41686200D01*
X243000000Y-44000000D02*
X227302000Y-44000000D01*
X252000000Y-53000000D02*
X243000000Y-44000000D01*
X223986000Y-41686200D02*
X224988000Y-41686200D01*
X220270000Y-37970000D02*
X223986000Y-41686200D01*
X224988000Y-41686200D02*
X224749000Y-41447300D01*
X222674000Y-39372400D02*
X223416000Y-39372400D01*
X224749000Y-41447300D02*
X222674000Y-39372400D01*
X224182000Y-25859100D02*
X221000000Y-22677500D01*
X224182000Y-26511800D02*
X224182000Y-25859100D01*
X224749000Y-27078900D02*
X224182000Y-26511800D01*
X224749000Y-41447300D02*
X224749000Y-27078900D01*
%TO.N,Net-(J0_6-Pin_1)*%
X234270000Y-35015500D02*
X234270000Y-37970000D01*
X238546000Y-30739100D02*
X234270000Y-35015500D01*
X238546000Y-26224300D02*
X238546000Y-30739100D01*
X238038000Y-25716000D02*
X238546000Y-26224300D01*
X237345000Y-39378400D02*
X237410000Y-39378400D01*
X238567000Y-40600000D02*
X237345000Y-39378400D01*
X251900000Y-40600000D02*
X238567000Y-40600000D01*
X238216000Y-25894000D02*
X238038000Y-25716000D01*
X238038000Y-25716000D02*
X235000000Y-22677500D01*
%TO.N,Net-(PX55-Pin_1)*%
X227700000Y-235220000D02*
X233680000Y-241200000D01*
X227700000Y-212000000D02*
X227700000Y-235220000D01*
%TO.N,Net-(PX45-Pin_1)*%
X246840000Y-244442000D02*
X246840000Y-216727000D01*
X245837000Y-245445000D02*
X246840000Y-244442000D01*
X241735000Y-245445000D02*
X245837000Y-245445000D01*
X240030000Y-243740000D02*
X241735000Y-245445000D01*
%TO.N,Net-(U20-SENSE_A)*%
X216140000Y-232550000D02*
X216140000Y-227200000D01*
X227330000Y-243740000D02*
X216140000Y-232550000D01*
%TO.N,Net-(PX113-Pin_1)*%
X213666000Y-213684000D02*
X215350000Y-212000000D01*
X213666000Y-235599000D02*
X213666000Y-213684000D01*
X222692000Y-244624000D02*
X213666000Y-235599000D01*
X222692000Y-246422000D02*
X222692000Y-244624000D01*
%TO.N,Net-(PX112-Pin_1)*%
X212307000Y-213607000D02*
X210700000Y-212000000D01*
X212307000Y-242172000D02*
X212307000Y-213607000D01*
X214177000Y-244042000D02*
X212307000Y-242172000D01*
X214177000Y-253082000D02*
X214177000Y-244042000D01*
X217001000Y-255906000D02*
X214177000Y-253082000D01*
%TO.N,Net-(PX111-Pin_1)*%
X232450000Y-234054000D02*
X232450000Y-212000000D01*
X238760000Y-240364000D02*
X232450000Y-234054000D01*
X238760000Y-241200000D02*
X238760000Y-240364000D01*
%TO.N,Net-(PX62-Pin_1)*%
X241300000Y-216300000D02*
X241300000Y-241200000D01*
X237000000Y-212000000D02*
X241300000Y-216300000D01*
%TO.N,Net-(J0_10-Pin_1)*%
X218302000Y-244925000D02*
X217158000Y-243781000D01*
X218302000Y-262498000D02*
X218302000Y-244925000D01*
X218100000Y-262700000D02*
X218302000Y-262498000D01*
%TO.N,Net-(J0_9-Pin_1)*%
X234549000Y-248419000D02*
X229870000Y-243740000D01*
X234549000Y-252898000D02*
X234549000Y-248419000D01*
%TO.N,Net-(J0_16-Pin_2)*%
X233247000Y-258347000D02*
X237600000Y-262700000D01*
X233247000Y-252591000D02*
X233247000Y-258347000D01*
X221990000Y-241334000D02*
X233247000Y-252591000D01*
X221990000Y-240358000D02*
X221990000Y-241334000D01*
X220858000Y-240358000D02*
X221990000Y-240358000D01*
X215300000Y-234800000D02*
X220858000Y-240358000D01*
%TO.N,Net-(J0_16-Pin_3)*%
X221390000Y-247127000D02*
X225198000Y-250935000D01*
X221390000Y-246105000D02*
X221390000Y-247127000D01*
X217758000Y-242472000D02*
X221390000Y-246105000D01*
X215728000Y-242472000D02*
X217758000Y-242472000D01*
X215300000Y-242900000D02*
X215728000Y-242472000D01*
X241100000Y-247350000D02*
X237490000Y-243740000D01*
X241100000Y-262700000D02*
X241100000Y-247350000D01*
%TO.N,Net-(PX59-Pin_1)*%
X114500000Y-193300000D02*
X115000000Y-193800000D01*
X94300000Y-193300000D02*
X114500000Y-193300000D01*
%TO.N,Net-(R18-Pad2)*%
X95140000Y-32180000D02*
X89000000Y-32180000D01*
X96020000Y-31300000D02*
X95140000Y-32180000D01*
%TO.N,Net-(R13-Pad1)*%
X81380000Y-42355000D02*
X74295000Y-49440000D01*
X81380000Y-32180000D02*
X81380000Y-42355000D01*
%TO.N,Net-(Q5-G)*%
X71580000Y-27100000D02*
X81380000Y-27100000D01*
X66180000Y-32500000D02*
X71580000Y-27100000D01*
X64180000Y-32500000D02*
X66180000Y-32500000D01*
%TO.N,Net-(PX57-Pin_1)*%
X114080000Y-39200000D02*
X115000000Y-39200000D01*
X106180000Y-31300000D02*
X114080000Y-39200000D01*
%TO.N,Net-(J0_7-Pin_1)*%
X50980000Y-27420000D02*
X64180000Y-27420000D01*
X46800000Y-31600000D02*
X50980000Y-27420000D01*
%TO.N,Net-(J0_7-Pin_3)*%
X61640600Y-32499400D02*
X64180000Y-29960000D01*
X63403900Y-34262800D02*
X61640600Y-32499400D01*
X74232200Y-34262800D02*
X63403900Y-34262800D01*
X74295000Y-34200000D02*
X74232200Y-34262800D01*
X55540000Y-38600000D02*
X61640600Y-32499400D01*
X46800000Y-38600000D02*
X55540000Y-38600000D01*
%TO.N,Net-(R11-Pad2)*%
X100920000Y-71000000D02*
X101495000Y-70425000D01*
X96100000Y-71000000D02*
X100920000Y-71000000D01*
%TO.N,Net-(PX54-Pin_1)*%
X114300000Y-70425000D02*
X115000000Y-71125000D01*
X109115000Y-70425000D02*
X114300000Y-70425000D01*
X107900000Y-69210000D02*
X109115000Y-70425000D01*
X107900000Y-57900000D02*
X107900000Y-69210000D01*
%TO.N,Net-(R49-Pad2)*%
X91375000Y-104325000D02*
X93415000Y-104325000D01*
X79785000Y-92735000D02*
X91375000Y-104325000D01*
%TO.N,Net-(J0_8-Pin_1)*%
X47300000Y-62300000D02*
X55900000Y-70900000D01*
X47000000Y-62300000D02*
X47300000Y-62300000D01*
%TO.N,Net-(D10-+)*%
X96100000Y-48160000D02*
X96100000Y-45600000D01*
X88600000Y-55660000D02*
X96100000Y-48160000D01*
X88600000Y-58260000D02*
X88600000Y-55660000D01*
%TO.N,Net-(D10-Pad2)*%
X85960000Y-60700000D02*
X88600000Y-63340000D01*
X81300000Y-60700000D02*
X85960000Y-60700000D01*
%TO.N,Net-(D10--)*%
X100960000Y-73500000D02*
X101495000Y-72965000D01*
X88600000Y-73500000D02*
X100960000Y-73500000D01*
%TO.N,Net-(D10-Pad3)*%
X86120000Y-70900000D02*
X88600000Y-68420000D01*
X81300000Y-70900000D02*
X86120000Y-70900000D01*
%TO.N,Net-(PX53-Pin_1)*%
X113547000Y-184453000D02*
X115000000Y-183000000D01*
X101073000Y-184453000D02*
X113547000Y-184453000D01*
X99420000Y-182800000D02*
X101073000Y-184453000D01*
X98355000Y-183865000D02*
X99420000Y-182800000D01*
X93415000Y-183865000D02*
X98355000Y-183865000D01*
%TO.N,Net-(PX52-Pin_1)*%
X98355000Y-172865000D02*
X99420000Y-171800000D01*
X93415000Y-172865000D02*
X98355000Y-172865000D01*
X113593000Y-173407000D02*
X115000000Y-172000000D01*
X101027000Y-173407000D02*
X113593000Y-173407000D01*
X99420000Y-171800000D02*
X101027000Y-173407000D01*
%TO.N,Net-(PX51-Pin_1)*%
X98355000Y-161865000D02*
X99420000Y-160800000D01*
X93415000Y-161865000D02*
X98355000Y-161865000D01*
X113550000Y-162450000D02*
X115000000Y-161000000D01*
X101070000Y-162450000D02*
X113550000Y-162450000D01*
X99420000Y-160800000D02*
X101070000Y-162450000D01*
%TO.N,Net-(PX50-Pin_1)*%
X98355000Y-150865000D02*
X99420000Y-149800000D01*
X93415000Y-150865000D02*
X98355000Y-150865000D01*
X113560000Y-151440000D02*
X115000000Y-150000000D01*
X101060000Y-151440000D02*
X113560000Y-151440000D01*
X99420000Y-149800000D02*
X101060000Y-151440000D01*
%TO.N,Net-(PX49-Pin_1)*%
X98355000Y-139865000D02*
X99420000Y-138800000D01*
X93415000Y-139865000D02*
X98355000Y-139865000D01*
X113587000Y-140413000D02*
X115000000Y-139000000D01*
X101033000Y-140413000D02*
X113587000Y-140413000D01*
X99420000Y-138800000D02*
X101033000Y-140413000D01*
%TO.N,Net-(PX48-Pin_1)*%
X98355000Y-128865000D02*
X99420000Y-127800000D01*
X93415000Y-128865000D02*
X98355000Y-128865000D01*
X113577000Y-129423000D02*
X115000000Y-128000000D01*
X101043000Y-129423000D02*
X113577000Y-129423000D01*
X99420000Y-127800000D02*
X101043000Y-129423000D01*
%TO.N,Net-(PX47-Pin_1)*%
X98355000Y-117865000D02*
X99420000Y-116800000D01*
X93415000Y-117865000D02*
X98355000Y-117865000D01*
X113546000Y-118454000D02*
X115000000Y-117000000D01*
X101074000Y-118454000D02*
X113546000Y-118454000D01*
X99420000Y-116800000D02*
X101074000Y-118454000D01*
%TO.N,Net-(J0_3-Pin_3)*%
X47000000Y-172000000D02*
X47000000Y-170000000D01*
X58000000Y-183000000D02*
X47000000Y-172000000D01*
%TO.N,Net-(J0_3-Pin_2)*%
X52500000Y-172000000D02*
X47000000Y-166500000D01*
X58000000Y-172000000D02*
X52500000Y-172000000D01*
%TO.N,Net-(J0_3-Pin_1)*%
X49000000Y-161000000D02*
X47000000Y-163000000D01*
X58000000Y-161000000D02*
X49000000Y-161000000D01*
%TO.N,Net-(J0_2-Pin_1)*%
X58000000Y-130000000D02*
X58000000Y-128000000D01*
X47000000Y-141000000D02*
X58000000Y-130000000D01*
%TO.N,Net-(J0_2-Pin_2)*%
X52500000Y-144500000D02*
X47000000Y-144500000D01*
X58000000Y-139000000D02*
X52500000Y-144500000D01*
%TO.N,Net-(J0_2-Pin_3)*%
X49000000Y-150000000D02*
X47000000Y-148000000D01*
X58000000Y-150000000D02*
X49000000Y-150000000D01*
%TO.N,Net-(J0_1-Pin_2)*%
X58000000Y-111500000D02*
X58000000Y-106000000D01*
X47000000Y-122500000D02*
X58000000Y-111500000D01*
%TO.N,Net-(J0_1-Pin_3)*%
X49000000Y-126000000D02*
X58000000Y-117000000D01*
X47000000Y-126000000D02*
X49000000Y-126000000D01*
%TO.N,Net-(D8-K)*%
X84380000Y-182740000D02*
X85795000Y-181325000D01*
X80000000Y-182740000D02*
X84380000Y-182740000D01*
%TO.N,Net-(D8-A)*%
X77200000Y-183000000D02*
X77460000Y-182740000D01*
X73240000Y-183000000D02*
X77200000Y-183000000D01*
%TO.N,Net-(D7-A)*%
X77200000Y-172000000D02*
X77460000Y-171740000D01*
X73240000Y-172000000D02*
X77200000Y-172000000D01*
%TO.N,Net-(D7-K)*%
X84380000Y-171740000D02*
X85795000Y-170325000D01*
X80000000Y-171740000D02*
X84380000Y-171740000D01*
%TO.N,Net-(D6-A)*%
X77200000Y-161000000D02*
X77460000Y-160740000D01*
X73240000Y-161000000D02*
X77200000Y-161000000D01*
%TO.N,Net-(D6-K)*%
X84380000Y-160740000D02*
X85795000Y-159325000D01*
X80000000Y-160740000D02*
X84380000Y-160740000D01*
%TO.N,Net-(D5-K)*%
X84380000Y-149740000D02*
X85795000Y-148325000D01*
X80000000Y-149740000D02*
X84380000Y-149740000D01*
%TO.N,Net-(D5-A)*%
X77200000Y-150000000D02*
X77460000Y-149740000D01*
X73240000Y-150000000D02*
X77200000Y-150000000D01*
%TO.N,Net-(D4-A)*%
X77200000Y-139000000D02*
X77460000Y-138740000D01*
X73240000Y-139000000D02*
X77200000Y-139000000D01*
%TO.N,Net-(D4-K)*%
X84380000Y-138740000D02*
X85795000Y-137325000D01*
X80000000Y-138740000D02*
X84380000Y-138740000D01*
%TO.N,Net-(D3-K)*%
X84380000Y-127740000D02*
X85795000Y-126325000D01*
X80000000Y-127740000D02*
X84380000Y-127740000D01*
%TO.N,Net-(D3-A)*%
X73500000Y-127740000D02*
X77460000Y-127740000D01*
X73240000Y-128000000D02*
X73500000Y-127740000D01*
%TO.N,Net-(D2-K)*%
X84380000Y-116740000D02*
X85795000Y-115325000D01*
X80000000Y-116740000D02*
X84380000Y-116740000D01*
%TO.N,Net-(D2-A)*%
X73500000Y-116740000D02*
X77460000Y-116740000D01*
X73240000Y-117000000D02*
X73500000Y-116740000D01*
%TO.N,Net-(D1-K)*%
X84380000Y-105740000D02*
X85795000Y-104325000D01*
X80000000Y-105740000D02*
X84380000Y-105740000D01*
%TO.N,Net-(D1-A)*%
X73500000Y-105740000D02*
X77460000Y-105740000D01*
X73240000Y-106000000D02*
X73500000Y-105740000D01*
%TO.N,Net-(J4-Pin_6)*%
X163720000Y-94700000D02*
X164900000Y-94700000D01*
X159160000Y-90140000D02*
X163720000Y-94700000D01*
%TO.N,Net-(J4-Pin_2)*%
X159519000Y-100300000D02*
X159160000Y-100300000D01*
X160946000Y-101726000D02*
X159519000Y-100300000D01*
X160946000Y-106746000D02*
X160946000Y-101726000D01*
X164900000Y-110700000D02*
X160946000Y-106746000D01*
%TO.N,Net-(J4-Pin_10)*%
X163620000Y-79980000D02*
X159160000Y-79980000D01*
X164900000Y-78700000D02*
X163620000Y-79980000D01*
%TO.N,Net-(J4-Pin_8)*%
X160800000Y-86700000D02*
X159160000Y-85060000D01*
X164900000Y-86700000D02*
X160800000Y-86700000D01*
%TO.N,Net-(J4-Pin_4)*%
X161113000Y-97173000D02*
X159160000Y-95220000D01*
X161113000Y-98913000D02*
X161113000Y-97173000D01*
X164900000Y-102700000D02*
X161113000Y-98913000D01*
%TO.N,Net-(J4-Pin_16)*%
X162578000Y-61322000D02*
X159160000Y-64740000D01*
X162578000Y-57022000D02*
X162578000Y-61322000D01*
X164900000Y-54700000D02*
X162578000Y-57022000D01*
%TO.N,Net-(J4-Pin_14)*%
X161113000Y-67867000D02*
X159160000Y-69820000D01*
X161113000Y-66487000D02*
X161113000Y-67867000D01*
X164900000Y-62700000D02*
X161113000Y-66487000D01*
%TO.N,Net-(J4-Pin_12)*%
X160700000Y-74900000D02*
X159160000Y-74900000D01*
X164900000Y-70700000D02*
X160700000Y-74900000D01*
%TO.N,Net-(J3-Pin_3)*%
X160925000Y-182725000D02*
X164900000Y-186700000D01*
X160925000Y-175945000D02*
X160925000Y-182725000D01*
X159160000Y-174180000D02*
X160925000Y-175945000D01*
%TO.N,Net-(J3-Pin_5)*%
X162227000Y-172167000D02*
X159160000Y-169100000D01*
X162227000Y-176027000D02*
X162227000Y-172167000D01*
X164900000Y-178700000D02*
X162227000Y-176027000D01*
%TO.N,Net-(J3-Pin_7)*%
X160862000Y-165722000D02*
X159160000Y-164020000D01*
X160862000Y-166662000D02*
X160862000Y-165722000D01*
X164900000Y-170700000D02*
X160862000Y-166662000D01*
%TO.N,Net-(J3-Pin_13)*%
X162820000Y-148780000D02*
X159160000Y-148780000D01*
X164900000Y-146700000D02*
X162820000Y-148780000D01*
%TO.N,Net-(J3-Pin_1)*%
X159160000Y-188960000D02*
X159160000Y-179260000D01*
X164900000Y-194700000D02*
X159160000Y-188960000D01*
%TO.N,Net-(J3-Pin_19)*%
X161267000Y-131433000D02*
X159160000Y-133540000D01*
X161267000Y-126333000D02*
X161267000Y-131433000D01*
X164900000Y-122700000D02*
X161267000Y-126333000D01*
%TO.N,Net-(J3-Pin_15)*%
X159900000Y-143700000D02*
X159160000Y-143700000D01*
X164900000Y-138700000D02*
X159900000Y-143700000D01*
%TO.N,Net-(J3-Pin_17)*%
X161113000Y-136667000D02*
X159160000Y-138620000D01*
X161113000Y-134487000D02*
X161113000Y-136667000D01*
X164900000Y-130700000D02*
X161113000Y-134487000D01*
%TO.N,Net-(J3-Pin_9)*%
X162920000Y-162700000D02*
X159160000Y-158940000D01*
X164900000Y-162700000D02*
X162920000Y-162700000D01*
%TO.N,Net-(J3-Pin_11)*%
X160000000Y-154700000D02*
X159160000Y-153860000D01*
X164900000Y-154700000D02*
X160000000Y-154700000D01*
%TO.N,Net-(J2-Pin_10)*%
X135340000Y-154700000D02*
X136200000Y-153840000D01*
X130600000Y-154700000D02*
X135340000Y-154700000D01*
%TO.N,Net-(J2-Pin_2)*%
X135906000Y-133520000D02*
X136200000Y-133520000D01*
X134548000Y-132162000D02*
X135906000Y-133520000D01*
X134548000Y-126648000D02*
X134548000Y-132162000D01*
X130600000Y-122700000D02*
X134548000Y-126648000D01*
%TO.N,Net-(J2-Pin_12)*%
X132420000Y-162700000D02*
X136200000Y-158920000D01*
X130600000Y-162700000D02*
X132420000Y-162700000D01*
%TO.N,Net-(J2-Pin_4)*%
X134440000Y-136840000D02*
X136200000Y-138600000D01*
X134440000Y-134540000D02*
X134440000Y-136840000D01*
X130600000Y-130700000D02*
X134440000Y-134540000D01*
%TO.N,Net-(J2-Pin_20)*%
X136200000Y-189100000D02*
X136200000Y-179240000D01*
X130600000Y-194700000D02*
X136200000Y-189100000D01*
%TO.N,Net-(J2-Pin_8)*%
X132660000Y-148760000D02*
X136200000Y-148760000D01*
X130600000Y-146700000D02*
X132660000Y-148760000D01*
%TO.N,Net-(J2-Pin_14)*%
X134523000Y-165677000D02*
X136200000Y-164000000D01*
X134523000Y-166777000D02*
X134523000Y-165677000D01*
X130600000Y-170700000D02*
X134523000Y-166777000D01*
%TO.N,Net-(J2-Pin_6)*%
X135580000Y-143680000D02*
X136200000Y-143680000D01*
X130600000Y-138700000D02*
X135580000Y-143680000D01*
%TO.N,Net-(J2-Pin_18)*%
X134548000Y-175812000D02*
X136200000Y-174160000D01*
X134548000Y-182752000D02*
X134548000Y-175812000D01*
X130600000Y-186700000D02*
X134548000Y-182752000D01*
%TO.N,Net-(J2-Pin_16)*%
X133186000Y-172094000D02*
X136200000Y-169080000D01*
X133186000Y-176114000D02*
X133186000Y-172094000D01*
X130600000Y-178700000D02*
X133186000Y-176114000D01*
%TO.N,Net-(J1-Pin_9)*%
X134720000Y-74820000D02*
X136300000Y-74820000D01*
X130600000Y-70700000D02*
X134720000Y-74820000D01*
%TO.N,Net-(J1-Pin_11)*%
X131800000Y-79900000D02*
X136300000Y-79900000D01*
X130600000Y-78700000D02*
X131800000Y-79900000D01*
%TO.N,Net-(J1-Pin_13)*%
X134580000Y-86700000D02*
X136300000Y-84980000D01*
X130600000Y-86700000D02*
X134580000Y-86700000D01*
%TO.N,Net-(J1-Pin_17)*%
X134648000Y-96791700D02*
X136300000Y-95140000D01*
X134648000Y-98651700D02*
X134648000Y-96791700D01*
X130600000Y-102700000D02*
X134648000Y-98651700D01*
%TO.N,Net-(J1-Pin_5)*%
X132770000Y-61130300D02*
X136300000Y-64660000D01*
X132770000Y-56870300D02*
X132770000Y-61130300D01*
X130600000Y-54700000D02*
X132770000Y-56870300D01*
%TO.N,Net-(J1-Pin_15)*%
X131660000Y-94700000D02*
X136300000Y-90060000D01*
X130600000Y-94700000D02*
X131660000Y-94700000D01*
%TO.N,Net-(J1-Pin_7)*%
X134289000Y-67729100D02*
X136300000Y-69740000D01*
X134289000Y-66389100D02*
X134289000Y-67729100D01*
X130600000Y-62700000D02*
X134289000Y-66389100D01*
%TO.N,Net-(J1-Pin_19)*%
X134648000Y-101872000D02*
X136300000Y-100220000D01*
X134648000Y-106652000D02*
X134648000Y-101872000D01*
X130600000Y-110700000D02*
X134648000Y-106652000D01*
%TO.N,Net-(GND1-Pin_1)*%
X233078000Y-19600000D02*
X230000000Y-22677500D01*
X237900000Y-19600000D02*
X233078000Y-19600000D01*
X251900000Y-33600000D02*
X237900000Y-19600000D01*
X218978000Y-19700000D02*
X216000000Y-22677500D01*
X227022000Y-19700000D02*
X218978000Y-19700000D01*
X230000000Y-22677500D02*
X227022000Y-19700000D01*
X213169000Y-19846800D02*
X216000000Y-22677500D01*
X204753000Y-19846800D02*
X213169000Y-19846800D01*
X202000000Y-22600000D02*
X204753000Y-19846800D01*
X190578000Y-20100000D02*
X188000000Y-22677500D01*
X199500000Y-20100000D02*
X190578000Y-20100000D01*
X202000000Y-22600000D02*
X199500000Y-20100000D01*
X218000000Y-72160000D02*
X204000000Y-72160000D01*
X251900000Y-37100000D02*
X251900000Y-33600000D01*
X192080000Y-84000000D02*
X192080000Y-86065900D01*
X192080000Y-86067900D02*
X192080000Y-86098700D01*
X224840000Y-113000000D02*
X235000000Y-123160000D01*
X220000000Y-113000000D02*
X224840000Y-113000000D01*
X200900000Y-250660000D02*
X200900000Y-227200000D01*
X200560000Y-251000000D02*
X200900000Y-250660000D01*
X192080000Y-86098700D02*
X192080000Y-86125000D01*
X171978000Y-38700000D02*
X164900000Y-38700000D01*
X188000000Y-22677500D02*
X171978000Y-38700000D01*
X212854000Y-245454000D02*
X212854000Y-262504000D01*
X210300000Y-242900000D02*
X212854000Y-245454000D01*
X190000000Y-72160000D02*
X204000000Y-72160000D01*
X192080000Y-86065900D02*
X192080000Y-86067900D01*
X207974000Y-198606000D02*
X209580000Y-197000000D01*
X203494000Y-198606000D02*
X207974000Y-198606000D01*
X192125000Y-187237000D02*
X203494000Y-198606000D01*
X192125000Y-187000000D02*
X192125000Y-187237000D01*
X190000000Y-187000000D02*
X192125000Y-187000000D01*
X232396000Y-237376000D02*
X232396000Y-235841000D01*
X236220000Y-241200000D02*
X232396000Y-237376000D01*
X192125000Y-149000000D02*
X190000000Y-149000000D01*
X192125000Y-149234000D02*
X192125000Y-149000000D01*
X199194000Y-156304000D02*
X192125000Y-149234000D01*
X215620000Y-84000000D02*
X229000000Y-84000000D01*
X203528000Y-160638000D02*
X199194000Y-156304000D01*
X207942000Y-160638000D02*
X203528000Y-160638000D01*
X209580000Y-159000000D02*
X207942000Y-160638000D01*
X234080000Y-86125000D02*
X234080000Y-84000000D01*
X229000000Y-86125000D02*
X234080000Y-86125000D01*
X229000000Y-84000000D02*
X229000000Y-86125000D01*
X192054000Y-86125000D02*
X192080000Y-86098700D01*
X187000000Y-86125000D02*
X192054000Y-86125000D01*
X187000000Y-84000000D02*
X187000000Y-86125000D01*
X194740000Y-113000000D02*
X190000000Y-113000000D01*
X204900000Y-123160000D02*
X194740000Y-113000000D01*
X215060000Y-113000000D02*
X204900000Y-123160000D01*
X220000000Y-113000000D02*
X215060000Y-113000000D01*
X196966000Y-158532000D02*
X199194000Y-156304000D01*
X204059000Y-86065900D02*
X192080000Y-86065900D01*
X206125000Y-84000000D02*
X204059000Y-86065900D01*
X208000000Y-84000000D02*
X206125000Y-84000000D01*
X159160000Y-44440000D02*
X159160000Y-54580000D01*
X164900000Y-38700000D02*
X159160000Y-44440000D01*
X218000000Y-72160000D02*
X232000000Y-72160000D01*
X190000000Y-113000000D02*
X190000000Y-131000000D01*
X192080000Y-86065900D02*
X192080000Y-86067900D01*
X117300000Y-25400000D02*
X130600000Y-38700000D01*
X93240000Y-25400000D02*
X117300000Y-25400000D01*
X90801000Y-27839000D02*
X93240000Y-25400000D01*
X90801000Y-27846000D02*
X90801000Y-27839000D01*
X89746000Y-28901000D02*
X90801000Y-27846000D01*
X89739000Y-28901000D02*
X89746000Y-28901000D01*
X89000000Y-29640000D02*
X89739000Y-28901000D01*
X136300000Y-44400000D02*
X130600000Y-38700000D01*
X136300000Y-54500000D02*
X136300000Y-44400000D01*
X210300000Y-242900000D02*
X210300000Y-234800000D01*
X215620000Y-86125000D02*
X215620000Y-84000000D01*
X208000000Y-86125000D02*
X215620000Y-86125000D01*
X208000000Y-84000000D02*
X208000000Y-86125000D01*
%TO.N,Net-(5Vb1-Pin_1)*%
X174022000Y-69852900D02*
X174614000Y-70444600D01*
X174022000Y-51821800D02*
X174022000Y-69852900D01*
X164900000Y-42700000D02*
X174022000Y-51821800D01*
X174614000Y-120279000D02*
X174614000Y-70444600D01*
X187875000Y-133540000D02*
X174614000Y-120279000D01*
X190000000Y-133540000D02*
X187875000Y-133540000D01*
X210540000Y-81875000D02*
X210540000Y-81978700D01*
X186044000Y-81875000D02*
X210540000Y-81875000D01*
X174614000Y-70444600D02*
X186044000Y-81875000D01*
X210644000Y-81875000D02*
X210540000Y-81978700D01*
X231540000Y-81875000D02*
X210644000Y-81875000D01*
X231540000Y-84000000D02*
X231540000Y-81875000D01*
X210540000Y-81978700D02*
X210540000Y-84000000D01*
%TO.N,Net-(3V3b1-Pin_1)*%
X161113000Y-57707000D02*
X159160000Y-59660000D01*
X161113000Y-50487000D02*
X161113000Y-57707000D01*
X164900000Y-46700000D02*
X161113000Y-50487000D01*
%TO.N,Net-(3V3a1-Pin_1)*%
X100432000Y-90503100D02*
X102252000Y-90503100D01*
X100368000Y-90567500D02*
X100432000Y-90503100D01*
X98242500Y-90567500D02*
X100368000Y-90567500D01*
X136300000Y-59580000D02*
X136072000Y-59351600D01*
X134072000Y-50172000D02*
X130600000Y-46700000D01*
X134072000Y-57352000D02*
X134072000Y-50172000D01*
X136072000Y-59351600D02*
X134072000Y-57352000D01*
X141700000Y-54202600D02*
X141700000Y-24000000D01*
X136551000Y-59351600D02*
X141700000Y-54202600D01*
X136072000Y-59351600D02*
X136551000Y-59351600D01*
%TD*%
M02*
